<svg width="198" height="218" viewBox="0 0 198 218" fill="none" xmlns="http://www.w3.org/2000/svg">
<g filter="url(#filter0_d_171_130)">
<path fill-rule="evenodd" clip-rule="evenodd" d="M86.4667 91.8699C86.3281 92.1602 85.9222 95.0949 87.5161 95.0949C87.7945 95.0956 88.0639 94.9872 88.2748 94.7898C88.4857 94.5924 88.624 94.3191 88.6645 94.0199C89.0011 90.7304 87.0211 90.7412 86.4667 91.8699ZM100.822 91.8269C100.911 92.9664 101.03 93.9769 102.079 93.9769C102.357 93.9775 102.627 93.8692 102.838 93.6718C103.049 93.4744 103.187 93.2011 103.227 92.9019C103.249 92.2102 103.179 91.5188 103.019 90.8487C102.445 89.6984 100.673 89.9779 100.822 91.8269ZM93.8917 102.211C94.1986 102.211 96.8617 102.072 97.4854 101.545C97.6735 101.394 97.6537 101.104 97.6537 100.835C97.5943 97.7861 97.3229 94.7459 96.8419 91.7409C96.8419 91.5797 96.7132 91.5474 96.634 91.5689C96.5548 91.5904 96.5152 91.7409 96.5251 91.9989C96.5251 92.8804 96.4558 93.1814 96.7429 98.1157C96.931 101.341 96.8518 100.438 96.9112 100.975C95.9828 101.345 95.0296 101.636 94.06 101.846C93.4165 101.996 93.8719 102.211 93.8917 102.211ZM97.0201 109.65C96.2855 110.078 95.4756 110.331 94.6441 110.392C94.6021 110.392 94.5618 110.41 94.5321 110.443C94.5024 110.475 94.4857 110.519 94.4857 110.564C94.4857 110.61 94.5024 110.654 94.5321 110.686C94.5618 110.718 94.6021 110.736 94.6441 110.736C95.1092 110.918 95.606 110.983 96.0977 110.927C96.5893 110.872 97.063 110.696 97.4835 110.414C97.904 110.132 98.2606 109.751 98.5266 109.298C98.7926 108.846 98.9612 108.334 99.0199 107.801C99.0251 107.78 99.0262 107.757 99.0233 107.734C99.0204 107.712 99.0135 107.69 99.0029 107.671C98.9923 107.652 98.9784 107.635 98.9617 107.621C98.9451 107.607 98.9262 107.597 98.906 107.592C98.8859 107.586 98.8649 107.585 98.8443 107.588C98.8237 107.591 98.8038 107.599 98.7859 107.61C98.768 107.622 98.7523 107.637 98.7398 107.655C98.7273 107.673 98.7182 107.694 98.713 107.715C98.3121 108.508 97.7288 109.175 97.0201 109.65ZM52.6483 26.7464C55.1926 35.9807 64.1917 35.5292 65.2411 36.2172C65.2411 36.3247 67.3003 44.9354 68.1319 46.1179C68.5972 46.7737 69.7159 46.5157 70.4584 46.3652C72.2008 45.9889 74.2204 45.8707 75.6955 44.5914C76.0717 44.2582 75.8539 42.9037 75.7549 42.4414C75.4398 40.5085 75.0031 38.6013 74.4481 36.7332C74.2297 36.1696 74.0446 35.5915 73.8937 35.0024C74.5768 34.3453 75.3199 33.7654 76.1113 33.2717C77.4175 32.3054 78.5795 31.1271 79.5565 29.7779C81.4468 26.7709 82.3013 23.1369 81.97 19.5139C81.6387 15.8909 80.1428 12.5104 77.7448 9.96568C70.4089 2.15043 57.1429 4.69818 52.8364 14.5559C51.3613 17.9744 51.6484 23.1559 52.6483 26.7464ZM75.2401 44.0754C73.9234 45.2257 71.983 45.3762 70.2901 45.7524C69.8347 45.8599 68.7556 46.1502 68.4685 45.7524C67.9083 44.8744 67.5053 43.8898 67.2805 42.8499C69.8449 42.4575 72.3531 41.7134 74.7451 40.6354C75.0687 41.7485 75.2355 42.9082 75.2401 44.0754ZM74.6362 40.1947C72.1065 40.7066 69.6223 41.4547 67.2112 42.4307C66.9555 41.183 66.6248 39.9549 66.2212 38.7542C68.779 38.4633 71.2875 37.7904 73.6759 36.7547C74.0753 37.891 74.406 39.0545 74.6659 40.2377L74.6362 40.1947ZM53.4601 14.8892C57.6082 5.57968 70.2901 3.22543 77.2201 10.5892C79.4725 12.9881 80.8815 16.1667 81.2034 19.5748C81.5252 22.9828 80.7395 26.4058 78.9823 29.2512C77.2696 31.8742 73.8046 33.6802 73.27 34.6262C73.0819 34.9594 73.4284 35.8087 73.6462 36.4107C72.5176 36.6472 71.2801 36.9374 70.1713 37.2062C69.8743 35.7334 68.4883 29.7887 67.9735 28.3912C67.7755 27.8322 67.5973 27.8752 67.0726 28.0364C64.1818 28.0364 61.0039 27.2409 59.9842 24.2847C59.861 23.9381 59.7746 23.5775 59.7268 23.2097C59.5882 21.6617 60.7168 19.8557 61.9642 19.9847C61.786 21.1672 61.9642 23.4247 62.8948 24.1019C63.8254 24.7792 64.8748 23.7042 64.8748 22.7367C64.822 22.039 64.6131 21.3659 64.2663 20.7757C63.9196 20.1856 63.4453 19.6963 62.8849 19.3504C63.0405 18.9667 63.2711 18.6242 63.5608 18.3469C63.8504 18.0695 64.1921 17.8639 64.5623 17.7443C64.9324 17.6246 65.322 17.5938 65.7042 17.654C66.0864 17.7141 66.452 17.8638 66.7756 18.0927C65.9935 19.7482 66.7756 23.5429 68.1616 22.6507C69.5476 21.7584 69.0922 19.5654 68.2309 18.3507C67.8151 17.7594 67.726 17.9207 67.9339 17.7487C69.5476 16.4694 71.3791 17.9529 72.1513 19.8987C73.2601 22.5754 70.8841 25.8757 69.3793 26.8754C69.3425 26.8997 69.3161 26.9388 69.3059 26.9841C69.2957 27.0295 69.3025 27.0774 69.3248 27.1173C69.3471 27.1572 69.3831 27.1859 69.4249 27.197C69.4667 27.208 69.5108 27.2007 69.5476 27.1764C71.389 26.0047 73.7155 22.5539 72.6562 19.6514C71.5969 16.7489 68.9338 15.6309 67.2508 17.3617C66.827 17.0459 66.3434 16.8375 65.8356 16.7516C65.3277 16.6658 64.8087 16.7048 64.3166 16.8657C63.8245 17.0266 63.3719 17.3054 62.9922 17.6815C62.6125 18.0576 62.3153 18.5213 62.1226 19.0387C60.2812 18.7807 58.7269 21.1134 58.9348 23.2312C59.0466 24.1672 59.3724 25.0579 59.8826 25.8221C60.3927 26.5864 61.0709 27.1998 61.8553 27.6064C62.7859 28.0902 66.0925 28.9717 67.3993 28.5632C67.8547 29.6382 69.508 35.9484 69.805 37.2707C65.4094 38.3457 66.3004 38.8509 66.0826 38.1522C65.8252 37.2814 65.6668 36.0022 65.449 35.9162C59.9842 34.5724 55.054 33.5834 53.2126 26.5422C52.3117 23.1344 52.0741 18.0819 53.4601 14.8892ZM62.6473 20.1997C63.0224 20.4887 63.3359 20.862 63.5665 21.2941C63.7971 21.7263 63.9394 22.2073 63.9838 22.7044C63.9838 22.9947 63.3799 23.7794 62.9938 22.9194C62.6982 22.0511 62.5931 21.1198 62.6869 20.1997H62.6473ZM67.3201 18.5549C68.1121 19.3934 68.6071 21.3499 67.7458 21.9197C67.4472 21.4293 67.254 20.8723 67.1803 20.2899C67.1066 19.7075 67.1544 19.1146 67.3201 18.5549ZM37.6201 59.5877C41.6494 58.2224 46.5301 59.4049 48.4111 64.2424C51.6682 72.4339 43.0552 76.6049 43.1443 77.0349C43.3423 78.1099 43.6987 79.9912 43.8472 81.0769C43.859 81.1682 43.9037 81.2506 43.9715 81.306C44.0392 81.3614 44.1245 81.3854 44.2085 81.3726C44.2925 81.3597 44.3684 81.3112 44.4195 81.2376C44.4705 81.164 44.4926 81.0714 44.4808 80.9802C44.362 79.9052 44.2333 78.3572 44.0947 77.2392C45.4944 76.6295 46.7896 75.7682 47.926 74.6914C54.9154 65.7367 47.1142 54.4384 37.1449 57.9752C35.5663 58.475 34.1701 59.496 33.1501 60.8964C32.13 62.2968 31.5367 64.0073 31.4524 65.7904C31.1356 70.0259 34.2442 73.6809 39.2635 73.2079C39.3391 73.1935 39.4077 73.1505 39.457 73.0866C39.5064 73.0227 39.5335 72.942 39.5335 72.8586C39.5335 72.7751 39.5064 72.6944 39.457 72.6305C39.4077 72.5666 39.3391 72.5236 39.2635 72.5092C34.8085 72.7564 32.4226 69.2842 32.8483 65.9517C32.9469 64.4877 33.4576 63.0919 34.3111 61.9536C35.1646 60.8153 36.3198 59.9893 37.6201 59.5877ZM111.563 31.5409C111.647 31.5652 111.737 31.5522 111.812 31.5048C111.887 31.4574 111.942 31.3795 111.964 31.2883C111.986 31.1971 111.974 31.0999 111.931 31.0183C111.887 30.9366 111.815 30.8772 111.731 30.8529C107.445 29.5414 106.207 25.4242 107.593 22.4034C108.133 21.0543 109.042 19.9181 110.197 19.1489C111.351 18.3797 112.696 18.0147 114.048 18.1034C121.493 18.3077 124.76 25.7467 121.968 31.0572C120.117 34.6907 117.642 35.6689 114.474 36.1204C114.374 36.1357 114.281 36.1859 114.21 36.2635C114.138 36.3411 114.092 36.4418 114.078 36.5504C113.969 37.5394 113.731 39.4852 113.553 40.6139C113.536 40.7037 113.552 40.7972 113.599 40.8738C113.645 40.9504 113.718 41.0039 113.801 41.0224C113.883 41.041 113.969 41.0231 114.04 40.9727C114.11 40.9223 114.16 40.8435 114.177 40.7537C114.404 39.5927 114.711 38.2274 114.919 37.0772C116.423 36.9893 117.903 36.6259 119.295 36.0022C122.651 33.8522 124.691 30.4552 124.423 26.1552C123.8 16.0609 110.237 12.4489 106.336 21.8552C104.821 25.6822 106.663 30.3369 111.563 31.5409ZM166.568 81.9799C166.454 79.9873 165.8 78.0758 164.687 76.4867C163.616 75.1785 162.31 74.1222 160.849 73.3827C159.388 72.6432 157.804 72.2361 156.192 72.1867C154.552 72.1041 152.929 72.5771 151.548 73.54C150.166 74.5029 149.094 75.9083 148.48 77.5617C146.926 81.4639 148.797 86.0112 153.678 87.3012C153.721 87.3224 153.769 87.3331 153.816 87.3324C153.864 87.3317 153.911 87.3197 153.954 87.2972C153.997 87.2747 154.035 87.2422 154.065 87.2021C154.095 87.162 154.117 87.1152 154.129 87.065C154.14 87.0148 154.142 86.9624 154.133 86.9115C154.124 86.8607 154.105 86.8125 154.077 86.7705C154.049 86.7284 154.013 86.6935 153.972 86.6682C153.93 86.6429 153.884 86.6278 153.836 86.6239C149.579 85.2264 148.312 81.2489 149.708 78.1744C150.248 76.8253 151.157 75.6891 152.311 74.9199C153.466 74.1507 154.81 73.7857 156.163 73.8744C157.536 73.9158 158.887 74.2592 160.134 74.8837C161.381 75.5083 162.499 76.401 163.419 77.5079C164.347 78.8221 164.898 80.4035 165.003 82.0552C165.706 91.5367 156.301 91.5689 156.212 92.3214C156.093 93.3964 155.876 95.2884 155.687 96.3849C155.67 96.4747 155.687 96.5682 155.733 96.6448C155.78 96.7214 155.852 96.7749 155.935 96.7934C156.018 96.812 156.104 96.7941 156.174 96.7437C156.245 96.6932 156.294 96.6145 156.311 96.5247C156.549 95.3744 156.846 93.9984 157.054 92.8482C158.56 92.7563 160.042 92.393 161.439 91.7732C164.746 89.6662 166.835 86.3229 166.568 81.9799ZM48.2527 89.2254C48.6784 87.3119 47.4013 85.3017 46.1341 85.4629C45.3122 85.3664 44.4846 85.3413 43.6591 85.3877C41.5108 85.9467 40.501 88.9997 42.5206 90.4939C44.8372 92.1709 47.8369 91.0099 48.2527 89.2254ZM46.7182 89.0104C46.3666 89.329 45.936 89.5272 45.4807 89.5802C42.7879 89.9887 42.2137 87.4302 44.0254 86.5917L46.1539 86.1617C47.0746 86.2477 47.2825 88.3869 46.7182 88.9567V89.0104ZM112.731 44.7204C110.425 43.8067 107.93 46.6339 109.563 49.0204C111.197 51.4069 114.434 51.4069 115.365 49.8159C116.295 48.2249 115.731 45.8169 114.484 45.5159C114.375 45.4622 113.513 45.0322 112.731 44.7204ZM113.979 49.0204C113.536 49.1841 113.062 49.2206 112.602 49.1264C112.142 49.0322 111.713 48.8106 111.355 48.4829C111.063 48.2548 110.822 47.9569 110.652 47.6122C110.365 46.7414 111.395 45.8492 112.147 45.7954L114.286 46.1287C115.117 46.6124 114.701 48.7194 113.979 49.0527V49.0204ZM156.588 101.351C156.39 101.255 155.371 100.792 154.846 100.577C152.529 99.6637 150.044 102.491 151.678 104.877C153.311 107.264 156.539 107.264 157.479 105.673C158.42 104.082 157.846 101.652 156.588 101.351ZM156.083 104.91C155.64 105.072 155.166 105.108 154.707 105.014C154.247 104.92 153.818 104.699 153.46 104.372C153.17 104.137 152.93 103.836 152.757 103.491C152.48 102.631 153.5 101.738 154.252 101.685L156.39 102.018C157.222 102.469 156.806 104.566 156.083 104.91Z" fill="black"/>
<path fill-rule="evenodd" clip-rule="evenodd" d="M148.5 160.648C146.52 150.07 138.818 133.773 129.571 129.613L127.71 125.388C127.697 125.358 127.678 125.331 127.654 125.309C127.63 125.287 127.602 125.271 127.572 125.262C127.542 125.252 127.51 125.25 127.48 125.256C127.449 125.261 127.419 125.273 127.393 125.292L125.413 126.678C124.784 122.115 122.864 117.878 119.919 114.552C121.978 111.102 125.275 110.048 128.68 109.887C131.502 109.758 133.581 109.575 135.214 106.952C138.452 101.771 137.689 96.7182 133.888 91.9022C128.096 84.5707 125.819 86.7637 122.998 82.711C117.632 75.1 116.414 63.8447 108.514 57.986C98.4159 50.5577 92.9709 56.5455 90.8523 58.3945C87.7536 56.352 80.8434 57.0615 77.8734 59.8242C75.3489 62.1677 72.0027 65.1992 70.7058 68.5855C67.9437 75.7342 68.2407 84.1945 64.2015 90.6767C63.2115 92.2892 61.5186 93.375 60.3207 94.9015C58.6765 97.14 57.2778 99.5788 56.1528 102.168C54.6876 105.178 53.5689 108.522 54.9054 111.639C56.6973 115.81 60.7068 119.788 64.9836 119.487C67.4586 119.304 70.7355 117.691 73.062 118.756C74.448 119.379 74.9826 120.83 76.032 122.045C78.408 124.915 83.952 125.786 87.021 123.797C83.6451 128.463 78.4971 128.302 69.5178 133.677C55.737 141.911 50.7078 151.264 49.2327 160.842C48.6684 163.822 48.252 166.833 47.9853 169.861C47.1339 185.481 51.4998 205.282 65.6568 208.561C69.5376 209.464 73.9827 210.045 77.8239 209.002C85.1004 207.035 93.7827 201.713 100.158 197.392C103.128 195.382 114.117 187.33 119.226 186.276C119.533 189.145 120.199 191.956 121.206 194.629C125.294 203.756 131.838 209.152 141.006 206.809C146.946 205.293 148.639 198.424 148.797 191.845C151.777 184.9 149.411 165.701 148.5 160.648ZM114.246 110.317C116.008 110.672 117.216 112.467 118.523 113.929C121.978 117.681 124.354 121.701 125.067 126.829C122.206 128.807 120.344 130.054 120.305 130.118C120.265 130.183 118.889 126.377 118.058 125.915C116.813 125.244 115.685 124.346 114.721 123.26C113.979 122.368 113.068 120.798 113.187 119.616C113.713 119.312 114.287 119.118 114.88 119.046V118.379C111.821 118.476 110.771 121.508 110.494 122.185C110.296 122.669 110.019 123.152 109.385 123.077C108.752 123.002 108.524 122.206 108.761 121.497C108.999 120.787 109.573 117.67 113.622 116.993C113.673 116.985 113.722 116.966 113.766 116.938C113.81 116.91 113.849 116.873 113.879 116.828C113.91 116.784 113.933 116.733 113.945 116.679C113.958 116.625 113.961 116.569 113.954 116.514C113.947 116.459 113.93 116.406 113.904 116.358C113.878 116.311 113.843 116.269 113.802 116.235C113.761 116.202 113.715 116.177 113.665 116.164C113.616 116.15 113.564 116.146 113.513 116.154C112.666 116.271 111.845 116.552 111.088 116.982C110.408 117.343 109.804 117.853 109.315 118.48C108.826 119.107 108.462 119.838 108.247 120.626C107.771 122.099 106.108 121.443 106.504 120.175C106.903 118.941 107.496 117.791 108.257 116.778C109.101 115.903 110.116 115.246 111.227 114.853C112.098 114.466 112.84 114.649 113.038 114.337C113.236 114.026 112.771 112.983 112.533 112.671C111.256 111.016 107.583 112.445 106.178 110.596C105.277 109.382 107.168 109.339 107.93 109.231C110.068 108.973 112.098 109.876 114.246 110.317ZM117.879 136.955C115.049 137.957 112.162 138.758 109.237 139.353C110.227 133.236 110.9 127.99 110.801 126.087C113.108 126.571 115.751 126.915 118.642 127.431C119.424 128.839 119.849 130.022 120.038 130.355L118.117 131.677C118.018 131.817 118.038 131.236 117.879 136.955ZM107.128 168.012C107.566 170.076 107.877 172.17 108.059 174.279C104 174 100.901 174.054 99.3762 173.989C99.4356 170.968 99.4653 170.033 99.5148 169.399C102.013 168.711 104.56 168.248 107.128 168.012ZM91.5552 141.535C97.1715 141.578 102.78 141.082 108.316 140.051C106.554 150.371 103.871 162.777 102.604 165.26C99.693 156.639 99.99 156.606 91.5552 141.535ZM103.435 165.12C105.039 161.218 107.474 149.576 109.098 139.879C112.053 139.278 114.967 138.459 117.82 137.428C117.513 149.038 117.424 163.529 118.067 175.172C116.186 174.989 113.454 174.731 110.801 174.505C110.633 172.764 109.969 166.701 109.405 165.11C109.256 164.68 109.078 164.508 108.415 164.486C106.759 164.565 105.111 164.777 103.485 165.12H103.435ZM106.97 124.109C105.967 123.473 105.166 122.521 104.673 121.379C105.131 121.589 105.609 121.744 106.098 121.841C106.284 122.068 106.523 122.235 106.79 122.324C107.058 122.413 107.342 122.421 107.613 122.346C108.059 122.196 107.771 122.131 108.009 122.808C108.1 123.081 108.254 123.324 108.456 123.515C108.657 123.705 108.9 123.837 109.162 123.897C109.423 123.957 109.695 123.944 109.95 123.859C110.206 123.774 110.437 123.62 110.623 123.41C111.009 123.034 111.038 122.583 111.504 121.615C111.959 121.518 112.405 121.389 112.84 121.25C114.018 124.604 117.711 126.227 117.968 126.474C113.622 125.775 109.771 125.335 107.019 124.109H106.97ZM87.9912 122.819C90.3672 119.831 89.8821 117.691 87.4368 115.574C82.4868 111.36 83.1006 112.488 81.0216 107.78C78.5763 100.137 80.685 88.0967 82.4967 80.26C82.9917 78.11 86.3676 75.8095 88.8228 76.1535C92.2284 76.6265 90.8028 78.5722 93.7134 79.6795C94.2187 79.8399 94.7414 79.9266 95.2677 79.9375C95.2989 79.948 95.3317 79.9519 95.3643 79.9487C95.3969 79.9455 95.4285 79.9354 95.4575 79.9189C95.4864 79.9024 95.5121 79.8799 95.5331 79.8527C95.554 79.8254 95.5698 79.794 95.5796 79.7601C95.5893 79.7262 95.5928 79.6906 95.5899 79.6552C95.587 79.6199 95.5777 79.5855 95.5625 79.554C95.5473 79.5226 95.5266 79.4947 95.5015 79.472C95.4764 79.4492 95.4474 79.432 95.4162 79.4215C93.8722 78.4158 92.4489 77.2062 91.179 75.8202C91.7829 73.1435 93.3174 71.6815 96.1983 71.66C98.1783 71.66 99.7425 73.294 101.148 74.6915C102.851 76.3792 104.683 80.9372 104.544 83.442C104.231 86.3443 104.857 89.2746 106.316 91.7302C107.306 93.6007 109.167 95.224 110.276 96.8042C110.89 97.6857 110.534 101.62 110.177 103.351C109.712 104.867 108.722 107.758 108.494 108.414C104.356 108.575 104.534 110.983 106.514 112.015C104.663 114.423 100.139 117.1 103.376 120.476C104.069 122.056 105.178 124.217 106.663 124.872C107.716 125.336 108.807 125.696 109.92 125.947C110.138 127.614 109.425 133.128 108.336 139.546C102.654 140.573 96.8988 141.044 91.1394 140.954C87.5655 134.601 84.0114 128.581 83.1105 127.614C85.1107 126.51 86.8103 124.857 88.0407 122.819H87.9912ZM81.2394 128.484C83.2194 127.678 82.2294 127.818 82.7046 128.216C83.1798 128.613 86.4468 134.236 90.2385 140.911C85.7439 140.836 80.685 140.471 78.7743 140.234C79.3485 139.74 77.8635 131.247 77.2893 130.172C78.7248 129.549 80.0514 129 81.2889 128.484H81.2394ZM76.5567 130.505C77.3707 133.671 77.924 136.909 78.21 140.18C73.9382 139.516 69.7478 138.337 65.7162 136.665C69.171 134.266 72.8153 132.204 76.6062 130.505H76.5567ZM77.4576 208.228C73.7451 209.238 69.399 208.647 65.6568 207.776C59.8059 206.411 55.7568 202.165 53.1234 196.725C48.9357 188.125 47.6883 175.344 48.9654 166.389C49.2228 164.594 49.5495 162.82 49.8267 161.014C51.4008 150.769 57.1329 143.051 65.1321 137.213C72.9828 140.342 78.2595 141.438 90.5949 141.513C99.1386 156.563 99.3267 158.068 101.772 165.432C101.02 165.583 97.5348 166.346 96.9408 166.873C96.7032 167.077 96.7032 167.485 96.9408 173.946C87.9318 174.14 79.1208 175.666 70.8345 181.471C69.8445 173.72 70.983 171.377 73.2897 166.937C76.9131 159.96 76.2597 158.67 73.9728 154.704C73.5958 154.168 73.3261 153.553 73.1808 152.898C73.1808 152.64 72.1908 152.285 73.5867 154.951C75.5667 158.864 76.1013 159.788 72.5967 166.507C70.0326 171.431 68.9832 173.957 70.5276 181.697C69.8346 182.202 69.0426 182.772 68.2803 183.438C67.1157 184.329 66.0228 185.325 65.0133 186.416C64.9936 186.458 64.9899 186.506 65.0029 186.55C65.0159 186.594 65.0446 186.631 65.0826 186.653C65.1207 186.674 65.165 186.678 65.2059 186.664C65.2467 186.65 65.2807 186.619 65.3004 186.577C65.6073 185.986 70.7256 182.277 72.1017 181.514C79.7841 177.311 88.2783 173.677 102.188 174.677C102.013 181.068 102.622 187.456 104 193.672C96.8517 198.574 86.6943 205.734 77.5071 208.228H77.4576ZM104.613 193.242C103.341 187.18 102.779 180.968 102.94 174.752C117.968 175.827 113.256 175.483 118.107 175.827C118.285 178.966 118.553 182.374 118.949 185.502C115.068 186.287 108.088 190.91 104.663 193.242H104.613ZM140.59 206.035C131.848 208.282 125.641 203.1 121.701 194.328C117.345 184.653 118.067 142.631 118.315 131.924L127.364 125.84C139.58 154.489 141.045 157.198 143.788 166.69C147.332 178.784 152.005 203.175 140.639 206.035H140.59ZM148.569 189.587C148.34 183.831 147.523 178.12 146.134 172.559C142.996 159.305 139.6 152.661 130.205 131.215L130.482 131.054C138.778 135.87 145.807 150.823 147.649 160.81C148.658 166.023 150.589 183.073 148.619 189.587H148.569Z" fill="black"/>
</g>
<defs>
<filter id="filter0_d_171_130" x="-4" y="0" width="206" height="223" filterUnits="userSpaceOnUse" color-interpolation-filters="sRGB">
<feFlood flood-opacity="0" result="BackgroundImageFix"/>
<feColorMatrix in="SourceAlpha" type="matrix" values="0 0 0 0 0 0 0 0 0 0 0 0 0 0 0 0 0 0 127 0" result="hardAlpha"/>
<feOffset dy="4"/>
<feGaussianBlur stdDeviation="2"/>
<feComposite in2="hardAlpha" operator="out"/>
<feColorMatrix type="matrix" values="0 0 0 0 0 0 0 0 0 0 0 0 0 0 0 0 0 0 0.25 0"/>
<feBlend mode="normal" in2="BackgroundImageFix" result="effect1_dropShadow_171_130"/>
<feBlend mode="normal" in="SourceGraphic" in2="effect1_dropShadow_171_130" result="shape"/>
</filter>
</defs>
</svg>
