<svg width="48" height="48" viewBox="0 0 48 48" fill="none" xmlns="http://www.w3.org/2000/svg">
<g filter="url(#filter0_d_304_187)">
<path d="M42 38V12C42 12 40 8 33 8C26 8 24 14 24 14C24 14 22 8 15 8C8 8 6 12 6 12V38C6 38 8 34 15 34C22 34 24 38 24 38C24 38 26 34 33 34C40 34 42 38 42 38Z" fill="#7E869E" fill-opacity="0.25"/>
<path d="M24 13V37" stroke="#222222" stroke-linecap="round"/>
<path d="M41 13V37" stroke="#222222" stroke-linecap="round"/>
<path d="M7 13V37" stroke="#222222" stroke-linecap="round"/>
</g>
<defs>
<filter id="filter0_d_304_187" x="-4" y="0" width="56" height="56" filterUnits="userSpaceOnUse" color-interpolation-filters="sRGB">
<feFlood flood-opacity="0" result="BackgroundImageFix"/>
<feColorMatrix in="SourceAlpha" type="matrix" values="0 0 0 0 0 0 0 0 0 0 0 0 0 0 0 0 0 0 127 0" result="hardAlpha"/>
<feOffset dy="4"/>
<feGaussianBlur stdDeviation="2"/>
<feComposite in2="hardAlpha" operator="out"/>
<feColorMatrix type="matrix" values="0 0 0 0 0 0 0 0 0 0 0 0 0 0 0 0 0 0 0.25 0"/>
<feBlend mode="normal" in2="BackgroundImageFix" result="effect1_dropShadow_304_187"/>
<feBlend mode="normal" in="SourceGraphic" in2="effect1_dropShadow_304_187" result="shape"/>
</filter>
</defs>
</svg>
