<svg width="175" height="194" viewBox="0 0 175 194" fill="none" xmlns="http://www.w3.org/2000/svg">
<g filter="url(#filter0_d_171_86)">
<path d="M102.761 125.272C102.766 125.253 102.768 125.233 102.765 125.214C102.763 125.195 102.757 125.177 102.747 125.16C102.738 125.143 102.725 125.128 102.709 125.116C102.694 125.104 102.676 125.096 102.658 125.09C102.639 125.085 102.619 125.084 102.6 125.086C102.581 125.089 102.562 125.095 102.545 125.104C102.528 125.114 102.513 125.127 102.501 125.142C102.489 125.157 102.481 125.175 102.475 125.193C101.942 127.331 102.111 129.581 102.958 131.616C103.017 131.744 103.214 131.616 103.185 131.518C102.522 129.504 102.377 127.356 102.761 125.272ZM109.39 124.978C109.518 125.095 109.745 124.978 109.646 124.782C109.121 124.113 108.409 123.613 107.6 123.343C106.791 123.074 105.92 123.046 105.095 123.264C104.977 123.264 105.046 123.509 105.164 123.489C105.936 123.404 106.717 123.494 107.449 123.752C108.181 124.01 108.844 124.429 109.39 124.978Z" fill="black"/>
<path d="M104.495 122.206C104.067 121.795 103.511 121.54 102.919 121.482C103.049 119.443 103.467 117.432 104.16 115.509C104.239 115.352 103.953 115.225 103.874 115.382C103.026 117.291 102.593 119.356 102.603 121.443C102.603 121.443 101.096 121.55 100.634 122.108C100.447 122.36 100.357 122.668 100.377 122.98C99.0242 122.307 97.5134 122.009 96.0042 122.118C95.9624 122.118 95.9223 122.135 95.8927 122.164C95.8632 122.194 95.8466 122.233 95.8466 122.275C95.8466 122.316 95.8632 122.356 95.8927 122.386C95.9223 122.415 95.9624 122.432 96.0042 122.432C97.5214 122.46 99.0204 122.766 100.427 123.332C100.535 123.751 100.76 124.13 101.077 124.426C101.394 124.721 101.789 124.921 102.216 125.001C102.643 125.081 103.084 125.038 103.488 124.878C103.891 124.718 104.241 124.447 104.495 124.096C104.495 124.096 105.224 122.941 104.495 122.206ZM100.929 122.392C101.136 121.913 101.835 121.795 102.357 121.785C102.977 121.76 103.589 121.935 104.101 122.285C104.327 122.461 104.603 122.696 104.554 122.98C104.032 125.908 100.023 124.566 100.929 122.392ZM15.591 124.86C15.3808 126.321 15.614 127.81 16.2608 129.139C16.3396 129.256 16.5464 129.139 16.4972 129.041C15.9605 127.712 15.7609 126.273 15.916 124.85C16.0047 124.85 18.2701 124.693 18.2603 122.608C19.3849 122.303 20.566 122.266 21.7077 122.5C21.7396 122.507 21.7731 122.502 21.8012 122.485C21.8293 122.468 21.8499 122.442 21.8587 122.41C21.8676 122.379 21.864 122.345 21.8487 122.316C21.8334 122.288 21.8076 122.266 21.7766 122.255C20.6149 121.888 19.3626 121.919 18.2209 122.343C18.1322 122.108 17.4132 121.12 15.4531 121.364C15.0454 120.573 14.9405 119.661 15.1579 118.799C15.3753 117.936 15.9001 117.181 16.635 116.674C16.7828 116.557 16.635 116.332 16.4972 116.429C15.6748 116.934 15.0746 117.729 14.8171 118.655C14.5595 119.581 14.6636 120.57 15.1083 121.423C13.5521 121.795 13.4142 122.559 13.3354 122.823C12.0102 122.744 10.6839 122.961 9.4546 123.46C9.42456 123.478 9.40301 123.507 9.39469 123.541C9.38638 123.575 9.39199 123.611 9.41027 123.641C9.42856 123.671 9.45803 123.692 9.4922 123.7C9.52638 123.709 9.56245 123.703 9.59249 123.685C10.7949 123.362 12.0314 123.182 13.2763 123.146C13.3057 123.414 13.3903 123.673 13.5248 123.906C13.6593 124.14 13.8408 124.344 14.058 124.504C14.2752 124.665 14.5235 124.78 14.7872 124.841C15.051 124.902 15.3246 124.909 15.591 124.86ZM13.8968 122.5C14.8818 121.266 17.9943 121.355 17.9943 122.725C17.8958 124.458 15.4334 124.889 14.1923 124.125C13.9397 123.947 13.764 123.681 13.7001 123.38C13.6362 123.079 13.6889 122.764 13.8476 122.5H13.8968ZM71.0942 38.5291C71.0914 38.5035 71.0829 38.4788 71.0695 38.4568C71.056 38.4347 71.0378 38.4159 71.0163 38.4016C70.9947 38.3874 70.9702 38.3779 70.9446 38.3741C70.919 38.3702 70.8928 38.372 70.8679 38.3792C70.8431 38.3865 70.8201 38.3991 70.8007 38.4162C70.7812 38.4332 70.7658 38.4543 70.7554 38.4779C70.7451 38.5015 70.7401 38.5271 70.7407 38.5529C70.7414 38.5786 70.7477 38.6039 70.7593 38.627C70.8184 38.8032 71.1336 39.6747 71.1631 39.7334C71.1862 39.7614 71.2178 39.7811 71.2532 39.7896C71.2886 39.7982 71.3258 39.795 71.3592 39.7806C71.3926 39.7662 71.4204 39.7414 71.4383 39.7099C71.4563 39.6784 71.4634 39.642 71.4586 39.6061C71.4488 39.5474 71.1631 38.7053 71.0942 38.5291ZM66.3663 40.1446C66.3573 40.1086 66.3364 40.0765 66.307 40.0536C66.2775 40.0307 66.2412 40.0183 66.2038 40.0183C66.1664 40.0183 66.1301 40.0307 66.1006 40.0536C66.0712 40.0765 66.0503 40.1086 66.0413 40.1446C65.9968 40.3727 65.9992 40.6074 66.0483 40.8346C66.0974 41.0617 66.1921 41.2767 66.3269 41.4665C66.3474 41.4798 66.3709 41.4879 66.3954 41.49C66.4198 41.492 66.4443 41.488 66.4668 41.4783C66.4893 41.4686 66.5089 41.4535 66.5241 41.4343C66.5392 41.4152 66.5493 41.3926 66.5535 41.3686C66.4262 40.973 66.363 40.5599 66.3663 40.1446ZM37.5362 77.352C40.1463 77.6065 42.7565 77.8905 45.3667 78.1451C45.4948 78.1451 45.5637 78.0178 45.544 77.9199C43.3574 67.6683 43.8499 66.1702 43.3869 66.1702C40.5672 66.4257 37.7248 66.2574 34.9555 65.6708C34.9282 65.6624 34.899 65.6616 34.8712 65.6685C34.8434 65.6754 34.818 65.6896 34.7977 65.7098C34.7775 65.7299 34.7631 65.7552 34.7562 65.7828C34.7493 65.8104 34.7501 65.8394 34.7585 65.8666C35.8716 69.5188 37.3392 77.2932 37.5362 77.352ZM35.1525 66.0233C37.8103 66.5724 40.534 66.7373 43.2392 66.5129C43.7218 70.2728 44.3719 74.0033 45.1402 77.724L37.5854 76.9309C37.0215 73.2449 36.2087 69.6008 35.1525 66.0233ZM53.2662 73.4354C53.4336 73.4354 53.3844 73.171 53.2662 73.1612C52.3797 73.1612 48.7846 73.0731 47.8784 72.9458C47.7109 72.9458 47.6321 73.1808 47.8094 73.2102C49.6186 73.4397 51.4441 73.515 53.2662 73.4354ZM47.1988 70.0574C47.0215 70.0574 47.0313 70.3119 47.1988 70.3315C49.3225 70.4861 51.4531 70.5286 53.5814 70.4588C53.7488 70.4588 53.6897 70.1944 53.5814 70.1847C53.0199 70.1357 48.2527 70.1357 47.1988 70.0574ZM46.9722 67.6389C48.9842 67.8929 51.0118 68.0042 53.0396 67.9718C53.0735 67.9632 53.1036 67.9436 53.125 67.9161C53.1465 67.8886 53.1582 67.8548 53.1582 67.82C53.1582 67.7852 53.1465 67.7515 53.125 67.724C53.1036 67.6965 53.0735 67.6769 53.0396 67.6683C52.0547 67.6683 47.5041 67.3941 47.0116 67.3843C46.9948 67.3817 46.9776 67.3825 46.9611 67.3865C46.9446 67.3905 46.929 67.3978 46.9153 67.4078C46.9016 67.4178 46.89 67.4303 46.8812 67.4448C46.8723 67.4593 46.8665 67.4753 46.8639 67.492C46.8613 67.5087 46.862 67.5258 46.8661 67.5422C46.8701 67.5587 46.8774 67.5741 46.8874 67.5878C46.8975 67.6014 46.9102 67.6129 46.9247 67.6217C46.9393 67.6305 46.9554 67.6363 46.9722 67.6389ZM56.2113 74.346C58.8896 74.4669 61.5735 74.3424 64.2289 73.9739C64.2797 73.9695 64.3273 73.9475 64.3633 73.9117C64.3993 73.8758 64.4215 73.8286 64.4259 73.7781C64.1797 67.4822 64.9086 66.6402 64.2979 66.7283C61.6187 67.1199 58.8985 67.1495 56.2113 66.8164C56.1423 66.8164 55.9355 66.9143 55.9355 66.9829C55.8665 69.372 55.9355 71.7513 56.0044 74.1404C56.0044 74.1949 56.0262 74.2472 56.065 74.2858C56.1038 74.3243 56.1564 74.346 56.2113 74.346ZM64.1403 67.1493C63.9827 69.2964 63.9432 71.4505 64.0221 73.6019C61.4982 73.9264 58.9514 74.041 56.4083 73.9445C56.3393 71.7023 56.2211 69.4601 56.1817 67.2179C58.8329 67.3812 61.4924 67.3583 64.1403 67.1493ZM48.7452 78.5171C50.9614 78.6542 60.8899 78.5857 61.9635 78.4388C62.1014 78.4388 62.062 78.2038 61.9635 78.2038C60.8702 78.1549 50.9811 78.3213 48.7747 78.3017C48.6073 78.3311 48.6073 78.5073 48.7452 78.5171ZM61.0672 81.9931C61.1011 81.9931 61.1337 81.9797 61.1577 81.9558C61.1817 81.9319 61.1952 81.8996 61.1952 81.8658C61.1952 81.832 61.1817 81.7997 61.1577 81.7758C61.1337 81.7519 61.1011 81.7385 61.0672 81.7385C54.9308 81.7385 39.2205 80.9944 37.5066 80.8475C37.3687 80.8475 37.3687 81.0433 37.5066 81.0629C43.6135 81.6798 59.3435 82.0518 61.0672 81.9931ZM58.3191 86.8007C58.4964 86.8007 58.5456 86.5167 58.3684 86.4873C51.8574 85.6842 45.3077 85.2298 38.7477 85.1263C38.7137 85.1263 38.6812 85.1397 38.6571 85.1636C38.6331 85.1875 38.6196 85.2199 38.6196 85.2536C38.6196 85.2874 38.6331 85.3198 38.6571 85.3436C38.6812 85.3675 38.7137 85.3809 38.7477 85.3809C43.84 85.5767 46.5388 85.6942 58.3191 86.8007ZM56.2211 90.9424C56.2525 90.9424 56.2825 90.93 56.3047 90.908C56.3269 90.886 56.3393 90.8561 56.3393 90.8249C56.3393 90.7938 56.3269 90.7639 56.3047 90.7418C56.2825 90.7198 56.2525 90.7074 56.2211 90.7074C55.1179 90.5899 40.3729 90.2668 39.1121 90.257C38.9742 90.257 38.9742 90.4724 39.1121 90.4724C43.5544 90.6585 54.9899 91.0599 56.2211 90.9424ZM53.1775 96.0144C53.3844 96.0144 53.3745 95.7206 53.1775 95.6913C50.9712 95.4073 42.0769 94.7121 39.8607 94.6534C39.7425 94.6534 39.713 94.8492 39.8607 94.859C42.0178 95.1625 50.9318 95.9556 53.1775 96.0144ZM52.4881 100.323C52.5172 100.315 52.5429 100.297 52.5612 100.274C52.5795 100.25 52.5894 100.22 52.5894 100.19C52.5894 100.16 52.5795 100.131 52.5612 100.107C52.5429 100.083 52.5172 100.066 52.4881 100.058C51.641 99.8134 42.0966 98.9616 41.6534 99.0105C41.6325 99.0105 41.6124 99.0188 41.5976 99.0335C41.5829 99.0482 41.5746 99.0681 41.5746 99.0889C41.5746 99.1096 41.5829 99.1296 41.5976 99.1443C41.6124 99.1589 41.6325 99.1672 41.6534 99.1672C42.0572 99.3043 51.5819 100.391 52.4881 100.323ZM54.1428 104.455C53.6799 104.317 44.1256 103.475 42.0966 103.348C41.9686 103.348 41.9784 103.534 42.0966 103.544C44.0665 103.789 53.5814 104.787 54.1034 104.748C54.1426 104.753 54.1823 104.743 54.2137 104.719C54.2451 104.695 54.2656 104.66 54.2709 104.621C54.2761 104.582 54.2655 104.543 54.2415 104.511C54.2175 104.48 54.182 104.46 54.1428 104.455ZM55.8567 93.8603C56.0734 97.5222 56.2408 101.204 56.5363 104.866C56.5166 104.891 56.5041 104.921 56.5003 104.953C56.4965 104.985 56.5014 105.017 56.5145 105.046C56.5277 105.075 56.5486 105.1 56.575 105.119C56.6014 105.137 56.6323 105.148 56.6643 105.15C59.1071 105.368 61.5603 105.45 64.0122 105.395C64.0363 105.396 64.0605 105.392 64.0831 105.384C64.1058 105.376 64.1265 105.363 64.144 105.347C64.1615 105.33 64.1755 105.31 64.185 105.288C64.1945 105.266 64.1994 105.242 64.1994 105.218L63.638 94.1736C63.6354 94.1234 63.6136 94.076 63.5769 94.0414C63.5402 94.0068 63.4915 93.9875 63.441 93.9875L56.0438 93.6742C56.0189 93.6728 55.9939 93.6766 55.9705 93.6855C55.9472 93.6943 55.926 93.708 55.9083 93.7256C55.8906 93.7431 55.8769 93.7642 55.868 93.7874C55.8591 93.8106 55.8552 93.8355 55.8567 93.8603ZM63.2637 94.3498C63.4508 97.9139 63.6281 101.478 63.8153 105.042C61.4652 105.091 59.1142 105.012 56.7727 104.807C56.6545 101.223 56.4083 97.6397 56.2408 94.0365L63.2637 94.3498ZM16.6252 81.7189C14.557 81.8147 12.5105 82.1801 10.5381 82.8058C10.0751 82.9526 8.47947 83.2464 8.36128 83.8632C8.24308 84.4801 9.02121 84.4605 9.4349 84.4311C11.8957 84.2612 14.3216 83.7572 16.6449 82.9331C16.8713 82.8697 17.0801 82.7558 17.2556 82.6002C17.3428 82.5196 17.4015 82.4131 17.4228 82.2966C17.4441 82.1801 17.4269 82.0599 17.3738 81.9539C17.226 81.7287 16.901 81.7091 16.6252 81.7189Z" fill="black"/>
<path d="M171 51.7084C168.508 45.2461 153.33 4.07322 151.892 0.244785C151.8 0.12168 151.667 0.0349292 151.517 0C148.69 0 131.365 0.401448 129.779 0.518944C129.582 0.518944 114.699 48.6045 113.832 51.7182C113.832 51.8161 113.99 54.215 114.059 54.4206C114.128 54.6262 114.344 54.5871 114.374 54.4206C114.403 54.2542 114.246 52.2273 114.236 52.1294C114.896 52.198 115.566 52.2567 116.206 52.3057C116.022 53.3189 116.093 54.3617 116.413 55.341C116.43 55.3716 116.457 55.3956 116.489 55.4093C116.521 55.423 116.557 55.4256 116.591 55.4166C116.625 55.4076 116.655 55.3875 116.676 55.3596C116.698 55.3317 116.709 55.2976 116.708 55.2627C116.466 54.3032 116.393 53.3095 116.492 52.3252C117.546 52.4232 118.609 52.5015 119.673 52.5798C119.541 53.7426 119.686 54.92 120.097 56.0166C120.113 56.0451 120.139 56.0672 120.169 56.0796C120.2 56.0919 120.234 56.0937 120.265 56.0847C120.297 56.0757 120.325 56.0564 120.344 56.0298C120.364 56.0033 120.374 55.9711 120.372 55.9383C120.082 54.8497 119.953 53.725 119.988 52.5994C121.091 52.6777 122.204 52.7463 123.317 52.805V55.8893C123.33 55.9239 123.352 55.9538 123.382 55.975C123.412 55.9962 123.448 56.0076 123.485 56.0076C123.522 56.0076 123.558 55.9962 123.588 55.975C123.618 55.9538 123.64 55.9239 123.652 55.8893V52.8246L126.775 52.9813C126.775 53.461 126.775 55.762 126.844 55.9187C126.855 55.9487 126.875 55.9745 126.901 55.9928C126.928 56.011 126.959 56.0208 126.991 56.0208C127.024 56.0208 127.055 56.011 127.081 55.9928C127.108 55.9745 127.128 55.9487 127.139 55.9187C127.165 54.9389 127.139 53.9583 127.06 52.9813C128.292 53.0302 129.513 53.0792 130.744 53.1086C130.765 54.0914 130.844 55.0723 130.981 56.046C130.981 56.2124 131.266 56.1635 131.276 56.046C131.266 55.0639 131.2 54.0833 131.079 53.1086C132.389 53.1086 133.699 53.1673 135.019 53.1771C135.019 53.1771 134.901 55.4977 134.93 55.9383C134.93 56.0949 135.196 56.1537 135.216 55.9383C135.285 55.4977 135.364 53.1673 135.344 53.1379H138.575V55.6249C138.586 55.6549 138.606 55.6808 138.632 55.699C138.659 55.7173 138.69 55.7271 138.722 55.7271C138.755 55.7271 138.786 55.7173 138.812 55.699C138.839 55.6808 138.859 55.6549 138.87 55.6249C138.914 54.7965 138.914 53.9664 138.87 53.1379H139.254C139.116 60.0898 138.801 72.897 138.801 74.1013C138.358 74.1013 112.729 74.0328 110.769 74.1013C108.336 68.1481 104.298 61.8523 98.9492 58.4351C94.0107 55.4085 88.3113 53.8334 82.51 53.8919C82.51 53.8919 80.8848 49.2703 80.7174 48.6437C81.1707 47.0227 81.4514 45.3588 81.5546 43.6794C81.865 40.5004 81.9998 37.3069 81.9585 34.1132C81.9585 31.1758 82.0274 28.7182 79.0035 27.3963C78.8991 27.2126 78.8442 27.0052 78.8442 26.7942C78.8442 26.5831 78.8991 26.3757 79.0035 26.192C78.2494 26.2253 77.5167 26.4513 76.876 26.848C76.7266 26.1426 76.3632 25.4998 75.8348 25.006C75.3065 24.5123 74.6385 24.1915 73.9211 24.0868C74.1855 24.2455 74.3979 24.4771 74.5325 24.7534C74.6672 25.0298 74.7182 25.3391 74.6795 25.6437C69.1735 22.3146 67.7847 28.9336 65.076 28.5811C64.424 28.4098 63.8654 27.9915 63.5198 27.4159C63.2647 27.836 63.1381 28.3207 63.1556 28.8111C63.1731 29.3014 63.3339 29.7761 63.6183 30.1771C63.3332 30.0997 63.0668 29.966 62.835 29.7839C62.6031 29.6018 62.4106 29.375 62.269 29.1172C62.1274 28.8594 62.0396 28.5759 62.0108 28.2836C61.982 27.9912 62.0128 27.6961 62.1014 27.4159C61.3713 27.7602 60.7679 28.323 60.3757 29.0253C59.9836 29.7277 59.8224 30.5345 59.9148 31.3325C60.021 31.9586 60.2743 32.551 60.6543 33.0614C61.0343 33.5719 61.5301 33.9859 62.1014 34.2699C61.4027 34.4168 60.6746 34.3272 60.033 34.0153C60.6898 35.0968 61.6868 35.933 62.8697 36.3946C62.9843 39.0151 63.5093 41.6017 64.4259 44.0613C63.9473 45.5687 63.8592 47.1718 64.1698 48.722C64.8396 53.9408 69.7645 55.9579 74.6893 54.2737C74.3249 55.106 73.3596 55.1647 72.5224 55.3508C71.3353 55.6087 70.1645 55.9356 69.0159 56.3299C66.7378 57.242 64.5863 58.4397 62.6136 59.894C43.5642 60.3934 33.9607 59.8059 31.2225 59.6003C33.2614 58.2001 35.4874 55.8599 34.7388 53.5002C34.3476 52.3568 33.7428 51.2971 32.956 50.3768C29.5776 46.2742 24.0026 45.7258 19.4521 43.8851C18.9596 43.6794 14.1726 41.3197 13.6407 39.2929C13.5501 39.0053 13.5506 38.697 13.6422 38.4097C13.7338 38.1225 13.9121 37.8702 14.1529 37.6871C14.3007 37.599 14.2613 37.315 14.0643 37.3346C13.0238 37.4328 12.0346 37.8302 11.2177 38.4783C10.4008 39.1264 9.79155 39.9971 9.46449 40.9839C9.13743 41.9707 9.10671 43.0308 9.37609 44.0347C9.64547 45.0386 10.2033 45.9427 10.9813 46.6364C12.5179 48.1052 14.5568 48.8297 16.3494 49.9068C18.1421 50.9838 19.9347 52.57 19.8461 54.8025C19.7574 57.0349 17.8072 58.8953 15.8274 59.8255C13.6604 60.8046 11.2571 61.1865 9.0409 62.0775C4.94342 63.7322 3.8107 66.9732 4.42138 69.0685C4.74634 70.009 5.40929 70.7971 6.28298 71.2814C8.25292 72.4662 11.1093 72.2605 12.6065 74.2188C12.9828 74.6535 13.1923 75.2066 13.1977 75.7801C13.2031 76.3536 13.0041 76.9104 12.6361 77.3521C11.9269 78.2333 9.0212 79.9859 8.69616 80.2895C8.58782 80.4168 8.76511 80.6028 8.88331 80.4755C10.2568 79.8236 11.7392 79.4287 13.2566 79.3103C15.6599 78.9089 22.3183 76.5002 23.4609 74.4734C23.6849 74.1287 23.7629 73.7101 23.6781 73.3086C23.5932 72.907 23.3524 72.555 23.0078 72.3291C22.5547 72.006 20.8113 72.1822 19.9741 70.9387C18.339 68.53 20.4666 65.808 22.4267 64.3589C24.1195 63.2278 25.9249 62.273 27.8145 61.5096C29.942 67.3844 34.0986 81.6897 34.3941 82.8157C33.6652 82.9136 28.0607 83.7165 27.2728 83.7948C26.4848 83.8731 23.4117 83.0898 22.8896 83.4423C21.7376 82.8924 20.4319 82.7474 19.1861 83.0311C18.9387 82.1411 18.609 81.2758 18.2012 80.4462C11.8776 80.4462 8.06578 82.4828 6.46027 83.7165C6.40118 83.7165 6.46027 83.9319 6.46027 83.9613C7.02171 86.1056 9.73039 95.7109 10.1145 96.7782C10.1145 96.8369 16.7828 99.0302 21.9342 94.301C21.9342 94.301 21.6978 92.8225 21.6584 92.1371C22.5259 92.0553 23.3379 91.6767 23.9559 91.066C24.5738 90.4553 24.9594 89.6503 25.0467 88.7884C28.8806 89.1731 32.6738 89.8873 36.3838 90.9229C36.9255 93.2827 38.856 103.397 39.3387 106.07C38.3712 106.072 37.4221 106.333 36.5906 106.824C36.4823 106.893 12.2125 108.029 9.99633 109.155C8.07316 109.995 6.49332 111.458 5.5147 113.306C4.67236 115.223 4.36609 117.331 4.62822 119.406C5.16011 124.302 8.06578 128.512 10.41 132.732C12.2716 136.1 11.8776 142.259 11.9761 143.65C9.76978 142.484 4.27363 143.15 4.24408 143.17C4.10137 143.299 4.01451 143.479 4.00166 143.67C3.98881 143.862 4.05097 144.051 4.17514 144.198C6.53792 147.207 9.3091 149.876 12.4095 152.129C12.5573 156.29 12.4982 167.384 12.4095 168.774C12.4095 169.421 12.1042 171.888 12.1633 172.476C12.1959 172.943 12.3466 173.394 12.6015 173.787C12.8563 174.181 13.207 174.504 13.621 174.728C15.0098 175.413 14.9901 175.178 43.4066 174.6C43.4066 175.08 43.4657 175.579 43.4854 176.02H45.8198V179.77C45.7508 179.711 45.15 179.427 44.9235 179.516C43.7166 179.99 42.556 180.573 41.4564 181.258C38.2158 183.217 37.7923 184.862 37.7923 184.891C37.7688 185.076 37.8168 185.262 37.9265 185.413C38.0362 185.564 38.1995 185.668 38.3832 185.704C41.3382 186.272 51.3159 185.88 52.3009 185.704C52.8722 185.586 52.9313 185.057 52.9017 184.49C52.8927 184.327 52.8283 184.173 52.7191 184.052C52.6098 183.931 52.4623 183.85 52.3009 183.824C52.8722 182.619 52.0744 181.151 51.3159 180.074C50.5575 178.997 50.8727 176.5 50.8826 176.284C51.8084 176.353 52.7343 176.421 53.67 176.51C53.7197 175.78 53.8317 175.056 54.0049 174.346C59.9397 174.244 65.8617 173.763 71.7344 172.906C71.7344 172.906 72.4633 168.99 72.7194 167.031C74.2363 167.031 86.2135 167.031 90.6853 166.953C90.8134 168.089 91.6112 174.786 91.6703 174.786C95.9746 176.598 101.52 177.019 106.159 176.882C106.346 176.882 115.861 176.304 121.623 175.335C124.352 174.927 127.108 174.724 129.868 174.728C128.41 175.648 122.973 178.801 121.81 179.574C121.771 179.632 121.751 179.7 121.751 179.77C121.751 179.84 121.771 179.908 121.81 179.966C127.149 182.962 135.915 182.678 142.652 182.678C145.46 182.678 149.301 182.864 153.812 180.906C154.797 180.485 156.954 179.437 156.521 178.448C156.452 178.331 146.602 172.994 144.76 171.888C143.854 164.682 143.224 157.632 144.691 149.084C145.115 146.616 147.075 138.93 152.177 128.522C154.965 122.872 154.315 116.42 151.478 112.307C150.99 111.56 150.381 110.899 149.675 110.349C148.645 109.842 147.536 109.511 146.395 109.37C148.237 101.537 149.695 92.9106 149.557 84.8914C149.661 82.4682 149.132 80.0595 148.021 77.9004C146.878 75.9421 144.741 74.3069 142.377 74.493C142.436 68.5496 142.515 54.7339 142.515 53.1281H143.027V55.8404C143.038 55.8726 143.06 55.9005 143.088 55.9203C143.116 55.94 143.15 55.9506 143.184 55.9506C143.219 55.9506 143.253 55.94 143.281 55.9203C143.309 55.9005 143.33 55.8726 143.342 55.8404C143.391 55.6054 143.401 53.5394 143.342 53.1183H146.12C146.129 53.9465 146.185 54.7736 146.287 55.5956C146.295 55.6245 146.312 55.6501 146.336 55.6683C146.36 55.6865 146.39 55.6963 146.42 55.6963C146.45 55.6963 146.48 55.6865 146.504 55.6683C146.528 55.6501 146.545 55.6245 146.553 55.5956C146.539 54.7788 146.467 53.964 146.336 53.1575L149.291 53.0694C149.181 53.9577 149.343 54.8583 149.754 55.6543C149.823 55.7424 150 55.7327 149.991 55.5956C149.73 54.7794 149.614 53.9249 149.646 53.0694L153.487 52.8736C153.487 52.8736 153.418 54.9885 153.487 55.1941C153.499 55.2287 153.522 55.2586 153.552 55.2798C153.582 55.301 153.618 55.3124 153.655 55.3124C153.691 55.3124 153.727 55.301 153.757 55.2798C153.787 55.2586 153.81 55.2287 153.822 55.1941V52.8638L156.688 52.7463C156.432 53.7002 156.512 54.7127 156.915 55.6152C156.994 55.7816 157.25 55.6152 157.201 55.4977C156.91 54.6035 156.842 53.6526 157.004 52.7267L160.54 52.5504C160.49 53.4244 160.49 54.3005 160.54 55.1745C160.548 55.2035 160.565 55.229 160.589 55.2472C160.613 55.2655 160.642 55.2753 160.673 55.2753C160.703 55.2753 160.732 55.2655 160.756 55.2472C160.78 55.229 160.798 55.2035 160.806 55.1745C160.855 54.294 160.855 53.4114 160.806 52.5309L163.829 52.3742C163.829 52.7561 163.829 54.5871 163.928 54.7829C163.936 54.8118 163.953 54.8374 163.977 54.8556C164.001 54.8738 164.031 54.8837 164.061 54.8837C164.091 54.8837 164.12 54.8738 164.144 54.8556C164.169 54.8374 164.186 54.8118 164.194 54.7829C164.205 53.9725 164.176 53.1621 164.105 52.3546L167.228 52.1686C167.228 52.5407 167.395 54.1269 167.484 54.4891C167.492 54.5228 167.512 54.5527 167.54 54.574C167.567 54.5954 167.601 54.6069 167.636 54.6069C167.671 54.6069 167.705 54.5954 167.733 54.574C167.761 54.5527 167.78 54.5228 167.789 54.4891C167.789 54.0877 167.572 52.5309 167.513 52.198L170.636 52.0021C170.295 52.6715 170.218 53.443 170.419 54.166C170.419 54.2639 170.695 54.2444 170.665 54.166C170.544 53.3318 170.66 52.4804 171 51.7084ZM123.652 52.5211C120.5 52.3546 117.358 52.1294 114.216 51.865C114.335 51.6692 129.976 0.626649 129.976 0.724563H134.103C132.882 7.46105 124.519 48.7612 123.652 52.5211ZM124.165 52.5211C125.612 45.8238 134.418 0.626649 134.408 0.626649H139.097C138.811 4.07322 136.91 49.0549 136.743 52.8736C133.364 52.8736 125.012 52.5896 124.165 52.5504V52.5211ZM138.939 74.5517V76.9408C137.943 78.7496 137.058 80.6166 136.29 82.5317C133.492 89.2192 132.064 99.6471 133.679 109.341C105.844 109.429 108.001 109.409 108.011 109.341C108.09 108.361 107.863 103.231 107.853 103.211C109.196 101.927 110.262 100.385 110.986 98.6777C113.35 93.077 111.843 86.928 110.365 81.2197C111.153 80.8672 111.931 80.4853 112.69 80.0643C112.808 79.9957 112.808 79.6922 112.788 79.6237C112.317 77.9635 111.758 76.3294 111.114 74.728C114.66 74.6301 138.91 74.6203 138.939 74.5811V74.5517ZM139.028 77.5968L138.496 109.331H134.201C133.025 102.795 133.163 96.0933 134.605 89.6109C135.699 84.304 136.743 82.1303 139.028 77.6262V77.5968ZM89.5821 153.216C81.7024 153.216 60.8505 153.01 58.2502 152.981C59.2351 147.018 61.0869 132.742 60.9194 131.44C62.8894 131.44 72.9164 131.322 75.9698 131.332C80.8167 131.877 85.7126 131.827 90.5474 131.185C89.6018 135.738 88.804 139.645 89.5821 153.245V153.216ZM70.3555 104.024C69.9615 102.066 68.7401 95.4759 68.6219 94.2324C69.0632 94.1986 69.5065 94.2637 69.9191 94.423C70.3316 94.5824 70.7029 94.8317 71.0056 95.1528C72.089 95.9361 83.5443 102.751 84.677 103.358C86.9875 104.6 89.4285 105.585 91.9559 106.295C98.0135 107.98 102.879 107.735 107.528 103.515C107.528 103.857 107.656 109.243 107.784 109.39H104.83C103.027 109.523 101.279 110.062 99.7179 110.966C98.1565 111.87 96.8225 113.116 95.817 114.608C92.1332 112.327 79.4074 106.579 70.3555 104.024ZM71.0548 110.016H70.0698C70.0107 109.801 67.6468 100.019 67.2331 97.7965C67.0066 96.6313 66.8391 95.4564 66.5929 94.2912C67.1538 94.3253 67.7163 94.3253 68.2772 94.2912C68.6909 98.5896 70.7495 109.057 71.0548 110.016ZM102.269 106.246C97.7771 107.833 91.6309 106.139 87.2773 104.239C85.0513 103.26 83.101 101.821 80.9636 100.675C75.0538 97.5321 70.3456 94.2716 69.863 94.0758C68.287 93.4393 66.7997 95.0549 62.8007 92.2546C62.7022 92.186 62.4954 92.0587 62.5249 91.9217C62.5545 91.7846 62.9189 91.814 63.0568 91.8335C63.6866 91.9324 64.2998 92.1169 64.879 92.3819C65.0465 92.4504 65.2041 92.2056 65.0268 92.1273C64.0148 91.6379 63.0462 91.0647 62.1309 90.4138C61.9832 90.1886 62.1309 89.983 62.3772 90.0025C62.4658 90.0025 64.5737 90.9817 65.1154 91.1971C65.2829 91.2754 65.4208 91.0404 65.2632 90.9523C64.1933 90.4676 63.151 89.925 62.1408 89.327C61.7074 88.9059 61.9044 88.4555 62.2491 88.4555C62.3279 88.5143 64.2191 89.2682 65.076 89.5521C65.3223 89.6403 65.4208 89.2584 65.1844 89.1703C64.5638 88.9451 62.8007 88.3282 62.5742 88.1911C62.3476 88.0541 62.1802 87.7407 62.5742 87.6428C62.9682 87.5449 65.5291 87.7897 66.2186 87.8387C66.2503 87.8401 66.2819 87.8339 66.3106 87.8207C66.3394 87.8074 66.3645 87.7874 66.3839 87.7624C66.4032 87.7374 66.4162 87.7082 66.4217 87.6771C66.4272 87.6461 66.4251 87.6141 66.4156 87.5841C66.2388 87.2366 66.1801 86.8415 66.2481 86.4581C66.3663 86.1056 66.5436 86.3406 66.7012 86.556C67.0361 86.9966 68.553 89.3465 69.9122 89.699C75.1129 91.06 80.5992 91.1971 85.524 91.765C86.7454 91.9021 90.2519 92.5091 90.7838 92.656C91.1482 92.7637 92.3204 93.126 92.3007 92.7441C92.212 91.5202 91.3748 86.5951 91.2467 85.3321C93.6107 85.2146 107.893 83.0213 110.04 81.4155C111.311 86.2427 112.591 91.3244 111.409 96.3082C110.855 98.5976 109.725 100.71 108.127 102.448C106.528 104.186 104.513 105.493 102.269 106.246ZM72.0496 45.7356C71.5768 46.9204 70.0797 46.5483 69.6758 46.3133C69.6419 46.2925 69.6176 46.2592 69.6084 46.2207C69.5991 46.1821 69.6057 46.1415 69.6266 46.1077C69.6475 46.0739 69.681 46.0498 69.7198 46.0406C69.7586 46.0315 69.7995 46.038 69.8334 46.0588C70.1191 46.2154 71.3601 46.4406 71.8034 45.579C71.9019 45.4615 72.089 45.6377 72.0496 45.7356ZM71.1237 42.3086C71.0341 42.5617 70.8846 42.7896 70.6878 42.9732C70.491 43.1568 70.2528 43.2907 69.993 43.3636C69.7333 43.4366 69.4598 43.4464 69.1955 43.3923C68.9312 43.3382 68.6838 43.2218 68.4742 43.0528C68.7247 41.6229 68.6575 40.1557 68.2772 38.7544C68.2772 38.5781 67.9817 38.6564 68.0112 38.8327C68.2276 40.1593 68.2969 41.5055 68.2181 42.8472C67.5969 42.9445 67.0206 43.2284 66.5664 43.6607C66.1122 44.093 65.8018 44.653 65.6768 45.2656C65.6768 45.2656 64.3668 43.9438 63.7562 40.6833C63.5001 39.2929 63.2144 37.9025 63.0962 36.4925C66.1398 37.4717 70.3752 36.1792 74.1969 33.0362C74.6758 33.7531 75.3124 34.3524 76.0585 34.7888C76.5595 34.5475 77.1363 34.513 77.6628 34.693C78.1893 34.8729 78.6229 35.2526 78.8688 35.7492C79.1146 36.2458 79.1529 36.8189 78.9751 37.3434C78.7974 37.868 78.4181 38.3013 77.9201 38.5487C78.1269 39.9979 78.058 42.7884 76.3047 43.2192C74.9159 43.5619 73.9211 42.6807 71.1237 42.3086ZM75.0636 54.0583C77.4382 53.1215 79.4003 51.3758 80.5992 49.1332C80.7371 49.6326 82.2539 54.1367 82.4017 54.3912C82.1678 55.3021 81.7174 56.1439 81.0884 56.8458C80.4594 57.5478 79.6701 58.0894 78.7868 58.4253C73.6453 60.7263 71.5867 57.6028 73.0641 55.6641C73.074 55.6543 74.8469 55.3899 75.0932 54.1073L75.0636 54.0583ZM72.5815 55.6837C71.5965 56.8293 72.286 59.0617 74.5515 59.5415C76.8169 60.0213 82.0668 58.2588 82.7858 54.3814C82.7858 54.2933 93.522 55.2822 97.9446 58.298C108.503 65.4066 111.734 77.8808 112.286 79.7314C105.952 83.834 90.38 84.8817 88.6464 84.9894C87.6696 80.555 87.3872 75.9973 87.8092 71.4772C87.8092 71.3597 87.6417 71.3695 87.6319 71.4772C87.0803 76.0711 87.3067 80.7244 88.3017 85.2439C88.3138 85.2846 88.3383 85.3206 88.3718 85.3469C88.4053 85.3732 88.4462 85.3885 88.4888 85.3908C89.2768 85.3908 90.0746 85.3908 90.8626 85.3321C90.9315 86.5462 91.7491 91.3538 91.8476 92.5581C89.8841 92.021 87.882 91.6348 85.8589 91.4027C71.8329 89.9242 69.2326 89.8459 67.8241 87.6037C67.9226 83.9515 68.8977 75.1392 73.6256 59.6003C73.6328 59.5711 73.6336 59.5407 73.6277 59.5112C73.6219 59.4817 73.6096 59.4538 73.5918 59.4295C73.574 59.4053 73.551 59.3852 73.5245 59.3707C73.498 59.3562 73.4686 59.3477 73.4384 59.3457C69.9713 59.5611 66.5009 59.7439 63.0273 59.894C63.4607 59.7275 68.4249 56.467 72.6111 55.7327L72.5815 55.6837ZM73.2316 59.7275C67.9915 77.3521 67.5778 85.3614 67.6172 87.2218C67.5483 87.1239 67.0164 85.7237 66.3269 85.8118C66.6421 79.4474 67.8733 73.6607 70.8775 61.6956C70.8775 61.5781 70.8184 61.4215 70.6805 61.441C57.4465 62.7181 44.1184 62.7017 30.8876 61.3921C30.6638 61.0026 30.4632 60.6005 30.2868 60.1877C30.4148 60.1094 30.5429 60.0409 30.6709 59.9527C36.0784 60.4521 52.035 60.9025 73.2316 59.7275ZM30.4148 61.3921L28.5729 61.1375C28.8586 61.0004 29.7746 60.5206 29.9519 60.4227C30.0996 60.7067 30.2474 61.0788 30.4148 61.3921ZM23.8943 62.8902C21.8357 64.0358 19.5703 65.759 19.0581 68.1873C18.9333 68.7567 18.9356 69.3465 19.065 69.9149C19.1943 70.4833 19.4475 71.0166 19.8067 71.4772C20.7916 72.7403 21.7766 71.9766 22.7616 72.7305C23.7465 73.4845 23.1162 74.4146 22.4858 74.9923C20.2589 76.504 17.8009 77.6481 15.2068 78.3802C13.4142 78.9089 11.6215 79.1831 9.97663 79.7216C11.3851 78.8012 13.1482 78.1158 13.5225 76.3631C13.6031 75.887 13.5644 75.3985 13.4097 74.9408C13.2551 74.4831 12.9894 74.0703 12.6361 73.739C11.8075 72.9726 10.7869 72.4417 9.68114 72.2018C7.64224 71.5849 4.87447 70.9289 4.62822 68.3831C4.59713 67.3044 4.87269 66.2389 5.42324 65.3088C5.9738 64.3788 6.77704 63.6219 7.74074 63.1252C11.5329 60.9515 17.1078 61.3235 19.5013 57.1034C20.0093 56.2744 20.2374 55.3056 20.1523 54.3386C20.0672 53.3715 19.6735 52.4568 19.0285 51.728C16.31 48.3793 10.5479 48.0562 9.64174 43.6892C9.37254 42.4057 9.62406 41.0683 10.3416 39.9682C11.0591 38.868 12.1846 38.0939 13.4733 37.8144C13.2751 38.1516 13.1706 38.5352 13.1706 38.9257C13.1706 39.3163 13.2751 39.6998 13.4733 40.037C14.1172 41.0508 14.9824 41.9075 16.0047 42.5436C21.7372 46.5092 30.3262 45.5496 33.8327 52.5309C34.8964 54.6458 34.4926 55.1941 33.2712 57.0937C31.6165 59.7765 26.8394 61.255 23.8943 62.8902ZM21.5008 91.8433C21.4784 91.844 21.4565 91.8497 21.4367 91.8601C21.4168 91.8704 21.3996 91.8851 21.3863 91.903C21.3731 91.9209 21.3641 91.9416 21.36 91.9635C21.3559 91.9854 21.3569 92.0079 21.3629 92.0294C21.5599 92.7148 21.5304 93.4589 21.7077 94.1541C20.1425 95.4185 18.2976 96.2953 16.3249 96.7124C14.3522 97.1295 12.3081 97.0748 10.3608 96.553L6.85426 83.8242C10.2717 81.7533 14.2202 80.7125 18.2209 80.828C18.3736 81.6978 18.6316 82.546 18.9891 83.3542C20.166 83.0835 21.3974 83.1687 22.5252 83.599C22.0298 84.0417 21.593 84.5451 21.225 85.0971C20.6931 85.0089 20.0825 84.6956 19.5407 84.911C18.999 85.1264 19.0384 85.7237 19.2649 86.1839C19.9139 87.5328 20.3364 88.9782 20.5158 90.4627C20.5158 90.6586 20.8507 90.6586 20.831 90.4627C20.8358 90.3812 20.8358 90.2995 20.831 90.218C21.5082 90.3139 22.1983 90.2639 22.8543 90.0713C23.5103 89.8787 24.117 89.5481 24.633 89.1017C24.4904 89.8392 24.1054 90.5086 23.5384 91.0049C22.9715 91.5011 22.2547 91.7961 21.5008 91.8433ZM24.5936 88.6611C23.52 90.2278 21.2841 90.0221 20.831 89.983C20.5968 88.6266 20.1758 87.3087 19.5801 86.0664C19.4225 85.7923 19.2846 85.3908 19.6491 85.2243C20.0135 85.0579 20.634 85.3418 21.097 85.3223C20.9689 85.5573 20.7916 85.9097 20.9492 86.1545C21.3235 86.7322 22.6729 85.8706 23.1753 85.3908C23.2506 85.3891 23.3252 85.4061 23.3923 85.4403C23.4594 85.4745 23.5168 85.5248 23.5594 85.5866C24.042 86.3112 22.8305 86.9574 22.338 87.1239C22.3145 87.1239 22.292 87.1332 22.2754 87.1497C22.2587 87.1662 22.2494 87.1886 22.2494 87.212C22.2494 87.2354 22.2587 87.2578 22.2754 87.2743C22.292 87.2908 22.3145 87.3001 22.338 87.3001C22.6387 87.2464 22.9251 87.1318 23.1792 86.9633C23.4334 86.7949 23.65 86.5762 23.8155 86.321C23.9117 86.3772 23.9955 86.4522 24.0618 86.5414C24.1281 86.6306 24.1756 86.7323 24.2013 86.8402C24.2271 86.9481 24.2306 87.0601 24.2117 87.1695C24.1928 87.2788 24.1518 87.3832 24.0913 87.4764C23.887 87.727 23.6328 87.9328 23.3446 88.0811C23.0565 88.2294 22.7406 88.3169 22.4168 88.338C22.2789 88.338 22.338 88.573 22.4759 88.5534C22.844 88.5375 23.204 88.4415 23.5307 88.2724C23.8575 88.1032 24.1429 87.8649 24.3671 87.5743C24.4598 87.6258 24.5399 87.6971 24.6016 87.7831C24.6633 87.869 24.705 87.9675 24.7239 88.0714C24.7427 88.1754 24.7381 88.2822 24.7105 88.3841C24.6829 88.4861 24.6329 88.5807 24.5641 88.6611H24.5936ZM25.0073 88.4457C25.0073 88.4457 25.2142 87.6037 24.5345 87.3491C24.6159 87.0826 24.5912 86.7952 24.4656 86.5462C24.3452 86.3452 24.1667 86.1848 23.9534 86.086C23.9759 85.9553 23.968 85.8212 23.9305 85.6939C23.8929 85.5666 23.8267 85.4496 23.7367 85.3516C23.4215 85.0089 23.3329 85.2831 23.5397 84.9796C23.6481 84.8327 23.4117 84.6564 23.2935 84.7837C22.9129 85.1415 22.5045 85.4689 22.0721 85.7629C21.9244 85.851 21.225 86.2231 21.225 85.8902C21.4707 85.2786 21.8132 84.7101 22.2395 84.206C22.4886 83.9468 22.8173 83.7772 23.1739 83.724C23.5306 83.6708 23.8949 83.7371 24.2095 83.9123C24.7698 84.1071 25.3593 84.2064 25.9529 84.206C27.2826 84.206 33.7834 83.2269 34.4926 83.0996C35.1493 85.5866 35.7599 88.0834 36.3247 90.59C32.5918 89.6375 28.8019 88.9213 24.9778 88.4457H25.0073ZM28.2971 61.3823C33.6061 62.2048 48.5777 64.0651 70.454 61.9012C66.2186 77.166 65.9723 86.037 65.9822 86.0664C65.8715 86.2726 65.8072 86.5001 65.7936 86.7334C65.78 86.9667 65.8175 87.2001 65.9034 87.4176C65.1253 87.3589 62.2984 86.8497 61.9635 87.5743C61.9051 87.6824 61.8805 87.8054 61.8928 87.9274C61.9051 88.0495 61.9537 88.1652 62.0325 88.2597C61.4809 88.3674 61.6089 89.0234 61.8059 89.3172C61.9161 89.4739 62.0567 89.6071 62.2196 89.7088C62.1177 89.707 62.0182 89.7387 61.9362 89.7989C61.8543 89.859 61.7947 89.9444 61.7665 90.0417C61.5597 90.6586 62.5446 91.1481 63.2932 91.579C63.2932 91.579 62.3082 91.4125 62.2294 91.814C62.1506 92.2154 62.5742 92.47 62.8303 92.6462C63.9064 93.3596 65.0949 93.8891 66.3466 94.2129C67.1481 99.5312 68.2897 104.793 69.7645 109.967C65.3321 109.791 41.614 109.487 39.8509 107.147C39.4569 104.484 37.4081 88.1716 28.2676 61.3823H28.2971ZM39.2303 132.409C40.2153 132.321 41.2003 132.252 42.1163 132.184C42.1163 132.38 42.3133 150.866 42.333 152.883C30.0307 152.785 31.6165 152.883 29.3609 152.883C29.3018 147.086 29.2525 141.809 29.2328 140.595C32.7949 138.156 36.1397 135.417 39.2303 132.409ZM35.7632 107.421C34.9457 108.156 28.1986 117.379 26.3567 120.395C23.9238 109.252 15.7584 108.724 15.522 108.645C21.4023 108.45 34.8866 107.48 35.7337 107.421H35.7632ZM11.2866 133.545C9.98648 130.539 7.71119 127.288 6.23373 123.695C4.72672 119.896 4.26378 114.882 7.2187 111.632C9.76978 108.802 14.6651 107.999 18.9005 110.555C22.6828 112.836 24.8103 116.851 25.9824 120.983C25.6574 121.521 15.2856 136.766 14.4287 138C14.4287 138.049 16.2214 139.811 16.7138 140.272C16.2509 140.947 14.3105 143.699 13.7589 144.394C13.3257 144.162 12.8745 143.966 12.4095 143.806C12.4095 143.806 12.5474 136.433 11.2866 133.545ZM13.9264 144.58C14.4583 143.885 16.4774 141.172 16.9305 140.497C18.1618 141.652 19.3831 142.808 20.5848 143.992C19.6661 144.794 18.8282 145.683 18.083 146.646C17.0487 148.261 17.7678 150.278 15.5417 151.825C15.3841 151.688 14.1332 150.533 13.7589 150.132C13.6577 150.023 13.5899 149.888 13.5637 149.742C13.5375 149.596 13.554 149.446 13.6112 149.309C13.8279 148.829 14.8916 146.47 13.9264 144.58ZM14.3105 174.561C13.8048 174.417 13.3597 174.114 13.0419 173.698C12.724 173.281 12.5505 172.773 12.5474 172.25C12.4588 170.351 13.3748 170.184 12.8232 152.433C13.6506 153.02 14.4681 153.549 15.2561 154.019C15.3883 154.105 15.5447 154.147 15.7025 154.138C15.8603 154.129 16.0111 154.07 16.1327 153.97C16.286 153.838 16.4277 153.694 16.5562 153.539C16.6156 153.457 16.6576 153.363 16.6799 153.264C16.7021 153.166 16.7041 153.063 16.6857 152.964C16.6673 152.864 16.629 152.769 16.5729 152.685C16.5168 152.6 16.4441 152.528 16.3593 152.472L15.719 151.972C17.9352 150.553 17.3639 148.467 18.2701 146.959C19.0137 145.955 19.8732 145.042 20.831 144.237L21.9342 145.353C21.9342 145.353 24.9581 143.493 28.829 140.81C28.898 143.973 29.2427 173.122 29.3806 174.512C26.7507 174.561 15.2856 174.845 14.3105 174.561ZM29.3313 153.02C34.6994 153.118 36.0883 153.157 42.3034 153.206C42.3625 158.67 42.4315 162.449 42.7762 167.012C42.7762 167.012 33.9115 167.276 29.4889 167.531C29.4397 164.114 29.3806 158.356 29.3806 153.02H29.3313ZM29.6268 174.512C29.6268 173.298 29.5185 168.833 29.4988 167.825C33.9312 167.616 38.3668 167.459 42.8058 167.355C42.8058 167.883 43.2884 172.495 43.4066 174.267L29.6268 174.512ZM51.9266 183.853C50.88 183.907 49.8312 183.907 48.7846 183.853C48.6415 183.836 48.5065 183.778 48.3963 183.686C48.286 183.594 48.2053 183.471 48.164 183.334C47.7835 182.067 47.0492 180.933 46.0463 180.064C46.1153 178.997 46.1547 176.363 46.1547 176.147C47.619 176.186 49.0866 176.255 50.5575 176.353C50.4992 177.481 50.5753 178.611 50.7841 179.721C51.2273 180.965 52.7146 182.394 51.9266 183.853ZM51.7099 121.413C47.6223 121.413 42.9338 125.584 42.1261 131.782L39.5751 131.978C40.5529 130.975 41.4427 129.891 42.2345 128.737C43.5741 123.949 48.1936 120.571 52.0842 120.503C54.1129 120.566 56.0448 121.379 57.5016 122.784C58.8306 124.062 59.8859 125.594 60.6042 127.288C63.2144 128.718 68.0802 129.961 73.4877 130.911C71.7344 130.911 63.3031 130.989 60.8603 131.038C59.9739 125.428 55.6203 121.492 51.7099 121.413ZM71.567 172.603C66.1102 173.425 54.4285 173.993 54.0936 174.003C54.5959 171.751 55.0785 169.46 55.5809 167.149C61.2215 167.11 66.8621 167.087 72.5027 167.08C72.1875 168.941 71.8822 170.791 71.567 172.642V172.603ZM55.6597 166.728C56.5462 162.43 58.1911 153.333 58.2009 153.275L89.6018 153.598C89.8087 157.916 90.2224 162.234 90.705 166.532C84.7558 166.689 59.3533 166.767 55.6597 166.806V166.728ZM92.1628 174.561C91.2763 166.914 90.4982 160.05 90.1928 152.335C89.6708 139.43 90.8922 135.053 90.9808 131.606C91.1679 123.685 94.9207 112.141 102.535 110.183C103.849 109.778 105.237 109.667 106.599 109.859C107.961 110.05 109.264 110.538 110.414 111.289C111.257 112.005 111.991 112.84 112.591 113.766C113.866 115.699 114.695 117.888 115.019 120.177C115.342 122.466 115.152 124.797 114.463 127.004C113.182 131.136 109.902 135.63 108.1 140.301C104.672 149.221 105.007 169.744 106.642 176.529C101.744 176.716 96.8485 176.081 92.1628 174.649V174.561ZM107.046 176.47C105.844 171.477 105.883 165.21 105.933 159.991C105.866 154.272 106.471 148.564 107.735 142.984C109.636 135.425 115.556 130.196 115.615 122.481C115.666 118.988 114.547 115.578 112.434 112.787C111.422 111.308 109.914 110.235 108.178 109.762H138.496C138.427 114.119 137.875 169.587 137.875 169.597L130.616 174.365C122.638 174.473 114.985 176.245 107.046 176.559V176.47ZM150.591 111.916C153.438 115.49 154.581 121.032 151.98 127.846C149.803 133.594 140.249 146.822 144.593 171.731C144.524 171.731 142.111 170.165 140.948 169.519C140.948 169.519 141.933 114.912 142.032 109.791C148.375 109.409 150.05 111.328 150.591 112.004V111.916ZM147.636 77.7927C148.811 79.9132 149.367 82.3173 149.242 84.7348C149.37 92.8812 147.912 101.38 146.061 109.321C145.273 109.233 142.574 109.194 142.022 109.223C142.022 107.01 142.426 76.3338 142.446 74.7378C143.509 74.7818 144.544 75.0932 145.454 75.6428C146.363 76.1925 147.118 76.9625 147.646 77.8808L147.636 77.7927ZM140.446 169.519C140.397 169.959 155.703 178.507 156.206 178.722C155.063 180.524 149.311 182.003 147.075 182.218C145.696 182.355 133.128 182.218 130.399 181.973C127.535 181.74 124.736 180.998 122.135 179.78C123.189 179.251 138.23 169.9 138.24 169.519C138.407 162.302 139.57 57.4951 139.609 53.1183H142.298C142.239 61.8033 140.564 168.725 140.456 169.607L140.446 169.519ZM137.127 52.8736C137.353 46.0881 139.343 0.577693 139.304 0.55811L143.391 0.479778C143.834 3.82844 150.286 52.6484 150.286 52.6777C149.705 52.7071 139.146 52.8736 137.127 52.8736ZM150.65 52.6581C150.65 52.6581 144.327 4.27884 143.637 0.48957L147.932 0.411239C148.779 3.79906 161.101 48.3401 162.106 52.1196C162.116 52.1196 154.472 52.5504 150.65 52.6777V52.6581ZM162.529 52.0903C162.529 52.0903 148.74 2.23244 148.188 0.381864L151.576 0.323116C153.921 7.24564 169.138 48.0954 170.488 51.5615C167.842 51.7835 165.189 51.9662 162.529 52.1098V52.0903Z" fill="black"/>
</g>
<defs>
<filter id="filter0_d_171_86" x="0" y="0" width="175" height="194" filterUnits="userSpaceOnUse" color-interpolation-filters="sRGB">
<feFlood flood-opacity="0" result="BackgroundImageFix"/>
<feColorMatrix in="SourceAlpha" type="matrix" values="0 0 0 0 0 0 0 0 0 0 0 0 0 0 0 0 0 0 127 0" result="hardAlpha"/>
<feOffset dy="4"/>
<feGaussianBlur stdDeviation="2"/>
<feComposite in2="hardAlpha" operator="out"/>
<feColorMatrix type="matrix" values="0 0 0 0 0 0 0 0 0 0 0 0 0 0 0 0 0 0 0.25 0"/>
<feBlend mode="normal" in2="BackgroundImageFix" result="effect1_dropShadow_171_86"/>
<feBlend mode="normal" in="SourceGraphic" in2="effect1_dropShadow_171_86" result="shape"/>
</filter>
</defs>
</svg>
