<svg width="257" height="265" viewBox="0 0 257 265" fill="none" xmlns="http://www.w3.org/2000/svg">
<g filter="url(#filter0_d_171_127)">
<path fill-rule="evenodd" clip-rule="evenodd" d="M52.6727 149.943C59.7137 151.456 64.687 148.611 67.2521 147.961C67.9981 147.779 71.2961 149.474 76.505 149.474C77.9997 149.386 79.4642 148.954 80.8127 148.203C82.1611 147.452 83.3662 146.397 84.3574 145.1C84.5276 144.873 84.2135 144.586 84.0433 144.813C82.0244 147.112 79.3122 148.414 76.4788 148.445C73.7238 148.307 70.992 147.799 68.3384 146.931C66.5454 146.462 66.8202 147.037 62.2789 148.445C59.1769 149.422 55.9361 149.664 52.7512 149.156C48.7203 148.49 47.9612 147.446 47.7911 147.976C47.7737 148.034 47.7762 148.098 47.7981 148.154C47.8199 148.21 47.8596 148.255 47.9088 148.278C49.4479 149.006 51.0429 149.563 52.6727 149.943ZM144.691 129.512C150.462 128.983 155.161 123.096 154.729 119.539C154.737 119.503 154.737 119.466 154.731 119.43C154.724 119.394 154.711 119.36 154.691 119.331C154.672 119.302 154.647 119.278 154.618 119.262C154.589 119.245 154.558 119.237 154.526 119.237C154.494 119.237 154.462 119.245 154.434 119.262C154.405 119.278 154.38 119.302 154.36 119.331C154.341 119.36 154.327 119.394 154.321 119.43C154.314 119.466 154.315 119.503 154.323 119.539C154.114 120.932 153.538 122.216 152.674 123.217C150.872 125.524 148.632 127.316 146.13 128.453C144.599 129.164 144.377 128.968 144.429 129.316C144.431 129.351 144.44 129.384 144.456 129.414C144.471 129.444 144.492 129.47 144.518 129.489C144.543 129.508 144.572 129.52 144.602 129.524C144.632 129.528 144.662 129.524 144.691 129.512ZM33.2902 154.771C33.3405 154.751 33.3819 154.708 33.4052 154.653C33.4285 154.598 33.4318 154.534 33.4145 154.476C33.3971 154.417 33.3605 154.37 33.3126 154.343C33.2648 154.316 33.2096 154.312 33.1593 154.332C29.9335 155.14 26.5956 155.14 23.3699 154.332C21.9826 153.923 21.9041 153.59 21.7601 153.893C21.7347 153.946 21.7274 154.008 21.7395 154.067C21.7516 154.125 21.7823 154.177 21.8255 154.211C24.8749 156.753 29.9659 156.647 33.2902 154.771ZM193.363 44.1425C193.795 44.309 193.363 43.6279 195.522 39.1786C199.907 29.9923 207.785 21.9412 215.782 16.7805C219.014 14.692 219.289 14.9039 219.158 14.5256C219.133 14.4702 219.091 14.4273 219.041 14.405C218.99 14.3828 218.934 14.3826 218.883 14.4045C205.547 20.458 195.915 33.0191 193.232 43.8398C193.222 43.8695 193.217 43.9013 193.218 43.9332C193.22 43.9652 193.227 43.9964 193.239 44.025C193.251 44.0535 193.269 44.0788 193.29 44.099C193.311 44.1193 193.336 44.1341 193.363 44.1425ZM232.39 56.2041C226.592 51.1797 217.405 48.7734 210.141 47.7443C205.29 46.9971 200.382 46.8854 195.509 47.4114C195.482 47.4133 195.455 47.4215 195.43 47.4355C195.405 47.4495 195.383 47.469 195.365 47.4929C195.347 47.5168 195.333 47.5446 195.324 47.5748C195.315 47.6049 195.311 47.6368 195.313 47.6687C195.313 48.0773 195.391 47.6687 200.077 47.8805C209.683 48.274 224.734 50.9073 232.102 56.5825C232.377 56.749 232.612 56.3706 232.39 56.2041ZM187.159 135.384C186.31 135.878 185.401 136.22 184.463 136.398C184.439 136.385 184.413 136.378 184.387 136.377C184.36 136.375 184.334 136.38 184.309 136.391C184.284 136.401 184.261 136.417 184.242 136.438C184.222 136.459 184.206 136.484 184.195 136.512C184.184 136.54 184.178 136.57 184.177 136.6C184.175 136.631 184.18 136.662 184.189 136.69C184.198 136.719 184.212 136.746 184.23 136.768C184.248 136.791 184.269 136.809 184.293 136.822C184.554 137.041 184.855 137.187 185.172 137.248C185.49 137.309 185.816 137.284 186.123 137.173C186.431 137.063 186.712 136.871 186.944 136.613C187.176 136.355 187.353 136.038 187.46 135.687C187.495 135.641 187.513 135.581 187.509 135.52C187.505 135.459 187.481 135.402 187.441 135.362C187.401 135.321 187.349 135.301 187.296 135.306C187.243 135.31 187.194 135.338 187.159 135.384ZM26.3276 202.049C23.8541 202.306 24.286 203.562 26.7595 203.169C29.233 202.775 27.9112 201.882 26.3276 202.049ZM65.0927 196.419C64.8327 196.442 64.5746 196.488 64.3205 196.555C62.9071 197.009 63.2212 197.569 64.6215 197.6C67.3437 197.615 67.5008 196.207 65.0927 196.419ZM24.9927 234.859C23.9195 234.859 22.5584 235.54 24.3383 235.964C24.7722 236.038 25.2132 236.038 25.6471 235.964C27.4924 235.449 25.9612 234.829 24.9927 234.859ZM63.0903 226.732C61.0618 226.838 61.8732 227.731 63.0903 227.867C65.2105 228.124 65.734 226.611 63.0903 226.732ZM101.253 248.933C98.6359 249.085 100.861 250.296 102.562 250.068C104.263 249.841 103.753 248.782 101.253 248.933ZM141.17 237.22C138.553 237.099 139.482 238.415 141.406 238.4C142.911 238.385 143.421 237.356 141.17 237.22ZM184.712 254.851C182.998 254.851 181.977 255.683 183.901 255.986C184.449 256.054 185.002 256.054 185.55 255.986C187.539 255.532 186.243 254.821 184.712 254.851ZM216.266 216.895C219.119 217.168 219.184 215.927 216.266 215.73C213.112 215.503 214.159 216.698 216.266 216.895ZM235.976 209.812C235.164 209.964 234.667 210.494 235.727 210.842C236.247 210.993 236.791 210.993 237.311 210.842C238.881 210.115 237.193 209.585 235.976 209.812ZM54.2824 54.7059C56.0834 54.702 57.8659 54.2864 59.5274 53.483C61.189 52.6797 62.6968 51.5044 63.9641 50.0248C65.2315 48.5452 66.2334 46.7905 66.9122 44.8616C67.591 42.9327 67.9334 40.8676 67.9196 38.7851C67.8098 34.6854 66.3242 30.796 63.7775 27.9409C61.2308 25.0859 57.823 23.4892 54.2759 23.4892C50.7288 23.4892 47.321 25.0859 44.7743 27.9409C42.2276 30.796 40.742 34.6854 40.6322 38.7851C40.6184 40.8688 40.9612 42.9352 41.6408 44.8651C42.3205 46.795 43.3236 48.5504 44.5923 50.0302C45.861 51.51 47.3704 52.6849 49.0335 53.4874C50.6965 54.2898 52.4804 54.704 54.2824 54.7059ZM45.1867 28.2368C46.3511 26.7952 47.7594 25.6457 49.3241 24.8599C50.8888 24.074 52.5765 23.6684 54.2824 23.6684C55.9884 23.6684 57.6761 24.074 59.2408 24.8599C60.8055 25.6457 62.2138 26.7952 63.3782 28.2368C65.7352 31.0552 67.044 34.8287 67.0245 38.7493C67.0049 42.6698 65.6585 46.4256 63.2735 49.2123C62.0959 50.5841 60.6952 51.6729 59.1521 52.4159C57.609 53.1588 55.954 53.5414 54.2824 53.5414C52.6109 53.5414 50.9559 53.1588 49.4128 52.4159C47.8697 51.6729 46.4689 50.5841 45.2914 49.2123C42.9064 46.4256 41.56 42.6698 41.5404 38.7493C41.5209 34.8287 42.8297 31.0552 45.1867 28.2368ZM193.559 45.1867L193.546 45.1564V45.1716L193.559 45.1867ZM159.951 70.0365C159.951 70.0365 163.314 67.3275 163.589 67.0854C165.015 65.8141 166.769 64.5429 168.17 63.4986C171.899 60.7292 171.755 60.4719 176.742 57.2786C178.181 56.3403 190.34 48.728 191.4 48.0016C191.442 47.9676 191.471 47.917 191.483 47.8595C191.495 47.8019 191.488 47.7414 191.464 47.6892C191.44 47.6371 191.4 47.597 191.352 47.5765C191.304 47.556 191.251 47.5564 191.203 47.5779C186.4 50.4382 177.056 55.0237 170.106 60.6535C167.708 62.4553 165.388 64.3948 163.157 66.4649C161.907 67.5431 160.706 68.6948 159.558 69.9154C159.557 69.9694 159.572 70.0222 159.6 70.0653C159.628 70.1084 159.668 70.1393 159.713 70.1533C159.759 70.1672 159.806 70.1632 159.849 70.1421C159.892 70.1209 159.928 70.0837 159.951 70.0365ZM142.086 157.101C142.929 157.62 143.867 157.9 144.822 157.919C145.24 157.919 145.515 157.571 145.607 156.859C145.698 156.142 145.698 155.413 145.607 154.695C145.162 151.275 144.298 152.107 144.494 152.47C143.657 152.728 140.856 156.36 142.086 157.101ZM144.573 153C144.587 153.007 144.603 153.011 144.619 153.011C144.634 153.011 144.65 153.007 144.664 153C144.771 154.253 144.771 155.515 144.664 156.768C144.036 156.654 143.421 156.456 142.832 156.178C143.279 155.029 143.865 153.959 144.573 153Z" fill="black"/>
<path fill-rule="evenodd" clip-rule="evenodd" d="M213.832 62.9235L216.881 59.3973L218.386 64.1947C218.491 64.5277 217.418 63.9526 233.188 71.5044C233.437 71.6255 233.28 71.6255 237.114 69.991C237.638 75.1516 237.586 75.0608 237.756 75.2727C238.803 76.5591 247.048 86.6836 248.226 87.8489C250.464 90.1341 255.358 74.0015 250.66 65.4206C241.132 48.0924 229.04 42.9014 211.528 41.4335C208.073 41.1611 200.378 42.7501 196.962 43.5068C204.631 38.4672 204.291 38.891 204.265 38.5126L204.016 34.5022L207.262 34.9865C207.471 34.9865 206.123 36.0458 228.058 19.1111C228.372 18.8689 228.294 19.1111 228.294 14.3439C231.356 13.678 231.736 13.6175 231.866 13.557C233.018 12.997 242.062 8.699 243.069 7.8515C243.193 7.7661 243.284 7.629 243.323 7.4685C243.362 7.30799 243.346 7.13631 243.279 6.98888C239.68 -0.335897 234.301 -0.789913 227.233 0.662934C213.937 3.37189 205.273 13.2694 196.831 25.3311C194.26 29.3067 192.668 34.0136 192.224 38.9515C187.107 28.9935 178.339 25.437 169.295 21.1995C155.985 14.9795 126.329 14.6012 114.079 24.529C108.33 29.0449 103.708 35.2295 100.678 42.4626C100.573 42.7047 100.547 43.2344 101.162 43.4311C103.348 44.1273 122.939 43.4311 125.217 43.4311C125.531 43.4311 125.544 43.1739 128.214 40.8584C128.397 41.6605 128.619 42.856 128.737 43.5825C128.762 43.7159 128.827 43.8347 128.92 43.9179C129.014 44.0011 129.13 44.0431 129.248 44.0365C149.664 43.0831 148.421 43.2193 148.617 42.9771C148.617 42.9771 150.776 40.1471 151.758 39.0272C151.883 39.4489 151.988 39.8784 152.072 40.3136C152.635 43.1739 152.347 43.5825 152.805 43.7489C156.915 45.2623 165.657 48.2891 170.002 49.4695C157.098 54.2216 149.402 59.4427 141.484 72.4275C138.604 77.5009 136.357 83.0186 134.81 88.8175C133.85 88.7076 132.885 88.9627 132.061 89.5439C131.499 89.9828 131.695 91.0573 131.904 91.7989C130.295 91.4356 129.418 92.2983 129.954 94.19C130.386 95.7034 131.76 97.807 131.76 98.8815C131.669 98.7301 131.446 98.3064 131.394 98.2307C130.071 97.0594 128.423 96.4887 126.761 96.6265C125.138 96.6265 123.816 98.5334 122.743 99.4263C123.777 95.6731 121.906 93.4938 117.246 98.5637C117.35 98.2225 117.381 97.8577 117.338 97.4997C117.294 97.1417 117.178 96.8009 116.998 96.5055C115.689 94.9921 112.548 98.3518 111.279 99.2296C111.279 98.6091 111.684 97.3076 110.506 96.6265C108.609 95.5218 107.261 97.7616 106.096 99.6533C105.651 97.5497 103.348 97.0806 101.607 97.8826C100.586 98.4748 99.7905 99.482 99.3726 100.711C98.9547 101.94 98.9441 103.304 99.3428 104.542C97.3927 103.361 95.0763 102.589 94.9846 105.132C94.9804 105.779 95.0463 106.425 95.181 107.054C94.2648 106.388 92.8514 105.54 91.8829 106.1C90.0507 107.175 90.5742 109.339 91.6212 111.367C80.1696 111.367 11.1725 112.88 5.24391 113.259C5.13467 113.288 5.03728 113.36 4.96757 113.461C4.89787 113.563 4.85993 113.689 4.85993 113.819C4.85993 113.948 4.89787 114.074 4.96757 114.176C5.03728 114.278 5.13467 114.349 5.24391 114.379C62.5146 113.561 165.775 112.865 166.311 113.213C175.473 120.568 158.59 140.076 146.89 143.072C143.218 140.052 139.409 137.263 135.477 134.718C135.15 134.522 135.085 135.157 135.032 135.581C134.98 136.005 134.928 136.459 134.875 137.094C131.506 133.029 127.511 129.724 123.097 127.348C114.38 123.08 108.7 126.516 103.793 135.657C101.685 139.84 99.9319 144.25 98.5575 148.823C97.3722 152.857 96.3675 156.958 95.5474 161.112C93.4407 161.604 91.2776 161.686 89.1476 161.354C84.2529 160.643 77.1595 158.494 75.7068 159.054C72.9061 160.143 70.5896 162.807 67.6842 163.927C63.0357 165.785 58.1085 166.528 53.2033 166.112C48.2981 165.696 43.5177 164.128 39.1535 161.505C37.8448 160.779 29.5212 163.806 27.6366 164.26C22.9774 165.349 11.1071 161.959 4.30161 156.087C4.25804 156.063 4.20839 156.056 4.16116 156.069C4.11393 156.082 4.07205 156.114 4.04268 156.158C4.01332 156.203 3.99828 156.258 4.00016 156.314C4.00203 156.37 4.02069 156.424 4.05295 156.466C10.9631 162.519 22.9251 166 27.7543 164.91C28.9322 164.638 37.9626 161.657 38.8525 162.171C43.292 164.875 48.1614 166.504 53.1634 166.959C58.1655 167.415 63.1953 166.687 67.9459 164.82C70.9822 163.654 73.1809 161.051 75.9816 159.992C77.0941 159.568 84.4361 161.702 89.0691 162.383C91.1608 162.734 93.2885 162.677 95.3642 162.217C94.7883 165.107 92.8776 175.201 92.7467 177.184C92.7311 177.287 92.7347 177.394 92.7573 177.495C92.7798 177.597 92.8208 177.692 92.8776 177.774C93.1 178.016 93.5188 178.031 96.2934 178.092C95.5867 183.086 95.6521 182.708 95.338 183.162C93.946 184.82 92.4547 186.362 90.8752 187.778C89.8936 188.716 88.6372 190.335 89.2 191.667C89.5403 192.439 90.3909 192.484 91.1369 192.409C91.1369 192.817 91.1369 193.604 91.4772 193.71C92.053 193.861 97.7068 193.801 98.6753 193.786L99.683 195.299C98.2303 198.023 88.5194 216.623 88.755 219.786C88.8335 220.724 90.4171 221.223 91.2809 221.496C91.1107 222.01 90.9406 222.525 90.7836 222.918C90.6265 223.312 90.6527 223.327 90.5873 223.448C90.5218 223.569 85.5878 224.961 83.3499 226.838C81.8841 228.049 82.0411 229.35 82.8264 229.865C84.9727 231.302 96.7776 231 97.432 230.198C98.2958 229.138 98.9632 224.644 99.1857 223.191C100.106 223.393 101.054 223.357 101.96 223.085C106.277 219.032 110.287 214.561 113.948 209.722C115.467 210.796 117.076 211.825 118.778 212.748C117.469 214.459 103.452 232.528 103.308 233.845C103.112 235.495 107.235 237.326 108.452 236.463C108.818 236.191 109.76 234.95 124.458 215.442C127.191 216.513 130.004 217.293 132.86 217.773C137.381 218.525 141.942 218.919 146.51 218.953C151.666 222.222 157.896 226.142 161.875 228.624C146.301 250.901 147.047 249.735 147.047 250.159C147.047 250.961 148.08 251.779 148.669 252.202C149.258 252.626 150.384 253.262 150.999 252.883C151.902 252.308 165.853 232.498 166.547 231.514C174.007 236.054 180.341 239.898 182.016 240.852C182.553 241.17 182.998 240.549 183.325 239.959C183.725 239.198 184.066 238.398 184.346 237.568C184.383 237.44 184.382 237.301 184.341 237.174C184.301 237.048 184.224 236.941 184.123 236.872L169.452 227.413L178.443 214.731L222.496 243.016C222.604 243.07 222.724 243.086 222.841 243.062C222.957 243.038 223.065 242.974 223.15 242.88C223.962 241.638 224.631 240.28 225.139 238.839C225.296 238.279 225.035 238.082 224.708 237.84C224.642 237.84 198.611 220.86 181.82 209.964L191.125 196.797C193.375 196.906 195.618 196.448 197.699 195.455C199.78 194.462 201.65 192.958 203.179 191.046C203.31 192.802 203.401 194.194 203.467 195.163C203.478 195.215 203.504 195.261 203.541 195.294C203.578 195.327 203.623 195.345 203.669 195.345C203.716 195.345 203.761 195.327 203.798 195.294C203.835 195.261 203.861 195.215 203.872 195.163C203.794 193.65 203.702 192.136 203.611 190.532C207.026 185.992 208.401 179.257 208.453 173.219C209.826 172.922 211.181 172.523 212.51 172.023C212.562 172.023 212.612 171.999 212.649 171.957C212.686 171.914 212.706 171.856 212.706 171.796C212.706 171.736 212.686 171.678 212.649 171.636C212.612 171.593 212.562 171.569 212.51 171.569C211.237 171.588 209.967 171.73 208.715 171.993C214.133 164.32 223.556 150.806 225.153 148.445C229.079 174.959 229.341 195.072 229.838 196.873C229.838 197.191 230.23 197.433 230.23 196.676C230.236 196.636 230.236 196.595 230.23 196.555C229.589 188.807 229.144 171.055 225.82 147.476C237.429 130.572 236.918 131.041 236.656 130.557C236.133 129.633 234.039 128.831 232.573 128.771C232.429 128.771 232.691 128.453 229.275 133.311C227.875 132.887 225.807 132.403 223.333 131.888C222.26 125.835 221.056 119.887 219.669 113.728C248.579 114.515 247.022 114.651 247.244 114.227L248.671 114.379C248.702 114.388 248.734 114.389 248.765 114.381C248.796 114.374 248.826 114.358 248.851 114.335C248.876 114.313 248.897 114.284 248.911 114.25C248.925 114.217 248.932 114.181 248.932 114.144C248.932 114.107 248.925 114.071 248.911 114.037C248.897 114.004 248.876 113.975 248.851 113.953C248.826 113.93 248.796 113.914 248.765 113.907C248.734 113.899 248.702 113.9 248.671 113.909L247.231 113.758C247.297 111.564 247.022 109.354 245.229 108.597C246.341 107.962 248.16 107.084 247.414 105.465C246.668 103.845 244.797 105.571 244.051 105.465C243.92 104.466 245.36 101.242 242.742 100.486C241.785 100.478 240.828 100.528 239.876 100.637C240.36 99.623 241.316 97.8221 241.185 96.7173C241.067 96.0061 240.543 95.4461 239.117 95.8547C238.829 95.9455 237.808 96.4147 237.088 96.6265C237.234 96.3799 237.357 96.1161 237.455 95.8396C237.703 94.4678 237.488 93.0379 236.853 91.8442C235.335 89.2261 233.123 91.2389 231.277 92.2226C231.622 91.5308 231.811 90.7504 231.827 89.9525C231.762 88.5299 230.374 88.197 229.21 88.5905C228.248 89.0098 227.316 89.5158 226.422 90.1039C226.804 89.4847 226.97 88.7221 226.887 87.9679C226.805 87.2136 226.48 86.5228 225.977 86.0329C225.179 85.4275 223.163 86.0329 222.247 86.4415C223.556 83.7477 223.085 81.4322 222.012 80.1912C220.938 78.9502 218.465 80.0399 217.365 79.9188C217.642 79.4762 217.883 79.0051 218.085 78.5114C218.334 77.1591 218.118 75.7481 217.483 74.5765C217.345 74.3233 217.151 74.1171 216.921 73.9788C216.691 73.8406 216.433 73.7753 216.175 73.7896C214.866 73.7896 212.628 75.7873 212.248 75.303C211.869 74.8187 212.248 73.0934 210.94 72.2762C209.631 71.459 208.1 72.0038 208.1 74.622C205.862 68.5684 203.689 63.5137 201.739 59.3368C214.512 63.4229 213.596 63.2262 213.832 62.9235ZM96.8561 229.396C95.3904 229.789 84.6325 229.865 83.2059 228.76C82.7086 227.368 89.9067 224.674 90.8228 224.114C91.2024 223.872 91.5688 222.374 91.7651 221.602C94.0414 222.283 96.3542 222.788 98.6884 223.115C98.3874 224.205 97.4582 228.518 96.8561 229.396ZM197.394 25.8456C205.835 14.1018 214.512 4.37072 227.404 1.78284C233.816 0.496463 238.777 0.662936 242.166 7.10995C240.426 8.19958 233.371 11.6501 231.539 12.4673L227.718 13.3148C227.606 13.3419 227.504 13.4119 227.431 13.5135C227.357 13.6151 227.315 13.7423 227.312 13.8748V18.3392L207.21 34.1692C203.454 33.6698 203.571 33.6244 203.401 33.806C203.231 33.9876 203.27 33.806 203.611 38.3462C202.721 38.9515 198.585 41.721 195.523 43.8246C192.211 44.5813 192.97 44.4905 192.368 44.4148C192.395 37.9981 193.834 30.7944 197.394 25.8456ZM153.315 42.8712C153.175 41.1843 152.845 39.5258 152.334 37.9376C152.303 37.8674 152.259 37.8063 152.204 37.7591C152.15 37.7119 152.087 37.6797 152.02 37.6651C151.719 37.6651 151.483 37.8922 151.235 38.1646C150.397 39.0877 148.617 41.4183 148.067 42.054L129.614 42.8409C129.496 42.1599 129.169 40.3892 128.973 39.7233C128.95 39.6402 128.911 39.5641 128.859 39.5009C128.807 39.4376 128.744 39.3888 128.673 39.3582C128.603 39.3276 128.527 39.316 128.452 39.3242C128.377 39.3323 128.304 39.3602 128.24 39.4055C127.834 39.6477 125.387 41.9026 125.02 42.2356C121.631 42.3566 105.193 42.856 101.842 42.3869C104.806 35.5969 109.21 29.7863 114.642 25.4975C126.408 16.0086 155.75 16.0086 168.994 22.0622C178.26 26.2996 187.042 29.7199 192.133 39.9352C191.992 41.4076 191.922 42.888 191.923 44.3694C190.68 44.2635 191.544 44.5964 189.45 42.962C177.671 33.7758 150.92 24.1506 137.388 28.7816C137.337 28.7992 137.293 28.8389 137.267 28.8923C137.24 28.9458 137.232 29.009 137.244 29.0691C137.453 29.9318 141.707 26.2088 158.865 30.4614C168.719 32.8829 181.938 38.1494 189.921 44.2635C183.835 44.1576 179.268 46.0947 171.245 48.955C167.254 47.9259 157.189 44.2938 153.315 42.8712ZM142.27 73.0178C151.038 58.5044 159.676 53.8432 174.426 48.6674C178.993 47.0481 184.019 44.8537 188.822 44.8234C190.353 44.7469 191.886 44.8381 193.402 45.0959C193.402 45.0959 193.638 45.0959 193.599 45.1867C193.8 47.5369 193.462 49.9071 192.617 52.0574C191.455 55.3649 189.876 58.4554 187.932 61.2285C182.841 68.7954 180.694 71.6406 173.627 76.8769C172.881 76.6953 170.094 75.7873 169.387 75.5451C169.323 75.5246 169.255 75.5211 169.19 75.5347C169.124 75.5483 169.062 75.5787 169.008 75.6237C168.954 75.6687 168.91 75.7272 168.878 75.7948C168.846 75.8624 168.828 75.9374 168.824 76.0143L168.445 82.5975C163.641 84.8524 154.271 89.6801 150.423 93.6452C149.114 90.0887 148.97 88.1516 148.185 88.1516C147.688 88.1516 147.688 88.2424 146.157 95.4461C144.18 96.5206 135.909 100.97 133.737 101.333C133.069 99.0328 136.119 83.112 142.27 73.0178ZM191.662 69.7186C190.353 68.9922 188.351 70.2029 187.16 71.0352C187.683 69.9607 188.468 68.1749 187.448 67.615C186.233 67.2601 184.947 67.4664 183.862 68.1901C185.236 66.3589 186.636 64.2855 188.377 61.6523C189.836 59.4761 191.099 57.1334 192.146 54.6604C192.395 58.005 192.879 64.1796 193.52 72.1551C192.854 72.1769 192.2 72.3735 191.609 72.7302C192.002 72.0038 192.997 70.4904 191.662 69.7186ZM92.642 111.352C91.7128 109.838 90.8097 107.826 92.2363 106.993C92.6764 106.855 93.1458 106.92 93.545 107.175C94.2891 107.58 94.9878 108.088 95.6259 108.688C95.6997 108.752 95.7892 108.787 95.8813 108.787C95.9734 108.788 96.0632 108.755 96.1378 108.692C96.2123 108.63 96.2676 108.541 96.2956 108.44C96.3236 108.338 96.3228 108.229 96.2934 108.128C95.9468 107.087 95.7951 105.973 95.8484 104.859C95.8484 104.708 95.8484 104.587 96.0186 104.542C96.4977 104.429 96.995 104.487 97.4451 104.708C98.2291 105.029 98.9798 105.451 99.683 105.964C99.7507 106.009 99.8274 106.033 99.9055 106.033C99.9836 106.033 100.06 106.009 100.128 105.964C100.795 105.465 99.3951 103.634 100.128 101.106C100.258 100.596 100.484 100.126 100.789 99.7279C101.095 99.3303 101.472 99.0155 101.895 98.8058C103.374 98.1248 105.35 98.5031 105.363 100.486V100.909C105.361 101.001 105.384 101.092 105.428 101.169C105.472 101.246 105.535 101.305 105.609 101.34C105.682 101.374 105.763 101.382 105.841 101.362C105.919 101.342 105.989 101.295 106.044 101.227C107.025 100.092 108.399 96.5055 110.153 97.5043C110.69 97.8221 110.533 98.3518 110.493 99.0177C110.454 99.6836 110.663 100.41 111.187 100.334C112.025 100.213 117.011 94.6743 116.54 98.2005C116.433 98.8585 116.258 99.4989 116.016 100.107C115.988 100.2 115.987 100.3 116.014 100.393C116.041 100.486 116.094 100.566 116.165 100.62C116.236 100.674 116.32 100.699 116.405 100.691C116.489 100.683 116.569 100.643 116.631 100.576C117.718 99.169 121.042 95.5369 122.115 96.7779C122.442 97.1562 122.193 98.7604 122.036 99.3052C121.94 99.4956 121.826 99.6732 121.696 99.8349C121.461 100.244 121.578 100.698 122.01 100.698C123.463 100.698 124.981 97.5194 126.748 97.5194C128.226 97.397 129.695 97.8791 130.897 98.8815C131.028 99.0328 131.577 100.546 132.101 99.9257C133.082 98.8058 131.577 96.566 130.792 94.8256C130.517 94.19 130.059 92.9642 130.635 92.6766C131.128 92.5189 131.651 92.5508 132.127 92.7674C132.362 93.3274 132.781 94.2808 133.226 93.8268C133.671 93.3728 133.54 92.7069 132.598 92.1923C132.472 91.8444 132.372 91.485 132.297 91.1178C132.297 90.9059 132.192 90.3611 132.297 90.2401C132.958 89.7795 133.725 89.563 134.496 89.6196C133.907 91.7686 131.643 100.698 133.004 102.287C133.186 102.464 133.421 102.551 133.658 102.529C135.595 102.423 144.979 97.353 146.746 96.4752C147.112 96.2785 146.903 96.3693 148.238 90.4217C149.455 94.1143 149.625 95.1586 150.24 95.1737C150.855 95.1888 150.541 94.0084 157.543 89.6801C162.935 86.3507 169.007 83.5055 169.007 83.5055C169.089 83.4695 169.16 83.408 169.214 83.3279C169.267 83.2477 169.299 83.152 169.308 83.0515L169.583 76.8164C173.509 78.0422 173.64 78.0876 173.863 77.9211C177.142 75.5818 180.154 72.7751 182.828 69.5673C184.136 68.7198 186.165 67.7209 187.16 68.296C187.827 68.6895 186.466 71.3228 185.956 72.0492C185.924 72.1126 185.912 72.1861 185.921 72.2583C185.929 72.3306 185.958 72.3977 186.002 72.4492C186.047 72.5008 186.105 72.534 186.167 72.5438C186.23 72.5535 186.293 72.5393 186.348 72.5032C186.99 71.9584 190.013 69.6581 191.348 70.4299C192.683 71.2017 189.973 73.2296 190.798 73.8653C191.047 74.0469 191.361 73.7896 191.636 73.5777C192.206 73.183 192.856 72.969 193.52 72.9572C194.279 82.1889 195.221 93.736 196.229 106.04C194.023 106.674 191.998 107.963 190.353 109.778C188.254 109.558 186.141 109.943 184.202 110.898C183.521 111.231 183.678 111.972 184.359 111.957C184.202 111.957 184.752 111.957 185.668 112.23C186.008 112.108 113.608 111.427 92.642 111.352ZM192.539 143.284C192.539 143.284 192.97 143.541 193.533 143.92C191.177 145.736 185.995 148.99 185.511 150.094C185.451 150.253 185.439 150.43 185.477 150.598C185.515 150.765 185.601 150.913 185.72 151.018C186.047 151.441 185.969 151.123 185.916 151.714V154.332C185.786 155.688 185.54 157.026 185.183 158.327C184.586 158.493 183.958 158.435 183.39 158.161C180.184 156.541 178.352 153.832 178.692 149.777C180.315 150.049 181.244 150.367 181.558 150.397C181.872 150.427 182.723 149.761 181.728 149.323C181.126 149.065 181.152 140.757 181.925 141.15C181.972 141.161 182.021 141.153 182.064 141.126C182.107 141.1 182.14 141.057 182.159 141.005C182.177 140.954 182.18 140.896 182.166 140.842C182.152 140.789 182.122 140.742 182.082 140.711C183.39 138.411 183.39 138.456 183.39 138.139C183.372 138.062 183.339 137.99 183.294 137.93C183.249 137.87 183.192 137.822 183.129 137.791C182.633 137.481 182.214 137.029 181.914 136.477C181.613 135.926 181.441 135.294 181.414 134.643C181.351 133.662 181.449 132.676 181.702 131.737C182.202 132.007 182.751 132.134 183.302 132.108C183.853 132.082 184.391 131.903 184.869 131.586C184.594 132.236 184.293 133.008 184.686 133.553C184.991 133.916 185.391 134.153 185.824 134.227C186.257 134.301 186.699 134.208 187.081 133.962C187.105 133.951 187.127 133.934 187.146 133.914C187.164 133.893 187.179 133.868 187.19 133.841C187.2 133.813 187.205 133.784 187.206 133.754C187.206 133.724 187.202 133.694 187.192 133.667C187.183 133.639 187.169 133.613 187.151 133.592C187.133 133.57 187.111 133.553 187.088 133.541C187.064 133.529 187.039 133.523 187.013 133.522C186.987 133.522 186.961 133.527 186.937 133.538C186.408 133.561 185.89 133.356 185.484 132.963C185.849 131.914 186.286 130.902 186.793 129.936C188.194 130.738 188.102 129.936 187.945 130.753C187.565 134.537 191.295 135.747 193.559 133.235C193.935 132.779 194.26 132.27 194.528 131.722C194.903 131.81 195.292 131.779 195.653 131.631C196.373 132.161 196.282 131.858 196.242 132.312C196.216 132.527 196.239 132.745 196.308 132.947C196.377 133.148 196.489 133.326 196.635 133.462C196.662 133.637 196.662 133.817 196.635 133.992C194.698 135.248 194.816 134.507 194.489 135.642C193.795 136.065 193.821 136.928 193.651 137.7C193.572 138.048 192.735 141.483 192.408 142.724C192.381 142.82 192.379 142.922 192.403 143.019C192.426 143.116 192.473 143.203 192.539 143.269V143.284ZM186.479 151.85C187.202 152.463 187.712 153.353 187.919 154.362C188.102 155.421 187.919 155.679 188.102 156.042C188.166 156.155 188.257 156.245 188.364 156.299C187.629 157.028 186.804 157.625 185.916 158.07C186.189 156.872 186.386 155.653 186.505 154.423C186.558 153.878 186.44 152.743 186.479 151.835V151.85ZM186.479 150.337C187.945 148.823 193.9 144.571 194.633 143.42C195.562 144.071 196.962 145.07 197.839 145.796C195.222 148.218 191.832 151.335 188.9 154.498C188.717 152.41 187.749 151.729 186.531 150.382L186.479 150.337ZM158.721 180.211C162.622 180.005 166.511 179.545 170.368 178.833C172.083 182.331 174.211 185.534 176.69 188.353C179.276 191.11 182.216 193.387 185.406 195.102C183.482 199.037 180.315 204.319 177.082 206.876L168.261 201.171C167.358 197.645 167.031 194.527 166.05 191.122C165.475 188.787 164.341 186.689 162.778 185.069C161.639 183.676 158.851 180.528 158.668 180.241C158.485 179.953 158.655 180.286 158.721 180.211ZM170.067 177.744C167.267 178.228 159.728 179.257 157.137 179C157.655 173.224 157.851 167.416 157.726 161.611C159.689 163.563 162.346 166.151 164.898 168.754C163.803 169.146 162.854 169.95 162.202 171.04C162.12 171.231 162.077 171.441 162.077 171.654C162.076 171.867 162.118 172.078 162.199 172.269C162.28 172.461 162.398 172.628 162.543 172.759C162.689 172.889 162.859 172.979 163.039 173.022C163.226 173.053 163.416 173.053 163.602 173.022C163.546 173.238 163.532 173.465 163.562 173.688C163.591 173.91 163.663 174.122 163.772 174.308C163.965 174.657 164.243 174.931 164.571 175.095C164.713 175.126 164.86 175.126 165.003 175.095C164.97 175.244 164.97 175.4 165.003 175.549C165.264 178.031 167.371 176.715 169.387 175.882C170.382 175.489 170.368 175.549 170.984 176.125L170.067 177.744ZM180.642 148.99C179.184 148.56 177.684 148.346 176.179 148.354C175.577 148.354 175.643 148.52 175.669 148.354C175.891 146.356 176.768 140.787 177.946 139.274L181.48 140.787C180.616 142.013 180.236 146.916 180.616 149.05L180.642 148.99ZM180.642 139.909C180.223 139.667 178.365 138.623 178.025 138.396C177.684 138.169 177.54 138.396 177.266 138.805L176.834 138.714L180.446 134.083C180.421 134.854 180.547 135.622 180.814 136.33C181.081 137.038 181.483 137.666 181.99 138.169L180.642 139.909ZM176.834 139.395C176.013 141.096 175.438 142.942 175.132 144.858C174.83 146.352 174.62 147.869 174.504 149.398C174.501 149.476 174.511 149.554 174.534 149.628C174.558 149.701 174.594 149.768 174.64 149.825C174.687 149.881 174.743 149.926 174.805 149.957C174.867 149.988 174.934 150.004 175.001 150.004C175.806 149.516 176.736 149.381 177.619 149.625C177.463 151.168 177.653 152.731 178.169 154.165C174.066 159.001 169.746 163.583 165.225 167.892L157.647 160.794C157.647 159.008 157.647 157.374 157.543 156.057C157.425 152.637 157.346 152.607 156.98 152.122C155.968 150.942 154.878 149.855 153.721 148.869C160.226 144.374 169.164 138.184 176.899 139.425L176.834 139.395ZM170.224 174.914C169.348 174.914 167.254 176.079 166.141 176.049C165.906 176.049 165.84 175.716 165.827 175.444C166.652 174.293 168.876 173.93 168.876 173.007C168.876 173.007 168.654 172.265 168.157 172.523C167.096 173.134 165.993 173.64 164.859 174.036C164.76 173.943 164.675 173.83 164.61 173.703C164.505 173.476 164.61 173.431 164.61 173.37C165.589 172.6 166.661 171.998 167.79 171.584C167.898 171.515 167.98 171.403 168.022 171.269C168.063 171.135 168.062 170.988 168.017 170.855C167.972 170.722 167.888 170.613 167.779 170.547C167.67 170.48 167.544 170.462 167.424 170.495C165.984 171.055 165.932 171.267 164.806 171.645C164.453 171.751 163.21 172.175 163.053 171.796C162.895 171.418 163.759 170.661 164.126 170.419C165.582 169.463 167.206 168.899 168.876 168.77C170.342 168.77 170.486 168.875 173.549 171.388L171.232 175.625C170.965 175.277 170.614 175.029 170.224 174.914ZM170.761 168.21C169.377 167.704 167.892 167.704 166.508 168.21C170.752 164.09 174.777 159.678 178.561 154.998C179.586 156.935 181.137 158.425 182.972 159.235C183.532 159.515 184.143 159.634 184.752 159.583C182.802 164.517 177.108 167.271 175.787 169.708L175.25 169.329C175.145 169.255 175.02 169.231 174.9 169.262C174.78 169.293 174.676 169.377 174.609 169.496L173.85 170.888C172.685 169.799 171.245 168.527 170.761 168.225V168.21ZM194.318 125.472C194.318 125.986 193.965 126.319 193.978 126.985C193.976 127.236 194.017 127.485 194.1 127.716C194.184 127.948 194.307 128.157 194.462 128.332C194.654 128.506 194.86 128.658 195.078 128.786C195.177 128.826 195.267 128.894 195.339 128.983C195.161 129.467 195.038 129.975 194.973 130.496H194.868C195.091 129.694 194.96 128.983 194.515 128.741C192.792 127.828 190.89 127.463 189.005 127.681C188.665 127.681 188.246 128.937 188.128 129.361C187.721 129.073 187.28 128.853 186.819 128.71C187.055 127.984 186.963 127.378 186.571 127.076C185.603 126.416 184.522 126.008 183.404 125.88L183.678 125.063C184.007 124.899 184.285 124.625 184.477 124.276C184.778 123.807 185.301 122.626 185.471 122.763C185.864 122.899 186.309 123.761 187.317 122.853C187.663 122.475 187.982 122.065 188.272 121.628C188.668 121.923 189.079 122.191 189.502 122.43C190.327 122.642 190.916 121.749 191.256 121.612C191.426 121.855 191.714 122.309 191.793 122.399C192.008 122.583 192.257 122.707 192.52 122.762C192.783 122.817 193.053 122.802 193.311 122.717C193.049 124.2 193.703 124.443 194.305 125.487L194.318 125.472ZM196.504 115.06C193.961 113.809 191.335 112.796 188.652 112.033C188.115 111.897 184.411 111.412 184.28 111.382L184.437 111.276C186.617 110.292 189.003 110.092 191.282 110.701C196.059 112.214 203.977 116.482 206.725 121.295C207.697 122.814 208.476 124.486 209.042 126.259C207.771 125.026 206.581 123.685 205.482 122.248C202.975 119.125 199.906 116.676 196.491 115.075L196.504 115.06ZM206.66 116.936C206.66 117.617 206.516 118.283 206.451 118.949C203.139 114.727 195.235 110.671 191.007 109.748C195.627 105.51 200.784 105.828 203.82 108.673C204.822 109.698 205.6 110.982 206.091 112.421C206.582 113.859 206.773 115.411 206.647 116.951L206.66 116.936ZM167.685 113.016C187.199 113.016 185.445 113.016 185.301 113.168H184.673C183.93 113.354 183.261 113.823 182.775 114.5C182.082 115.741 182.278 115.695 182.343 116.724C182.094 116.99 181.875 117.289 181.689 117.617C181.464 118.009 181.338 118.466 181.324 118.936C181.31 119.406 181.409 119.872 181.611 120.281C181.493 120.614 181.244 120.947 181.139 121.31C181.078 121.489 181.061 121.685 181.091 121.875C181.121 122.065 181.197 122.242 181.31 122.384C181.4 122.469 181.496 122.544 181.597 122.611C181.644 122.634 181.685 122.671 181.715 122.717C181.65 123.02 181.48 123.247 181.427 123.55C181.408 123.766 181.438 123.984 181.514 124.183C181.589 124.382 181.708 124.555 181.859 124.685C182.146 124.931 182.453 125.144 182.775 125.32L182.618 125.805H181.663C181.401 125.805 181.022 126.561 180.904 126.834C180.541 127.461 180.348 128.198 180.348 128.952C180.348 129.707 180.541 130.444 180.904 131.071C180.699 131.743 180.555 132.438 180.472 133.144L176.061 138.714C172.316 138.542 168.581 139.295 165.107 140.923C160.865 142.91 156.79 145.347 152.936 148.203C151.352 146.81 149.52 145.267 147.923 143.98C159.493 140.348 176.022 121.628 167.685 113.016ZM135.464 135.248C139.757 137.896 154.009 149.807 156.273 152.758C156.522 153.106 156.548 152.758 156.653 156.118C156.81 161.354 156.849 173.446 156.169 178.576C155.789 178.228 135.791 160.052 134.64 159.084C134.561 156.753 135.072 137.73 135.464 135.248ZM90.1815 191.243C90.0899 191.243 90.0245 191.243 89.9852 191.152C89.946 191.062 89.9852 190.547 90.1685 190.229C90.9014 188.716 92.5766 187.702 94.9061 185.008C95.4539 184.439 95.8988 183.749 96.2149 182.98C96.385 182.223 96.6729 179.015 96.7514 178.107H104.355C103.924 180.755 103.378 183.377 102.719 185.962C100.861 187.021 92.2494 191.773 90.1815 191.243ZM100.652 193.18C99.526 193.18 92.5504 193.362 91.4903 193.18C91.4439 192.885 91.4439 192.583 91.4903 192.287C94.0944 191.596 96.6263 190.581 99.0418 189.261H102.968C102.183 190.471 101.437 191.803 100.691 193.18H100.652ZM110.389 177.366C107.774 180.881 105.385 184.614 103.243 188.534L100.036 188.61C101.777 187.672 103.073 186.885 103.243 186.794C103.384 186.689 103.494 186.535 103.557 186.355C104.17 183.617 104.633 180.837 104.944 178.031C106.593 178.031 107.182 178.031 107.339 177.547C107.758 176.488 115.401 159.931 116.631 157.313C117.05 157.313 116.226 156.496 122.481 165.909C128.711 164.002 134.352 163.896 142.885 167.831L145.79 170.495C140.293 167.634 134.339 165.334 128.253 165.728C125.686 165.884 123.141 166.361 120.662 167.15C116.71 169.602 113.516 173.522 110.428 177.366H110.389ZM114.59 208.798C119.275 202.866 123.319 197.282 126.656 193.377H133.619C128.672 199.809 123.725 206.271 119.406 211.916C117.766 210.977 116.172 209.936 114.629 208.798H114.59ZM107.915 235.449C106.596 235.497 105.312 234.955 104.329 233.936C105.769 231.257 121.251 211.114 134.888 193.286H140.123C112.247 229.94 108.268 235.192 107.915 235.449ZM125.138 214.519C129.863 208.239 135.359 200.974 141.144 193.332C143.003 193.332 144.298 193.422 144.809 193.513C148.918 202.291 157.804 205.62 166.337 206.922L173.339 211.462C169.431 213.968 165.197 215.721 160.801 216.653C149.494 219.211 134.09 217.97 125.138 214.519ZM173.562 211.886L164.806 224.401L155.423 218.348C161.789 217.66 167.964 215.46 173.562 211.886ZM147.897 218.923C150.161 218.923 152.268 218.741 154.245 218.514L164.257 225.113L162.424 227.731L147.897 218.923ZM183.233 237.598C182.983 238.33 182.653 239.021 182.252 239.656C181.126 239.006 174.53 235.025 167.188 230.576L168.916 228.155L183.233 237.598ZM150.515 251.794C149.606 251.52 148.781 250.96 148.133 250.174C148.211 250.038 159.912 233.255 174.622 212.219L177.658 214.171C158.707 240.67 151.405 250.931 150.515 251.794ZM224.092 238.733C223.68 239.786 223.194 240.798 222.64 241.76C218.714 239.55 148.041 193.332 145.162 192.56C143.722 192.136 128.423 192.56 126.748 192.56L129.784 188.958C131.368 188.958 146.183 188.958 147.387 189.321C151.313 190.653 223.608 238.733 224.079 238.733H224.092ZM181.048 209.434L177.998 207.497C181.244 204.727 184.32 199.582 186.283 195.541C187.493 196.082 188.753 196.458 190.039 196.661C190.222 196.676 190.602 196.101 181.035 209.434H181.048ZM205.482 185.356C204.203 188.554 202.136 191.245 199.54 193.09C191.688 198.629 184.267 194.603 177.292 187.49C174.831 184.68 172.721 181.486 171.023 178.001L175.093 170.51C187.277 178.849 186.021 177.744 189.123 179.817C189.371 179.969 189.646 180.135 190.301 180.574L191.675 181.527C192.617 182.163 192.368 182.314 192.656 182.329C193.167 182.329 192.656 181.179 191.858 180.392C190.84 179.543 189.72 178.87 188.534 178.395C190.949 173.628 193.596 169.025 196.465 164.608C196.498 164.56 196.513 164.498 196.507 164.437C196.501 164.376 196.474 164.32 196.432 164.282C196.39 164.244 196.337 164.227 196.285 164.234C196.232 164.241 196.184 164.272 196.151 164.32C193.167 168.697 190.405 173.27 187.879 178.016C186.27 177.093 177.959 171.251 176.415 170.162C177.632 167.877 183.6 164.91 185.458 159.417C188.455 158.569 191.531 154.392 193.311 151.502L198.284 146.447C200.744 148.426 202.715 151.112 204.003 154.241C206.248 159.951 207.46 166.131 207.563 172.402C207.784 176.851 207.07 181.296 205.482 185.356ZM232.573 129.225C233.594 129.225 235.832 130.027 236.198 130.844C236.29 131.011 234.117 134.643 208.414 170.964C208.32 168.884 208.092 166.815 207.733 164.774C221.449 145.161 232.194 129.77 232.586 129.225H232.573ZM228.647 134.007C224.315 140.061 216.58 150.927 207.537 163.654C206.855 160.319 205.89 157.07 204.658 153.953C203.31 150.782 201.277 148.066 198.755 146.069C198.809 145.977 198.831 145.865 198.816 145.756C198.801 145.646 198.752 145.547 198.677 145.479C197.63 144.676 195.771 143.587 194.75 142.936C194.723 142.919 194.692 142.909 194.66 142.909C194.628 142.908 194.597 142.916 194.569 142.932C194.541 142.949 194.516 142.973 194.498 143.002C194.479 143.032 194.467 143.066 194.462 143.103L193.415 142.437L194.266 139.41C194.576 139.66 194.935 139.815 195.311 139.86C195.686 139.905 196.065 139.838 196.412 139.667C196.571 139.535 196.712 139.377 196.831 139.198C197.2 139.46 197.618 139.612 198.05 139.641C198.482 139.67 198.913 139.575 199.305 139.364C199.856 138.96 200.307 138.397 200.614 137.73C200.901 137.246 200.954 137.155 201.713 137.17C202.447 137.303 203.198 137.102 203.807 136.61C204.485 135.798 204.861 134.712 204.854 133.583C205.525 133.265 206.094 132.715 206.483 132.007C206.872 131.3 207.062 130.471 207.026 129.633C211.895 130.466 223.805 132.539 228.647 134.052V134.007ZM209.016 73.2902C209.291 72.5486 209.906 72.7605 210.534 73.1237C211.162 73.4869 211.175 74.1528 211.28 74.9095C211.856 78.7989 215.677 73.1842 216.777 75.1062C217.282 76.078 217.455 77.2333 217.261 78.3449C217.006 78.8701 216.722 79.3757 216.41 79.8583C216.354 79.937 216.323 80.036 216.323 80.1382C216.323 80.2405 216.354 80.3395 216.41 80.4182C217.431 81.5986 220.258 79.601 221.331 80.8571C221.763 81.4552 222.035 82.1849 222.117 82.9581C222.198 83.7314 222.084 84.5154 221.789 85.2156C221.41 86.3204 220.559 87.289 220.768 87.8035C220.978 88.3181 221.226 88.1819 221.527 87.8035C221.828 87.4252 224.878 86.3961 225.454 86.8047C225.616 86.9571 225.748 87.1482 225.84 87.365C225.933 87.5817 225.984 87.8191 225.99 88.0608C226.108 89.3926 225.493 89.6953 225.139 90.2855C224.786 90.8757 224.995 91.3297 225.493 91.3297C227.142 91.3297 229.144 88.651 230.728 89.5893C231.133 89.8315 230.728 91.2692 230.388 91.8442C230.047 92.4193 229.759 92.6312 229.89 93.0701C230.152 93.9478 231.618 93.0701 232.324 92.6312C233.777 91.7383 235.125 90.8 236.041 92.3891C236.537 93.3483 236.709 94.4853 236.526 95.5823C236.46 95.885 235.832 96.7325 235.78 97.0957C235.675 97.7464 236.342 97.8372 236.892 97.7162C238.031 97.474 240.19 96.2028 240.229 96.9898C240.229 98.0945 238.685 100.607 238.685 101.227C238.698 101.369 238.756 101.5 238.848 101.595C238.94 101.69 239.059 101.743 239.182 101.742C239.313 101.742 242.31 101.454 242.493 101.515C244.548 102.105 242.415 105.117 243.383 106.237C244.012 106.978 245.137 106.237 246.092 105.888C246.197 105.888 246.524 105.767 246.577 105.888C246.93 106.721 245.124 107.402 244.391 107.871C243.658 108.34 243.684 109.218 244.156 109.384C244.381 109.422 244.61 109.422 244.836 109.384C246.145 109.884 246.328 111.609 246.289 113.198C244.443 113.092 219.316 112.108 219.224 112.108C216.465 100.019 213.007 88.1574 208.872 76.6045C208.757 75.4983 208.806 74.3776 209.016 73.2902ZM220.703 123.232C217.995 123.585 215.308 124.121 212.654 124.836C211.895 125.063 211.227 125.32 210.678 125.517C210.626 125.529 210.58 125.565 210.55 125.616C210.521 125.667 210.51 125.729 210.521 125.789C210.531 125.85 210.562 125.903 210.606 125.937C210.65 125.971 210.704 125.983 210.756 125.971L211.987 125.865C214.171 125.63 216.336 125.205 218.465 124.594C219.254 124.337 220.032 124.034 220.794 123.686C221.335 126.259 221.85 128.897 222.339 131.601C220.179 131.177 209.592 129.346 206.83 128.907C206.813 128.634 206.722 128.374 206.568 128.165C206.876 127.468 207.114 126.732 207.275 125.971C207.75 126.539 208.277 127.046 208.846 127.484C209.434 127.772 210.311 127.227 209.932 125.653C209.262 123.74 208.382 121.935 207.314 120.281C207.38 119.236 207.537 118.207 207.641 117.118C207.832 114.941 207.429 112.751 206.491 110.852C205.552 108.953 204.124 107.44 202.407 106.524C200.829 105.839 199.136 105.585 197.459 105.783C197.145 102.135 196.831 98.3821 196.504 94.7197C197.037 94.7268 197.571 94.6965 198.101 94.6289C200.745 94.25 203.349 93.5656 205.875 92.5858C205.927 92.5738 205.973 92.5383 206.002 92.4872C206.031 92.4361 206.042 92.3736 206.032 92.3134C206.021 92.2532 205.991 92.2002 205.946 92.1662C205.902 92.1321 205.848 92.1198 205.796 92.1318C202.634 92.4298 199.507 93.1043 196.465 94.1446C194.292 69.1435 193.442 62.0306 193.01 52.4358C193.512 50.9272 193.847 49.3507 194.004 47.7443C196.009 51.1483 197.76 54.7428 199.239 58.4893C199.331 58.7012 199.423 58.6709 200.404 58.9887C209.539 78.0573 216.227 101.5 220.703 123.262V123.232ZM199.763 57.9293C198.179 54.0298 196.268 50.3193 194.057 46.8514C194.09 46.2546 194.064 45.6553 193.978 45.0656C193.958 44.9924 193.923 44.9262 193.874 44.8733C193.826 44.8204 193.768 44.7824 193.703 44.7629C197.538 43.9154 207.524 41.8572 211.45 42.2356C228.752 43.87 240.596 49.182 249.757 66.0259C252.675 71.3682 251.642 80.7663 249.456 85.5183C249.249 85.9885 248.985 86.4217 248.671 86.8047C247.231 85.2913 239.915 76.211 238.554 74.6068L237.991 69.1132C237.98 69.0282 237.953 68.9471 237.911 68.8755C237.87 68.804 237.816 68.7437 237.752 68.699C237.688 68.6543 237.617 68.6263 237.543 68.6168C237.469 68.6073 237.394 68.6166 237.324 68.6441L233.398 70.3996L219.185 63.6651C217.365 58.005 217.496 58.1412 217.169 58.0655C216.842 57.9899 216.999 57.9445 213.452 62.1214L199.763 57.9293Z" fill="black"/>
</g>
<defs>
<filter id="filter0_d_171_127" x="0" y="0" width="256.629" height="264.037" filterUnits="userSpaceOnUse" color-interpolation-filters="sRGB">
<feFlood flood-opacity="0" result="BackgroundImageFix"/>
<feColorMatrix in="SourceAlpha" type="matrix" values="0 0 0 0 0 0 0 0 0 0 0 0 0 0 0 0 0 0 127 0" result="hardAlpha"/>
<feOffset dy="4"/>
<feGaussianBlur stdDeviation="2"/>
<feComposite in2="hardAlpha" operator="out"/>
<feColorMatrix type="matrix" values="0 0 0 0 0 0 0 0 0 0 0 0 0 0 0 0 0 0 0.25 0"/>
<feBlend mode="normal" in2="BackgroundImageFix" result="effect1_dropShadow_171_127"/>
<feBlend mode="normal" in="SourceGraphic" in2="effect1_dropShadow_171_127" result="shape"/>
</filter>
</defs>
</svg>
