<svg width="16" height="16" viewBox="0 0 16 16" fill="none" xmlns="http://www.w3.org/2000/svg">
<path d="M8.09526 8.29339C8.45833 8.29339 8.75267 8.01053 8.75267 7.66159C8.75267 7.31265 8.45833 7.02979 8.09526 7.02979C7.73218 7.02979 7.43785 7.31265 7.43785 7.66159C7.43785 8.01053 7.73218 8.29339 8.09526 8.29339Z" fill="#ADA4A5" stroke="#ADA4A5" stroke-width="2" stroke-linecap="round" stroke-linejoin="round"/>
<path d="M8.09526 3.87103C8.45833 3.87103 8.75267 3.58816 8.75267 3.23923C8.75267 2.89029 8.45833 2.60742 8.09526 2.60742C7.73218 2.60742 7.43785 2.89029 7.43785 3.23923C7.43785 3.58816 7.73218 3.87103 8.09526 3.87103Z" fill="#ADA4A5" stroke="#ADA4A5" stroke-width="2" stroke-linecap="round" stroke-linejoin="round"/>
<path d="M8.09526 12.7162C8.45833 12.7162 8.75267 12.4334 8.75267 12.0844C8.75267 11.7355 8.45833 11.4526 8.09526 11.4526C7.73218 11.4526 7.43785 11.7355 7.43785 12.0844C7.43785 12.4334 7.73218 12.7162 8.09526 12.7162Z" fill="#ADA4A5" stroke="#ADA4A5" stroke-width="2" stroke-linecap="round" stroke-linejoin="round"/>
</svg>
