<svg width="16" height="16" viewBox="0 0 16 16" fill="none" xmlns="http://www.w3.org/2000/svg">
<path d="M7.66467 6.24283L9.16034 6.23783C9.53567 6.24116 9.96301 6.56616 10.0187 6.88249L10.341 9.22683C10.3513 9.32416 10.2723 9.45116 10.307 9.50683C10.4007 9.43383 10.4563 9.31583 10.439 9.19049L10.168 7.01849C10.102 6.49716 9.65701 6.10449 9.13234 6.10449H7.71701H7.66801L7.66467 6.24283Z" fill="#FFF1B8"/>
<path d="M7.92833 6.39406C7.96233 6.39406 9.20566 6.41539 9.21033 6.44872C9.51066 6.45139 9.90433 7.12739 9.94899 7.38039C9.95366 7.41706 10.2443 9.31872 10.281 9.31406C10.302 9.39039 10.25 9.48772 10.2867 9.52472C10.3797 9.45239 10.435 9.33506 10.4177 9.21106L10.149 7.05672C10.0837 6.53972 9.64233 6.15039 9.12199 6.15039H7.66699V6.33339L7.92833 6.39406Z" fill="#FEE89A"/>
<path d="M8.21538 6.54562C8.28338 6.54562 9.25072 6.59329 9.26005 6.65996C9.48538 6.66196 9.84571 7.68896 9.87905 7.87862C9.88838 7.95196 10.147 9.41062 10.2204 9.40129C10.252 9.45696 10.227 9.52396 10.2654 9.54262C10.3577 9.47096 10.4124 9.35462 10.3954 9.23162L10.1287 7.09529C10.0637 6.58262 9.62605 6.19629 9.11005 6.19629H7.66638V6.46296L8.21538 6.54562Z" fill="#FDE07C"/>
<path d="M8.48001 6.69654C8.58201 6.69654 9.27367 6.77054 9.28767 6.87054C9.43767 6.87188 9.76467 8.24988 9.78701 8.37621C9.80101 8.48621 10.028 9.50188 10.138 9.48788C10.18 9.52288 10.1827 9.55954 10.2223 9.55988C10.314 9.48854 10.368 9.37354 10.351 9.25154L10.087 7.13288C10.0227 6.62421 9.58867 6.24121 9.07667 6.24121H7.66467L7.66701 6.64121L8.48001 6.69654Z" fill="#FDD75E"/>
<path d="M8.78932 6.84875C8.92532 6.84875 9.34099 6.94909 9.35965 7.08242C9.43465 7.08309 9.72832 8.81209 9.73932 8.87542C9.75799 9.02209 9.95299 9.59509 10.0997 9.57642C10.1523 9.59042 10.182 9.59742 10.2237 9.57909C10.3143 9.50842 10.3683 9.39409 10.3513 9.27309L10.089 7.17209C10.025 6.66775 9.59465 6.28809 9.08732 6.28809H7.66432L7.66199 6.82142L8.78932 6.84875Z" fill="#FCCF40"/>
<path d="M8.33498 6.24283L6.83931 6.23783C6.46398 6.24116 6.03664 6.56616 5.98098 6.88249L5.65864 9.22683C5.64831 9.32416 5.72731 9.45116 5.69264 9.50683C5.59898 9.43383 5.54331 9.31583 5.56064 9.19049L5.83164 7.01849C5.89764 6.49716 6.34264 6.10449 6.86731 6.10449H8.28264H8.33164L8.33498 6.24283Z" fill="#FFF1B8"/>
<path d="M8.07099 6.39406C8.03699 6.39406 6.79365 6.41539 6.78899 6.44872C6.48865 6.45139 6.09499 7.12739 6.05032 7.38039C6.04565 7.41706 5.75499 9.31872 5.71832 9.31406C5.69732 9.39039 5.74932 9.48772 5.71265 9.52472C5.61965 9.45239 5.56432 9.33506 5.58165 9.21106L5.85032 7.05672C5.91565 6.53972 6.35699 6.15039 6.87732 6.15039H8.33232V6.33339L8.07099 6.39406Z" fill="#FEE89A"/>
<path d="M7.78404 6.54562C7.71604 6.54562 6.7487 6.59329 6.73937 6.65996C6.51404 6.66196 6.1537 7.68896 6.12037 7.87862C6.11104 7.95196 5.85237 9.41062 5.77904 9.40129C5.74737 9.45696 5.77237 9.52396 5.73404 9.54262C5.6417 9.47096 5.58704 9.35462 5.60404 9.23162L5.8707 7.09529C5.9357 6.58262 6.37337 6.19629 6.88937 6.19629H8.33304V6.46296L7.78404 6.54562Z" fill="#FDE07C"/>
<path d="M7.51938 6.69654C7.41738 6.69654 6.72571 6.77054 6.71171 6.87054C6.56171 6.87188 6.23471 8.24988 6.21238 8.37621C6.19838 8.48621 5.97138 9.50188 5.86138 9.48788C5.81938 9.52288 5.81671 9.55954 5.77704 9.55988C5.68538 9.48854 5.63138 9.37354 5.64838 9.25154L5.91271 7.13288C5.97704 6.62421 6.41104 6.24121 6.92304 6.24121H8.33504L8.33271 6.64121L7.51938 6.69654Z" fill="#FDD75E"/>
<path d="M7.21001 6.84875C7.07401 6.84875 6.65835 6.94909 6.63968 7.08242C6.56468 7.08309 6.27101 8.81209 6.26001 8.87542C6.24135 9.02209 6.04634 9.59509 5.89968 9.57642C5.84701 9.59042 5.81735 9.59742 5.77568 9.57909C5.68501 9.50842 5.63101 9.39409 5.64801 9.27309L5.91035 7.17209C5.97435 6.66775 6.40468 6.28809 6.91201 6.28809H8.33501L8.33734 6.82142L7.21001 6.84875Z" fill="#FCCF40"/>
<path d="M7.66638 6.99967H8.37138H9.07638C9.24638 6.99967 9.38638 7.12634 9.40972 7.29301L9.53971 8.33301L9.66972 9.37301C9.69305 9.55634 9.85638 9.68634 10.0397 9.66301C10.103 9.65634 10.1597 9.63301 10.203 9.59634C10.293 9.52634 10.3464 9.41301 10.3297 9.29301L10.1997 8.25134L10.0697 7.20967C10.0064 6.70967 9.57972 6.33301 9.07638 6.33301H8.37138H7.66638V6.99967Z" fill="#FBC622"/>
<path d="M10.0003 7.21415C9.93763 6.71882 9.51296 6.39615 9.01496 6.39648C9.01029 6.39648 8.90763 6.39648 8.90296 6.39648H8.32963H7.84396L7.66663 6.42015V6.47782L7.73496 7.00015H8.01429H8.41863H8.85263C8.86329 7.00015 9.09663 7.00348 9.10429 7.00948C9.21529 7.01715 9.31096 7.08048 9.36429 7.17315C9.38729 7.20848 9.40496 7.26615 9.41129 7.31015L9.53796 8.32348L9.54763 8.39949L9.66429 9.33382C9.67729 9.43582 9.74596 9.55815 9.83196 9.59815C9.88029 9.63449 9.93363 9.64549 9.99363 9.63782C10.0516 9.63049 10.1066 9.60782 10.155 9.57515C10.234 9.51482 10.279 9.40382 10.2623 9.27882C10.259 9.24849 10.1416 8.30982 10.135 8.26415C10.1243 8.18549 10.0003 7.21415 10.0003 7.21415Z" fill="url(#paint0_radial_172_2995)"/>
<path d="M9.93105 7.21732C9.86905 6.72665 9.44638 6.45832 8.95405 6.45899C8.94471 6.45899 8.85372 6.45899 8.84438 6.45899H8.28805H7.81438L7.66638 6.50632V6.56432L7.80371 6.99965H8.07372H8.46605H8.89005C8.91138 6.99965 9.11705 7.00665 9.13305 7.01832C9.23738 7.03332 9.32572 7.09999 9.37238 7.19299C9.39172 7.22232 9.40872 7.29032 9.41405 7.32699L9.53738 8.31332L9.54671 8.38832L9.66005 9.29432C9.67071 9.37932 9.73372 9.52732 9.80538 9.56065C9.84772 9.60832 9.89305 9.61999 9.94872 9.61232C10.0014 9.60499 10.0544 9.58232 10.108 9.55332C10.176 9.50299 10.2127 9.39399 10.1964 9.26399C10.19 9.20299 10.0847 8.36765 10.0717 8.27665C10.0487 8.11865 9.93105 7.21732 9.93105 7.21732Z" fill="url(#paint1_radial_172_2995)"/>
<path d="M9.86163 7.2218C9.79996 6.7358 9.37963 6.52146 8.89263 6.52246C8.87863 6.52246 8.79929 6.52246 8.78529 6.52246H8.24629H7.78496L7.66663 6.59346V6.6518L7.87263 7.00013H8.13329H8.51363H8.92729C8.95896 7.00013 9.13763 7.01046 9.16129 7.02813C9.25929 7.0508 9.33963 7.12013 9.37963 7.21346C9.39496 7.23713 9.41163 7.3148 9.41596 7.34413L9.53596 8.3038L9.54529 8.3778L9.65496 9.25513C9.66363 9.32313 9.72096 9.4968 9.77829 9.52346C9.81496 9.58246 9.85163 9.59513 9.90329 9.5868C9.95063 9.57946 10.002 9.55713 10.0606 9.5318C10.1176 9.49113 10.146 9.38413 10.1296 9.24946C10.12 9.15813 10.0273 8.42613 10.0073 8.28913C9.97329 8.0528 9.86163 7.2218 9.86163 7.2218Z" fill="url(#paint2_radial_172_2995)"/>
<path d="M9.79233 7.2253C9.73133 6.74397 9.31266 6.58397 8.83166 6.58497C8.81299 6.58497 8.74533 6.5853 8.72666 6.5853H8.20466H7.75566L7.66699 6.67997V6.73863L7.94133 6.99963H8.19299H8.56099H8.96466C9.00699 6.99963 9.15799 7.0133 9.18966 7.03697C9.28099 7.0673 9.35399 7.13963 9.38733 7.23297C9.39899 7.25063 9.41499 7.33863 9.41833 7.36063L9.53499 8.29363L9.54399 8.3663L9.64999 9.2153C9.65633 9.2663 9.70799 9.46563 9.75099 9.48563C9.78166 9.55597 9.81033 9.5693 9.85766 9.56097C9.89966 9.55363 9.94899 9.5313 10.013 9.50997C10.0593 9.4793 10.0793 9.3743 10.063 9.23463C10.0503 9.11297 9.96966 8.48397 9.94333 8.3013C9.89799 7.98597 9.79233 7.2253 9.79233 7.2253Z" fill="url(#paint3_radial_172_2995)"/>
<path d="M9.72268 7.22946C9.66235 6.75279 9.24568 6.64679 8.77002 6.64846C8.74668 6.64846 8.69068 6.64879 8.66735 6.64879H8.16235H7.72535L7.66602 6.76712V6.82612L8.01002 6.99979H8.25235H8.60835H9.00168C9.05468 6.99979 9.17802 7.01712 9.21802 7.04646C9.30268 7.08446 9.36802 7.15946 9.39468 7.25312C9.40235 7.26479 9.41802 7.36279 9.42002 7.37746L9.53335 8.28346L9.54235 8.35512L9.64502 9.17579C9.64935 9.20979 9.69535 9.43479 9.72402 9.44812C9.74902 9.52979 9.76935 9.54412 9.81235 9.53546C9.84902 9.52812 9.89668 9.50579 9.96568 9.48812C10.001 9.46712 10.0127 9.36446 9.99635 9.21979C9.98035 9.06779 9.91235 8.54179 9.87935 8.31379C9.82235 7.92012 9.72268 7.22946 9.72268 7.22946Z" fill="url(#paint4_radial_172_2995)"/>
<path d="M9.65329 7.23299C9.59363 6.76099 9.17896 6.70899 8.70896 6.71099C8.68096 6.71099 8.63663 6.71132 8.60863 6.71132H8.12096H7.69629L7.66663 6.85332V6.91266L8.07863 6.99966H8.31196H8.65596H9.03929C9.10296 6.99966 9.19896 7.02032 9.24663 7.05566C9.32496 7.10099 9.38263 7.17932 9.40229 7.27299C9.40629 7.27899 9.42129 7.38699 9.42229 7.39432L9.53229 8.27366L9.54096 8.34399L9.63996 9.13599C9.64196 9.15299 9.68229 9.40366 9.69663 9.41032C9.71563 9.50299 9.72763 9.51866 9.76663 9.50966C9.79796 9.50232 9.84396 9.48032 9.91796 9.46632C9.94229 9.45499 9.94563 9.35466 9.92929 9.20466C9.91029 9.02199 9.85429 8.59932 9.81496 8.32566C9.74696 7.85366 9.65329 7.23299 9.65329 7.23299Z" fill="url(#paint5_radial_172_2995)"/>
<path d="M7.66638 7.00038H8.37138H9.07638C9.24638 7.00038 9.38638 7.12704 9.40972 7.29371L9.53971 8.33371L9.66972 9.37371C9.69305 9.55704 9.68738 9.46871 9.87071 9.44538C9.90238 9.44204 9.83072 8.89004 9.75105 8.33904C9.67138 7.78804 9.58405 7.23771 9.58405 7.23771C9.52072 6.73771 9.05305 6.77504 8.54972 6.77504H7.66638V7.00038Z" fill="url(#paint6_radial_172_2995)"/>
<path d="M8.33031 6.99967H7.62531H6.92031C6.75031 6.99967 6.61031 7.12634 6.58698 7.29301L6.45698 8.33301L6.32698 9.37301C6.30364 9.55634 6.14031 9.68634 5.95698 9.66301C5.89364 9.65634 5.83698 9.63301 5.79364 9.59634C5.70364 9.52634 5.65031 9.41301 5.66698 9.29301L5.79698 8.25134L5.92698 7.20967C5.99031 6.70967 6.41698 6.33301 6.92031 6.33301H7.62531H8.33031V6.99967Z" fill="#FBC622"/>
<path d="M5.99629 7.21415C6.05895 6.71882 6.48362 6.39615 6.98162 6.39648C6.98629 6.39648 7.08895 6.39648 7.09362 6.39648H7.66695H8.32929L8.32995 6.42015V6.47782L8.26162 7.00015H7.98229H7.57795H7.14395C7.13328 7.00015 6.89995 7.00348 6.89229 7.00948C6.78129 7.01715 6.68562 7.08048 6.63228 7.17315C6.60928 7.20848 6.59162 7.26615 6.58529 7.31015L6.45862 8.32348L6.44895 8.39949L6.33229 9.33382C6.31929 9.43582 6.25062 9.55815 6.16462 9.59815C6.11629 9.63449 6.06295 9.64549 6.00295 9.63782C5.94495 9.63049 5.88995 9.60782 5.84162 9.57515C5.76262 9.51482 5.71762 9.40382 5.73428 9.27882C5.73762 9.24849 5.85495 8.30982 5.86162 8.26415C5.87262 8.18549 5.99629 7.21415 5.99629 7.21415Z" fill="url(#paint7_radial_172_2995)"/>
<path d="M6.06603 7.21732C6.12803 6.72665 6.5507 6.45832 7.04303 6.45899C7.05237 6.45899 7.14337 6.45899 7.1527 6.45899H7.70903H8.33303L8.33037 6.50632V6.56432L8.19303 6.99965H7.92303H7.5307H7.1067C7.08537 6.99965 6.8797 7.00665 6.8637 7.01832C6.75937 7.03332 6.67103 7.09999 6.62437 7.19299C6.60503 7.22232 6.58803 7.29032 6.5827 7.32699L6.45937 8.31332L6.45003 8.38832L6.3367 9.29432C6.32603 9.37932 6.26303 9.52732 6.19137 9.56065C6.14903 9.60832 6.1037 9.61999 6.04803 9.61232C5.99537 9.60499 5.94237 9.58232 5.8887 9.55332C5.8207 9.50299 5.78403 9.39399 5.80037 9.26399C5.8067 9.20299 5.91203 8.36765 5.92503 8.27665C5.94803 8.11865 6.06603 7.21732 6.06603 7.21732Z" fill="url(#paint8_radial_172_2995)"/>
<path d="M6.13538 7.2218C6.19704 6.7358 6.61738 6.52146 7.10438 6.52246C7.11838 6.52246 7.19771 6.52246 7.21171 6.52246H7.75071H8.33038V6.59346V6.6518L8.12438 7.00013H7.86338H7.48338H7.06971C7.03804 7.00013 6.85938 7.01046 6.83571 7.02813C6.73771 7.0508 6.65738 7.12013 6.61738 7.21346C6.60204 7.23713 6.58538 7.3148 6.58104 7.34413L6.46104 8.3038L6.45171 8.3778L6.34204 9.25513C6.33338 9.32313 6.27604 9.4968 6.21871 9.52346C6.18204 9.58246 6.14538 9.59513 6.09371 9.5868C6.04638 9.57946 5.99504 9.55713 5.93638 9.5318C5.87938 9.49113 5.85104 9.38413 5.86738 9.24946C5.87704 9.15813 5.96971 8.42613 5.98971 8.28913C6.02338 8.0528 6.13538 7.2218 6.13538 7.2218Z" fill="url(#paint9_radial_172_2995)"/>
<path d="M6.20464 7.2253C6.26564 6.74397 6.6843 6.58397 7.1653 6.58497C7.18397 6.58497 7.25164 6.5853 7.2703 6.5853H7.7923H8.3303V6.67997V6.73863L8.05564 6.99963H7.80397H7.43597H7.0323C6.98997 6.99963 6.83897 7.0133 6.8073 7.03697C6.71597 7.0673 6.64297 7.13963 6.60964 7.23297C6.59797 7.25063 6.58197 7.33863 6.57864 7.36063L6.46197 8.29363L6.45297 8.3663L6.34697 9.2153C6.34064 9.2663 6.28897 9.46563 6.24597 9.48563C6.2153 9.55597 6.18664 9.5693 6.1393 9.56097C6.0973 9.55363 6.04797 9.5313 5.98397 9.50997C5.93764 9.4793 5.91764 9.3743 5.93397 9.23463C5.94664 9.11297 6.0273 8.48397 6.05364 8.3013C6.09897 7.98597 6.20464 7.2253 6.20464 7.2253Z" fill="url(#paint10_radial_172_2995)"/>
<path d="M6.274 7.22946C6.33433 6.75279 6.751 6.64679 7.22667 6.64846C7.25 6.64846 7.306 6.64879 7.32933 6.64879H7.83433H8.33033V6.76712V6.82612L7.987 6.99979H7.74466H7.38867H6.99533C6.94233 6.99979 6.819 7.01712 6.779 7.04646C6.69433 7.08446 6.629 7.15946 6.60233 7.25312C6.59466 7.26479 6.579 7.36279 6.577 7.37746L6.46367 8.28346L6.45467 8.35512L6.352 9.17579C6.34767 9.20979 6.30167 9.43479 6.273 9.44812C6.248 9.52979 6.22767 9.54412 6.18467 9.53546C6.148 9.52812 6.10033 9.50579 6.03133 9.48812C5.996 9.46712 5.98433 9.36446 6.00067 9.21979C6.01667 9.06779 6.08467 8.54179 6.11767 8.31379C6.17433 7.92012 6.274 7.22946 6.274 7.22946Z" fill="url(#paint11_radial_172_2995)"/>
<path d="M6.34333 7.23299C6.403 6.76099 6.81766 6.70899 7.28766 6.71099C7.31566 6.71099 7.36 6.71132 7.388 6.71132H7.87566H8.33V6.85332V6.91266L7.91833 6.99966H7.685H7.341H6.95766C6.894 6.99966 6.798 7.02032 6.75033 7.05566C6.672 7.10099 6.61433 7.17932 6.59466 7.27299C6.59066 7.27899 6.57566 7.38699 6.57466 7.39432L6.46466 8.27366L6.456 8.34399L6.35666 9.13632C6.35466 9.15332 6.31433 9.40399 6.3 9.41066C6.281 9.50332 6.269 9.51899 6.23 9.50999C6.19866 9.50266 6.15266 9.48066 6.07866 9.46666C6.05433 9.45532 6.051 9.35499 6.06733 9.20499C6.08633 9.02232 6.14233 8.59966 6.18166 8.32599C6.25 7.85366 6.34333 7.23299 6.34333 7.23299Z" fill="url(#paint12_radial_172_2995)"/>
<path d="M8.33028 7.00038H7.62528H6.92028C6.75028 7.00038 6.61028 7.12704 6.58695 7.29371L6.45695 8.33371L6.32695 9.37371C6.30362 9.55704 6.30928 9.46871 6.12595 9.44538C6.09428 9.44204 6.16595 8.89004 6.24562 8.33904C6.32528 7.78804 6.41262 7.23771 6.41262 7.23771C6.47595 6.73771 6.94362 6.77504 7.44695 6.77504H8.33028V7.00038Z" fill="url(#paint13_radial_172_2995)"/>
<path d="M8.00004 15.0003C10.0251 15.0003 11.6667 13.3587 11.6667 11.3337C11.6667 9.30861 10.0251 7.66699 8.00004 7.66699C5.975 7.66699 4.33337 9.30861 4.33337 11.3337C4.33337 13.3587 5.975 15.0003 8.00004 15.0003Z" fill="url(#paint14_linear_172_2995)"/>
<path d="M7.99995 14.3627C9.67282 14.3627 11.0289 13.0066 11.0289 11.3337C11.0289 9.66082 9.67282 8.30469 7.99995 8.30469C6.32708 8.30469 4.97095 9.66082 4.97095 11.3337C4.97095 13.0066 6.32708 14.3627 7.99995 14.3627Z" fill="url(#paint15_linear_172_2995)"/>
<path d="M8.00004 14.043C9.49673 14.043 10.71 12.8297 10.71 11.333C10.71 9.83635 9.49673 8.62305 8.00004 8.62305C6.50335 8.62305 5.29004 9.83635 5.29004 11.333C5.29004 12.8297 6.50335 14.043 8.00004 14.043Z" fill="url(#paint16_linear_172_2995)"/>
<path d="M4.20337 1L7.35004 5.40333C7.47004 5.57333 7.5367 5.77667 7.5367 5.98333V6.66667H8.5497V5.98333C8.5497 5.77667 8.48304 5.57333 8.36304 5.40333L5.21637 1H4.20337Z" fill="url(#paint17_linear_172_2995)"/>
<path d="M3.33337 1L6.48004 5.40333C6.60004 5.57333 6.66671 5.77667 6.66671 5.98333V6.66667H7.56671V5.98333C7.56671 5.77667 7.50004 5.57333 7.38004 5.40333L4.23337 1H3.33337Z" fill="url(#paint18_linear_172_2995)"/>
<path d="M5.16333 1L8.31 5.40333C8.43 5.57333 8.49666 5.77667 8.49666 5.98333V6.66667H9.33333V5.97333C9.33333 5.76333 9.26666 5.56 9.14666 5.39L6 1H5.16333Z" fill="url(#paint19_linear_172_2995)"/>
<path d="M11.7967 1L8.64998 5.40333C8.52998 5.57333 8.46332 5.77667 8.46332 5.98333V6.66667H7.45032V5.98333C7.45032 5.77667 7.51698 5.57333 7.63698 5.40333L10.7837 1H11.7967Z" fill="url(#paint20_linear_172_2995)"/>
<path d="M12.6667 1L11.7133 2.33333L10.5233 4L10.0467 4.66667L9.52002 5.40333C9.40002 5.57333 9.33335 5.77667 9.33335 5.98333V6.66667H8.43335V5.98333C8.43335 5.77667 8.50002 5.57333 8.62002 5.40333L9.14668 4.66667L9.62335 4L10.8133 2.33333L11.7667 1H12.6667Z" fill="url(#paint21_linear_172_2995)"/>
<path d="M10.8366 1L9.88329 2.33333L8.69329 4L8.21663 4.66667L7.68996 5.40333C7.56996 5.57333 7.50329 5.77667 7.50329 5.98333V6.66667H6.66663V5.97333C6.66663 5.76333 6.73329 5.56 6.85329 5.39L7.37329 4.66667L7.84996 4L9.04329 2.33333L9.52329 1.66667L9.99996 1H10.8366Z" fill="url(#paint22_linear_172_2995)"/>
<path d="M7.56663 6V7.33333H6.99996C6.81663 7.33333 6.66663 7.18333 6.66663 7V6.33333C6.66663 6.15 6.81663 6 6.99996 6H7.56663Z" fill="url(#paint23_linear_172_2995)"/>
<path d="M8.4633 6H7.5033V7.33333H8.4633V6Z" fill="url(#paint24_linear_172_2995)"/>
<path d="M9.33335 6.33333V7C9.33335 7.18333 9.18335 7.33333 9.00002 7.33333H8.43335V6H9.00002C9.18335 6 9.33335 6.15 9.33335 6.33333Z" fill="url(#paint25_linear_172_2995)"/>
<path opacity="0.6" d="M12.19 1.66699L11.7133 2.33366L10.5233 4.00033L10.0466 4.66699H7.37329L7.84996 4.00033L9.04329 2.33366L9.52329 1.66699H12.19Z" fill="url(#paint26_linear_172_2995)"/>
<path d="M8.89598 9.14941H7.60298L6.57898 9.88708V11.2754L7.60298 10.6244V13.4967H8.89598V9.14941Z" fill="url(#paint27_linear_172_2995)"/>
<path d="M8.00004 15.0003C10.0251 15.0003 11.6667 13.3587 11.6667 11.3337C11.6667 9.30861 10.0251 7.66699 8.00004 7.66699C5.975 7.66699 4.33337 9.30861 4.33337 11.3337C4.33337 13.3587 5.975 15.0003 8.00004 15.0003Z" fill="url(#paint28_radial_172_2995)"/>
<path d="M7.99995 14.3627C9.67282 14.3627 11.0289 13.0066 11.0289 11.3337C11.0289 9.66082 9.67282 8.30469 7.99995 8.30469C6.32708 8.30469 4.97095 9.66082 4.97095 11.3337C4.97095 13.0066 6.32708 14.3627 7.99995 14.3627Z" fill="url(#paint29_radial_172_2995)"/>
<path d="M7.99995 14.3627C9.67282 14.3627 11.0289 13.0066 11.0289 11.3337C11.0289 9.66082 9.67282 8.30469 7.99995 8.30469C6.32708 8.30469 4.97095 9.66082 4.97095 11.3337C4.97095 13.0066 6.32708 14.3627 7.99995 14.3627Z" fill="url(#paint30_radial_172_2995)"/>
<defs>
<radialGradient id="paint0_radial_172_2995" cx="0" cy="0" r="1" gradientUnits="userSpaceOnUse" gradientTransform="translate(8.94263 8.40455) scale(1.40633 1.46357)">
<stop stop-color="#F9BF20"/>
<stop offset="0.856" stop-color="#F9BF20"/>
<stop offset="0.997" stop-color="#F9BF20"/>
</radialGradient>
<radialGradient id="paint1_radial_172_2995" cx="0" cy="0" r="1" gradientUnits="userSpaceOnUse" gradientTransform="translate(8.91038 8.41205) scale(1.36933 1.42507)">
<stop stop-color="#F8B71E"/>
<stop offset="0.856" stop-color="#F8B71E"/>
<stop offset="0.997" stop-color="#F8B71E"/>
</radialGradient>
<radialGradient id="paint2_radial_172_2995" cx="0" cy="0" r="1" gradientUnits="userSpaceOnUse" gradientTransform="translate(8.87763 8.42087) scale(1.33233 1.38656)">
<stop stop-color="#F6B01C"/>
<stop offset="0.856" stop-color="#F6B01C"/>
<stop offset="0.997" stop-color="#F6B01C"/>
</radialGradient>
<radialGradient id="paint3_radial_172_2995" cx="0" cy="0" r="1" gradientUnits="userSpaceOnUse" gradientTransform="translate(8.84566 8.42871) scale(1.29533 1.34805)">
<stop stop-color="#F5A919"/>
<stop offset="0.856" stop-color="#F5A919"/>
<stop offset="0.997" stop-color="#F5A919"/>
</radialGradient>
<radialGradient id="paint4_radial_172_2995" cx="0" cy="0" r="1" gradientUnits="userSpaceOnUse" gradientTransform="translate(8.81368 8.43686) scale(1.25867 1.30989)">
<stop stop-color="#F3A217"/>
<stop offset="0.856" stop-color="#F3A217"/>
<stop offset="0.997" stop-color="#F3A217"/>
</radialGradient>
<radialGradient id="paint5_radial_172_2995" cx="0" cy="0" r="1" gradientUnits="userSpaceOnUse" gradientTransform="translate(8.78229 8.44506) scale(1.22233 1.27208)">
<stop stop-color="#F29A15"/>
<stop offset="0.856" stop-color="#F29A15"/>
<stop offset="0.997" stop-color="#F29A15"/>
</radialGradient>
<radialGradient id="paint6_radial_172_2995" cx="0" cy="0" r="1" gradientUnits="userSpaceOnUse" gradientTransform="translate(8.75205 8.45378) scale(1.187 1.23531)">
<stop stop-color="#F09313"/>
<stop offset="0.856" stop-color="#F09313"/>
<stop offset="0.997" stop-color="#F09313"/>
</radialGradient>
<radialGradient id="paint7_radial_172_2995" cx="0" cy="0" r="1" gradientUnits="userSpaceOnUse" gradientTransform="translate(7.05395 8.40455) rotate(180) scale(1.40633 1.46357)">
<stop stop-color="#F9BF20"/>
<stop offset="0.856" stop-color="#F9BF20"/>
<stop offset="0.997" stop-color="#F9BF20"/>
</radialGradient>
<radialGradient id="paint8_radial_172_2995" cx="0" cy="0" r="1" gradientUnits="userSpaceOnUse" gradientTransform="translate(7.0877 8.41205) rotate(180) scale(1.37 1.42576)">
<stop stop-color="#F8B71E"/>
<stop offset="0.856" stop-color="#F8B71E"/>
<stop offset="0.997" stop-color="#F8B71E"/>
</radialGradient>
<radialGradient id="paint9_radial_172_2995" cx="0" cy="0" r="1" gradientUnits="userSpaceOnUse" gradientTransform="translate(7.11904 8.42087) rotate(180) scale(1.33233 1.38656)">
<stop stop-color="#F6B01C"/>
<stop offset="0.856" stop-color="#F6B01C"/>
<stop offset="0.997" stop-color="#F6B01C"/>
</radialGradient>
<radialGradient id="paint10_radial_172_2995" cx="0" cy="0" r="1" gradientUnits="userSpaceOnUse" gradientTransform="translate(7.15097 8.42871) rotate(180) scale(1.29533 1.34805)">
<stop stop-color="#F5A919"/>
<stop offset="0.856" stop-color="#F5A919"/>
<stop offset="0.997" stop-color="#F5A919"/>
</radialGradient>
<radialGradient id="paint11_radial_172_2995" cx="0" cy="0" r="1" gradientUnits="userSpaceOnUse" gradientTransform="translate(7.183 8.43686) rotate(180) scale(1.25867 1.30989)">
<stop stop-color="#F3A217"/>
<stop offset="0.856" stop-color="#F3A217"/>
<stop offset="0.997" stop-color="#F3A217"/>
</radialGradient>
<radialGradient id="paint12_radial_172_2995" cx="0" cy="0" r="1" gradientUnits="userSpaceOnUse" gradientTransform="translate(7.21433 8.44506) rotate(180) scale(1.22233 1.27208)">
<stop stop-color="#F29A15"/>
<stop offset="0.856" stop-color="#F29A15"/>
<stop offset="0.997" stop-color="#F29A15"/>
</radialGradient>
<radialGradient id="paint13_radial_172_2995" cx="0" cy="0" r="1" gradientUnits="userSpaceOnUse" gradientTransform="translate(7.24462 8.45378) rotate(180) scale(1.187 1.23531)">
<stop stop-color="#F09313"/>
<stop offset="0.856" stop-color="#F09313"/>
<stop offset="0.997" stop-color="#F09313"/>
</radialGradient>
<linearGradient id="paint14_linear_172_2995" x1="4.52737" y1="7.30599" x2="10.5984" y2="14.3473" gradientUnits="userSpaceOnUse">
<stop stop-color="#FFE16E"/>
<stop offset="0.352" stop-color="#FFD226"/>
<stop offset="0.453" stop-color="#FDCD23"/>
<stop offset="0.579" stop-color="#F6BD1B"/>
<stop offset="0.663" stop-color="#F0AF13"/>
<stop offset="1" stop-color="#F08D13"/>
</linearGradient>
<linearGradient id="paint15_linear_172_2995" x1="10.6783" y1="14.012" x2="4.78461" y2="8.11835" gradientUnits="userSpaceOnUse">
<stop stop-color="#FFE16E"/>
<stop offset="0.352" stop-color="#FFD226"/>
<stop offset="0.453" stop-color="#FDCD23"/>
<stop offset="0.579" stop-color="#F6BD1B"/>
<stop offset="0.663" stop-color="#F0AF13"/>
<stop offset="1" stop-color="#F08D13"/>
</linearGradient>
<linearGradient id="paint16_linear_172_2995" x1="5.68504" y1="8.58938" x2="10.2807" y2="14.036" gradientUnits="userSpaceOnUse">
<stop stop-color="#FFE787"/>
<stop offset="0.525" stop-color="#FFE16E"/>
<stop offset="1" stop-color="#F0BC13"/>
</linearGradient>
<linearGradient id="paint17_linear_172_2995" x1="4.67537" y1="1.359" x2="7.40937" y2="5.263" gradientUnits="userSpaceOnUse">
<stop stop-color="#F9EAE7"/>
<stop offset="0.616" stop-color="#F0D7D5"/>
<stop offset="0.69" stop-color="#E0C5C3"/>
<stop offset="0.896" stop-color="#B89896"/>
<stop offset="1" stop-color="#A88685"/>
</linearGradient>
<linearGradient id="paint18_linear_172_2995" x1="3.60904" y1="1.29267" x2="6.74404" y2="5.619" gradientUnits="userSpaceOnUse">
<stop offset="0.614" stop-color="#FE4532"/>
<stop offset="0.751" stop-color="#E23A2A"/>
<stop offset="0.907" stop-color="#C83122"/>
<stop offset="1" stop-color="#BF2D1F"/>
</linearGradient>
<linearGradient id="paint19_linear_172_2995" x1="5.34433" y1="1.229" x2="7.78933" y2="4.57367" gradientUnits="userSpaceOnUse">
<stop stop-color="#1D67BB"/>
<stop offset="0.638" stop-color="#0353AE"/>
<stop offset="0.746" stop-color="#024898"/>
<stop offset="0.906" stop-color="#013B7D"/>
<stop offset="1" stop-color="#013673"/>
</linearGradient>
<linearGradient id="paint20_linear_172_2995" x1="9.62332" y1="1.452" x2="9.62332" y2="7.085" gradientUnits="userSpaceOnUse">
<stop stop-color="#FFF8F5"/>
<stop offset="0.278" stop-color="#FFF2EF"/>
<stop offset="0.427" stop-color="#FFF8F5"/>
<stop offset="0.508" stop-color="#FBEEEC"/>
<stop offset="0.63" stop-color="#F0D7D5"/>
<stop offset="1" stop-color="#B59997"/>
</linearGradient>
<linearGradient id="paint21_linear_172_2995" x1="10.55" y1="0.851" x2="10.55" y2="6.44067" gradientUnits="userSpaceOnUse">
<stop stop-color="#FF6C47"/>
<stop offset="0.2" stop-color="#FF6744"/>
<stop offset="0.445" stop-color="#FE583C"/>
<stop offset="0.657" stop-color="#FE4532"/>
<stop offset="1" stop-color="#D43829"/>
</linearGradient>
<linearGradient id="paint22_linear_172_2995" x1="8.75163" y1="1" x2="8.75163" y2="6.66667" gradientUnits="userSpaceOnUse">
<stop stop-color="#4686CF"/>
<stop offset="0.77" stop-color="#0353AE"/>
<stop offset="1" stop-color="#013673"/>
</linearGradient>
<linearGradient id="paint23_linear_172_2995" x1="7.11663" y1="6" x2="7.11663" y2="7.33333" gradientUnits="userSpaceOnUse">
<stop stop-color="#4686CF"/>
<stop offset="0.77" stop-color="#0353AE"/>
<stop offset="1" stop-color="#013673"/>
</linearGradient>
<linearGradient id="paint24_linear_172_2995" x1="7.9833" y1="6.10633" x2="7.9833" y2="7.43167" gradientUnits="userSpaceOnUse">
<stop stop-color="#FFF8F5"/>
<stop offset="0.274" stop-color="#FBEEEC"/>
<stop offset="0.689" stop-color="#F0D7D5"/>
<stop offset="1" stop-color="#B59997"/>
</linearGradient>
<linearGradient id="paint25_linear_172_2995" x1="8.88335" y1="5.965" x2="8.88335" y2="7.28" gradientUnits="userSpaceOnUse">
<stop stop-color="#FF6C47"/>
<stop offset="0.2" stop-color="#FF6744"/>
<stop offset="0.445" stop-color="#FE583C"/>
<stop offset="0.657" stop-color="#FE4532"/>
<stop offset="1" stop-color="#D43829"/>
</linearGradient>
<linearGradient id="paint26_linear_172_2995" x1="9.78162" y1="1.93499" x2="9.78162" y2="4.47333" gradientUnits="userSpaceOnUse">
<stop stop-color="#FFF8F5" stop-opacity="0"/>
<stop offset="0.54" stop-color="#FFF8F5" stop-opacity="0.6"/>
<stop offset="1" stop-color="#FFF8F5" stop-opacity="0"/>
</linearGradient>
<linearGradient id="paint27_linear_172_2995" x1="2.58398" y1="3.98975" x2="12.1176" y2="16.3301" gradientUnits="userSpaceOnUse">
<stop stop-color="#FFE16E"/>
<stop offset="0.352" stop-color="#FFD226"/>
<stop offset="0.49" stop-color="#F5BA19"/>
<stop offset="0.581" stop-color="#F0AF13"/>
<stop offset="1" stop-color="#F08D13"/>
</linearGradient>
<radialGradient id="paint28_radial_172_2995" cx="0" cy="0" r="1" gradientUnits="userSpaceOnUse" gradientTransform="translate(8.40371 11.7847) scale(5.08667)">
<stop stop-color="#FFF3C2" stop-opacity="0"/>
<stop offset="0.725" stop-color="#FFF3C2" stop-opacity="0"/>
<stop offset="0.83" stop-color="#FFF3C2"/>
<stop offset="0.962" stop-color="#FFF3C2" stop-opacity="0"/>
</radialGradient>
<radialGradient id="paint29_radial_172_2995" cx="0" cy="0" r="1" gradientUnits="userSpaceOnUse" gradientTransform="translate(8.13461 10.7204) scale(4.561)">
<stop stop-color="#FFE477" stop-opacity="0"/>
<stop offset="0.725" stop-color="#FFE477" stop-opacity="0"/>
<stop offset="0.83" stop-color="#FFEEAB"/>
<stop offset="0.962" stop-color="#FFE477" stop-opacity="0"/>
</radialGradient>
<radialGradient id="paint30_radial_172_2995" cx="0" cy="0" r="1" gradientUnits="userSpaceOnUse" gradientTransform="translate(8.13461 10.7204) scale(4.561)">
<stop stop-color="#FFF3C2" stop-opacity="0"/>
<stop offset="0.725" stop-color="#FFF3C2" stop-opacity="0"/>
<stop offset="0.83" stop-color="#FFF3C2"/>
<stop offset="0.962" stop-color="#FFF3C2" stop-opacity="0"/>
</radialGradient>
</defs>
</svg>
