<svg width="158" height="140" viewBox="0 0 158 140" fill="none" xmlns="http://www.w3.org/2000/svg">
<path d="M50.4433 79.6403C50.6938 80.0873 51.0047 80.6515 51.618 80.7248C52.9654 80.7248 54.926 79.8455 54.356 78.6145C54.053 77.961 53.7069 77.3225 53.3195 76.702C53.1036 76.0572 52.7926 75.449 52.0239 75.3684C51.3133 75.4082 50.6345 75.6335 50.0806 76.0132C48.4654 76.702 49.3637 77.6766 50.4433 79.6403ZM49.5019 76.8412C49.7092 76.2916 51.0047 75.8153 51.903 75.7714C52.4817 75.8373 52.6717 76.5628 52.974 77.0097C53.4232 77.6546 54.546 78.7757 53.9932 79.4938C53.7299 79.7992 53.3835 80.046 52.9834 80.2131C52.5834 80.3803 52.1415 80.4628 51.6957 80.4537C51.1343 80.3145 50.927 79.7209 50.6333 79.1347C50.3397 78.5485 49.2255 77.5959 49.5019 76.8412ZM58.7782 75.5735C58.2081 74.3279 57.4567 72.7231 56.1007 73.4632C55.237 73.7929 54.4423 74.0201 54.1746 74.5477C54.0915 74.7973 54.0788 75.0599 54.1373 75.3145C54.1958 75.569 54.3239 75.8084 54.5114 76.0132C55.0469 76.8632 55.6084 79.3619 57.5172 78.5046C59.2619 77.8158 60.0133 77.574 58.7782 75.5735ZM56.187 78.0356C55.7923 77.5349 55.4512 77.0052 55.1679 76.4529C54.546 75.3977 53.4404 74.5843 55.5047 74.0861C57.2926 73.28 57.2322 73.8662 58.1995 75.5516C58.5018 76.0938 58.925 76.3283 59.0632 77.127C59.141 77.6033 58.5968 77.8597 57.9922 77.999C58.0009 77.7645 56.9298 78.805 56.213 78.0356H56.187ZM63.3905 72.452C62.829 71.4628 62.6218 71.3236 62.0949 71.2137C61.5077 71.2212 60.9375 71.3824 60.4625 71.6753C58.735 72.4813 59.2619 72.9503 59.927 74.3132C61.2744 77.0684 61.7667 76.9951 63.9001 75.7787C64.054 75.717 64.1917 75.6297 64.305 75.522C64.4183 75.4142 64.505 75.2883 64.5597 75.1515C64.6145 75.0148 64.6364 74.8702 64.6239 74.7261C64.6115 74.5821 64.5651 74.4417 64.4874 74.3132C64.1831 73.6681 63.8162 73.0456 63.3905 72.452ZM63.2868 75.7054C61.1448 76.5188 61.6976 76.3796 60.212 74.1667C59.9183 73.6757 59.4519 73.3826 59.5469 72.6279C59.6592 72.2468 60.2983 71.9904 60.687 71.8951C62.6736 71.1624 62.4145 71.6753 63.7014 73.6024C64.0864 73.994 64.3161 74.4786 64.3578 74.9873C64.2369 75.5662 63.0277 75.7054 63.2868 75.7054ZM70.8012 67.3007C69.7561 67.9089 70.3434 68.8981 71.0085 69.8141C71.6994 71.1624 72.2522 72.5253 73.8242 71.6753C75.3702 71.0158 76.0612 70.9425 75.3789 69.5723C75.0933 68.9338 74.7467 68.3162 74.3424 67.7257C73.4614 66.077 72.6322 66.4361 70.8012 67.3007ZM71.7426 67.2568C72.304 67.0003 72.8913 66.7512 73.3578 67.0296C73.8119 67.4443 74.1382 67.9477 74.3079 68.4951C74.7743 69.3671 76.2598 70.6934 74.6274 71.1111C73.1677 71.7632 72.399 71.9611 71.8031 70.5908C71.4749 69.9973 70.4643 68.6563 70.5248 67.9456C70.8271 67.5719 71.0775 67.5572 71.7426 67.2568ZM75.8539 66.4434C76.8904 68.3119 77.3913 70.4149 79.1879 69.4477C80.3193 68.9641 81.5372 68.5244 80.9153 67.5059C80.5946 66.8494 80.2313 66.2085 79.827 65.5861C79.2656 64.5969 79.0497 64.4503 78.5228 64.3477C77.9356 64.3553 77.3655 64.5165 76.8904 64.8094L76.4844 64.9925C76.3282 65.0501 76.1873 65.134 76.0704 65.239C75.9534 65.344 75.8627 65.4681 75.8038 65.6037C75.7448 65.7393 75.7189 65.8836 75.7275 66.0279C75.7361 66.1722 75.7791 66.3136 75.8539 66.4434ZM78.7906 64.7434C79.241 65.1592 79.5642 65.6624 79.732 66.2089C80.4403 67.2275 81.3817 68.4072 80.0602 68.8175C77.9355 69.7481 77.9787 69.5063 77.0804 67.8869C76.1389 66.5313 75.2579 65.6887 76.9163 65.0951C76.9163 65.2197 78.1514 64.399 78.7906 64.7434ZM66.2235 72.3714C65.4461 71.2869 65.757 71.1624 64.6342 69.9093C64.997 71.2723 65.2388 71.1111 65.8607 72.3201C66.1878 73.0815 66.626 73.8053 67.1649 74.4744C67.2858 74.3645 67.424 74.3718 66.9749 73.6098C66.7574 73.1832 66.5063 72.7694 66.2235 72.3714ZM68.5641 70.1365C68.2866 69.5835 67.9391 69.0577 67.5277 68.5684C67.6521 69.1685 67.9163 69.7414 68.305 70.2537C68.996 71.2869 69.2465 72.3128 70.0756 73.1848C70.5075 72.8477 69.281 71.6093 68.5641 70.1365ZM16.1883 93.4308C15.2036 91.87 15.4455 91.7528 14.5299 90.9834C14.651 91.5248 14.8976 92.0403 15.2555 92.5002C15.9464 93.5261 16.2055 94.5592 17.0261 95.4312C17.2852 95.2334 16.2401 93.5114 16.1883 93.4308ZM19.6691 94.3028C19.9109 94.1049 19.7468 94.061 19.5827 93.7092C19.2459 93.0731 18.8712 92.4519 18.4598 91.848C18.1215 91.1125 17.6808 90.4138 17.147 89.767C17.5357 91.1959 17.7689 90.9907 18.3821 92.1998C18.702 92.9451 19.1346 93.652 19.6691 94.3028ZM24.2899 89.5619C24.0814 88.9393 23.7226 88.3604 23.2362 87.8618C22.623 87.4295 22.0184 87.6933 21.431 87.9351C20.0145 88.5213 19.8418 88.6679 19.7813 89.1149C19.8004 89.658 20.0044 90.1848 20.3687 90.6317C21.6038 92.6174 21.336 93.5627 23.8235 92.5295C24.1404 92.4788 24.4328 92.3505 24.6645 92.1603C24.8963 91.9702 25.0574 91.7266 25.1277 91.4597C24.9961 90.787 24.7115 90.1424 24.2899 89.5619ZM24.7823 91.8041C24.169 92.3756 23.7372 92.3243 23.0548 92.6321C22.3725 92.9398 22.0356 92.5075 21.6556 92.0386C20.4809 90.0308 19.7468 89.5399 20.3428 88.917C20.4431 88.8155 20.5669 88.7326 20.7066 88.6733C20.8462 88.6141 20.9987 88.5798 21.1546 88.5726C22.3898 88.0304 22.8821 87.8399 23.504 88.7851C24.4281 90.5877 25.0932 91.0274 24.7823 91.8041ZM29.3772 87.8838C29.0058 86.6235 28.0385 85.0701 26.7861 85.7735C25.9224 86.1032 25.1277 86.3304 24.86 86.858C24.7758 87.107 24.7616 87.3693 24.8186 87.6239C24.8756 87.8784 25.0022 88.118 25.1882 88.3235C25.7324 89.1808 26.2938 91.6722 28.1939 90.8222C29.8436 90.2067 29.9214 90.0894 30.025 89.745C30.0755 89.4136 30.0439 89.077 29.9324 88.7565C29.8209 88.436 29.6318 88.1388 29.3772 87.8838ZM28.5913 90.3386C27.1488 90.9761 26.9502 90.5364 26.8638 90.4045C26.6036 90.134 26.3965 89.8297 26.2506 89.5032C25.4991 87.9131 23.9013 86.9386 26.1901 86.3744C28.2026 85.4657 27.9176 86.3744 29.1872 88.2868C29.4738 88.6268 29.655 89.0224 29.7141 89.4373C29.7832 89.833 29.4377 89.9722 28.5913 90.3386ZM30.5519 84.0955C30.2507 84.229 30.0211 84.4552 29.9103 84.7277C29.7995 85.0002 29.8158 85.2984 29.9559 85.561C30.9492 87.2463 31.4329 89.5765 33.3331 88.5506C34.7409 87.9351 35.1382 87.8179 35.1382 87.3782C35.3023 86.6455 33.7736 84.3959 33.8167 84.4472C32.9789 82.9231 32.2016 83.3847 30.5519 84.0955ZM31.7784 83.9929C33.1344 83.3994 33.3331 84.4692 34.2832 85.9201C34.81 86.6528 35.3628 87.3856 34.4127 87.8106C34.114 87.9532 33.8053 88.0805 33.4885 88.1916C31.7093 88.8364 32.193 88.1403 30.8974 86.4623C30.621 85.986 30.1459 85.6782 30.241 84.9235C30.3532 84.4985 30.7851 84.4326 31.7784 83.9929ZM41.9184 82.8498C42.5058 83.8757 42.7131 84.1101 43.2226 84.1688C44.5441 84.1688 45.2092 83.3701 45.2092 83.5972C46.2197 82.9817 46.5739 82.8645 44.8896 80.1533C44.3628 79.1787 44.1641 78.9589 43.594 78.8343C42.8836 78.8804 42.2061 79.1078 41.6507 79.4865C39.8023 80.2559 41.3225 81.5162 41.9184 82.8498ZM43.4299 79.186C44 79.2593 44.1986 79.9774 44.5009 80.439C44.8032 80.9007 45.2437 81.5382 45.6238 82.183C45.9261 82.6739 45.5806 83.2382 45.3387 83.2748C42.9635 84.3446 42.9117 84.0076 42.1862 82.5933C42.0825 82.3955 41.9962 82.3955 41.1756 80.9886C40.4415 79.8309 42.3676 79.252 43.4299 79.186ZM35.8292 83.839C36.1574 84.3226 37.1248 86.0373 37.6948 86.814C38.1094 86.4623 36.9952 85.2606 36.3302 84.0002C36.0353 83.3853 35.6142 82.8197 35.0864 82.3296C35.2081 82.8709 35.4611 83.3849 35.8292 83.839ZM39.0163 82.8498C39.3035 83.2574 39.5518 83.6837 39.7591 84.1248C40.0269 84.5718 40.4674 85.2166 40.6747 85.4877C41.0893 85.1433 39.9664 83.905 39.31 82.674C39.0074 82.0464 38.5777 81.4685 38.0403 80.9666C38.2219 81.6412 38.5531 82.2803 39.0163 82.8498ZM47.5585 79.3326C47.3181 78.7112 46.9134 78.1448 46.3752 77.6766C46.6689 78.849 47.0144 78.9003 47.5758 79.9994C47.6622 80.1752 48.6727 82.3296 48.9491 82.0877C49.2255 81.8459 47.5153 79.2593 47.5585 79.3326ZM45.4251 71.6533C46.0211 72.4886 46.6948 73.7197 46.6516 73.6391C46.721 73.772 46.8238 73.8905 46.9528 73.9862C47.0819 74.0819 47.234 74.1524 47.3986 74.1929C47.5632 74.2334 47.7363 74.2429 47.9057 74.2206C48.075 74.1984 48.2366 74.1449 48.379 74.0641C49.3637 73.5292 51.1861 73.5731 49.8733 71.5068C49.5484 70.7993 49.1616 70.1135 48.7159 69.455C47.9213 68.3412 46.4702 69.2865 46.1247 69.3744C45.7595 69.5062 45.4324 69.7037 45.166 69.9533C44.6737 70.7593 45.3301 71.3309 45.4251 71.6533ZM46.8071 69.455C48.4222 68.9275 48.1804 69.6822 49.5623 71.6533C50.7715 73.3606 49.5623 73.1188 49.5623 73.4632C49.4414 73.3606 49.5623 73.4632 49.3378 73.4632C46.8416 74.3572 47.2648 73.9029 45.6929 71.5654C45.2697 70.8326 45.0883 70.4882 45.3647 70.0999C45.7822 69.7957 46.2753 69.5753 46.8071 69.455ZM50.7024 69.3378C51.0318 70.0721 51.4066 70.7912 51.8253 71.4921C51.894 71.6257 51.9974 71.7445 52.1278 71.8395C52.2582 71.9344 52.4122 72.0032 52.5783 72.0405C52.7445 72.0779 52.9184 72.0829 53.0871 72.0552C53.2559 72.0274 53.415 71.9677 53.5527 71.8805C54.2005 71.5727 55.0383 71.4481 55.4443 70.8986C55.562 70.6587 55.6025 70.3965 55.5615 70.139C55.5205 69.8815 55.3996 69.6379 55.2111 69.4331C54.6669 68.5464 54.5805 68.1434 54.0537 67.3154C53.1899 66.0184 51.3589 67.3594 51.4625 67.2714C51.0377 67.376 50.659 67.5851 50.3742 67.8723C50.1583 68.2387 50.2619 68.5904 50.7024 69.3378ZM51.5662 67.4326C52.6458 67.0882 53.0431 66.8391 53.6823 67.799C54.8915 70.1072 56.5498 70.9718 53.5268 71.6167C52.3349 71.9904 52.2312 71.4774 51.4798 70.2904C49.9769 67.8943 50.5124 68.0188 51.5921 67.4619L51.5662 67.4326ZM61.6198 64.9266C62.8118 66.949 62.8463 67.2201 63.4682 67.4619C64.3765 67.4539 65.2507 67.1676 65.9298 66.6559C66.1772 66.4168 66.3262 66.1159 66.3542 65.7987C66.3823 65.4814 66.2879 65.165 66.0853 64.8973C65.8607 64.7874 65.9471 64.4503 64.8501 62.699C64.1246 61.5999 62.259 62.318 61.2916 63.2559C60.9461 63.7982 61.3866 64.2525 61.6198 64.9266ZM61.6198 63.2559C61.879 62.9408 63.3473 62.5232 63.2695 62.5671C64.5133 62.1714 64.6601 63.4538 65.5929 64.6482C65.8958 64.9934 66.0593 65.4122 66.0593 65.8425C65.973 66.4947 65.2993 66.6999 64.5047 66.927C63.4077 67.4766 62.8981 66.3701 62.4404 65.6447C61.9826 64.9193 60.998 63.7982 61.6026 63.2559H61.6198ZM57.1544 68.5831C57.404 69.1113 57.7445 69.6052 58.165 70.0486C58.5623 69.7115 57.4481 68.4878 56.7916 67.2494C56.4852 66.6197 56.0527 66.0396 55.5134 65.5348C56.0748 67.2421 56.6016 67.374 57.1544 68.5831ZM60.0133 67.2275C60.2951 67.7632 60.6242 68.28 60.998 68.7736C61.4125 68.4218 60.307 67.2201 59.6333 65.9598C59.3305 65.3301 58.9009 64.7499 58.3636 64.2451C58.9941 66.121 59.5469 66.077 60.0133 67.2275ZM67.6659 62.7064C68.1615 63.6107 68.7151 64.4913 69.3242 65.3443C69.7388 64.9852 68.6419 63.8275 67.9509 62.5305C67.6624 61.8974 67.241 61.314 66.7071 60.8085C66.8813 61.4872 67.2067 62.1313 67.6659 62.7064ZM71.6217 62.3326C71.9164 62.8642 72.2481 63.3805 72.615 63.8788C73.0209 63.5417 71.924 62.2814 71.2676 61.0577C70.9578 60.4487 70.5285 59.8887 69.9979 59.4016C70.6543 61.3654 71.1553 61.1676 71.6217 62.3326ZM74.8261 61.0723C75.119 61.607 75.4508 62.1258 75.8194 62.6258C76.2339 62.274 75.1284 61.0796 74.4547 59.812C74.1519 59.1823 73.7223 58.6021 73.185 58.0973C73.8328 59.9585 74.3769 59.9439 74.8261 61.0723ZM15.2986 87.9278C15.5217 87.8651 15.7175 87.7471 15.8607 87.5891C16.0039 87.431 16.0879 87.2402 16.1019 87.0412C15.7812 85.7604 15.1227 84.5579 14.1758 83.5239C13.9163 83.3598 13.6012 83.2711 13.2775 83.2711C12.9538 83.2711 12.6388 83.3598 12.3793 83.5239C10.6518 84.1907 10.7728 84.5425 10.7296 84.689C10.6173 85.4218 12.0079 87.8252 12.457 88.2868C13.0962 88.8804 14.1067 88.4481 15.2986 87.9278ZM13.0616 88.0524C12.6125 87.7519 12.3015 87.0192 11.481 85.8028C11.1614 85.3412 10.8678 84.8649 11.2046 84.4399C11.6365 83.8757 13.7439 83.1576 14.3226 84.3227C15.29 86.2718 16.2142 86.7701 15.6614 87.4662C15.1086 88.1623 13.5453 88.3675 13.0616 88.0524ZM16.1192 84.0442C17.4407 85.9713 17.337 87.2976 19.6259 86.0959C20.0145 85.9567 20.6451 85.7589 20.8264 85.3632C20.9312 85.1127 20.9624 84.8442 20.9172 84.5812C20.8721 84.3182 20.752 84.0684 20.5673 83.8537C19.7036 82.3882 19.2631 80.124 16.9483 81.6554C15.5578 82.4834 15.3936 82.1977 16.1192 84.0442ZM17.4234 81.78L17.743 81.6774C18.4167 81.4576 18.7535 81.6774 19.1249 82.2783C20.4723 84.7843 21.9752 85.3192 18.9954 86.0446C17.8034 86.4257 17.6911 85.9054 16.9397 84.7183C15.8687 83.0403 15.1 82.3589 17.4234 81.78ZM22.433 83.8024C22.5266 83.9735 22.6733 84.1198 22.8574 84.2257C23.0415 84.3315 23.256 84.3929 23.478 84.4033C23.9272 84.4033 24.0999 84.2567 25.2055 83.7511C26.1469 83.7511 26.4665 82.63 25.7496 81.8752C24.8254 80.4097 24.4886 78.2115 22.1306 79.677C21.7679 79.9041 20.5328 80.2192 20.9733 81.1425C21.3836 82.0578 21.8714 82.9468 22.433 83.8024ZM22.6057 79.611L22.9253 79.5084C23.599 79.2959 23.9358 79.5524 24.3072 80.1093C25.5769 82.4688 26.6133 82.8351 25.3005 83.5239H25.1364C22.7698 84.3226 23.2448 84.2567 21.5779 81.6334C20.9128 80.6002 20.7228 80.102 22.6057 79.611ZM27.0452 79.655C27.3349 80.06 27.5862 80.4839 27.7966 80.9227C28.073 81.3916 28.4876 81.9998 28.7122 82.2929C29.1181 81.9412 28.0039 80.7248 27.3389 79.4791C27.0342 78.8502 26.6048 78.2703 26.0692 77.7645C26.2544 78.4403 26.5853 79.0813 27.0452 79.655ZM30.6469 79.5378C30.939 80.0742 31.2738 80.5932 31.6488 81.0912C32.0634 80.7395 30.9492 79.5304 30.2841 78.2774C29.9819 77.648 29.5489 77.0697 29.0058 76.5701C29.6364 78.5266 30.1546 78.3287 30.6469 79.5378ZM48.5518 84.6377C47.2648 85.3705 47.9213 85.964 48.474 87.0925C49.6573 89.5179 49.9165 89.9136 52.5163 88.558C52.6638 88.4905 52.793 88.3973 52.8952 88.2846C52.9975 88.1719 53.0706 88.0422 53.1097 87.9038C53.1488 87.7655 53.1531 87.6218 53.1223 87.482C53.0915 87.3422 53.0262 87.2094 52.9308 87.0925C52.6453 86.454 52.2986 85.8364 51.8944 85.2459C50.9443 83.5826 50.5124 83.817 48.5518 84.6377ZM49.6487 84.5351C50.9961 83.905 51.1602 85.0481 52.1535 86.455C53.1468 87.8619 52.9136 88.1623 51.7389 88.5873C49.4673 89.4153 50.2274 88.9024 48.7332 87.0045C48.4568 86.5282 47.9817 86.2058 48.1026 85.4438C48.2668 85.0481 48.6295 84.9308 49.6487 84.5351ZM56.7485 82.9817C56.5239 82.5494 56.2648 82.0658 55.5997 81.9192C54.9742 81.9078 54.3635 82.0813 53.8723 82.4102C52.8358 82.9817 52.5335 83.2235 52.8272 83.8757C53.3195 84.9308 54.045 86.1179 54.0018 86.0739C54.3041 86.6235 54.7187 87.3123 55.427 87.2317C56.0654 87.0887 56.6722 86.8585 57.2235 86.5502C57.3794 86.5039 57.5221 86.4305 57.6425 86.3346C57.7629 86.2387 57.8583 86.1224 57.9226 85.9934C57.9869 85.8643 58.0186 85.7253 58.0157 85.5852C58.0128 85.4451 57.9754 85.3071 57.9058 85.18C57.5728 84.428 57.1863 83.6939 56.7485 82.9817ZM57.3358 86.3304C55.6775 87.0631 55.0642 87.4515 54.3732 85.9933C53.9327 85.0481 52.1362 83.3334 53.6736 82.7839C54.2079 82.4574 54.8392 82.2645 55.4961 82.227C56.0661 82.3002 56.2561 83.0037 56.5584 83.4653C57.5949 85.0114 58.3377 85.7808 57.3272 86.3304H57.3358ZM73.5823 77.5813C71.9672 74.0201 71.1035 75.3098 69.9029 75.6175C69.5376 75.7492 69.2105 75.9468 68.9442 76.1964C68.7989 76.4269 68.7362 76.6885 68.7638 76.9488C68.7914 77.2092 68.9081 77.4571 69.0996 77.6619C70.5939 80.1899 70.542 81.1938 73.2714 79.9408C74.5151 79.6037 74.351 78.4533 73.5823 77.5813ZM72.4854 80.0287L72.2349 80.0946C71.4662 80.3291 71.0775 80.2192 70.7407 79.6477C69.2637 77.4494 68.8923 76.8779 69.2378 76.4455C69.6315 76.1216 70.1208 75.8938 70.6543 75.786L70.9739 75.6835C71.6562 75.4416 72.0104 75.7421 72.3559 76.2697C73.5391 78.4533 75.137 79.3472 72.4854 80.0287ZM23.8063 100.209C23.7088 99.6381 23.4704 99.0912 23.1066 98.604C22.1479 96.97 22.027 95.9881 20.0836 96.7868C18.4167 97.4683 17.7861 97.7614 19.0126 99.476C19.5913 100.414 19.8763 101.638 20.7919 101.806C21.7074 101.975 23.7372 100.795 23.8063 100.209ZM20.1441 100.692C18.9522 98.692 18.5549 98.4941 18.6758 97.9446C18.7967 97.395 21.146 96.0394 22.0097 97.439C22.8734 99.0584 23.504 99.6812 23.5558 100.165C23.6422 100.898 21.2324 102.041 20.17 100.67L20.1441 100.692ZM23.6422 96.992C24.5922 98.3476 25.0327 100.223 26.5961 99.4174C27.5807 98.8825 29.3945 98.9191 28.073 96.8528C27.7444 96.1478 27.3547 95.4645 26.907 94.8084C26.0433 93.7605 24.6786 94.6911 24.3159 94.8084C23.0548 95.4092 22.8734 95.7097 23.6422 96.992ZM25.0587 94.7937C26.6824 94.2661 26.4492 95.0502 27.8139 96.992C28.2199 97.5709 28.5049 97.9666 28.2803 98.3549C28.1406 98.5738 27.9047 98.737 27.6239 98.8092C25.361 99.6152 25.5078 99.2635 24.5404 97.7907C23.4435 96.1127 22.7784 95.3067 25.0587 94.8084V94.7937ZM32.2016 92.7493C31.3379 91.4524 29.5068 92.7933 29.6536 92.7054C29.4299 92.7182 29.214 92.7807 29.0278 92.8867C28.8415 92.9927 28.6914 93.1384 28.5925 93.3092C28.4936 93.4799 28.4494 93.6698 28.4644 93.8596C28.4793 94.0494 28.5529 94.2326 28.6776 94.3907C29.0014 95.2622 29.4389 96.1003 29.9818 96.8894C30.0535 97.0206 30.1575 97.1373 30.2868 97.2316C30.4161 97.3258 30.5677 97.3954 30.7315 97.4357C30.8952 97.476 31.0672 97.486 31.2359 97.4651C31.4046 97.4441 31.566 97.3928 31.7093 97.3144C32.1066 97.0872 33.3763 96.6623 33.4367 96.5816C33.6543 96.3359 33.7676 96.0349 33.7582 95.7277C33.7488 95.4204 33.6173 95.1248 33.3849 94.889C32.9358 94.2588 32.7457 93.6067 32.2016 92.7493ZM33.3503 96.2739C33.0113 96.56 32.6059 96.7833 32.1599 96.9296C31.7139 97.0759 31.2369 97.1421 30.7592 97.1239C30.3187 96.97 30.0423 96.3472 29.0749 94.8377C28.7035 94.2515 28.5135 93.9804 28.6517 93.4674C28.6517 93.211 29.5154 92.8812 29.6536 92.8812C31.7266 92.2437 31.122 92.5588 32.8062 94.9476C33.1776 95.4312 33.644 95.8049 33.3503 96.2739ZM43.0931 92.5442C44.19 92.1045 45.1833 91.5843 44.5614 90.6683C44.2545 90.0162 43.8967 89.3822 43.4904 88.7705C42.929 87.7886 42.7217 87.642 42.1948 87.5321C41.6068 87.5423 41.0367 87.706 40.5624 88.0011C38.835 88.7924 39.4914 89.5618 39.5518 89.6498C40.8992 91.9433 41.0115 93.614 43.0931 92.5442ZM40.1478 90.1774C39.9869 90.0123 39.8665 89.8216 39.7938 89.6165C39.7211 89.4113 39.6976 89.1959 39.7246 88.983C39.8541 88.5873 40.381 88.4041 40.8647 88.2502C42.7908 87.5614 42.4712 88.0744 43.7927 90.0235C44.8119 91.489 44.57 91.7308 43.3781 92.1631C41.2361 92.9692 41.8752 92.6394 40.1478 90.1774ZM35.1987 93.6726C35.4978 94.239 35.8471 94.7852 36.2438 95.3066C36.3906 95.1894 36.5202 95.1967 36.0711 94.4347C35.8491 94.0166 35.5922 93.6126 35.3023 93.2256C34.62 92.2071 34.8187 91.958 33.5749 90.7269C34.3695 92.6321 34.6632 92.4196 35.1987 93.6726ZM36.4165 89.4446C38.7399 93.2329 38.5327 93.3795 39.3186 94.1416C39.7159 93.8045 38.6018 92.5808 37.9453 91.3424C37.6084 90.6213 37.0861 89.9729 36.4165 89.4446ZM44.9501 86.1912C45.261 87.4222 45.5806 87.4149 46.1593 88.5506C46.4778 89.3139 46.9134 90.0382 47.4549 90.7049C47.5844 90.6024 47.7226 90.6024 47.2735 89.8476C47.0598 89.4275 46.8056 89.0232 46.5134 88.6386C45.9952 87.7519 45.9952 87.1804 44.9501 86.1912ZM56.7571 90.0968C56.9374 90.6556 57.2015 91.1925 57.5431 91.6942C58.0959 92.6101 58.4068 93.3502 59.0978 93.4381C60.0795 93.303 61.0092 92.9714 61.8099 92.4709C61.473 92.1851 60.6611 93.123 59.1151 93.2036C58.545 93.0644 58.3377 92.4709 58.0527 91.8847C57.7677 91.2985 55.997 89.5618 57.5431 89.0343C58.0648 88.6942 58.6993 88.5019 59.3569 88.4847C59.9269 88.558 60.117 89.2175 60.4279 89.7231C61.5939 91.4817 61.8876 91.7894 61.5594 92.2804L61.7408 92.3756C61.8584 92.2258 61.9295 92.0533 61.9476 91.874C61.9657 91.6947 61.9302 91.5144 61.8444 91.3498C61.4125 90.4265 60.6266 89.0856 60.6698 89.1515C60.4365 88.7192 60.1861 88.2356 59.521 88.0963C58.978 88.0908 58.4486 88.2405 58.0181 88.5213C57.094 88.8804 56.4116 89.3127 56.7571 90.0968ZM64.9624 91.1666L66.1025 90.6756C66.2547 90.5848 66.3836 90.4688 66.4816 90.3346C66.5796 90.2005 66.6447 90.0509 66.6729 89.8949C66.7011 89.7389 66.6919 89.5797 66.6459 89.4267C66.5998 89.2738 66.5178 89.1303 66.4048 89.005C66.1387 88.4178 65.8241 87.8473 65.4634 87.2976C65.0315 86.4989 64.8242 86.2058 64.1764 86.1252C63.5876 86.1315 63.0162 86.2956 62.544 86.5942L62.1294 86.7847C61.8171 86.9095 61.5722 87.1301 61.4439 87.4021C61.3157 87.674 61.3138 87.9771 61.4385 88.2502C62.1726 89.1662 63.045 92.2804 64.9624 91.1666ZM62.9413 86.7701C63.9951 86.3963 64.5219 86.2278 64.9192 86.8213C66.9058 89.7524 67.1563 90.0235 65.5411 90.6097C63.5027 91.3424 63.9864 91.1519 62.5267 88.9683C62.0651 88.5803 61.8014 88.0541 61.7926 87.5028C61.9308 87.1438 62.4404 86.9606 62.9413 86.7847V86.7701ZM23.6422 106.225C22.7784 104.928 22.9685 104.605 21.9838 103.77C22.1034 104.312 22.3501 104.828 22.7093 105.287C23.4262 106.342 23.6508 107.331 24.4886 108.218L24.5577 108.152C24.3449 107.481 24.0375 106.834 23.6422 106.225ZM27.192 107.214C27.192 106.43 26.2592 105.338 25.8619 104.642C25.5371 103.907 25.114 103.207 24.6009 102.554C24.9896 104.019 25.2141 103.777 25.836 104.994C26.1535 105.788 26.6107 106.536 27.192 107.214ZM32.3743 104.627C32.4909 104.387 32.53 104.124 32.4875 103.867C32.445 103.609 32.3225 103.366 32.1325 103.162C31.5452 102.209 31.5279 101.916 30.9665 101.037C30.1028 99.7398 28.2285 101.117 28.3753 101.037C27.9514 101.139 27.5726 101.346 27.287 101.63C26.9416 102.077 27.287 102.576 27.5289 103.015C27.8542 103.764 28.2261 104.498 28.6431 105.214C29.2995 106.335 30.5173 105.507 31.0269 105.316C30.8369 105.485 30.7765 105.47 31.4156 105.214C31.7997 105.108 32.1351 104.903 32.3743 104.627ZM32.1066 104.554C31.9867 104.737 31.7983 104.882 31.5711 104.964C30.3792 105.192 29.6191 105.829 28.9799 104.803C26.9416 101.777 27.1402 101.806 28.5049 101.073C30.5778 100.414 29.9905 100.766 31.6575 103.132C32.5039 104.246 32.098 104.415 32.1239 104.554H32.1066ZM33.6354 103.14C33.7123 103.267 33.8188 103.379 33.9485 103.471C34.0782 103.562 34.2284 103.63 34.3899 103.67C34.5514 103.71 34.721 103.723 34.8882 103.706C35.0554 103.689 35.2169 103.643 35.3628 103.572L36.1574 103.272C37.1075 103.103 37.8244 102.407 37.2889 101.645C36.8597 100.713 36.3725 99.8003 35.8292 98.9118C35.0951 97.7394 33.6354 98.6773 33.1776 98.7872C32.8118 98.9215 32.4847 99.1215 32.2189 99.3734C32.0736 99.604 32.0109 99.8655 32.0385 100.126C32.0661 100.386 32.1829 100.634 32.3743 100.839C32.8609 101.579 33.2824 102.348 33.6354 103.14ZM32.573 99.6299C32.9693 99.3037 33.4614 99.0734 33.9981 98.9631L34.3177 98.8605C34.9914 98.6187 35.3455 98.9338 35.691 99.454C36.7707 101.469 37.4185 101.652 37.1075 102.436C36.8854 102.779 36.5226 103.039 36.0883 103.169C34.0759 103.719 34.6027 103.535 32.9271 101.103C32.0893 99.9816 32.573 99.7032 32.573 99.6299ZM42.1257 98.9704C41.262 97.5049 40.8647 95.3066 38.5067 96.7722C38.0749 97.0433 37.643 97.1019 37.4185 97.4316C37.0557 97.9226 37.4185 98.3329 37.6948 99.095C38.8263 100.795 38.8004 101.557 39.8714 101.601C40.3896 101.601 42.3589 100.956 42.4626 100.018C42.4973 99.8333 42.4853 99.6442 42.4272 99.4636C42.3691 99.2829 42.2663 99.1148 42.1257 98.9704ZM42.2121 100.37C42.0739 100.641 39.7505 101.835 39.0595 100.648C39.0163 100.575 37.6948 98.5674 37.5048 98.1497C37.4419 97.993 37.4328 97.8244 37.4787 97.6635C37.5246 97.5026 37.6235 97.3561 37.7639 97.2411C38.2475 96.9951 38.7635 96.7983 39.3014 96.6549C40.5365 96.2666 40.6315 97.439 41.737 99.0437C42.2207 99.7032 42.4626 99.9816 42.2121 100.355V100.37ZM51.9807 92.1998C51.8754 92.0467 51.7317 91.9151 51.5599 91.8144C51.388 91.7137 51.1921 91.6463 50.986 91.6169C50.78 91.5875 50.5689 91.597 50.3677 91.6445C50.1664 91.692 49.9799 91.7765 49.8214 91.892C49.2807 92.0647 48.787 92.329 48.3704 92.6687C48.2274 92.9002 48.1668 93.162 48.1959 93.4222C48.225 93.6824 48.3427 93.9297 48.5345 94.1342C49.4673 95.651 49.666 96.8601 50.927 96.9334C51.2466 96.9334 51.333 96.8601 52.3953 96.4131C54.356 95.8196 53.5959 95.0062 51.9807 92.1998ZM52.283 96.3032C51.2379 96.6476 50.8579 97.3217 49.9596 95.6877C49.3378 94.5666 47.8435 93.0278 49.2341 92.6248C49.7873 92.2744 50.4531 92.0751 51.1429 92.0532C51.6439 92.1118 51.5575 92.2804 53.3281 95.0429C53.57 95.9661 52.689 96.0394 52.283 96.3032ZM45.1142 99.5493C45.2006 99.476 45.2524 99.4394 45.2437 99.3588C45.1833 98.9045 43.905 97.2338 43.5163 96.3472C43.2961 95.8531 42.9873 95.3909 42.6008 94.9769C42.7295 95.5611 42.9905 96.1185 43.3695 96.6183C43.9482 97.5049 44.5182 99.0437 45.1142 99.5493ZM48.1286 98.3036C48.3618 98.1058 48.2063 98.0545 48.0422 97.7028C47.7047 97.068 47.327 96.4491 46.9107 95.8489C46.5723 95.1125 46.1346 94.4117 45.6065 93.7605C45.9779 95.1601 46.2543 95.0429 46.833 96.164C47.1608 96.9192 47.5959 97.6377 48.1286 98.3036ZM56.3252 94.8304C56.6016 94.6032 56.3252 94.2735 56.2302 94.1855C55.7811 93.2623 55.5047 93.0644 55.0988 92.3463C54.7441 91.6093 54.3074 90.9027 53.7946 90.236C54.1746 91.7015 54.4078 91.467 55.0297 92.6761C55.3482 93.4393 55.7838 94.1636 56.3252 94.8304ZM59.3396 98.0325C59.0805 97.6295 58.8991 96.8967 58.0527 96.7135C57.189 96.7135 55.4615 97.4976 55.2888 98.0765C55.0469 98.8092 56.7139 101.953 57.6467 102.063C58.5105 102.063 60.3156 101.33 60.4193 100.678C60.5229 100.026 59.6937 98.5821 59.3396 98.0325ZM57.5604 101.806C57.1458 101.689 56.9471 101.242 56.5844 100.517C56.4807 100.311 55.2715 98.8019 55.5134 98.1131C55.6861 97.6222 57.068 97.1605 57.854 97.1166C58.2859 97.1752 58.5018 97.6002 58.7177 97.9739C59.1151 98.8166 60.2724 100.011 60.1515 100.663C60.0133 101.447 57.9836 101.901 57.5604 101.806ZM65.2734 97.9666C64.8415 97.0433 64.0642 95.7023 64.0987 95.7683C64.0215 95.527 63.8767 95.305 63.6767 95.1213C63.4767 94.9376 63.2274 94.7976 62.95 94.7131C62.4086 94.7096 61.8818 94.8621 61.4557 95.1454C61.0325 95.3653 60.3674 95.5851 60.1688 96.0467C60.0675 96.2683 60.0675 96.514 60.1688 96.7355C60.524 97.4985 60.9277 98.2445 61.378 98.9704C61.6198 99.4247 61.9308 99.9816 62.544 100.062C63.3386 100.062 65.0661 99.4321 65.3425 98.6993C65.3892 98.5794 65.4072 98.4529 65.3953 98.327C65.3834 98.2011 65.342 98.0786 65.2734 97.9666ZM62.6045 99.7545C62.164 99.6519 60.2984 96.8674 60.4279 96.1713C60.5575 95.4752 62.0171 95.0795 62.8377 95.0355C63.3041 95.0942 65.3166 98.1497 65.1352 98.6993C64.9538 99.2489 63.3473 99.7032 62.6045 99.7545ZM69.4192 93.8924C68.901 92.9179 68.7023 92.6907 68.1323 92.5735C67.4216 92.6133 66.7429 92.8386 66.1889 93.2183C65.4202 93.548 65.1352 94.017 65.3943 94.6032C65.736 95.3652 66.1253 96.1112 66.5603 96.8381C66.9317 97.5342 67.2513 97.864 67.709 97.9153C68.3482 97.9885 70.3866 97.2851 70.5766 96.523C70.6374 96.302 70.6101 96.07 70.4989 95.8635C69.5142 93.6653 69.2378 93.8924 69.4192 93.8924ZM67.7868 97.6368C67.234 97.5049 67.0267 96.9041 66.7244 96.3179C66.5085 95.8855 65.3684 94.7204 65.6448 93.9877C65.8607 93.4235 67.1649 92.9618 68.0286 92.9179C68.59 92.9911 68.7887 93.6506 69.091 94.1562C69.7906 95.1894 70.4125 95.9441 70.3607 96.4497C70.257 97.1166 68.4432 97.6075 67.7868 97.6368ZM70.5939 91.511C70.9134 92.808 71.8203 93.5187 71.9758 94.2295C71.5008 94.376 70.7493 94.9622 71.0344 95.1674C71.4885 95.29 71.9498 95.3927 72.4163 95.4752C72.7791 95.5191 72.805 95.4752 73.1073 96.0028C73.3059 95.8342 73.3146 95.7903 73.2023 95.6217C75.1197 95.6217 75.8625 95.0282 77.3395 93.7679C77.6027 93.5657 77.8454 93.3451 78.065 93.1084C78.7301 93.7605 82.3836 92.764 81.3644 91.3351C82.075 90.9925 82.8648 90.785 83.6792 90.7269C83.81 90.9685 83.9849 91.1911 84.1974 91.3864C84.3961 91.2179 84.3356 91.1226 84.0592 90.6536C85.2586 90.5145 86.4729 90.4924 87.6782 90.5877C89.7598 91.0347 91.4786 89.6864 90.3903 88.7778C87.9546 87.3123 82.6168 87.8692 79.8011 88.6825C79.5495 88.4225 79.213 88.2313 78.8337 88.133C78.2919 88.1271 77.7642 88.2798 77.3395 88.5653L76.9076 88.7705C76.7588 88.8136 76.6226 88.8834 76.5084 88.9752C76.3941 89.0669 76.3045 89.1784 76.2455 89.3021C76.1865 89.4258 76.1596 89.5588 76.1665 89.6922C76.1735 89.8255 76.2141 89.956 76.2858 90.0748C76.6658 90.5731 76.3635 90.4338 76.1303 90.8075C74.0401 92.9398 75.7762 92.6321 73.5391 90.2873C73.8242 91.4304 74.1697 91.5256 74.6274 92.4416C74.0388 93.1843 73.2072 93.7649 72.2349 94.1123C71.2935 92.3756 71.4403 92.2291 70.5939 91.511ZM80.9585 91.2912C81.0648 91.4211 81.1395 91.5678 81.178 91.7226C81.2166 91.8773 81.2183 92.0371 81.1831 92.1924C80.5039 92.7151 79.6431 93.0366 78.7301 93.1084C78.5664 93.041 78.4127 92.9574 78.2723 92.8592C79.0127 92.1574 79.9436 91.6191 80.9844 91.2912H80.9585ZM79.231 88.4041C79.9998 88.895 78.9115 88.4041 76.6399 90.1041C75.9144 88.917 78.7992 88.1769 79.2483 88.4041H79.231ZM29.9387 110.35C29.7486 110.05 29.5241 109.222 28.6517 109.031C27.9411 109.071 27.2623 109.296 26.7084 109.676C25.4732 110.042 25.7064 111.288 26.4579 112.189C27.1316 113.508 27.5548 114.307 28.2458 114.388C29.4032 114.388 31.3983 113.56 30.9233 112.307C30.6816 111.625 30.3514 110.969 29.9387 110.35ZM28.2112 114.153C27.6498 114.021 27.4339 113.42 27.1488 112.834C27.0884 112.717 26.6047 112.05 26.6565 112.101C26.1901 111.229 25.5769 110.321 26.6133 109.969C27.1472 109.647 27.7742 109.455 28.4272 109.412C28.859 109.471 29.0749 109.896 29.2909 110.27C29.93 111.61 31.2515 112.541 30.5173 113.347C29.8744 113.806 29.082 114.087 28.2458 114.153H28.2112ZM35.8897 110.108C34.3436 107.463 34.3177 107.177 33.5576 107.031C32.9853 107.017 32.4246 107.17 31.9684 107.463C31.1651 107.844 30.4223 108.247 30.8197 108.929C31.312 109.984 32.0375 111.178 31.9943 111.127C32.288 111.662 32.7112 112.38 33.4194 112.285C34.4991 112.16 36.3906 111.427 35.8897 110.108ZM33.0912 111.94C32.763 111.838 32.5644 111.53 32.3139 111.01C31.8561 110.028 30.5864 108.855 31.1738 108.13C31.8 107.637 32.6026 107.335 33.454 107.273C34.0327 107.346 34.2227 108.064 34.525 108.511C34.8273 108.958 35.2764 109.632 35.6565 110.27C36.382 111.545 33.3849 112.035 33.0912 111.94ZM37.4962 105.162C37.1334 105.36 36.4425 105.441 36.0451 105.939C35.9053 106.171 35.8465 106.432 35.8755 106.692C35.9046 106.952 36.0204 107.199 36.2092 107.404C37.1853 108.657 37.548 110.746 39.1804 110.035C40.4501 109.471 41.3052 109.354 41.1497 108.262C41.1067 107.934 40.9638 107.62 40.7351 107.353C40.1478 106.672 39.7073 103.975 37.4962 105.162ZM39.1545 109.742C38.1958 109.91 37.859 109.603 37.1075 108.416C36.2438 107.031 35.7515 106.518 36.1574 106.1C36.749 105.618 37.5167 105.32 38.334 105.257C39.1459 105.257 39.1286 106.195 40.3292 107.624C41.7198 109.288 39.2841 109.727 39.1545 109.742ZM50.2792 100.524C50.1175 100.378 49.9062 100.278 49.6746 100.238C48.9549 100.253 48.2604 100.466 47.6967 100.846C46.4616 101.213 46.6861 102.458 47.4376 103.352C48.1113 104.671 48.5345 105.47 49.2341 105.551C50.2688 105.473 51.231 105.068 51.9289 104.415C52.0026 104.266 52.0405 104.107 52.0405 103.946C52.0405 103.785 52.0026 103.625 51.9289 103.477C51.5279 102.437 50.9736 101.445 50.2792 100.524ZM49.2687 105.353C48.6986 105.221 48.4913 104.62 48.2063 104.034C48.1458 103.917 47.023 102.444 47.0921 101.711C47.308 101.161 48.595 100.692 49.4846 100.634C49.9165 100.692 50.1324 101.117 50.3483 101.491C50.5642 101.865 51.0047 102.466 51.6957 103.631C51.8049 103.809 51.8385 104.013 51.7907 104.21C51.5662 104.898 49.9856 105.309 49.2687 105.353ZM42.8512 106.225C41.8752 104.664 42.1084 104.547 41.1929 103.77C41.3111 104.312 41.5579 104.828 41.9184 105.287C42.644 106.342 42.8599 107.331 43.6977 108.218C43.9654 108.02 42.9031 106.298 42.8512 106.225ZM46.2543 105.704C45.9814 105.155 45.6729 104.62 45.3301 104.1C45.0861 103.478 44.6785 102.912 44.1382 102.444C44.4318 103.616 44.786 103.667 45.3387 104.767C47.1094 108.313 46.8589 106.62 46.2543 105.704ZM54.0623 101.476C53.0863 99.9157 53.3195 99.7984 52.404 99.0217C52.5299 99.5619 52.7762 100.077 53.1295 100.539C53.8377 101.594 54.0796 102.59 54.8569 103.47C55.0469 103.367 55.1679 103.235 54.0623 101.476ZM64.4787 107.895C64.8792 107.751 65.2174 107.505 65.4473 107.192C65.6772 106.879 65.7877 106.513 65.7637 106.144C65.7396 105.776 65.5822 105.422 65.313 105.132C65.0437 104.842 64.6756 104.63 64.2588 104.524C63.8421 104.418 63.3969 104.423 62.984 104.539C62.571 104.656 62.2104 104.877 61.9512 105.174C61.692 105.47 61.5468 105.827 61.5354 106.196C61.524 106.565 61.647 106.928 61.8876 107.236C62.1957 107.549 62.6056 107.779 63.0663 107.896C63.527 108.013 64.0182 108.013 64.4787 107.895ZM64.8501 107.382C64.6478 107.505 64.418 107.59 64.175 107.634C63.932 107.677 63.681 107.677 63.4378 107.635C63.1946 107.592 62.9644 107.507 62.7615 107.386C62.5587 107.264 62.3876 107.108 62.259 106.928C62.065 106.659 61.9688 106.347 61.9827 106.032C61.9965 105.716 62.1196 105.411 62.3367 105.155C63.7619 103.492 67.1044 105.954 64.8501 107.382ZM74.9729 110.951C74.8261 110.826 74.4633 110.607 74.256 110.643C73.9556 110.74 73.6665 110.86 73.3923 111.002C67.1735 113.508 65.2647 114.388 65.4547 114.3C63.33 115.311 62.5267 115.296 62.4231 115.765C62.4231 116.132 62.5181 116.022 62.7254 116.916C62.8136 117.627 62.9843 118.329 63.235 119.011H63.4682C63.6323 118.967 77.4172 113.149 77.5122 113.105C77.6073 113.061 77.7973 113.01 77.8405 112.907C77.9268 112.666 76.7263 112.226 74.9729 110.951ZM63.3818 118.821C63.2004 118.139 63.0795 117.443 62.9759 116.74C62.9759 116.652 62.7772 115.714 62.8204 115.707C64.2196 115.238 71.7772 111.926 73.2714 111.31C73.5069 111.238 73.7375 111.155 73.9624 111.061C74.446 110.841 74.7052 111.156 75.0679 111.398C76.4499 112.321 76.9249 112.629 77.4518 112.915C63.2695 118.828 67.2772 117.201 63.3818 118.821ZM75.3443 24.3026C75.543 24.3026 75.4307 24.3026 75.8021 24.2367C75.3245 24.138 74.8936 23.9182 74.567 23.6065V23.4526L74.5065 23.6285C74.3856 24.0022 74.9211 24.2733 75.3443 24.3026ZM77.2877 24.9621C77.2 25.0124 77.133 25.0845 77.0958 25.1685C77.0587 25.2526 77.0533 25.3443 77.0804 25.4311C77.2618 25.7242 77.7109 25.3651 77.5727 24.9914C77.6676 24.9866 77.7603 24.9653 77.845 24.9287C77.9297 24.8922 78.0046 24.8412 78.065 24.7789L78.2119 24.5811L77.9527 24.6544C77.8059 24.6544 76.9336 24.7423 76.8558 24.6544L76.9508 24.7863C77.0631 24.9035 77.1754 24.9181 77.2877 24.9621Z" fill="black"/>
<path d="M74.6964 24.8524C74.9641 24.8524 75.2146 24.3394 74.9209 24.2222C74.4545 24.039 74.1522 24.8524 74.6964 24.8524ZM73.8758 27.0286C74.0189 27.2524 74.0734 27.5093 74.0313 27.7614C74.1116 27.7139 74.18 27.6533 74.2323 27.5831C74.2847 27.5129 74.3199 27.4345 74.336 27.3526C74.3521 27.2707 74.3487 27.1868 74.3261 27.106C74.3034 27.0252 74.2619 26.9491 74.204 26.8821C74.0679 26.7522 73.8977 26.6514 73.7071 26.5878C73.5166 26.5241 73.311 26.4994 73.1071 26.5157C73.4211 26.613 73.6904 26.7927 73.8758 27.0286ZM18.3906 43.2812C18.8889 43.5346 19.4713 43.6427 20.0489 43.5889H20.9126C21.0675 43.5667 21.2264 43.5757 21.3764 43.6151C21.5264 43.6546 21.6634 43.7234 21.7763 43.8161C21.4481 43.9406 21.0854 44.0359 21.0854 44.4096C21.9707 46.3771 23.0634 48.2728 24.3502 50.0738C26.0561 52.7592 28.5152 55.0468 31.5104 56.7346C33.5425 57.6785 35.6771 58.4539 37.8847 59.0501C37.5825 57.1216 37.1558 55.2087 36.6064 53.3199C36.4855 52.807 34.4125 46.9449 34.2571 46.9449C33.5925 47.1316 32.8747 47.1316 32.2101 46.9449C30.9228 46.5495 29.7163 45.9858 28.6343 45.2743C27.9174 44.8493 27.1832 44.4755 26.4491 44.0432C26.2072 43.904 25.3435 44.0945 25.5076 43.6329C25.7063 41.31 25.0067 40.9437 22.8214 41.4346C21.8282 41.6398 17.786 42.226 18.071 43.0467C18.1473 43.1503 18.2587 43.232 18.3906 43.2812ZM23.2879 41.5665C23.8838 41.5079 24.6093 41.4273 25.0153 41.9182C25.283 42.27 25.1708 42.5777 25.1708 42.9734V43.7721C24.1555 43.7163 23.1371 43.7163 22.1218 43.7721C22.0078 43.6193 21.8422 43.4992 21.6465 43.4273C21.4509 43.3554 21.2343 43.3351 21.0249 43.3691C19.6257 43.3691 18.7879 43.3691 18.5979 43.0467C18.4078 42.7243 19.0384 42.5044 19.3234 42.4165C20.6023 42.0089 21.9327 41.7286 23.2879 41.5812V41.5665ZM110.109 99.1245L108.977 98.3258C108.61 98.0919 108.158 97.9728 107.699 97.9887C107.348 98.0238 107.017 98.1441 106.745 98.3352C106.474 98.5262 106.273 98.7799 106.167 99.0656C106.061 99.3513 106.055 99.6569 106.149 99.9455C106.243 100.234 106.433 100.494 106.697 100.693L107.82 101.491C107.979 101.617 108.167 101.712 108.372 101.772C108.578 101.831 108.796 101.853 109.012 101.836C109.384 101.835 109.746 101.736 110.048 101.552C110.35 101.368 110.577 101.11 110.698 100.811C110.818 100.513 110.827 100.19 110.721 99.888C110.615 99.5857 110.401 99.3188 110.109 99.1245ZM109.979 100.978C109.771 101.189 109.473 101.322 109.151 101.35C108.828 101.377 108.505 101.296 108.252 101.125L107.12 100.326C106.864 100.149 106.701 99.8933 106.667 99.6143C106.632 99.3354 106.73 99.0564 106.939 98.8387C107.147 98.621 107.449 98.4825 107.778 98.4537C108.107 98.4248 108.436 98.508 108.692 98.6848L109.815 99.4835C110.058 99.6705 110.208 99.9282 110.237 100.205C110.266 100.482 110.171 100.758 109.971 100.978H109.979ZM114.721 90.5732C114.337 90.3337 113.858 90.2301 113.386 90.2841C112.913 90.3382 112.484 90.5458 112.188 90.8631C111.893 91.1804 111.754 91.5826 111.801 91.9851C111.848 92.3876 112.077 92.7588 112.441 93.0206L113.667 93.8193C115.619 95.0503 117.692 92.6396 115.948 91.3792L114.721 90.5732ZM115.809 93.2258C115.595 93.4459 115.287 93.5854 114.953 93.6142C114.618 93.643 114.283 93.5588 114.021 93.3797L112.786 92.581C112.559 92.3974 112.423 92.1474 112.405 91.8817C112.387 91.6161 112.489 91.3546 112.69 91.1504C112.892 90.9462 113.177 90.8146 113.488 90.7822C113.799 90.7499 114.114 90.8192 114.367 90.9762L115.593 91.7823C115.843 91.9523 116.005 92.1978 116.045 92.467C116.085 92.7363 116.001 93.0083 115.809 93.2258Z" fill="black"/>
<path d="M157.786 81.1573C157.634 80.938 157.408 80.7625 157.137 80.6537C156.866 80.5449 156.562 80.5078 156.266 80.5474C155.969 80.5869 155.694 80.7011 155.475 80.8753C155.257 81.0494 155.105 81.2754 155.039 81.5237H153.675C147.319 81.7945 141.345 84.1799 137.048 88.1625C136.972 88.138 136.902 88.1007 136.842 88.0529C136.783 88.0051 136.736 87.9477 136.703 87.884C136.463 87.3347 136.269 86.7714 136.124 86.1987C136.009 86.0116 135.924 85.8119 135.874 85.6052C135.915 84.987 136.04 84.3748 136.245 83.7806C136.854 81.0769 137 78.3127 136.677 75.5737C137.185 75.1848 137.77 74.8747 138.404 74.6578C138.569 74.8186 138.776 74.944 139.009 75.0238C139.241 75.1036 139.493 75.1355 139.743 75.1169C139.993 75.0984 140.234 75.0298 140.447 74.9169C140.66 74.8041 140.838 74.65 140.967 74.4675C141.096 74.2849 141.172 74.079 141.19 73.8666C141.207 73.6542 141.165 73.4414 141.066 73.2455C140.968 73.0496 140.816 72.8763 140.624 72.7397C140.431 72.603 140.204 72.507 139.959 72.4595C139.753 72.4144 139.539 72.4059 139.329 72.4346C139.119 72.4633 138.919 72.5286 138.74 72.6264C138.561 72.7241 138.409 72.8523 138.291 73.0026C138.174 73.153 138.095 73.3224 138.059 73.5C138.05 73.6196 138.05 73.7395 138.059 73.8591C137.482 74.0782 136.945 74.3643 136.461 74.7091C135.122 67.3815 129.802 60.054 122.132 56.8225L117.882 55.1738C117.68 55.1424 117.475 55.1228 117.269 55.1152C118.377 55.8185 119.261 56.7447 119.842 57.8103C120.422 58.8759 120.681 60.0474 120.594 61.2191C120.576 61.4687 120.488 61.7111 120.338 61.9263C120.188 62.1416 119.98 62.3236 119.731 62.4574C120.143 63.1067 120.434 63.8062 120.594 64.5311C121.325 67.0374 122.299 69.4883 123.505 71.8587C123.263 71.3677 121.976 71.06 121.467 70.8255C115.982 68.2022 109.746 67.2789 108.926 67.3962C108.433 66.6634 107.319 64.7876 107.354 64.8608C106.956 64.0841 106.429 63.4466 105.428 63.5346C103.856 63.5346 101.748 62.0691 101.385 60.01C101.18 58.5517 101.357 57.073 101.904 55.6794C99.38 57.0749 97.3003 58.9761 95.8482 61.2151C94.3961 63.4541 93.6161 65.962 93.5773 68.5173C92.8259 68.1949 91.418 68.9936 91.1762 68.9057C91.0898 68.8617 81.4593 52.3307 81.1139 51.576C80.6043 50.6454 79.9047 49.3777 78.1859 49.6122C77.6203 49.7015 77.0805 49.8831 76.5966 50.1471C76.5966 50.1471 52.162 60.3031 50.2618 61.1385C52.5766 56.0092 53.2503 50.1032 51.4106 43.1346C52.5657 46.741 53.0093 50.4847 52.7234 54.2139C53.9234 52.8957 54.9705 51.4823 55.8501 49.9932C56.5141 48.7388 57.0151 47.4268 57.3443 46.0803C60.4451 45.9045 66.2234 42.1088 68.5209 40.0424C70.6881 41.5078 73.0334 42.7728 75.517 43.8161C81.6235 46.4833 88.3 47.2894 92.6186 46.6958C93.3355 46.5933 94.2424 46.7398 94.752 45.9631C94.7899 46.1072 94.892 46.2332 95.037 46.3148C95.728 46.6592 96.0303 46.4394 97.084 46.52C97.3258 47.1721 97.9477 46.8497 97.7577 46.52C97.9564 46.52 98.06 46.6079 98.2068 46.454C98.3083 46.2817 98.3358 46.0848 98.2846 45.8971C98.8201 45.6773 98.9237 45.1644 98.1723 44.9226C98.2259 44.7998 98.2398 44.6671 98.2124 44.5382C98.1851 44.4093 98.1175 44.289 98.0168 44.1898C97.8825 44.0978 97.7344 44.0215 97.5763 43.9627C95.6761 28.736 96.7126 35.0963 95.9957 28.9851C99.0965 28.3037 99.8738 25.0136 100.021 22.6615C100.358 20.8088 100.358 18.9232 100.021 17.0705C99.7838 15.5437 99.1398 14.0827 98.1377 12.7986C97.7816 12.3243 97.2774 11.9431 96.6812 11.6973C96.0851 11.4515 95.4202 11.3508 94.7606 11.4063C94.6138 11.4063 94.6138 11.4796 94.4842 11.4576C92.5167 11.4793 90.5803 11.0407 88.8873 10.19C80.9411 6.46756 78.8941 2.41542 74.0832 0.664136C73.1818 0.285025 72.2 0.0631481 71.1957 0.011635C70.1915 -0.0398782 69.1853 0.0800187 68.2366 0.364231C67.288 0.648443 66.4162 1.0912 65.6728 1.66629C64.9293 2.24139 64.3295 2.93715 63.9086 3.7124C61.0151 8.73178 64.1591 14.4326 68.9527 17.708C69.7128 18.2136 69.16 18.4408 69.3155 19.0783C68.8242 19.1826 68.3798 19.4068 68.0372 19.7231C67.9061 19.8943 67.8444 20.0972 67.8616 20.3009C67.8787 20.5045 67.9737 20.6979 68.1322 20.8516C67.9245 20.9233 67.748 21.0476 67.6268 21.2077C67.5056 21.3677 67.4456 21.5556 67.4551 21.7457C67.4645 21.9357 67.5429 22.1186 67.6796 22.2695C67.8163 22.4203 68.0045 22.5316 68.2186 22.5882C67.9703 22.8045 67.825 23.0909 67.8107 23.3926C67.7963 23.6942 67.9139 23.9897 68.1408 24.2222C68.2704 24.3761 68.6072 24.3761 68.7627 24.53C68.9182 24.6839 68.685 25.0502 68.4431 25.1895C68.1238 25.3676 67.7602 25.4805 67.3807 25.5192C66.8711 25.5192 66.6466 25.1455 66.4393 24.7864C65.2646 22.5442 63.8481 17.3636 58.5017 14.308C53.853 11.8306 48.4425 10.5785 42.9548 10.7102C40.1391 10.7102 37.5306 10.5783 35.1813 12.0805C34.4815 11.5976 33.749 11.1498 32.9875 10.7395C32.7182 10.6261 32.4241 10.5612 32.1238 10.549C31.8042 10.549 31.5451 10.7762 31.8474 11.04C31.6608 10.993 31.4648 10.9792 31.2716 10.9993C31.0784 11.0195 30.8922 11.0733 30.7245 11.1572C30.5604 11.3331 30.6036 11.5969 31.0787 11.7654C30.7505 11.6994 30.5086 12.0585 30.7073 12.3516C30.9942 12.6417 31.3759 12.8533 31.8042 12.9598C31.2428 12.9231 31.1737 13.7512 32.2101 13.8464C32.8428 13.853 33.4752 13.8187 34.1017 13.7438C34.3851 14.7089 35.0458 15.5639 35.976 16.1692C38.8627 17.7863 42.1487 18.8191 45.5805 19.1882C47.0143 19.3641 48.5603 19.1882 49.9595 19.4447C50.2101 21.7647 51.1491 23.9932 52.6889 25.9222C50.9615 26.3399 47.5498 28.5748 46.1937 29.5127C45.4855 30.0037 44.7081 30.6925 44.9413 31.4472C44.2933 31.5621 43.6619 31.7365 43.0584 31.9675C42.2018 32.3566 41.3792 32.7974 40.5968 33.2864C38.3283 34.6859 36.5882 36.6147 35.5883 38.8381C34.5885 41.0614 34.3721 43.4834 34.9654 45.8092C37.4097 55.335 40.545 57.3648 37.5566 66.6048C32.7888 68.5686 3.87155 80.6517 2.88692 81.0401C2.15395 81.3027 1.45374 81.6267 0.796719 82.0073C-0.619779 82.9526 0.157567 84.2569 0.796719 85.3047C0.796719 85.3047 21.5778 120.88 23.2534 123.862C23.4598 124.342 23.8823 124.733 24.4281 124.949C24.9739 125.164 25.5983 125.187 26.1641 125.013C26.1832 125.746 26.1515 126.48 26.0691 127.211C26.0691 132.443 25.8791 131.769 25.8791 135.374C25.7841 136.759 25.9482 136.107 25.525 136.642C25.525 136.986 25.7668 137.008 25.905 137.316L27.0797 139.272C27.1919 139.272 105.6 106.467 108.986 105.001C113.667 108.98 118.392 110.673 124.308 111.75C121.83 114.19 119.558 115.472 120.301 116.579C120.719 117.055 121.311 117.401 121.985 117.561C124.749 118.594 131.149 120.675 131.624 120.69C131.669 120.673 131.709 120.648 131.741 120.616C131.772 120.585 131.794 120.547 131.805 120.506C131.857 120.294 131.581 119.942 130.994 119.436C130.363 118.762 129.715 118.044 128.99 117.355C129.423 117.086 129.893 116.862 130.389 116.689C130.968 116.542 131.201 116.505 131.305 116.33C131.408 116.154 130.968 115.655 130.665 115.509C130.361 115.279 130.072 115.035 129.802 114.776C129.698 114.688 129.802 114.608 129.992 114.402C131.918 112.776 132.583 113.135 133.498 113.311C134.198 113.443 136.314 113.765 136.547 113.787C136.968 113.921 137.418 113.975 137.866 113.944C138.314 113.914 138.748 113.8 139.138 113.611C140.158 112.952 140.425 112.146 140.866 112.028C141.306 111.911 143.414 112.431 143.397 112.761C143.327 113.743 139.337 115.099 145.634 115.304C145.409 115.846 145.193 116.601 144.934 117.202C144.77 117.649 144.26 118.249 144.571 118.63C144.594 118.658 144.625 118.681 144.662 118.695C144.698 118.709 144.739 118.715 144.779 118.711C145.495 118.711 147.534 116.579 147.542 116.557C148.72 115.684 149.612 114.568 150.134 113.318C150.419 112.102 149.425 111.288 148.302 110.607C146.863 109.755 145.333 109.02 143.733 108.409C149.468 101.506 146.921 92.8301 137.938 88.4116C141.836 84.8982 147.113 82.7144 152.777 82.2711C153.535 82.2052 154.299 82.2052 155.057 82.2711C155.189 82.5133 155.405 82.7153 155.677 82.8498C155.949 82.9843 156.263 83.0448 156.576 83.0232C156.89 83.0017 157.188 82.899 157.431 82.7292C157.673 82.5593 157.848 82.3304 157.933 82.0733C157.995 81.9216 158.015 81.7596 157.989 81.6004C157.964 81.4412 157.894 81.2894 157.786 81.1573ZM134.949 87.2465C134.613 87.122 134.258 87.0047 133.922 86.8948C135.649 83.1651 135.321 78.5121 134.785 77.2591C134.785 77.0246 134.828 76.9586 135.027 76.878L136.115 76.0207C136.44 79.7915 136.046 83.582 134.949 87.2465ZM130.441 83.2164C130.458 83.3209 130.458 83.4269 130.441 83.5315C130.559 84.3869 130.41 85.2537 130.009 86.0448C129.822 86.0056 129.631 85.9811 129.439 85.9715C129.698 85.0348 130.033 84.1142 130.441 83.2164ZM129.266 83.656C128.964 84.4547 128.774 85.2534 128.541 86.0009C128.293 86.0009 128.049 85.956 127.824 85.869C127.573 85.5905 127.642 84.6965 127.591 84.3522C127.081 81.531 125.993 78.4388 125.423 76.4824C127.107 77.7721 128.508 79.3054 129.56 81.0108C129.974 82.0586 130.225 81.2892 129.266 83.656ZM130.7 85.3853C130.95 84.7883 131.07 84.1576 131.054 83.5241C131.106 82.7914 130.7 82.5276 131.054 82.0586C131.493 81.1349 132.046 80.2532 132.704 79.428C133.085 80.9095 133.195 82.4318 133.032 83.9418C132.924 84.8065 132.73 85.662 132.453 86.4991C132.453 86.5724 132.013 86.3819 130.493 86.1767C130.199 86.1547 130.329 86.272 130.7 85.3853ZM133.127 79.2595C133.089 79.1817 133.069 79.0983 133.069 79.014C133.069 78.9298 133.089 78.8463 133.127 78.7686C133.253 78.597 133.407 78.4416 133.585 78.3069C133.836 78.0271 134.107 77.7604 134.397 77.5082C135.158 80.6339 134.931 83.8747 133.74 86.9021L132.678 86.5944C133.638 84.2339 133.793 81.6917 133.127 79.2595ZM133.326 68.0703C134.12 69.4887 134.778 70.959 135.295 72.4669C135.574 73.3425 135.779 74.2338 135.908 75.1341C135.424 75.4363 134.965 75.7668 134.535 76.1233C132.695 70.0121 127.901 63.4906 123.54 59.2699C122.313 58.1007 120.924 57.0624 119.402 56.1777C125.713 58.4263 130.718 62.7017 133.326 68.0703ZM121.631 66.6048C121.553 66.5096 120.171 62.604 120.145 62.538C121.484 62.0324 120.819 59.5704 120.612 58.7204C120.364 57.7045 119.762 56.7752 118.884 56.0531C119.627 56.5148 120.102 56.9324 120.534 57.1962C122.872 58.9515 124.925 60.9621 126.64 63.1755C129.743 66.9299 132.124 71.0774 133.697 75.4638C134.094 76.4677 134.163 76.453 133.697 76.7461C133.3 77.0903 132.925 77.4523 132.574 77.8306C131.456 74.8502 129.454 72.1632 126.761 70.0268C125.575 69.083 124.298 68.2251 122.944 67.4621C122.625 67.2262 122.29 67.0061 121.942 66.8027H121.881C121.778 66.7605 121.691 66.6945 121.631 66.6121V66.6048ZM121.916 67.0958C129.56 71.4923 131.037 76.1453 132.013 77.772C132.54 78.666 131.944 78.1604 130.285 81.128C129.344 78.9957 127.236 77.369 125.258 76.05C120.862 64.4065 122.745 69.338 121.916 67.1031V67.0958ZM124.507 85.7077C121.596 85.8177 120.534 86.4405 119.998 86.0009C117.226 83.8026 114.704 81.6923 113.287 78.7246C112.743 77.5742 112.683 75.8742 114.151 74.9875L114.047 74.8483C113.468 75.1882 113.02 75.666 112.76 76.2216C112.501 76.7771 112.441 77.3854 112.588 77.9698C112.886 79.1615 113.474 80.2871 114.315 81.2746C115.708 83.1307 117.526 84.7305 119.662 85.9789C120.033 86.2866 119.964 86.2353 120.05 86.2866C118.841 86.5358 118.902 86.5358 118.686 86.4918C118.47 86.4478 116.518 85.1069 116.621 85.1802C113.983 83.3845 111.476 81.4537 109.116 79.3987C105.972 76.6582 102.923 73.2289 103.389 69.2281C103.536 67.5837 104.288 66.02 105.54 64.7583C105.782 64.4119 106.14 64.1341 106.568 63.9596C109.962 71.1259 118.323 79.4354 124.464 85.7151L124.507 85.7077ZM101.377 56.4708C100.228 59.7609 101.662 62.3841 104.054 63.4613C104.708 63.7301 105.427 63.8656 106.153 63.857C105.453 63.857 100.755 68.6052 103.735 73.9837C106.274 78.9811 112.372 82.6375 117.053 85.8543C117.623 86.1621 117.744 86.3233 118.349 86.6384C116.923 86.9929 115.549 87.4846 114.255 88.1039C107.069 84.2203 99.8393 77.6035 97.5763 70.6863C96.8405 68.2235 96.8012 65.6481 97.4616 63.1701C98.1221 60.692 99.4636 58.3814 101.377 56.4268V56.4708ZM117.882 88.4043C118.238 88.4253 118.573 88.5556 118.824 88.7707L119.765 89.8112C119.881 89.9392 119.966 90.0854 120.015 90.2413C120.064 90.3973 120.076 90.5599 120.05 90.7198C119.996 90.9108 119.88 91.0852 119.715 91.2236C119.551 91.362 119.344 91.459 119.119 91.5038C118.893 91.5486 118.657 91.5394 118.438 91.4774C118.218 91.4153 118.023 91.3027 117.874 91.1521L116.932 90.1116C116.782 89.9593 116.687 89.7737 116.657 89.5769C116.627 89.38 116.665 89.18 116.765 89.0006C116.865 88.8211 117.023 88.6696 117.221 88.5639C117.419 88.4583 117.648 88.4029 117.882 88.4043ZM94.562 64.9561C95.227 62.0251 97.2395 59.204 100.953 56.5587C100.205 57.2599 99.5581 58.0348 99.0274 58.8669C93.275 67.4548 97.7318 76.1233 106.118 82.9819C108.489 85.0046 111.16 86.756 114.065 88.1918C113.034 88.7049 112.039 89.2676 111.085 89.8771C108.741 88.6054 106.579 87.108 104.642 85.4146C100.512 81.9838 97.3345 77.8163 95.3393 73.2143C94.1426 70.5734 93.8727 67.695 94.562 64.9268V64.9561ZM77.2876 50.4182C80.6129 48.9527 78.9459 51.107 90.6407 69.0376C90.5111 68.8251 87.0994 70.1733 86.4344 70.4664C84.9229 67.8725 76.9335 54.1919 76.7521 53.9355C76.5707 53.679 76.4584 53.5837 76.087 53.635C75.1564 53.9201 74.2668 54.2937 73.4354 54.7488L48.1112 65.3591C48.2594 65.0752 48.4267 64.7988 48.6122 64.5311C48.9922 63.9815 50.0805 61.8639 50.1668 61.688C50.996 61.4242 45.6841 64.4212 77.2876 50.4182ZM97.3863 46.6445C97.3729 46.5648 97.3307 46.4905 97.2654 46.4321C97.1963 46.3441 97.0926 46.3514 96.013 46.3514C95.6416 46.3514 95.1493 46.3514 95.1493 45.9704C95.1414 45.8854 95.1542 45.7999 95.1869 45.7192C95.2196 45.6385 95.2715 45.5644 95.3393 45.5014C95.3716 45.7029 95.4933 45.8863 95.6794 46.0142C95.8656 46.1422 96.1022 46.2052 96.3412 46.1902C96.6778 46.1474 96.9992 46.0423 97.2827 45.8825C97.1445 45.9484 97.3777 46.4394 97.464 46.5127C97.5504 46.5859 97.4381 46.7911 97.4036 46.6445H97.3863ZM98.4487 45.4208C98.4487 45.5601 98.1291 45.626 98.1291 45.6114L97.9218 45.1058C98.1377 45.1277 98.4919 45.2596 98.466 45.4208H98.4487ZM97.6972 44.3584C97.7491 44.3611 97.7998 44.3727 97.8463 44.3923C97.8928 44.412 97.9342 44.4394 97.968 44.4729C98.0019 44.5063 98.0274 44.5452 98.0432 44.5872C98.059 44.6292 98.0647 44.6735 98.06 44.7174C98.06 44.8346 97.9909 44.9079 97.6972 44.82C97.6771 44.6662 97.6829 44.5107 97.7145 44.3584H97.6972ZM97.1186 44.8493C96.9631 44.8493 96.6262 44.8053 96.6003 44.8493C96.5744 44.8933 97.2568 45.223 97.464 45.3329C97.6385 45.4478 97.7786 45.5958 97.8731 45.7651C97.9677 45.9344 98.0139 46.1202 98.0082 46.3075C97.973 46.3353 97.9267 46.3508 97.8786 46.3508C97.8305 46.3508 97.7842 46.3353 97.7491 46.3075C97.5418 46.1463 97.5504 45.9264 97.49 45.7213C97.4295 45.5161 97.2999 45.4282 97.084 45.5601C96.9386 45.6791 96.761 45.7661 96.5667 45.8134C96.3725 45.8607 96.1675 45.8668 95.9698 45.8312C95.3134 45.6114 95.3998 44.9006 95.7366 44.4463C95.8316 44.3583 96.0562 44.3657 96.1857 44.351H97.0495C97.1114 44.5122 97.1463 44.6799 97.1531 44.8493H97.1186ZM97.0408 44.014C96.6576 43.9835 96.2711 44.0133 95.9007 44.1019C96.2203 43.8967 96.0044 43.5523 95.6934 43.3691C94.8988 42.7243 94.2078 41.9916 93.37 41.4053C89.5351 38.5916 86.0802 37.595 81.4075 37.0088C79.3951 34.8105 77.6158 32.6123 74.23 30.7218C74.0141 30.5972 73.5391 30.2748 73.2281 30.1209C73.6204 30.1132 74.0015 30.0088 74.325 29.8205C74.45 29.9173 74.6036 29.9834 74.7694 30.0118C74.9353 30.0402 75.1071 30.0298 75.2665 29.9817C75.4051 29.9157 75.5196 29.8185 75.5973 29.7009C75.6751 29.5832 75.713 29.4497 75.707 29.3149C75.9109 29.3291 76.1152 29.2914 76.2937 29.2065C76.4722 29.1217 76.6167 28.9936 76.7089 28.8386C76.8989 28.9705 77.1062 28.8386 77.2099 28.6627C77.3135 28.4869 77.2099 28.2597 77.3049 28.0326C77.3853 27.8054 77.5173 27.5938 77.6935 27.4097C78.2246 26.6852 78.6674 25.9168 79.015 25.1162C79.1951 24.8229 79.301 24.501 79.326 24.1709C80.4879 24.8853 81.7573 25.4644 83.1004 25.8929C83.7655 26.1127 84.3874 26.4058 85.0697 26.6257C88.0858 27.574 91.2044 28.2685 94.3806 28.6994C94.7819 28.8407 95.208 28.9249 95.6416 28.9485C95.8748 33.8287 96.9804 43.12 97.0408 44.014ZM72.3644 24.7571C72.4259 24.6289 72.4346 24.4868 72.3891 24.3539C72.3437 24.2209 72.2467 24.1048 72.1139 24.0244C72.4853 23.5701 72.2953 23.6067 72.9344 22.6981C73.1331 22.3684 73.349 22.0533 73.5822 21.7455C73.8154 21.4378 74.1177 21.2766 74.6187 21.4964L77.6331 22.8813C77.9008 23.0059 79.0323 23.3429 79.1187 23.614C79.1187 24.7425 77.5294 27.3511 76.4411 27.9007C76.1478 28.0185 75.8232 28.069 75.4997 28.0472C75.7243 28.0472 75.4997 27.2485 75.4997 27.1752C75.4506 27.0434 75.387 26.9159 75.3097 26.7942C75.3746 26.8198 75.4454 26.833 75.517 26.833C75.5886 26.833 75.6593 26.8198 75.7243 26.7942C76.2252 26.6037 76.3289 26.1567 76.4066 25.7464C76.5389 25.2643 76.5389 24.7629 76.4066 24.2808C76.0525 25.9222 76.0093 26.4791 75.612 26.5964C75.2147 26.7136 74.9383 26.4278 74.6964 26.2373C74.1917 25.9012 73.5993 25.6725 72.969 25.5705H72.4335C72.5383 25.4247 72.595 25.2577 72.5976 25.0869C72.6408 25.0209 72.3817 24.6839 72.3644 24.7571ZM71.7857 29.6373C71.7857 29.7325 71.7857 29.6373 71.6821 30.0476C71.5176 29.999 71.3743 29.9092 71.271 29.7902C71.1678 29.6712 71.1093 29.5285 71.1034 29.3808L71.7857 29.6373ZM71.112 29.1976V28.8752C71.6043 29.3002 71.6043 29.0291 71.5698 29.3882C71.4069 29.3442 71.2526 29.28 71.112 29.1976ZM71.6907 17.0046C70.9686 16.5203 70.3033 15.978 69.7041 15.3852C69.7041 15.1654 69.946 14.4326 70.0755 13.7878C70.4383 12.6227 71.1034 11.5895 71.5266 10.4464C72.4521 11.1742 73.4207 11.8614 74.4287 12.5055C74.2387 13.1356 73.9709 13.7512 73.8241 14.3886C73.7636 14.6158 73.6513 16.5869 73.5563 16.5869C73.3118 16.693 73.1236 16.8736 73.0295 17.0925C72.6031 16.9521 72.1374 16.9215 71.6907 17.0046ZM69.6264 15.8175C69.6696 15.9421 70.9393 16.8947 71.3538 17.2098C70.7147 17.752 70.8529 17.4662 69.8855 17.8399C69.9719 17.7813 69.5573 16.1692 69.6264 15.8175ZM90.5888 18.9464C90.5888 20.0748 90.1397 22.8813 91.4526 25.6218C90.4161 25.402 89.3451 25.1748 88.3777 24.9477C87.9212 23.3006 87.7008 21.6128 87.7213 19.921C87.7359 19.4547 87.785 18.9897 87.8681 18.5287C87.8336 18.2796 87.6522 18.5214 90.5888 18.9464ZM78.5573 17.1585C78.5983 16.4622 78.8101 15.7809 79.1791 15.158C80.0797 15.4986 80.9463 15.9005 81.7703 16.3598C82.0639 16.5063 82.8413 16.7335 82.9536 17.0266C83.0659 17.3197 82.7981 17.7154 82.7204 18.0598C82.3666 19.8242 82.4936 21.6339 83.0918 23.3503L81.2002 22.6615C81.4853 22.764 81.5457 21.9287 81.4766 21.8115L81.7098 21.6063C81.7626 21.4991 81.788 21.3836 81.7843 21.2675C81.7805 21.1514 81.7478 21.0372 81.6882 20.9326C81.6286 20.828 81.5435 20.7354 81.4385 20.6608C81.3336 20.5862 81.2111 20.5313 81.0793 20.4998C81.1724 20.4293 81.2335 20.3334 81.2521 20.2287C81.3123 20.095 81.331 19.9503 81.3064 19.8087C81.2817 19.667 81.2146 19.5331 81.1114 19.4198C81.0082 19.3065 80.8724 19.2176 80.717 19.1616C80.5617 19.1057 80.392 19.0846 80.2242 19.1003C80.2792 18.944 80.2814 18.7777 80.2306 18.6204C80.1797 18.4631 80.0779 18.321 79.9367 18.2103C79.7954 18.0997 79.6204 18.0248 79.4315 17.9943C79.2427 17.9638 79.0475 17.9789 78.8682 18.0378C78.8782 17.724 78.7692 17.4158 78.5573 17.1585ZM78.0908 17.0705C77.9527 16.9386 76.8903 16.7628 77.0112 17.0192C76.9275 16.8244 76.7798 16.654 76.5854 16.5282C76.3911 16.4024 76.1583 16.3265 75.9147 16.3096C75.6711 16.2926 75.4268 16.3353 75.2109 16.4325C74.995 16.5297 74.8164 16.6774 74.6964 16.858C74.5237 16.6089 74.1091 16.7335 73.9277 16.5429C73.7463 16.3524 73.9277 15.627 73.9277 15.3559C73.992 14.4182 74.2522 13.4977 74.6964 12.6374C76.0266 13.4874 77.3912 14.1029 78.6177 14.9602C78.5372 15.266 78.4909 15.5776 78.4795 15.8908C78.445 16.0227 78.0563 17.0339 78.0908 17.0705ZM87.8854 24.8304C87.6868 24.8304 86.0802 24.2955 85.6829 24.1709C85.2856 24.0464 83.4977 23.658 83.4459 23.4382C83.436 23.3456 83.436 23.2524 83.4459 23.1597C82.9717 21.55 82.8749 19.877 83.1609 18.2356L83.4286 17.1292C84.375 17.4614 85.3407 17.7524 86.3221 18.0011C86.7653 18.0604 87.1907 18.1923 87.5745 18.3895C86.9625 20.5186 87.0702 22.7509 87.8854 24.8304ZM80.1119 23.8852C80.7511 23.8852 80.9757 23.3796 81.0534 22.9619C81.7161 23.2708 82.4171 23.5165 83.1436 23.6946C83.3353 24.5075 83.6919 25.286 84.1973 25.9955C83.3475 25.7291 82.5144 25.4258 81.7012 25.0869C79.3432 24.083 79.4382 24.0317 79.3951 23.7606C79.6325 23.8376 79.8837 23.8797 80.1379 23.8852H80.1119ZM83.5668 23.9438C85.9075 24.8011 87.9977 25.358 87.8854 25.336C88.2019 25.7111 88.4904 26.1027 88.7491 26.5084C89.1088 26.955 89.5523 27.3486 90.062 27.6735C88.3345 27.0067 88.2827 27.3877 84.7933 26.142C84.2154 25.49 83.8089 24.7404 83.6014 23.9438H83.5668ZM88.4123 25.3067C88.6196 25.3653 89.7769 25.5632 91.4353 25.7977C91.8016 26.8102 92.5177 27.7062 93.4909 28.3696C92.5109 28.2115 91.5443 27.9986 90.5975 27.7321C89.6164 27.1195 88.8687 26.2762 88.4468 25.3067H88.4123ZM87.3326 17.9132C86.9435 17.8932 86.5597 17.8265 86.1925 17.7154C85.2169 17.4901 84.2661 17.1934 83.3509 16.8287C83.7984 15.2713 84.6316 13.8125 85.7952 12.5494C86.0025 12.4762 86.9094 12.9085 87.0994 12.9818C87.7108 13.1927 88.3052 13.4375 88.8787 13.7145C88.2588 15.0821 87.7537 16.4852 87.3672 17.9132H87.3326ZM84.0851 14.3374C83.705 14.9236 82.9449 15.9348 83.0572 16.6382C82.2647 16.3519 81.5069 16.0009 80.7943 15.5904C80.2415 15.3339 79.6542 15.0921 79.1187 14.7917C79.7477 13.2764 80.6734 11.8619 81.8567 10.6076C81.8567 10.6076 85.3115 12.1611 85.5275 12.3516C85.5706 12.3882 84.2492 14.1468 84.1196 14.3374H84.0851ZM78.8336 14.755C74.7223 12.4322 75.016 12.63 74.8865 12.4542C74.7569 12.2783 75.1888 11.6555 75.3183 11.4283C76.0046 10.2927 76.9672 9.29365 78.1427 8.49729C78.1427 8.49729 81.3816 10.3292 81.5975 10.5417C80.6129 11.5529 79.0928 13.3701 78.8682 14.755H78.8336ZM75.4306 10.7395C75.3442 10.8568 74.4891 12.1171 74.636 12.205C73.5477 11.7214 72.7531 10.8494 71.7166 10.2925C71.8807 10.0507 72.0448 9.80893 72.1917 9.55979C73.0817 8.36959 74.2593 7.35311 75.6465 6.57747C76.3451 7.17039 77.0865 7.72592 77.8663 8.24083C76.9194 8.96415 76.1095 9.80694 75.4651 10.7395H75.4306ZM71.5784 9.91884C71.3107 9.53781 68.6159 7.60333 68.8577 7.24428C69.0056 7.08947 69.125 6.91653 69.2118 6.73135C70.1087 5.58956 71.2586 4.60654 72.5976 3.83697C72.8826 3.68309 75.2579 6.16713 75.5602 6.39428C73.8658 7.21566 72.4932 8.44126 71.613 9.91884H71.5784ZM71.7684 3.97619C70.6666 4.63125 69.7202 5.45656 68.9786 6.40894C68.7567 6.6423 68.6001 6.91542 68.5209 7.20764C67.781 6.38398 67.1058 5.51991 66.4997 4.62102C66.4668 4.58694 66.4487 4.54421 66.4487 4.50011C66.4487 4.45602 66.4668 4.41329 66.4997 4.37921C67.2369 3.40601 68.1974 2.56869 69.3241 1.91715C69.4968 1.81456 69.6005 1.62405 69.8337 1.6387C69.9787 1.65812 70.1154 1.70856 70.231 1.78525C71.0696 2.25521 71.8109 2.83951 72.4249 3.51455C72.2003 3.56585 72.0275 3.82231 71.803 3.97619H71.7684ZM67.7003 6.57747C68.0631 6.97316 68.1063 7.13437 68.3654 7.41282C67.5126 8.9287 66.9304 10.5438 66.6379 12.205C66.6379 12.0218 66.1974 11.78 65.4374 10.6076C65.0433 10.133 64.7266 9.61542 64.4959 9.06884C64.7435 7.72985 65.2855 6.44228 66.0938 5.27317C66.1663 5.13819 66.256 5.0104 66.3616 4.89214C66.75 5.48544 67.1979 6.0493 67.7003 6.57747ZM68.6504 7.6473C70.3174 9.56712 71.2416 9.84556 71.2416 10.3365C70.4258 11.9001 69.8454 13.5447 69.5141 15.2313C69.5141 15.0261 68.3999 14.1542 68.2531 14.0149C67.7337 13.5084 67.2519 12.9749 66.8107 12.4175C67.1897 10.7692 67.8076 9.16693 68.6504 7.6473ZM72.8567 26.2153H73.5391C73.5663 26.3022 73.6253 26.3794 73.7075 26.436C73.7898 26.4926 73.8911 26.5257 73.9968 26.5304C74.1689 26.5217 74.3415 26.5391 74.5064 26.5817C74.4843 26.6223 74.4785 26.6679 74.4898 26.7116C74.5011 26.7553 74.5289 26.7947 74.569 26.8237C74.6091 26.8528 74.6593 26.8699 74.7119 26.8725C74.7645 26.8751 74.8167 26.863 74.8605 26.8382C74.7829 26.9606 74.7248 27.0912 74.6878 27.2265C74.6443 27.3308 74.6443 27.4446 74.6878 27.5489C74.7029 27.5718 74.7233 27.5917 74.7479 27.6076C74.7725 27.6234 74.8007 27.6348 74.8307 27.641C74.8606 27.6472 74.8918 27.648 74.9222 27.6435C74.9526 27.6391 74.9816 27.6293 75.0074 27.6149C74.9204 27.7699 74.8874 27.9428 74.9124 28.1132C74.8605 27.9226 74.2473 28.1132 74.1523 28.1132C74.1078 27.9914 74.0182 27.885 73.8969 27.8098C73.7755 27.7346 73.6289 27.6945 73.4786 27.6955H73.3231C73.3335 27.4486 73.3015 27.2018 73.2281 26.9627C73.0992 26.7729 72.9185 26.6121 72.7012 26.4938C72.7621 26.4076 72.8059 26.3135 72.8308 26.2153H72.8567ZM97.2654 12.4395C98.9928 13.905 99.3901 16.3305 99.6406 18.3016C100.012 21.2326 99.5542 25.6291 97.2568 27.886C96.9678 28.2191 96.5531 28.4583 96.0817 28.5636C95.6102 28.6689 95.1105 28.6341 94.6656 28.4649C91.2107 26.6696 90.7011 22.8153 90.8652 19.3787C90.8138 17.5315 91.2629 15.6989 92.1781 14.0223C92.4721 13.4415 92.9146 12.9234 93.4737 12.5055C93.9722 12.0878 94.6405 11.8481 95.3411 11.8358C96.0416 11.8236 96.721 12.0396 97.2395 12.4395H97.2654ZM93.8105 11.7068C91.6512 12.8425 90.5888 16.4843 90.4938 18.6606C89.5882 18.3805 88.662 18.1504 87.7213 17.9718C88.0522 16.4633 88.5734 14.9893 89.276 13.5753C90.1397 13.8464 90.5543 13.905 91.4612 14.1908C91.4612 13.927 91.6944 14.1908 89.3883 13.3628C89.8788 12.5941 90.6037 11.9513 91.4871 11.5016C92.2508 11.627 93.0246 11.7029 93.8019 11.7287L93.8105 11.7068ZM88.3345 10.2413C89.2529 10.7004 90.2185 11.0879 91.2194 11.399C90.9689 11.3184 89.6992 12.2856 89.1723 13.2309V13.2749C89.1723 13.3994 89.0428 13.3335 88.9478 13.3335C88.0063 12.9012 86.9699 12.6007 86.0457 12.1757C86.6728 11.52 87.3448 10.8961 88.0582 10.3072L87.9372 10.1826C87.7731 10.2999 85.4152 12.0218 85.6829 12.1611L82.1244 10.4831C82.7857 9.73598 83.6395 9.12695 84.6206 8.70246C83.82 8.90666 83.0847 9.26244 82.4699 9.74298C82.3317 9.86022 82.1417 10.2632 82.038 10.3219C81.7876 10.4611 80.7079 9.65505 80.3797 9.47186C79.7492 9.09815 79.1187 8.7391 78.4968 8.31411C78.7652 8.08947 79.0858 7.91478 79.4382 7.80118C79.7919 7.62491 80.1616 7.47298 80.5438 7.34687C80.9411 7.22963 82.2712 6.81928 82.6772 7.06109C84.4926 8.22534 86.378 9.30883 88.3259 10.3072L88.3345 10.2413ZM82.6686 6.76066C82.3576 6.53351 80.9411 6.89256 80.5697 6.97316C79.7339 7.15063 78.955 7.48352 78.2895 7.94773C77.4979 7.46941 76.758 6.93239 76.0784 6.34299C75.4133 5.93265 79.0928 4.65033 80.4747 5.2292C81.2751 5.68351 82.0088 6.21732 82.6599 6.81928L82.6686 6.76066ZM80.3797 5.07532C79.1878 4.70162 76.8557 5.34644 75.6897 5.93998C72.779 3.53654 72.969 3.7124 72.969 3.66843C74.1988 2.99682 75.6587 2.69492 77.1148 2.81111C78.2584 3.5247 79.3461 4.30062 80.3711 5.13394L80.3797 5.07532ZM73.5045 0.869307C74.5928 1.01586 75.8625 1.99775 76.7348 2.56197C76.1302 2.2762 75.1283 2.56197 74.5151 2.69387C73.8731 2.88244 73.2564 3.12805 72.6753 3.42662C72.0398 2.59039 71.1427 1.92061 70.0842 1.49215C70.5736 1.23551 71.1208 1.0683 71.6907 1.0012C72.2834 0.877054 72.8955 0.832547 73.5045 0.869307ZM67.7867 0.89129C69.3977 0.340977 71.1843 0.283975 72.8394 0.730084C71.7818 0.788994 70.7511 1.03881 69.8164 1.46284C69.1457 1.15796 68.4005 0.989865 67.6399 0.971893L67.7867 0.89129ZM67.0612 1.17706C67.8808 1.03982 68.7312 1.16791 69.445 1.53612L69.6782 1.6387C69.0564 1.6387 68.2358 2.43008 67.7953 2.76714C67.6139 2.90637 66.0679 4.16671 66.232 4.36455C66.0074 4.07878 65.8088 3.78567 65.5756 3.4999C65.3424 3.21413 65.2042 3.03094 65.0228 2.76714C65.5406 2.10498 66.24 1.55933 67.0612 1.17706ZM63.2176 5.91067C63.2174 6.0645 63.2436 6.21755 63.2954 6.36497C63.5051 7.25657 63.7939 8.13348 64.1591 8.98824C63.8996 9.9254 63.9203 10.9027 64.2195 11.8313C63.2156 9.98204 62.8675 7.92489 63.2176 5.91067ZM63.779 7.31756C63.5766 6.59714 63.4694 5.85984 63.4595 5.11929C63.5442 4.92289 63.6512 4.73392 63.779 4.55507C64.09 3.97446 64.4599 3.41791 64.8846 2.89171C65.1264 3.25076 65.3165 3.62447 65.5497 3.99085C65.7829 4.35722 66.1543 4.56972 65.8606 5.05334C65.1649 6.21966 64.6261 7.44864 64.2541 8.71712C64.1442 8.23974 63.9852 7.77143 63.779 7.31756ZM64.3923 9.66238C66.7848 13.3262 66.6207 11.5016 66.3788 13.927C66.2902 14.3641 66.3595 14.8136 66.5775 15.2167C65.7428 14.4908 65.1127 13.614 64.7342 12.6521C64.3558 11.6902 64.2389 10.6681 64.3923 9.66238ZM68.97 17.4882C68.2017 16.8571 67.4994 16.1707 66.8711 15.4365C66.4831 14.8393 66.3869 14.1367 66.6034 13.48C66.6224 13.2586 66.6717 13.0397 66.7502 12.8279C66.8294 13.126 66.9991 13.4013 67.2425 13.6266C67.8525 14.3266 68.5253 14.9856 69.255 15.5977C69.2952 15.6199 69.3255 15.6529 69.3411 15.6914C69.3568 15.7299 69.3569 15.7717 69.3414 15.8102C69.3769 16.5194 69.4955 17.2239 69.6955 17.9132C69.4974 17.7242 69.2485 17.5784 68.97 17.4882ZM65.8779 24.464C65.9916 24.8391 66.2042 25.1874 66.4997 25.4826C66.6269 25.6027 66.7941 25.6874 66.9791 25.7253C67.1641 25.7632 67.3584 25.7527 67.5362 25.6951C67.9986 25.5955 68.4292 25.4103 68.7972 25.1528C69.0267 25.1765 69.2587 25.1765 69.4882 25.1528C69.737 25.0354 69.9545 24.8758 70.1274 24.6839C70.4197 24.4499 70.67 24.1808 70.8702 23.8852C70.5565 23.6683 70.3425 23.3649 70.2656 23.0278C69.9287 21.958 71.993 21.3352 71.5266 23.7606C71.3711 24.5593 70.4469 24.9037 70.4469 25.6951C70.4469 25.8783 70.4469 25.8709 70.3001 26.0248C70.2068 26.0936 70.1319 26.1786 70.0806 26.274C70.0293 26.3695 70.0028 26.4731 70.0028 26.578C70.0028 26.6829 70.0293 26.7866 70.0806 26.8821C70.1319 26.9775 70.2068 27.0625 70.3001 27.1313C70.1395 27.2337 70.0167 27.373 69.9463 27.5327C69.8759 27.6924 69.8608 27.8658 69.9028 28.0326C70.0496 28.5455 70.516 28.5528 70.9479 28.7653C70.8921 29.0066 70.866 29.2522 70.8702 29.4981C70.9126 29.6521 70.9973 29.7954 71.1173 29.9164C71.2374 30.0373 71.3895 30.1325 71.5611 30.1942C71.2905 30.819 70.75 31.3332 70.0491 31.6326C69.3483 31.9319 68.5395 31.994 67.7867 31.8062C66.7736 31.6426 65.8582 31.187 65.1955 30.5166C64.8269 30.0732 64.6087 29.5525 64.5645 29.0112C64.5203 28.4699 64.652 27.9286 64.9451 27.4464C65.2241 26.8393 65.4663 26.2206 65.6706 25.5925C65.8088 25.2278 65.8787 24.8471 65.8779 24.464ZM34.3003 13.4727C33.5226 13.5477 32.7374 13.5477 31.9597 13.4727C31.8647 13.4727 31.7437 13.4068 31.7437 13.3188C31.7437 13.2309 31.856 13.1796 31.9597 13.1503C32.5643 13.0037 32.9443 13.1503 33.0307 12.9818C32.3717 12.7725 31.7476 12.4917 31.1737 12.1464C31.1875 12.1204 31.2121 12.0995 31.2428 12.0878C31.6315 11.9119 32.1842 12.2783 32.5038 12.0878C32.2879 11.7214 31.9769 11.78 31.3982 11.5456C31.2514 11.5456 31.1823 11.2598 31.5192 11.2891C31.9602 11.3049 32.3913 11.4051 32.7802 11.5822C32.7802 11.2085 32.1497 11.1572 32.1497 10.8494C32.3428 10.8638 32.5292 10.9165 32.6938 11.0033C33.5093 11.3397 34.2844 11.7421 35.0086 12.205C34.9395 12.1537 34.5249 12.7839 34.4904 12.8279C34.352 13.0298 34.286 13.2615 34.3003 13.4947V13.4727ZM46.2542 30.011C48.2195 28.3507 50.4961 26.9789 52.9912 25.9515C53.8828 26.9045 54.9032 27.7652 56.0315 28.5162L56.1438 28.3843C53.6915 26.6951 51.8875 24.4249 50.9615 21.8628C50.0977 19.496 50.5296 19.0343 50.0286 19.0123C47.3714 19.0215 44.7229 18.7532 42.1429 18.2136C39.8636 17.6455 37.7387 16.7018 35.8896 15.4365C35.2166 15.0299 34.7554 14.418 34.6026 13.7292C34.4817 11.846 37.6688 11.1719 39.9577 11.0839C41.2446 11.0326 42.5488 11.0839 43.8012 11.018C49.9752 10.8544 55.9735 12.7755 60.4796 16.3598C63.3645 18.7192 66.3097 23.0498 65.1005 26.2666C64.79 26.9625 64.5558 27.6812 64.4009 28.4136C63.5372 32.4218 70.8443 33.5868 72.0103 29.5933C72.6494 30.1282 73.0899 30.1795 73.9018 30.7657C78.5141 33.6235 80.1206 36.3493 81.2607 37.3092C83.3644 37.5049 85.4223 37.9642 87.3672 38.6722C90.5535 39.832 93.3755 41.6087 95.607 43.8601C94.6397 45.5014 94.4756 45.9264 93.9919 46.1536C93.3863 46.3448 92.7465 46.4464 92.1004 46.454C87.9214 46.82 83.6992 46.3688 79.7578 45.1351C75.808 43.9003 72.1274 42.1174 68.8663 39.8592C70.2993 38.4436 71.5609 36.9093 72.6321 35.2795H72.468C69.2267 39.7314 64.4889 43.2583 58.8645 45.4062C58.2077 45.6955 57.4587 45.7983 56.7279 45.6994C55.9971 45.6004 55.323 45.305 54.805 44.8566C51.9547 42.8635 49.735 39.6614 48.1371 36.8403C46.927 35.225 45.9826 33.4771 45.33 31.645C45.3758 31.0191 45.7073 30.433 46.2542 30.011ZM47.8175 65.9966L76.3202 54.0967C77.0644 55.5458 77.9006 56.9596 78.825 58.332C79.7405 59.7975 85.7347 70.2173 86.0457 70.7302C84.611 71.3819 83.2468 72.1396 81.9689 72.9944C81.6651 72.3293 81.2266 71.7143 80.6734 71.1772C80.8695 71.8941 81.2241 72.5729 81.7185 73.1776C80.8172 73.7724 79.9523 74.4058 79.1273 75.0755C78.8164 75.0755 78.9027 74.1668 77.3999 72.6647C77.7106 73.6207 78.1818 74.5338 78.7991 75.3759C77.9452 76.0794 77.1514 76.8336 76.4239 77.6328C75.7094 76.3905 74.8866 75.1952 73.9623 74.0569C74.5791 75.4229 75.3034 76.7522 76.1302 78.0358C76.1302 78.1091 74.4978 80.2854 74.4028 80.3586C75.7761 80.4979 77.3135 80.278 79.5851 81.2966C80.8634 81.7948 80.1983 83.2164 79.2223 83.7293C78.2681 84.082 77.1981 84.1391 76.1993 83.8905L76.0266 83.6414C76.9555 83.7035 77.8901 83.6467 78.7991 83.4728C79.7492 83.1504 80.5265 81.9341 78.7991 81.3625C76.7462 80.8204 74.5992 80.58 72.4508 80.6517C71.1299 80.6959 69.8386 80.9968 68.6763 81.531C67.9459 80.0664 67.04 78.6692 65.9729 77.3617C66.6397 78.8557 67.4365 80.3057 68.3568 81.6996C67.5026 82.1942 66.5688 82.5816 65.5842 82.85C64.8529 81.382 63.944 79.9822 62.8721 78.6733C63.5279 80.1109 64.3044 81.5067 65.1955 82.85H63.6236C63.3802 82.8135 63.1295 82.8581 62.924 82.9746C62.8117 82.7254 62.5785 82.3151 61.8357 80.9595C61.6025 80.5345 61.352 80.0509 60.6869 79.9043C59.9763 79.9442 59.2975 80.1694 58.7436 80.5491C57.9749 80.8789 57.6898 81.3552 57.9403 81.9341C58.4672 83.0991 59.1495 84.2496 59.115 84.1763C59.3568 84.6306 59.6677 85.1875 60.281 85.2608C60.8942 85.334 62.9326 84.6746 63.114 83.7953C63.8981 84.3858 64.9261 84.6888 65.9729 84.6379C66.7318 84.556 67.4805 84.4162 68.2099 84.2203C67.7521 84.4328 68.0717 84.3009 67.2598 84.6819C66.6379 84.9823 66.4998 85.5319 66.8452 86.228C66.8452 86.3013 67.709 87.9793 67.9853 88.331C68.3222 88.8366 68.6418 89.3202 69.3759 89.3202C69.851 89.3202 69.9201 89.225 71.5957 88.5069C72.3039 88.0819 72.1053 87.5616 71.8203 86.9754C71.5034 86.3139 71.1429 85.6681 70.7406 85.0409C70.4729 84.5866 70.1878 84.0224 69.2896 83.9345C70.2099 83.6963 71.1615 83.556 72.1226 83.5168C73.85 86.653 73.85 86.7483 74.3423 87.2905L74.4114 87.2246C74.5582 87.1 74.4114 86.7776 74.2473 86.6457C74.0832 86.5138 72.4508 83.5754 72.3989 83.5022C73.2637 83.4917 74.1285 83.5186 74.9901 83.5828C75.2805 83.5753 75.5709 83.5999 75.8538 83.656C76.2409 84.4893 76.721 85.2892 77.2876 86.0448L77.3653 85.9862C77.5122 85.8616 77.3653 85.5392 77.1926 85.4C77.9329 86.1629 78.7508 86.869 79.6369 87.5103C79.8373 87.7336 80.1003 87.9108 80.402 88.026C80.7037 88.1412 81.0344 88.1906 81.3643 88.1698C83.9951 87.5597 86.7658 87.5295 89.4142 88.0819C90.0089 88.2222 90.5467 88.4985 90.9689 88.8806C91.0798 89.0409 91.148 89.2199 91.1688 89.405C91.1896 89.5901 91.1624 89.7768 91.0892 89.952C91.0159 90.1272 90.8984 90.2868 90.7449 90.4194C90.5913 90.552 90.4054 90.6546 90.2002 90.7198C88.4727 91.35 87.3758 90.7638 84.5428 90.903C85.9353 91.4905 87.2799 92.1564 88.5677 92.8961C88.4814 92.8961 27.6238 118.301 26.4751 118.726C25.4645 116.557 6.46271 84.4767 6.11722 83.722C9.57209 82.2565 12.1632 81.0474 36.0882 70.7669C35.8975 71.0685 35.7273 71.3792 35.5786 71.6975C35.5195 71.7883 35.4821 71.8881 35.4688 71.9913C35.4554 72.0944 35.4664 72.1988 35.5009 72.2983C35.5781 72.3929 35.6781 72.4725 35.7942 72.5318C35.9103 72.5912 36.04 72.629 36.1746 72.6427C35.8723 72.5768 35.1641 74.9289 35.1468 75.1414C34.7668 74.6065 34.5335 74.2841 33.713 74.4087C32.8431 74.574 32.0856 75.0244 31.6055 75.6617C31.1046 76.8487 32.2015 77.9699 32.8925 78.8565C33.2466 79.3328 33.5403 79.7651 34.2917 79.6552C34.825 79.5533 35.3414 79.3958 35.8291 79.1862C36.0323 79.1203 36.2197 79.0235 36.3819 78.9005C36.9951 78.3509 36.7533 77.75 36.3819 77.1565L36.2437 76.9367C35.9932 76.497 35.6477 76.138 35.38 75.7056C36.279 76.3212 37.3947 76.6642 38.5498 76.6802C38.5934 76.6786 38.6366 76.6883 38.6736 76.7079C38.7106 76.7275 38.7397 76.7562 38.7571 76.7901C38.878 76.944 39.284 77.8453 39.5258 77.8453C39.6208 77.8453 39.6295 77.728 39.5949 77.6621L39.2063 76.8561C39.2926 76.8561 39.2063 76.8561 40.8301 76.9293C42.3502 77.0099 42.9807 76.3065 44.2245 75.8815C44.6995 75.7056 45.3991 75.4345 45.4855 74.9436C45.4722 74.4636 45.2683 74.0014 44.9068 73.6319C43.9913 72.4595 43.8962 71.7854 43.2571 71.2505C45.1095 69.7254 46.6506 67.95 47.8175 65.9966ZM69.7646 84.3155C69.8423 84.3888 72.8481 87.9793 71.0256 88.4189C69.9028 88.9245 69.3673 89.0271 68.9613 88.822C68.5223 88.4438 68.1811 87.9921 67.9594 87.4957C67.6658 86.7116 67.4153 86.5871 67.0957 85.847C66.6034 84.975 69.2377 84.0517 69.7646 84.3155ZM60.3414 84.7845C59.7887 84.6526 59.5727 84.0517 59.2791 83.4728C59.0545 83.0405 57.923 81.8681 58.1908 81.1354C58.236 81.0189 58.3103 80.9121 58.4087 80.8223C58.5071 80.7325 58.6272 80.6618 58.7608 80.6151C59.2918 80.2897 59.9209 80.0992 60.5746 80.0655C61.0065 80.1168 62.7253 82.9966 62.7685 83.0552C63.4681 84.0664 61.2743 84.7772 60.3414 84.8138V84.7845ZM36.4596 78.5487C35.6564 79.2009 34.024 79.9483 33.3157 78.9078C32.0115 76.966 31.3119 76.3431 31.8474 75.7056C32.3335 75.3249 32.9293 75.0595 33.5748 74.9362C34.7495 74.5625 34.8445 75.5811 36.0278 77.2151C36.3905 77.8306 36.641 78.1897 36.4596 78.578V78.5487ZM42.8425 71.9539C42.9634 71.844 43.2657 71.5289 43.3176 71.4703C43.4903 71.6462 44.2677 73.119 44.3799 73.3315C44.7516 73.7597 44.9759 74.2671 45.0277 74.797C44.95 75.1707 44.6218 75.3319 44.2245 75.5298C43.8444 75.7267 43.4306 75.8725 42.998 75.9621C42.9835 75.8202 42.9355 75.6822 42.8568 75.5563C42.7782 75.4304 42.6705 75.3192 42.5402 75.2293C42.3847 75.1121 41.9702 74.9949 41.8751 74.8703L41.0892 73.6612C41.7228 73.1403 42.3089 72.5794 42.8425 71.9832V71.9539ZM39.9231 74.0569C40.0605 74.0976 40.2077 74.1082 40.3512 74.0877C40.4946 74.0672 40.6296 74.0163 40.7437 73.9397C40.9164 74.2401 41.0546 74.2328 41.1583 74.6724C39.8109 74.4526 39.9231 74.1156 39.9231 74.0569ZM39.5949 73.8591V74.035C39.5892 74.2023 39.6512 74.3663 39.7706 74.4997C39.8901 74.633 40.0597 74.7276 40.2514 74.7677C41.0587 74.9363 41.817 75.243 42.4798 75.669C43.2571 76.4017 41.5383 76.3138 41.1496 76.3138C39.0508 76.3138 37.9625 76.4311 36.4251 75.8156C35.8378 75.5737 35.9241 75.2293 36.071 74.7311C36.2485 74.1278 36.4735 73.5354 36.7447 72.9578C37.3579 73.1996 38.0575 73.2875 38.6708 73.5513C38.9574 73.6905 39.27 73.7872 39.5949 73.8371V73.8591ZM24.6008 124.698H24.5317C23.853 124.16 23.3476 123.484 23.0634 122.734C23.0202 122.661 2.50688 87.1366 0.874453 84.5207C0.670699 84.2819 0.544328 84.002 0.507954 83.7088C0.47158 83.4157 0.526476 83.1195 0.667161 82.85C1.02479 82.4098 1.53944 82.0784 2.13548 81.9047C4.13067 81.172 35.3714 68.0703 37.6084 67.1617C37.1506 68.3781 36.7447 69.1988 36.2696 70.4151C34.2053 71.2578 5.65081 83.5022 5.41761 83.5022C5.41761 83.5828 25.8964 118.909 25.9914 119.055C26.0864 119.202 26.5442 119.055 26.6305 119.055C26.7169 119.055 88.6282 93.2112 89.1119 92.9767C89.1983 92.9767 91.7721 94.4422 91.9449 94.5155C92.379 94.7673 92.8455 94.9763 93.3355 95.1383C94.7458 94.6562 96.2337 94.3573 97.7491 94.2517C99.3642 94.1931 102.068 94.4349 101.912 95.8125C101.819 96.2036 101.554 96.5497 101.169 96.7797C100.703 97.1094 93.8883 99.8939 93.8019 99.9305C94.6744 99.0017 95.7812 98.2506 97.0408 97.7323C98.0427 97.3073 99.1742 97.2267 100.763 96.2668C101.437 95.9004 101.403 95.3728 100.971 95.1383C98.5782 93.8853 93.7414 94.4642 91.1503 97.5491C24.0998 125.584 27.1919 124.295 27.0192 124.361C26.4664 124.617 25.4645 125.123 24.6008 124.698ZM100.47 98.3844C99.2347 98.912 94.1215 101.008 92.7913 101.572C92.9584 101.112 93.2028 100.675 93.5169 100.275C96.9717 98.9047 98.2327 98.3698 99.5629 97.7323C99.6665 97.8055 100.306 98.2965 100.453 98.3844H100.47ZM26.0259 136.488C26.1209 135.088 26.5355 125.665 26.5355 125.665C26.501 125.493 26.501 125.317 26.5355 125.145C26.596 124.932 26.8033 124.888 27.3992 124.639L90.7875 98.1426L90.0447 99.403C85.8557 101.132 29.7226 124.786 29.4031 124.786C27.5806 125.467 28.2889 125.049 28.1507 126.881V127.431C28.1507 127.885 28.0557 128.332 28.0643 128.786C28.0643 128.926 87.2463 104.151 87.3326 104.115C87.3028 104.171 87.2875 104.232 87.2875 104.294C87.2875 104.356 87.3028 104.417 87.3326 104.474C87.5399 105.009 88.7146 105.001 89.2242 105.009C89.9937 105.029 90.7569 104.886 91.4439 104.591C92.6013 103.616 92.5495 102.656 92.7913 101.946C94.5879 101.176 94.061 101.374 101.48 98.2818C101.575 98.2818 104.253 99.2271 104.633 99.3223C104.59 99.6315 104.59 99.9438 104.633 100.253C104.675 100.572 104.799 100.88 104.996 101.154C105.42 101.731 105.95 102.245 106.568 102.678C106.49 102.7 27.6152 135.689 26.0086 136.458L26.0259 136.488ZM30.8455 127.636C30.8636 127.329 30.8375 127.022 30.7677 126.72C30.759 126.691 30.759 126.661 30.7677 126.632C30.69 126.537 88.9391 102.202 88.8355 102.253C88.5724 102.746 88.2325 103.207 87.8249 103.624L30.8455 127.636ZM30.6727 126.442L30.5691 125.643C30.5173 125.46 26.2505 127.248 89.3451 101.066C89.2327 101.408 89.0733 101.738 88.87 102.048C88.7664 102.056 31.1219 126.178 30.6468 126.412L30.6727 126.442ZM28.4616 126.442C28.7898 126.302 30.0249 125.768 30.2927 125.628V126.574C29.5931 126.83 28.3407 127.306 28.237 127.306V126.471C28.3248 126.46 28.4115 126.442 28.4962 126.42L28.4616 126.442ZM28.5566 125.46C28.7898 125.299 29.7831 124.991 30.189 124.8L30.2495 125.452C30.2495 125.526 30.31 125.452 28.4616 126.295C28.4443 125.614 28.3925 125.533 28.5393 125.416L28.5566 125.46ZM28.4616 127.453C29.1379 127.218 29.7982 126.951 30.4395 126.654C30.4913 127.006 30.5345 127.358 30.5691 127.709C30.5086 127.709 28.263 128.633 28.2284 128.655V127.511C28.2975 127.394 28.358 127.416 28.4443 127.409L28.4616 127.453ZM30.5864 125.306V124.617C30.8282 124.617 87.7818 100.795 90.0274 99.8939C89.8201 100.356 89.7683 100.465 89.6819 100.627C81.0793 103.902 39.189 121.723 30.5691 125.262L30.5864 125.306ZM129.283 114.468C128.998 115.113 130.035 115.721 130.657 116.066C129.923 116.256 128.774 116.571 128.532 117.202C128.446 117.546 128.834 117.934 129.145 118.22C129.352 118.411 130.873 120.008 130.795 119.942C128.731 119.378 122.667 117.282 122.754 117.312C122.121 117.141 121.535 116.867 121.026 116.505C120.275 115.619 122.123 114.564 123.289 113.406C123.894 112.871 123.92 112.673 124.524 112.124C125.025 111.471 126.148 112.387 131.391 112.944C130.838 113.333 130.156 113.311 129.266 114.424L129.283 114.468ZM137.998 113.552C137.394 113.552 119.696 110.358 118.53 109.889C118.392 109.837 118.392 109.837 118.392 109.727C118.435 109.456 121.959 100.649 122.909 98.6409C123.049 98.2725 123.274 97.9312 123.571 97.6369C123.867 97.3426 124.229 97.1011 124.637 96.9262C125.797 96.4383 127.047 96.1235 128.333 95.9956C130.209 95.6833 132.103 95.4607 134.008 95.3288C134.828 95.3288 135.304 96.1642 135.804 96.7943C137.53 99.1969 138.67 101.868 139.158 104.651C139.646 107.434 139.472 110.271 138.646 112.996C138.508 113.435 138.249 113.508 137.981 113.508L137.998 113.552ZM147.499 110.797C150.159 111.809 150.28 113.802 148.121 115.392C147.276 116.274 146.349 117.097 145.349 117.854C145.521 117.233 145.752 116.626 146.04 116.037C146.463 115.179 146.402 114.754 145.176 114.754C144.37 114.793 143.565 114.67 142.827 114.395L143.077 114.168C143.561 113.736 144.165 113.193 144.088 112.571C144.01 111.948 143.146 111.596 141.427 111.391C143.561 108.943 143.276 108.848 143.561 108.943C144.897 109.49 146.2 110.094 147.465 110.753L147.499 110.797ZM145.945 97.6077C146.111 98.1539 146.23 98.7099 146.299 99.2711C146.189 98.9168 145.954 98.5996 145.625 98.3624C145.568 98.313 145.495 98.2789 145.415 98.2646C145.335 98.2503 145.252 98.2562 145.176 98.2818C144.908 98.3991 144.804 98.8241 144.813 99.0879C144.034 102.247 142.765 105.305 141.039 108.181C140.434 109.046 140.469 109.207 140.52 109.317C140.693 109.786 141.548 109.251 142.041 109.083L143.025 108.614C141.863 110.17 140.566 111.652 139.147 113.047C139.959 109.932 140.062 106.713 139.449 103.565C138.78 100.57 137.312 97.7454 135.157 95.3069C138.497 95.144 141.848 95.2914 145.15 95.7465C145.579 96.2992 145.841 96.9337 145.91 97.593L145.945 97.6077ZM140.149 90.2435C142.165 91.5924 143.795 93.3109 144.917 95.2702C138.656 94.4943 132.281 94.7105 126.114 95.9077C125.074 96.0939 124.114 96.5199 123.341 97.1387C121.519 99.2857 121.458 100.803 120.75 102.517C119.627 105.272 118.772 107.507 118.046 109.552C114.255 108.086 105.41 102.583 105.091 99.9379C105.151 98.4724 106.991 93.475 110.705 90.9323C112.389 89.7594 114.258 88.7926 116.259 88.0599C116.062 88.2166 115.908 88.4072 115.805 88.6189C115.703 88.8306 115.656 89.0584 115.667 89.287C115.677 89.5156 115.746 89.7395 115.867 89.9437C115.989 90.148 116.16 90.3276 116.371 90.4707L117.312 91.5038C117.452 91.6636 117.629 91.7975 117.831 91.8974C118.034 91.9974 118.258 92.0613 118.491 92.0853C118.724 92.1093 118.96 92.0929 119.185 92.037C119.41 91.9811 119.619 91.887 119.8 91.7603C119.987 91.6424 120.145 91.4934 120.263 91.3223C120.381 91.1513 120.456 90.9618 120.485 90.7652C120.514 90.5687 120.496 90.3691 120.432 90.1787C120.367 89.9883 120.258 89.8109 120.111 89.6573L119.247 88.5362C119.092 88.2604 118.846 88.0282 118.54 87.8671C118.234 87.7061 117.88 87.6229 117.52 87.6276C121.077 86.5213 124.886 86.1227 128.653 86.4625C128.302 87.8865 128.088 89.3323 128.014 90.7858C127.962 91.6504 128.938 91.4159 128.955 90.6978C129.017 89.2834 129.205 87.8749 129.517 86.4845C131.46 87.0487 132.315 86.609 136.979 88.4189C136.401 88.9665 135.867 89.5467 135.381 90.1556V90.1776C135.286 90.3241 135.122 90.6099 135.45 90.8004C135.779 90.9909 136.392 90.3754 136.599 90.1336C136.948 89.6643 137.332 89.214 137.748 88.7853C139.104 89.5694 139.475 89.7746 140.114 90.2289L140.149 90.2435Z" fill="black"/>
<path d="M147.465 110.754C147.517 110.783 147.517 110.783 147.465 110.754V110.754ZM108.477 95.7247L108.33 96.1131C109.522 96.5704 110.644 97.1486 111.672 97.835L111.966 97.454C110.863 96.7946 109.696 96.2161 108.477 95.7247ZM112.208 94.7721C111.629 94.479 111.344 94.2519 110.377 93.6876C110.199 93.6064 110.032 93.5107 109.876 93.4019L109.582 93.7682C109.98 94.0613 110.524 94.2812 111.154 94.6988C111.639 95.0201 112.147 95.3162 112.674 95.5855C112.778 95.5855 112.674 95.6441 113.028 95.2191C112.768 95.0534 112.494 94.9041 112.208 94.7721ZM135.088 107.822C132.652 104.628 130.536 101.228 128.498 97.923C128.368 97.7178 128.239 97.6225 128.092 97.6225C127.738 97.6665 127.53 98.282 127.358 98.9342C127.358 99.5057 125.475 102.964 124.343 106.408C124.119 107.053 124.602 107.31 125.043 107.463C128.236 108.812 131.705 109.625 135.261 109.86C135.563 109.86 135.934 109.86 136.055 109.684C136.081 109.63 136.09 109.571 136.081 109.513C136.071 109.455 136.045 109.4 136.003 109.354C135.795 108.806 135.486 108.289 135.088 107.822ZM132.168 101.733C132.35 102.114 133.032 102.129 133.896 102.363C134.402 102.537 134.952 102.598 135.494 102.539C135.658 102.495 135.736 102.429 135.718 102.341C135.718 102.107 134.768 101.982 134.768 101.982L134.31 101.938C134.048 101.956 133.784 101.93 133.533 101.861C133.283 101.792 133.051 101.681 132.851 101.535C132.462 100.971 132.669 100.671 132.618 100.07C132.618 98.9415 132.678 98.7437 132.402 98.3333C132.263 98.2087 132.022 98.0915 131.944 98.4579C131.915 99.553 131.99 100.648 132.168 101.733ZM142.542 98.1281C142.447 97.9083 142.188 97.3954 141.937 97.5053C141.687 97.6152 141.937 98.1062 142.326 98.9708C142.522 99.3322 142.647 99.7183 142.697 100.114C142.697 100.546 142.257 100.766 141.833 101.001C141.523 101.088 140.97 101.257 140.832 101.528C140.828 101.57 140.838 101.612 140.861 101.65C140.884 101.688 140.918 101.719 140.961 101.741C141.425 101.711 141.869 101.568 142.239 101.33C142.602 101.191 143.25 100.832 143.319 100.473C143.178 99.6665 142.917 98.8786 142.542 98.1281Z" fill="black"/>
</svg>
