<svg width="48" height="48" viewBox="0 0 48 48" fill="none" xmlns="http://www.w3.org/2000/svg">
<path d="M8 34V20.2427C8 20.1312 8.11735 20.0587 8.21708 20.1085L22.6584 27.3292C23.5029 27.7515 24.4971 27.7515 25.3416 27.3292L39.7829 20.1085C39.8827 20.0587 40 20.1312 40 20.2427V34C40 35.1046 39.1046 36 38 36H10C8.89543 36 8 35.1046 8 34Z" fill="#222222"/>
<path d="M8 14V17.9073C8 17.9641 8.0321 18.0161 8.08292 18.0415L22.6584 25.3292C23.5029 25.7515 24.4971 25.7515 25.3416 25.3292L39.9171 18.0415C39.9679 18.016 40 17.9641 40 17.9073V14C40 12.8954 39.1046 12 38 12H10C8.89543 12 8 12.8954 8 14Z" fill="#7E869E" fill-opacity="0.25"/>
</svg>
