<svg width="58" height="48" viewBox="0 0 58 48" fill="none" xmlns="http://www.w3.org/2000/svg">
<path d="M12 26.274C12 25.1635 12 24.6082 12.2613 24.1486C12.5227 23.6889 12.9998 23.4049 13.9541 22.8369L27.777 14.6089C28.2756 14.3121 28.5249 14.1637 28.8 14.1637C29.0751 14.1637 29.3244 14.3121 29.823 14.6089L43.6459 22.8369C44.6002 23.4049 45.0773 23.6889 45.3387 24.1486C45.6 24.6082 45.6 25.1635 45.6 26.274V40C45.6 40.9428 45.6 41.4142 45.3071 41.7071C45.0142 42 44.5428 42 43.6 42H14C13.0572 42 12.5858 42 12.2929 41.7071C12 41.4142 12 40.9428 12 40V26.274Z" fill="#7E869E" fill-opacity="0.25"/>
<path d="M7.19995 25.4481C7.19995 25.6915 7.19995 25.8132 7.27832 25.8558C7.35669 25.8984 7.45883 25.8322 7.66312 25.6998L27.7122 12.7051C28.2402 12.3628 28.5042 12.1917 28.7999 12.1917C29.0957 12.1917 29.3597 12.3628 29.8877 12.705L49.9368 25.6998C50.1411 25.8322 50.2432 25.8984 50.3216 25.8558C50.3999 25.8132 50.3999 25.6915 50.3999 25.4481V23.0871C50.3999 22.5552 50.3999 22.2893 50.2786 22.066C50.1572 21.8426 49.934 21.698 49.4877 21.4088L29.8877 8.70505C29.3597 8.3628 29.0957 8.19168 28.7999 8.19168C28.5042 8.19168 28.2402 8.3628 27.7122 8.70505L8.11216 21.4088C7.66588 21.698 7.44274 21.8426 7.32135 22.066C7.19995 22.2893 7.19995 22.5552 7.19995 23.0871V25.4481Z" fill="#222222"/>
<path d="M32.8 30H24.8C23.6955 30 22.8 30.8954 22.8 32V41.85C22.8 41.9328 22.8672 42 22.95 42H34.65C34.7329 42 34.8 41.9328 34.8 41.85V32C34.8 30.8954 33.9046 30 32.8 30Z" fill="#222222"/>
<rect x="38.4" y="10" width="4.8" height="8" rx="0.5" fill="#222222"/>
</svg>
