<svg width="135" height="111" viewBox="0 0 135 111" fill="none" xmlns="http://www.w3.org/2000/svg">
<path d="M91.8337 16.9223C91.8302 16.9151 91.8241 16.9089 91.8163 16.9045C91.8085 16.9002 91.7993 16.8979 91.7898 16.8979C91.7804 16.8979 91.7711 16.9002 91.7633 16.9045C91.7555 16.9089 91.7494 16.9151 91.7459 16.9223C91.7459 17.2664 91.1384 17.4773 91.3072 17.8658C91.3814 18.0323 91.6582 18.1488 91.8134 17.9823C91.819 17.9741 91.8221 17.965 91.8226 17.9556C91.8231 17.9463 91.821 17.9369 91.8165 17.9283C91.8119 17.9198 91.805 17.9121 91.7963 17.9061C91.7876 17.9001 91.7773 17.8958 91.7662 17.8935H91.6919C91.3679 17.8935 91.3679 17.7048 91.7324 17.3385C91.7877 17.2805 91.8256 17.2126 91.8432 17.1403C91.8608 17.068 91.8575 16.9933 91.8337 16.9223ZM93.2647 16.3617C93.3052 16.4505 93.4807 16.4228 93.5009 16.334C93.5007 16.1467 93.4712 15.9601 93.4132 15.779C93.4132 15.7584 93.4032 15.7386 93.3855 15.724C93.3678 15.7095 93.3438 15.7013 93.3187 15.7013C93.2936 15.7013 93.2696 15.7095 93.2519 15.724C93.2341 15.7386 93.2242 15.7584 93.2242 15.779C93.1799 15.9731 93.1938 16.1731 93.2647 16.3617ZM90.1867 15.9344C90.1867 16.1064 90.1867 16.445 90.3959 16.5504C90.4059 16.555 90.417 16.5575 90.4284 16.558C90.4398 16.5584 90.4512 16.5567 90.4616 16.5529C90.472 16.5492 90.4813 16.5435 90.4886 16.5363C90.496 16.5291 90.5012 16.5207 90.5039 16.5116C90.4706 16.3239 90.4209 16.1384 90.3554 15.9566C90.3419 15.8511 90.1867 15.8456 90.1867 15.9344ZM89.5387 15.2628C89.5261 15.2798 89.5223 15.3001 89.528 15.3193C89.5337 15.3386 89.5485 15.3552 89.5691 15.3655C89.5897 15.3758 89.6144 15.379 89.6378 15.3743C89.6612 15.3696 89.6814 15.3575 89.6939 15.3405C89.7952 15.2295 90.3689 14.9021 90.4364 14.7855C90.4452 14.7768 90.4509 14.7662 90.4528 14.7549C90.4547 14.7437 90.4527 14.7322 90.4471 14.7218C90.4415 14.7114 90.4324 14.7026 90.421 14.6962C90.4096 14.6898 90.3962 14.6861 90.3824 14.6856C90.0112 14.6801 89.6872 15.0242 89.5387 15.2628ZM93.3322 14.5358C93.6697 14.5691 93.8452 14.7911 94.0072 15.002C94.0184 15.0181 94.0359 15.0307 94.0569 15.0377C94.0779 15.0447 94.1011 15.0457 94.1228 15.0406C94.1446 15.0355 94.1636 15.0245 94.1769 15.0095C94.1902 14.9944 94.197 14.9762 94.1962 14.9576C94.1962 14.5968 93.7169 14.3748 93.3187 14.3693C93.1972 14.3637 93.2039 14.5247 93.3322 14.5358ZM100.082 33.3003C101.533 33.2282 102.958 32.8896 104.409 32.7842C104.524 32.7842 104.524 32.6232 104.409 32.6343C102.944 32.7406 101.494 32.9542 100.075 33.2726L100.082 33.3003ZM93.0959 33.539C93.2039 33.539 93.1567 33.3891 93.0487 33.4002C91.5434 33.5945 90.0314 33.8165 88.5329 34.0496C88.4924 34.0496 88.5329 34.1106 88.5329 34.1106C90.0652 33.9386 91.5907 33.7554 93.0959 33.539ZM70.8344 65.174L60.0749 59.0135L58.0364 61.8051L72.3667 69.5973L84.3682 51.3323L80.9122 50.0003L70.8344 65.174Z" fill="black"/>
<path d="M89.0527 43.3344C88.8704 42.957 88.7827 43.007 88.2967 42.9237C87.4934 42.7794 86.6834 42.6518 85.8734 42.5186C83.3624 42.1023 80.8987 41.4086 78.4484 40.8536C75.9709 40.3072 73.5492 39.6021 71.2057 38.7446C70.5307 38.5004 69.9097 38.2617 69.2887 37.9731C68.9174 37.7955 68.1479 37.2405 67.7362 37.2627C67.4999 37.2627 67.6147 37.2627 67.3447 37.4514C66.8384 37.8399 66.3457 38.2229 65.8124 38.5614C63.7267 39.8975 61.507 41.0857 59.1772 42.1134C55.5948 43.8992 51.8641 45.4756 48.0126 46.8309C47.9859 46.8369 47.9622 46.8499 47.9451 46.8679C47.9281 46.886 47.9186 46.908 47.9182 46.9308C47.5725 50.2261 47.9474 53.5456 49.0252 56.7322C50.0312 59.9455 51.2411 63.1133 52.6499 66.2227C55.1609 71.867 58.9072 77.1118 64.4489 81.0578C70.2337 85.1815 75.2489 85.903 75.2962 85.8641C77.3256 84.5938 79.1855 83.1502 80.8447 81.5573C84.6895 78.0309 87.6856 73.9366 89.6737 69.4916C90.8858 66.7225 91.6462 63.8336 91.9349 60.9002C92.3129 57.0152 91.6379 53.1801 90.8212 49.334C90.4946 47.2879 89.9017 45.2765 89.0527 43.3344ZM90.8347 65.5345C89.9207 69.1896 88.188 72.6732 85.7249 75.8075C79.5217 83.3222 75.2759 85.6477 75.2084 85.6865C68.9402 83.9398 63.4682 80.6642 59.5214 76.2959C57.6572 74.2804 56.0554 72.1095 54.7424 69.8191C53.2954 67.1476 52.0532 64.4042 51.0231 61.605C49.9024 58.9334 49.0336 56.1947 48.4244 53.4132C48.1287 51.9349 47.9909 50.4381 48.0126 48.9399C48.0126 48.5847 48.0937 47.0418 48.0869 47.0474C48.1544 46.953 53.1157 45.2103 55.2082 44.2335C58.0499 42.8793 60.9929 41.625 63.7199 40.0932C64.9143 39.4439 66.043 38.7164 67.0949 37.9176C67.4729 37.629 67.6214 37.4792 68.1344 37.6512C68.4922 37.7678 70.6117 38.7612 71.3542 39.011C74.3363 40.0448 77.4096 40.8908 80.5477 41.5418C82.1879 41.9247 83.8282 42.3632 85.4954 42.6518C86.5515 42.7874 87.5972 42.9727 88.6274 43.2068C89.0122 43.4066 89.7817 45.9318 89.9774 46.5978C90.3419 47.9742 90.6119 49.3729 90.9022 50.7493C91.9214 55.6999 92.1982 60.6005 90.8347 65.5456V65.5345ZM44.3137 20.5017C44.3035 20.511 44.2967 20.5224 44.2941 20.5346C44.2914 20.5469 44.293 20.5595 44.2986 20.5711C44.3042 20.5826 44.3137 20.5927 44.3259 20.6C44.3381 20.6074 44.3526 20.6118 44.3677 20.6127C44.4911 20.6 44.6059 20.5538 44.6939 20.4814C44.7819 20.4091 44.8381 20.3147 44.8536 20.2131C44.8536 20.1188 44.4419 19.7025 44.3744 19.5138C44.3703 19.5041 44.3625 19.4956 44.3522 19.4896C44.3419 19.4835 44.3296 19.4803 44.317 19.4803C44.3044 19.4803 44.2921 19.4835 44.2818 19.4896C44.2716 19.4956 44.2638 19.5041 44.2597 19.5138C44.1989 19.6748 44.6579 20.1299 44.6309 20.252C44.6039 20.3741 44.4149 20.4185 44.3137 20.5017ZM45.5557 18.7035C45.4914 18.8836 45.4641 19.0711 45.4747 19.2585C45.4747 19.4195 45.7784 19.4195 45.7852 19.2585C45.8157 19.0713 45.7902 18.8808 45.7109 18.7035C45.7035 18.6919 45.6923 18.6822 45.6786 18.6754C45.6649 18.6686 45.6493 18.665 45.6333 18.665C45.6173 18.665 45.6016 18.6686 45.588 18.6754C45.5743 18.6822 45.5631 18.6919 45.5557 18.7035ZM42.8084 18.6869C42.7457 18.8683 42.7457 19.0605 42.8084 19.2419C42.8084 19.3584 43.0784 19.3418 43.0649 19.2419C43.0514 19.142 43.0177 18.8978 42.9907 18.7257C42.9969 18.7059 42.9933 18.6848 42.9807 18.6671C42.968 18.6494 42.9473 18.6365 42.9232 18.6314C42.899 18.6262 42.8733 18.6292 42.8518 18.6396C42.8303 18.65 42.8147 18.667 42.8084 18.6869ZM42.2347 18.5315C42.3427 18.4149 42.9097 18.0486 42.9907 17.9432C43.0044 17.9322 43.0135 17.9178 43.0164 17.9022C43.0193 17.8866 43.0159 17.8707 43.0067 17.8568C42.9975 17.8429 42.983 17.8319 42.9655 17.8255C42.948 17.819 42.9283 17.8175 42.9097 17.8211C42.5496 17.93 42.2482 18.1404 42.0592 18.4149C41.9849 18.5037 42.1537 18.6092 42.2347 18.5315ZM45.4207 17.8877C45.666 17.9892 45.8932 18.1181 46.0957 18.2706C46.1089 18.2817 46.1258 18.2893 46.1443 18.2924C46.1629 18.2955 46.1821 18.294 46.1995 18.288C46.2169 18.282 46.2318 18.2719 46.2422 18.2589C46.2525 18.2459 46.2579 18.2307 46.2577 18.2151C46.2577 18.0708 45.5827 17.7489 45.4004 17.76C45.3839 17.7656 45.3701 17.7755 45.3611 17.7882C45.3521 17.8009 45.3485 17.8157 45.3508 17.8303C45.3531 17.8448 45.3612 17.8584 45.3739 17.8687C45.3865 17.8791 45.4029 17.8858 45.4207 17.8877ZM42.2752 21.3842H42.2144C42.2144 21.7394 43.1729 22.4609 44.4487 22.0113C44.5094 22.0113 44.4487 21.9059 44.4014 21.9225C44.0263 22.0508 43.6084 22.0672 43.2201 21.9689C42.8318 21.8706 42.4975 21.6638 42.2752 21.3842ZM16.4159 68.2651C14.1817 68.4482 11.8934 68.1596 9.66591 68.3872C9.66591 68.3872 9.61866 68.4204 9.61866 68.4371C9.442 69.9506 9.47824 71.4759 9.72666 72.9826C9.72804 72.9963 9.73356 73.0095 9.74271 73.0211C9.75186 73.0326 9.76435 73.0422 9.77908 73.0488C9.7938 73.0554 9.81029 73.0589 9.82706 73.0589C9.84383 73.059 9.86035 73.0556 9.87516 73.0491C12.0487 73.1435 14.3234 73.0825 16.5037 72.9992C16.5644 72.9992 16.5914 72.8882 16.5914 72.8771C16.6568 71.3615 16.6207 69.844 16.4834 68.3317C16.4843 68.3236 16.4833 68.3155 16.4804 68.3078C16.4775 68.3001 16.4728 68.293 16.4665 68.2868C16.4603 68.2806 16.4525 68.2755 16.4439 68.2718C16.4352 68.268 16.4257 68.2657 16.4159 68.2651ZM9.86841 69.869C9.86841 69.4028 9.86841 68.9366 9.82791 68.4649C11.9645 68.555 14.1057 68.542 16.2404 68.426C16.1875 68.9669 16.1717 69.5098 16.1932 70.0522C14.0901 69.9026 11.9788 69.847 9.86841 69.8857V69.869ZM10.0102 72.8605C9.90891 71.9336 9.89541 71.0123 9.88191 70.0854C10.8809 70.0854 11.9069 70.1188 12.8789 70.1409C12.7977 71.0132 12.859 71.8905 13.0612 72.7495C12.0415 72.7138 11.0201 72.7566 10.0102 72.8771V72.8605ZM13.3852 72.7661C13.3852 72.2722 13.2299 70.5073 13.1422 70.1243C14.1479 70.1243 16.1864 70.2631 16.1932 70.2631C16.1932 71.1067 16.2944 71.9558 16.3147 72.7883C15.3764 72.8438 14.3842 72.805 13.4054 72.7828L13.3852 72.7661Z" fill="black"/>
<path d="M131.166 71.9835C131.027 71.2194 130.568 70.519 129.87 70.0021C129.026 69.4749 127.906 69.5637 126.914 69.5914C125.429 69.6303 122.371 69.8689 122.371 69.8634C121.858 68.6812 121.406 67.4713 120.812 66.3225C120.403 65.3444 119.552 64.5334 118.436 64.0581C117.342 63.6696 112.212 63.9693 109.836 64.1469C111.625 59.2851 111.719 52.564 111.719 51.2653C111.967 51.1282 112.18 50.9529 112.347 50.7492C112.88 50.0221 112.509 48.901 112.428 48.1185C112.199 45.9928 112.057 43.8339 111.692 41.7193C112.382 41.1425 112.985 40.4996 113.488 39.8046C115.121 37.5457 115.128 35.0316 114.372 32.5285C113.616 30.0255 111.483 28.0885 109.087 26.3902C106.706 24.6129 103.749 23.4425 100.575 23.0214C100.249 22.5523 99.8713 22.1083 99.4478 21.6949L98.8538 21.978C98.8538 21.2287 98.4758 18.0208 98.4758 18.0208C99.0293 17.8987 100.123 16.5834 100.292 15.6177C100.372 14.6768 100.172 13.7339 99.7087 12.8711C99.2452 12.0083 98.5323 11.2517 97.632 10.6671C95.1345 9.00209 90.207 9.78464 89.1203 10.4617C88.8217 10.6555 88.4768 10.7952 88.1081 10.8717C87.7393 10.9482 87.3551 10.9598 86.9805 10.9057C86.9805 10.9057 87.885 11.6494 87.3315 11.7882C86.778 11.9269 86.4 11.1721 86.4 11.1721C86.2718 12.6817 87.0075 13.0591 87.0075 13.0591C89.4307 15.2014 91.26 13.4865 91.26 13.4865C91.26 13.4865 91.5098 12.8205 94.1152 13.3033C94.4508 13.3427 94.7724 13.44 95.059 13.5888C95.3456 13.7376 95.5906 13.9346 95.778 14.1668C95.9654 14.399 96.091 14.6612 96.1464 14.9361C96.2019 15.211 96.186 15.4925 96.0997 15.762L96.4305 15.873C96.5548 15.7244 96.6949 15.5851 96.849 15.4567C98.3205 14.6187 98.6985 15.8896 98.6985 15.8896C98.9955 16.9219 97.4498 17.2216 97.4498 17.2216C97.4902 18.6535 97.173 18.8866 97.173 18.8866C95.9175 20.1243 94.6418 18.7812 94.6418 18.7812C94.3599 18.5142 94.0047 18.3065 93.6055 18.1752C93.2063 18.0439 92.7747 17.9929 92.3467 18.0264C90.7538 18.0819 90.9967 18.4981 90.3218 18.9033C89.8965 19.1586 89.4645 18.87 89.2012 18.6313C89.2012 18.1596 88.9717 16.3114 88.8435 15.8563V14.2413C88.3708 14.1277 87.9395 13.9199 87.588 13.6363C86.913 15.3013 88.3507 15.8119 88.749 15.9285C88.7962 16.4335 88.5735 20.2797 89.424 21.7227C89.6515 22.1239 89.9961 22.4727 90.4271 22.738C90.8581 23.0033 91.3622 23.1769 91.8945 23.2434C91.8203 23.5708 91.746 24.1147 91.7325 24.2646C90.072 24.4644 88.7287 25.3413 87.4395 26.1682C85.8926 27.1401 84.4578 28.2269 83.1533 29.415C80.803 31.5121 79.2742 34.1421 78.7658 36.963L76.4505 36.408C76.484 36.286 76.4998 36.1612 76.4978 36.0361C76.4957 35.8128 76.4118 35.5952 76.2569 35.4117C76.102 35.2282 75.8835 35.0874 75.6297 35.0077C75.376 34.928 75.0989 34.913 74.8347 34.9648C74.5705 35.0166 74.3314 35.1327 74.1488 35.298C74.0156 35.4498 73.9193 35.6213 73.8652 35.803C73.8652 35.803 69.9908 34.3933 68.0535 33.7107C67.6423 33.4917 67.1422 33.4159 66.663 33.4998C65.9215 33.826 65.2637 34.267 64.7257 34.7985V34.7652C64.0508 34.0825 62.5658 34.138 62.3498 35.1315C62.3077 35.4214 62.3638 35.7152 62.5118 35.9806C62.1743 36.186 61.8368 36.4024 61.4453 36.6133C60.5003 34.693 59.6025 32.6895 58.0703 31.0633C56.7969 29.671 55.261 28.455 53.5208 27.4614C51.1335 26.063 48.2562 25.3438 45.3262 25.4134L45.1507 25.0638C45.1507 24.8362 45.0968 24.6087 45.063 24.3867C47.2568 24.5365 48.3975 21.8226 48.3975 21.8226C48.4748 22.2914 48.417 22.7686 48.2287 23.2156C48.2287 23.2156 50.4563 20.5849 49.14 16.2171C47.8238 11.8492 43.065 12.765 43.065 12.765C37.4152 10.0732 34.479 14.8962 34.479 14.8962C31.0365 21.7449 37.179 24.6087 37.179 24.6087C36.585 24.2424 36.774 23.421 36.774 23.421C37.0821 23.7789 37.4855 24.0745 37.9533 24.2851C38.4212 24.4957 38.9412 24.6158 39.474 24.6364C39.474 24.8085 39.3997 24.9972 39.3795 25.1914L39.2378 25.6021C33.3585 27.306 28.1812 30.4417 26.163 35.47C25.2045 37.851 25.1437 40.3263 26.6017 42.5851C27.8267 44.4184 29.8461 45.8054 32.2582 46.4701C32.2291 46.7952 32.2912 47.1215 32.4398 47.4236C32.5885 47.7258 32.8197 47.9958 33.1155 48.2128C32.6565 48.3849 31.4753 49.0842 30.8002 51.8592C30.5235 53.0025 30.0105 55.0005 29.4502 57.1705C26.5005 55.2724 22.167 52.3753 22.0995 52.4197C15.768 56.61 3.40875 65.4456 3.40875 65.4567C3.3953 65.4657 3.38542 65.4779 3.38037 65.4916C3.37532 65.5052 3.37533 65.5198 3.38039 65.5335C3.38545 65.5472 3.39534 65.5593 3.4088 65.5684C3.42226 65.5774 3.43869 65.583 3.456 65.5843C4.47525 65.6565 5.481 65.7064 6.52725 65.7342C6.52725 70.8901 7.05375 81.2742 7.08075 81.2742H4.725C4.6778 82.145 4.71844 83.0174 4.8465 83.8827C9.504 83.8827 27.0472 83.7828 33.291 83.6829C33.4935 86.1304 33.7432 89.0719 33.7432 89.0719C33.3315 89.2051 31.563 90.0709 31.0095 90.2707C30.267 90.5371 29.6595 90.8646 29.754 91.6027C29.7856 91.6319 29.8248 91.6546 29.8687 91.6693C32.3016 91.8194 34.7474 91.7412 37.1587 91.4362C37.2122 91.4219 37.2577 91.3924 37.287 91.353C37.4794 90.7923 37.4794 90.1987 37.287 89.638L40.3042 79.315C40.7497 77.8554 42.39 72.0334 42.795 70.596C44.4959 70.5874 46.195 70.5022 47.8845 70.3407C48.5595 72.039 50.4495 78.5325 51.2055 79.92C51.9615 81.3075 52.0425 81.8791 52.056 81.8847C53.9798 82.3287 55.5728 82.8892 57.8813 81.3297C57.9018 81.3128 57.9298 81.3032 57.9589 81.3032C57.988 81.3032 58.0159 81.3128 58.0365 81.3297C58.0571 81.3466 58.0687 81.3696 58.0687 81.3935C58.0687 81.4174 58.0571 81.4404 58.0365 81.4573C56.646 82.6839 53.7097 82.8448 52.0357 81.9235L54.972 89.022C54.7877 89.7318 54.7877 90.4656 54.972 91.1754C54.972 91.2198 59.3865 91.1754 61.5533 91.1254C61.6208 91.1254 61.6748 91.0144 61.6748 91.0033C61.6943 90.7274 61.6128 90.453 61.4407 90.2155C61.2687 89.9781 61.014 89.7885 60.7095 89.6713C60.318 89.4882 58.5563 88.7944 58.0838 88.6002V80.364C58.9265 81.2764 59.854 82.1336 60.858 82.9281C63.1663 84.6521 65.6505 86.21 68.283 87.5845C70.6455 88.8888 73.1363 90.1819 75.8835 90.8535C75.9375 90.8535 83.1465 87.0462 86.9738 82.3564V84.4932C87.2781 84.7511 87.6564 84.942 88.074 85.0482C88.1282 85.5087 88.2139 85.9664 88.3305 86.419C87.345 86.974 85.8262 87.8176 85.5697 88.8277C85.5377 88.9206 85.5295 89.0179 85.5458 89.1134C85.5621 89.209 85.6024 89.3007 85.6643 89.3827C85.3133 90.7647 89.1 90.4927 89.91 90.4039C90.963 90.2874 94.635 90.1153 94.014 88.5669C94.014 88.5669 94.2097 86.6244 93.5482 86.2858C93.6088 85.8377 93.6088 85.3854 93.5482 84.9372C94.4932 84.7707 95.1548 84.6042 95.1548 84.6042L95.9918 67.3992C97.551 74.0037 103.896 85.1148 103.896 85.1148C104.383 85.1731 104.875 85.2028 105.368 85.2036C105.558 85.587 105.784 85.9581 106.043 86.3136C105.523 86.7187 102.863 88.8055 104.294 89.5215C104.605 90.8868 107.217 90.1264 108.182 89.7879C108.79 89.577 112.475 88.1229 111.307 87.3292C111.307 87.3292 110.437 85.6032 110.14 85.5088C110.082 85.0547 109.959 84.6077 109.775 84.1768C110.124 83.9971 110.447 83.7868 110.741 83.5497C110.741 83.5497 110.065 80.3473 109.391 77.1283C112.928 77.2122 116.467 77.0395 119.968 76.6122C120.015 76.6122 120.049 76.5567 120.056 76.5178C120.056 75.7741 120.116 74.986 120.818 74.4421C121.447 74.0212 122.198 73.7437 122.999 73.6374C125.132 73.26 126.049 74.4366 126.59 75.9184C126.59 75.9573 129.931 75.7908 131.551 75.8407C131.639 75.8407 131.672 75.6853 131.672 75.6687C131.663 74.429 131.493 73.1937 131.166 71.9835ZM91.8 13.1479C90.8955 13.5753 89.7412 12.937 89.4645 12.21C89.4645 12.1711 89.5185 12.1434 89.5455 12.1822C89.7615 12.5041 90.6255 13.3255 91.746 12.987C91.8 12.9592 91.8743 13.1091 91.8 13.1479ZM107.912 25.8574C110.275 27.3337 112.759 29.2207 113.785 31.5628C114.811 33.9049 115.094 36.8187 113.684 39.133C112.319 41.225 110.162 42.8946 107.541 43.8894C104.54 45.0244 101.273 45.6041 97.9695 45.5877C97.9521 45.5821 97.9329 45.5821 97.9155 45.5877C97.2844 44.5344 96.5436 43.5279 95.7015 42.5796C99.4893 40.5913 103.403 38.7702 107.426 37.1239C107.442 37.1161 107.455 37.1044 107.462 37.0905C107.469 37.0765 107.471 37.0611 107.467 37.0462C107.055 35.9039 106.781 34.7308 106.65 33.5442C106.65 33.4942 106.549 33.4887 106.549 33.5442C106.58 34.4929 106.734 35.4361 107.008 36.358C107.143 36.8353 107.467 36.913 106.967 37.1517C105.995 37.5679 99.657 40.3374 97.5173 41.4141C97.4228 40.4706 97.1055 36.0861 97.119 36.075C98.0438 34.804 101.547 29.5648 102.519 28.305C102.527 28.2988 102.533 28.2915 102.537 28.2834C102.541 28.2753 102.543 28.2666 102.543 28.2578C102.543 28.2491 102.541 28.2404 102.537 28.2323C102.533 28.2242 102.527 28.2168 102.519 28.2106C102.11 27.6623 101.617 27.1588 101.054 26.7121C101.806 26.2303 102.621 25.8189 103.484 25.4856C103.559 25.4856 103.646 25.4356 103.592 25.369C103.04 24.6383 102.393 23.9591 101.662 23.3433C103.928 23.8161 106.05 24.6724 107.892 25.8574H107.912ZM94.1423 45.1381C92.8665 46.0761 92.7923 45.5377 92.7585 45.3657C93.232 45.1588 93.67 44.9012 94.0613 44.5998C94.0613 44.5998 94.0208 44.511 93.987 44.5332C93.7103 44.6886 92.1645 45.7597 92.1645 45.1215C92.6669 44.609 93.2477 44.152 93.8925 43.7617C93.798 43.6119 93.4605 43.7617 93.3728 42.8349C93.7981 43.0997 94.3175 43.2421 94.851 43.24C95.1709 43.2536 95.4883 43.1878 95.7623 43.0513C96.0084 43.473 96.288 43.8808 96.5993 44.2723C96.1741 44.6084 95.7232 44.9217 95.2493 45.2103C94.824 45.4545 93.8993 46.0594 93.3593 45.7653C93.6706 45.5964 93.9682 45.411 94.2503 45.2103C94.2638 45.177 94.1625 45.1104 94.122 45.1381H94.1423ZM101.486 23.31C101.736 23.6485 103.093 25.0249 103.437 25.4134C102.504 25.6627 101.666 26.1086 101.007 26.7066L102.425 28.2328C100.629 30.7692 98.5163 33.2278 97.1123 35.9529C97.6034 31.6748 98.672 27.4549 100.298 23.371L100.541 23.1601L101.486 23.31ZM99.414 21.8226C99.6908 22.2555 100.089 22.6218 100.379 23.0658C99.4748 23.8428 98.4757 24.5199 97.524 25.2858C97.167 24.6114 96.7138 23.9742 96.174 23.3877C97.3249 22.9768 98.4125 22.4552 99.414 21.8337V21.8226ZM95.6475 23.0602C97.7738 22.6773 98.307 20.4462 98.442 19.0809C98.442 19.3584 98.577 21.3009 98.6783 22.0002C98.6745 22.013 98.6745 22.0263 98.6783 22.039L96.0525 23.31C95.7618 23.7483 95.5135 24.2049 95.31 24.6753C95.0825 24.1807 94.8118 23.7003 94.5 23.2378C94.8848 23.199 95.256 23.1435 95.6475 23.0713V23.0602ZM95.2223 24.925C95.2196 24.9367 95.2197 24.9487 95.2227 24.9603C95.2257 24.9719 95.2314 24.9829 95.2396 24.9927C95.2477 25.0025 95.2581 25.0109 95.2702 25.0174C95.2823 25.0238 95.2958 25.0283 95.31 25.0305C95.3242 25.0327 95.3388 25.0325 95.3529 25.0301C95.367 25.0277 95.3804 25.023 95.3923 25.0163C95.4042 25.0096 95.4144 25.001 95.4223 24.9911C95.4302 24.9811 95.4356 24.97 95.4383 24.9583C95.6408 24.4533 95.9378 23.9649 96.1133 23.4598C96.4883 24.1371 96.9403 24.7838 97.4632 25.3912C98.3955 24.8402 99.2734 24.2297 100.089 23.5653C97.8682 27.6001 97.0312 33.3721 96.903 35.2702C96.363 33.6052 93.9532 26.8231 93.0622 25.1748C93.2891 25.2913 93.5454 25.3634 93.8115 25.3857C93.9802 25.147 94.2975 23.6818 94.4865 23.2767C94.5 23.3599 95.067 24.6087 95.2223 24.9361V24.925ZM92.097 20.1187C92.2434 20.1543 92.3973 20.1642 92.5487 20.1479C92.7 20.1316 92.8456 20.0894 92.9759 20.0241C93.1063 19.9587 93.2185 19.8717 93.3055 19.7685C93.3924 19.6653 93.4521 19.5483 93.4808 19.425C93.4808 19.3528 93.663 19.3917 93.6495 19.4638C93.4538 20.4795 92.2995 20.4018 92.0768 20.1576C92.0633 20.152 92.0768 20.1298 92.097 20.1298V20.1187ZM92.0565 23.26C92.8243 23.3512 93.604 23.3512 94.3717 23.26C94.063 23.8953 93.8191 24.5506 93.6427 25.2192C93.4402 25.1082 92.2523 24.5421 91.8878 24.3423C91.8945 24.3312 92.0295 23.6596 92.0565 23.2711V23.26ZM91.8 24.42C92.1166 24.6638 92.4653 24.8779 92.8395 25.0582C93.4268 26.9064 96.2145 33.9049 96.7613 35.6032C95.9175 34.6153 91.4152 30.6082 90.288 29.4205C90.614 28.8234 90.8936 28.2098 91.125 27.5835C90.5341 27.3951 89.9211 27.2574 89.2957 27.1728C89.9728 26.3801 90.5113 25.5133 90.8955 24.5976C91.1723 24.5199 91.8 24.42 91.8 24.42ZM78.9143 36.9741C79.5105 34.2016 81.0265 31.6184 83.295 29.5093C84.3831 28.5032 85.5731 27.5749 86.8522 26.7343C87.9975 25.8623 89.3115 25.1533 90.7402 24.6364C90.153 25.4634 89.5928 26.4513 88.9515 27.2616C88.8975 27.3337 90.3488 27.5613 90.9293 27.7278C90.801 27.9054 90.2205 29.1375 90.0518 29.4705C90.0518 29.5093 95.8568 34.854 96.9165 36.0805C96.8288 36.9352 97.4295 41.4751 97.4363 41.4807C96.8085 41.797 96.1403 42.1578 95.5395 42.5019C95.4855 42.5019 95.688 42.796 95.7488 42.9015C95.4987 43.004 95.2247 43.0608 94.9455 43.068C95.0198 41.8858 94.8915 40.515 93.663 39.738C93.1238 39.4191 92.489 39.2273 91.827 39.183C90.7537 39.072 89.6805 39.022 88.6073 38.8944C88.1483 38.8389 87.6825 38.7723 87.2235 38.7001V38.6668C86.8506 36.9701 86.7057 35.2448 86.7915 33.522C86.7915 33.4776 86.7038 33.4609 86.6902 33.522C86.4413 35.2423 86.5416 36.9847 86.9873 38.6779C84.24 38.2506 81.5873 37.6068 78.8873 36.9685L78.9143 36.9741ZM74.0205 35.8641C74.0844 35.6016 74.2649 35.3682 74.5268 35.2092C74.7314 35.1013 74.9723 35.0496 75.215 35.0616C75.4576 35.0736 75.6893 35.1486 75.8768 35.2758C76.0823 35.4206 76.2302 35.6128 76.3012 35.8276C76.3723 36.0423 76.3631 36.2697 76.275 36.4801C76.1805 36.741 75.6743 37.5124 75.2693 36.8964C75.2935 36.8514 75.3138 36.805 75.33 36.7576C75.3959 36.5177 75.4454 36.275 75.4785 36.0306C75.3975 36.2526 75.3503 36.4912 75.2558 36.7077C75.2347 36.7764 75.1962 36.8406 75.1426 36.8961C75.0891 36.9516 75.0218 36.9971 74.9453 37.0296C74.7292 37.0906 74.5673 36.9519 74.4863 36.802C74.6166 36.4692 74.696 36.1243 74.7225 35.7753C74.6838 36.1413 74.5649 36.4986 74.3715 36.8298C74.2365 37.0296 73.98 37.0518 73.8923 36.8298C73.8755 36.7546 73.8755 36.6775 73.8923 36.6022C73.9016 36.3512 73.9447 36.1018 74.0205 35.8585V35.8641ZM64.449 34.7541C64.5098 34.804 64.5638 34.8595 64.6245 34.9206C64.625 34.929 64.6285 34.9372 64.6345 34.9441C64.6405 34.9509 64.6487 34.9563 64.6583 34.9594C64.7995 35.1078 64.909 35.2749 64.9823 35.4534C65.07 35.6754 65.2523 36.2248 64.692 36.0084C64.5229 35.8118 64.3356 35.6262 64.1318 35.4534C64.0913 35.4534 64.1318 35.4534 64.1318 35.4534C64.2533 35.631 65.2185 36.7243 64.1318 36.4801C64.0281 36.2227 63.8629 35.9849 63.6458 35.7808C63.6338 35.7739 63.6194 35.7704 63.6048 35.7707C63.5902 35.7711 63.5761 35.7754 63.5647 35.7829C63.5533 35.7904 63.5451 35.8007 63.5415 35.8124C63.5379 35.824 63.5389 35.8363 63.5445 35.8474C63.6795 36.1027 64.4355 37.0573 63.5445 36.802C63.0371 36.5559 62.6648 36.1583 62.505 35.692C62.4014 35.4836 62.3925 35.2514 62.48 35.038C62.5674 34.8245 62.7453 34.6441 62.9812 34.5296C63.217 34.4152 63.4951 34.3743 63.7646 34.4145C64.0341 34.4547 64.2771 34.5732 64.449 34.7485V34.7541ZM38.2388 22.4775C38.5642 22.4767 38.8865 22.5304 39.1859 22.6353C39.4853 22.7403 39.7556 22.8943 39.9802 23.088C39.8587 22.2888 38.3872 21.151 38.3872 21.151C36.666 21.1843 37.0372 19.7857 37.0372 19.7857C37.115 19.6384 37.2348 19.5085 37.3865 19.4073C37.5383 19.3061 37.7175 19.2365 37.9089 19.2044C38.1004 19.1722 38.2984 19.1785 38.4863 19.2227C38.6741 19.2669 38.8462 19.3477 38.988 19.4583C38.988 19.6303 39.3525 20.4184 39.879 20.4517C40.4055 20.485 40.2165 20.9401 40.2165 20.9401C40.2165 20.9401 40.608 20.5239 40.2165 20.2908C39.825 20.0577 39.7912 19.4527 39.7912 19.4527C42.0052 19.2862 43.5645 14.9073 43.5645 14.9073C44.1315 17.3326 47.331 17.377 47.331 17.377C47.3363 18.8165 47.2326 20.2549 47.0205 21.6838C46.9286 22.1166 46.6635 22.5116 46.2672 22.8062C45.871 23.1009 45.3663 23.2782 44.8335 23.31C44.8335 23.31 44.8335 24.7641 44.928 25.1692C44.1925 25.6911 43.2535 25.9782 42.282 25.9782C41.3105 25.9782 40.3715 25.6911 39.636 25.1692V24.6142C39.9493 24.6322 40.264 24.621 40.5742 24.5809C38.6842 24.2757 38.2388 22.4775 38.2388 22.4775ZM39.2782 25.7242C39.9532 26.7565 43.7805 27.3892 45.3533 25.5133C46.0973 25.5173 46.8398 25.5693 47.574 25.6687C47.0543 30.0699 39.1365 30.2253 37.2532 26.4568C37.908 26.2015 38.5897 25.9629 39.2782 25.7242ZM27.4252 43.29C23.814 38.9832 26.487 33.1834 30.7057 29.8645C32.5663 28.4647 34.7057 27.3383 37.0305 26.5345C37.8 28.5492 40.8577 29.5593 43.2675 29.3095C44.4123 29.221 45.4862 28.8143 46.3121 28.1565C47.1379 27.4986 47.6664 26.629 47.8103 25.6909C49.7418 25.9682 51.5813 26.5751 53.2103 27.4725C54.9246 28.4238 56.4423 29.5949 57.7057 30.9412C59.3392 32.6451 60.264 34.7097 61.236 36.7132C59.6093 37.6401 57.699 38.6113 55.7415 39.5215C55.404 39.3106 54.6345 38.7501 54.4793 38.6335C54.5307 36.9895 54.1049 35.359 53.2373 33.8772H53.1698C54.5602 36.7021 54.1755 39.0664 54.2363 40.1764C50.6722 41.7526 47.2297 43.0125 45.4612 43.3233C45.4612 43.3233 45.4612 43.24 45.4072 43.2289C42.579 42.4575 34.1482 39.9877 34.1347 39.9877C34.3093 39.0591 34.4242 38.1236 34.479 37.185C34.479 37.185 34.425 37.185 34.425 37.2183C34.1347 38.134 34.0942 39.1275 33.912 40.0654C33.9086 40.0824 33.9112 40.0998 33.9196 40.1156C33.928 40.1314 33.9418 40.1448 33.9592 40.1542C37.6312 41.4585 41.5057 42.3742 45.3127 43.3677C45.4021 44.4261 45.3433 45.4894 45.1372 46.5367C39.15 46.9863 31.4077 48.0352 27.4252 43.29ZM55.5322 39.6214C55.1543 39.799 54.7695 39.9711 54.3915 40.1376C54.432 39.7213 54.459 39.2829 54.4658 38.8333C54.7867 39.126 55.1442 39.3901 55.5322 39.6214ZM45.5355 44.1558C45.7597 44.2339 46.0007 44.2742 46.2443 44.2742C46.4878 44.2742 46.7288 44.2339 46.953 44.1558C47.4525 43.9393 47.7022 43.4898 48.1545 43.2178C48.1842 43.5212 48.0839 43.8236 47.871 44.0725C47.8237 44.1225 47.871 44.1835 47.9655 44.178C48.4245 44.2335 49.3763 44.0836 49.707 44.3056C50.1728 44.6109 48.5122 44.7441 48.087 44.7885C48.0195 44.7885 48.0397 44.8773 48.087 44.8828C48.612 44.8803 49.1334 44.811 49.6328 44.6775C50.031 45.51 48.3503 45.3213 48.033 45.4156C48.0195 45.4193 48.0077 45.4263 47.9994 45.4358C47.9911 45.4453 47.9866 45.4567 47.9866 45.4684C47.9866 45.4801 47.9911 45.4914 47.9994 45.5009C48.0077 45.5104 48.0195 45.5174 48.033 45.5211C48.4264 45.5432 48.8216 45.5208 49.2075 45.4545C49.5653 46.1482 46.2645 46.6921 45.4342 45.7708C45.5262 45.236 45.5601 44.6955 45.5355 44.1558ZM35.2282 54.39C35.2282 54.3567 35.316 54.39 35.3092 54.39C35.1405 56.499 33.5205 65.0793 33.0277 67.2493C33.0277 67.3104 32.9062 67.2826 32.9197 67.2493C33.2707 65.107 34.7152 56.5212 35.2282 54.39ZM29.862 68.4481C30.5673 68.7389 31.2931 68.9946 32.0355 69.214C32.0355 69.375 32.076 69.597 32.0962 69.8467C30.4222 69.7135 28.8293 69.9855 27.162 69.8911C27.162 69.3972 27.1147 68.487 27.1147 68.487C27.567 68.4759 28.8428 68.4537 29.862 68.4648V68.4481ZM30.3547 70.0465H32.0625C32.1232 70.7181 32.1908 71.6394 32.2582 72.6273C31.6591 72.5579 31.0527 72.5412 30.4492 72.5773C30.4817 71.7388 30.4569 70.8994 30.375 70.0632L30.3547 70.0465ZM30.186 72.5718C30.1117 72.5718 28.161 72.5718 27.2767 72.6051C27.2767 71.9391 27.162 70.2519 27.162 70.0743C28.1599 70.1294 29.1611 70.1294 30.159 70.0743C30.0392 70.9099 30.0483 71.7547 30.186 72.5884V72.5718ZM3.942 65.4456C10.017 61.0833 15.903 56.943 22.113 52.6806C24.4147 54.3456 26.9527 55.833 29.4232 57.3481C28.6605 60.2619 27.8235 63.4531 27.3375 65.2902C21.1207 65.379 7.74225 65.49 3.942 65.4456ZM5.0895 83.7217C5.13246 82.9455 5.07362 82.1677 4.914 81.4018C7.17525 81.6238 27.4995 81.4351 33.075 81.363C33.1155 81.918 33.183 82.6672 33.2505 83.4886C27 83.4886 9.693 83.6218 5.0895 83.7217ZM20.5335 76.2514C21.7686 76.1719 23.0088 76.159 24.246 76.2126C24.246 76.2126 24.246 80.364 24.354 81.2631L20.6617 81.313C20.6077 79.5759 20.6617 77.9775 20.5335 76.2514ZM37.098 91.2364C33.345 91.7637 31.1242 91.4584 29.943 91.5195C29.8957 91.2697 30.3952 90.6981 30.618 90.5593C30.8407 90.4206 33.75 89.2773 33.75 89.2773C34.6612 90.637 36.5445 89.9821 37.125 89.7435C37.2773 90.2408 37.2773 90.7613 37.125 91.2586L37.098 91.2364ZM39.4673 81.4851C37.1452 82.3231 34.8435 81.7959 33.0007 80.4361L33.0548 81.1243L24.6037 81.2353C24.7036 79.5024 24.6426 77.7658 24.4215 76.0405C24.4215 76.0405 21.5595 75.7242 20.2837 76.0017C20.2432 76.0017 20.3175 79.5537 20.3715 81.2908L7.5465 81.252C7.5465 81.252 7.317 70.8679 6.95925 65.712C9.83475 65.7841 21.438 65.601 27.3037 65.5011L26.946 66.8497C27.6761 67.408 28.4933 67.8839 29.376 68.265C28.5784 68.1959 27.7722 68.241 26.9932 68.3982C26.9889 68.4109 26.9889 68.4243 26.9932 68.437C26.8516 69.8788 26.8787 71.3285 27.0742 72.766C27.0742 72.766 27.1215 72.8326 27.1552 72.8326C27.9922 72.877 31.3605 72.7494 32.346 72.8659C32.5012 75.1581 32.6835 77.7499 32.859 78.6379C32.859 78.6379 33.0547 80.3751 33.0885 80.3917C34.0402 80.9467 36.3892 82.4952 39.4335 81.3907C39.4942 81.3519 39.555 81.4795 39.4673 81.5073V81.4851ZM40.041 79.3317C37.125 79.92 33.885 78.8988 33.075 78.5991C32.805 76.9785 32.643 70.7236 32.2312 69.2806C35.5474 70.1943 39.028 70.639 42.525 70.596C41.9985 71.9835 40.4123 77.8498 40.041 79.365V79.3317ZM39.042 60.4617C39.0467 60.4493 39.0561 60.4384 39.0689 60.4307C39.0816 60.423 39.097 60.4188 39.1129 60.4188C39.1287 60.4188 39.1441 60.423 39.1569 60.4307C39.1696 60.4384 39.179 60.4493 39.1838 60.4617C39.1838 62.3709 39.258 64.2856 39.1838 66.1948C39.1838 66.2503 39.0757 66.2503 39.069 66.1948C38.9678 64.3134 39.0352 62.3986 39.042 60.495V60.4617ZM44.1922 48.6291C42.6802 48.6957 35.4172 48.9732 33.3315 48.1296H33.2978C32.7664 47.6799 32.446 47.09 32.3932 46.4646C32.6768 46.5478 32.9737 46.62 33.264 46.6866C36.9022 47.4691 40.689 47.0085 44.3542 46.7365C44.2506 47.3732 44.1965 48.0146 44.1922 48.6568V48.6291ZM51.462 79.981C50.787 78.3882 48.816 71.8336 47.9993 70.2963C48.6743 70.2297 50.112 70.0243 50.6183 69.9522C51.2933 71.1121 52.1033 72.2332 52.8458 73.3599C53.5883 74.4865 54.378 75.6964 55.1947 76.8342C55.8698 77.7499 56.5448 78.649 57.294 79.5148C55.0327 80.8191 52.353 80.253 51.462 80.0088V79.981ZM61.2563 90.8757C59.1165 90.9145 57.4155 91.0533 55.1813 90.9534C55.0226 90.3459 54.9974 89.72 55.107 89.1052C57.1995 90.5316 58.0365 88.6779 58.0365 88.6779C58.5023 89.0331 61.236 90.0709 61.2563 90.9034V90.8757ZM88.1753 85.0482C89.694 85.4145 91.8338 85.1758 93.3323 84.9205C93.2648 85.3812 93.7035 87.0406 91.2262 87.2737C88.1348 87.6012 88.3103 85.5088 88.1753 85.0759V85.0482ZM90.2543 90.1042C89.397 90.2208 85.995 90.6592 85.7588 89.4771C86.015 89.6182 86.3145 89.6971 86.6228 89.7046C87.7973 89.7823 93.447 88.9387 93.7643 88.6279C94.122 89.8545 91.179 90.0099 90.2543 90.132V90.1042ZM93.7643 88.5058C93.4065 88.7778 88.7625 89.4549 87.804 89.5159C86.8455 89.577 85.158 89.6991 85.8668 88.4947C86.0158 88.2528 86.2043 88.0287 86.427 87.8287C86.706 88.0558 87.0013 88.2689 87.3113 88.467C87.3923 88.5114 87.4733 88.4337 87.4328 88.3671C87.2209 88.0867 86.9166 87.8615 86.5553 87.7177C86.751 87.5512 86.9737 87.3847 87.1965 87.2293C87.3315 87.3181 87.8108 87.751 87.9593 87.8232C87.9745 87.8305 87.9921 87.8339 88.0096 87.8329C88.0272 87.8319 88.0441 87.8265 88.0579 87.8175C88.0718 87.8085 88.082 87.7963 88.0873 87.7825C88.0925 87.7686 88.0926 87.7538 88.0875 87.7399C87.9378 87.4704 87.6806 87.2511 87.3585 87.1183L87.8512 86.7909C88.209 86.9796 88.5263 87.2127 88.8773 87.4125C88.9245 87.4125 88.9853 87.4125 88.9515 87.357C88.6854 87.0833 88.3489 86.8615 87.966 86.7076C88.0997 86.618 88.2394 86.5346 88.3845 86.4579C88.6831 86.7785 89.0683 87.0376 89.5097 87.2147C89.951 87.3918 90.4365 87.482 90.9276 87.4782C91.4187 87.4745 91.9019 87.3768 92.3392 87.193C92.7765 87.0091 93.1558 86.7442 93.447 86.419C93.933 86.8408 93.7643 88.1728 93.7643 88.5336V88.5058ZM94.9455 66.1893C94.4325 71.5006 86.913 81.807 86.913 81.807V81.9402C83.025 86.58 77.8613 89.355 75.8565 90.6814C73.035 89.9877 70.497 88.639 68.0738 87.2959C65.4662 85.9229 63.0149 84.3589 60.75 82.6228C58.5949 80.8112 56.7467 78.7689 55.2555 76.5511C53.6895 74.3311 52.3665 72.0112 50.733 69.8412C50.058 68.6535 44.7457 58.6524 44.469 48.6457C44.5307 48.018 44.5419 47.3877 44.5028 46.7587L45.1372 46.7143C45.1792 46.6925 45.2103 46.659 45.225 46.62C45.301 46.3938 45.3596 46.164 45.4005 45.9318C45.7606 46.1385 46.1722 46.2766 46.6054 46.3361C47.0386 46.3956 47.4825 46.3751 47.9048 46.2759C48.3975 46.1871 49.6125 45.9984 49.3628 45.3823C49.4394 45.3587 49.512 45.3269 49.5788 45.288C49.6492 45.2584 49.7098 45.2151 49.7553 45.1619C49.8008 45.1086 49.8298 45.0471 49.8398 44.9825C49.8497 44.918 49.8404 44.8524 49.8126 44.7915C49.7847 44.7306 49.7392 44.6762 49.68 44.6331C49.923 44.5332 50.031 44.3944 49.842 44.2002C49.7407 44.1309 49.6229 44.0798 49.4962 44.0502C49.3695 44.0206 49.2367 44.0131 49.1063 44.0281C48.7451 44.0243 48.384 44.0429 48.0263 44.0836C48.2693 43.8061 48.3975 42.8515 48.0667 43.018C47.764 43.2106 47.4998 43.4409 47.2838 43.7007C46.7775 44.178 46.1903 44.128 45.5018 44.0392C45.5018 43.845 45.5017 43.6507 45.441 43.4842C46.7999 43.3427 48.118 43.0065 49.3358 42.4908C50.9152 41.9358 58.5765 39.0331 62.5725 36.1693C62.6771 36.3634 62.8295 36.5376 63.02 36.6809C63.2105 36.8242 63.4351 36.9334 63.6795 37.0018C64.125 37.0851 64.206 36.8742 64.1385 36.6078C64.1866 36.6364 64.2424 36.6551 64.3011 36.6624C64.3598 36.6696 64.4198 36.6652 64.476 36.6494C64.5322 36.6336 64.583 36.607 64.6241 36.5718C64.6652 36.5365 64.6955 36.4937 64.7123 36.4468C64.7628 36.3321 64.7628 36.2064 64.7123 36.0916C64.9553 36.1971 65.1308 36.2137 65.205 35.9751C65.2297 35.7816 65.2066 35.5859 65.137 35.3999C65.0674 35.214 64.9528 35.0415 64.8 34.8928C65.2793 34.582 65.7248 34.2435 66.1973 33.9271C67.1625 33.2944 68.3438 34.0326 69.309 34.3711C70.7805 34.8928 73.791 35.9529 73.8112 35.9307C73.7683 36.0788 73.7368 36.2289 73.7168 36.3802C73.7168 36.5856 73.575 36.9796 73.899 37.0851C74.1083 37.1517 74.2635 37.0518 74.3715 36.8853C74.3911 36.9406 74.4259 36.9913 74.4734 37.0336C74.5209 37.0759 74.5797 37.1086 74.6451 37.129C74.7105 37.1495 74.7808 37.1571 74.8505 37.1514C74.9202 37.1457 74.9873 37.1268 75.0465 37.0962C75.0976 37.0689 75.1432 37.0352 75.1815 36.9963C75.3637 37.2405 75.7012 37.3737 75.978 37.1517C76.1973 36.9785 76.3558 36.7599 76.437 36.519C79.8689 37.5053 83.3837 38.2843 86.9535 38.85C88.6478 39.1108 90.3757 39.1608 92.07 39.405C94.3515 39.7213 94.8442 41.4141 94.77 43.068C94.6055 43.0607 94.4425 43.0384 94.284 43.0014C93.9348 42.9125 93.5922 42.8068 93.258 42.685C93.258 42.685 93.2175 42.685 93.2175 42.7183C93.1495 42.938 93.1708 43.17 93.2783 43.3788C93.3393 43.5416 93.4715 43.68 93.6495 43.7673C93.2497 43.9386 92.8943 44.1724 92.6033 44.4555C92.4075 44.622 91.8608 45.0105 91.9283 45.288C91.9958 45.5655 92.3468 45.4878 92.6033 45.4267C92.5758 45.4763 92.5642 45.5307 92.5693 45.585C92.5744 45.6393 92.5963 45.6916 92.6327 45.7371C92.6691 45.7825 92.7189 45.8196 92.7775 45.845C92.8361 45.8703 92.9016 45.883 92.9678 45.8818H93.177C93.5955 46.2703 94.203 45.9484 94.6283 45.7209L95.1885 45.4267C95.1885 46.7532 95.4383 48.0852 95.5868 49.4061C95.6948 50.4217 95.7487 51.454 95.9108 52.4697C96.2347 60.0954 95.4518 60.9168 94.9455 66.217V66.1893ZM96.1403 52.4308C96.0525 51.3208 95.8635 50.2108 95.7488 49.1008C95.6138 47.841 95.5598 46.5534 95.3168 45.3046C95.8382 45.0302 96.3166 44.704 96.741 44.3334C97.0853 44.7829 97.4498 45.2214 97.7738 45.6487C97.8649 45.6948 97.9656 45.7268 98.0707 45.7431C97.9492 46.8531 98.604 51.121 98.847 52.6417C97.5375 52.6084 96.5655 52.5085 96.1403 52.4586V52.4308ZM98.9753 52.6528C98.8335 51.1099 98.469 46.8531 98.3003 45.7431C103.066 45.682 108.128 44.5998 111.564 41.797C111.638 43.5286 112.293 48.7123 112.327 49.567C112.375 49.8316 112.342 50.102 112.23 50.3533C112.118 50.6045 111.931 50.8285 111.686 51.0045C107.433 52.725 102.222 52.8304 98.9753 52.6806V52.6528ZM108.425 89.4271C107.339 89.8323 105.151 90.6204 104.423 89.4937C104.804 89.521 105.188 89.4909 105.557 89.4049C107.575 89.0848 109.484 88.4026 111.146 87.4069C111.881 88.0674 108.851 89.2828 108.392 89.4549L108.425 89.4271ZM111.078 87.2682C109.515 88.227 107.708 88.8817 105.793 89.1829C105.192 89.2828 104.227 89.4771 104.105 88.8166C104.125 88.5723 104.233 88.3384 104.416 88.1451C104.49 88.0341 104.578 87.9286 104.666 87.8232C104.909 87.93 105.121 88.0797 105.286 88.2616C105.361 88.306 105.428 88.2228 105.401 88.1673C105.251 87.965 105.027 87.8075 104.76 87.7177C104.888 87.5734 105.023 87.4347 105.158 87.2959C105.637 87.4569 105.766 87.7677 105.908 87.8509C106.049 87.9342 106.029 87.8509 106.009 87.7899C105.839 87.5342 105.58 87.3256 105.266 87.1905L105.611 86.8464C106.124 87.1072 106.285 87.4458 106.434 87.5623C106.495 87.6012 106.616 87.5623 106.582 87.4902C106.403 87.1708 106.114 86.901 105.752 86.7132L106.11 86.3469C106.907 87.4569 109.971 86.9019 110.086 85.6254C110.471 86.1553 110.792 86.7148 111.044 87.2959L111.078 87.2682ZM109.593 84.1824C109.728 84.5931 110.707 86.3413 108.095 86.7298C106.279 87.0018 105.584 85.2202 105.543 85.1481C106.958 85.1245 108.341 84.8015 109.559 84.2101L109.593 84.1824ZM126.9 75.6909C126.583 75.5743 126.583 75.3523 126.468 75.1359C126.316 74.7759 126.114 74.4314 125.867 74.1091C124.754 72.8881 122.492 73.2211 121.054 73.8871C120.697 74.0635 120.394 74.3056 120.169 74.5945C119.944 74.8834 119.803 75.2112 119.758 75.5521C119.751 75.7009 119.733 75.8491 119.704 75.9961C119.576 76.368 119.475 76.3569 118.989 76.4068C118.361 76.4734 112.678 76.7953 109.465 76.873C108.959 74.4421 108.459 72.0334 108.243 71.0511C107.922 69.9456 107.869 68.799 108.088 67.6767C108.907 66.6692 109.528 65.5624 109.931 64.3966C112.03 64.2801 116.68 63.9471 117.868 64.2024C119.347 64.5354 120.136 65.5677 120.683 66.6666C121.23 67.7655 121.648 68.9865 122.121 70.0798C122.121 70.1242 122.263 70.1464 122.283 70.1464C123.458 70.1464 124.659 70.0077 125.834 69.9633C127.008 69.9189 128.588 69.5526 129.587 70.1631C130.318 70.7245 130.774 71.4865 130.869 72.3054C131.103 73.3768 131.216 74.4637 131.207 75.5521C130.019 75.5188 127.089 75.763 126.9 75.6909Z" fill="black"/>
<path d="M124.99 78.5327C125.218 78.3829 125.407 78.1965 125.545 77.9848C125.684 77.7731 125.768 77.5404 125.793 77.3011C125.818 77.0617 125.784 76.8206 125.692 76.5925C125.601 76.3644 125.454 76.154 125.26 75.9741C124.844 75.5462 124.264 75.246 123.615 75.1222C122.966 74.9983 122.285 75.0579 121.682 75.2915C120.292 75.9686 120.71 77.3949 121.345 78.1164C122.074 78.9378 123.991 79.0877 124.99 78.5327ZM121.79 75.4802C122.197 75.3176 122.649 75.2498 123.099 75.284C123.549 75.3183 123.979 75.4533 124.342 75.6744C125.287 76.1795 125.881 77.3783 125.017 78.1442C124.342 78.738 122.708 78.6992 121.959 78.2274C120.515 77.3339 121.041 75.7799 121.79 75.4802Z" fill="black"/>
<path d="M123.525 77.145C123.649 77.0413 123.718 76.9018 123.718 76.7565C123.718 76.6113 123.649 76.4718 123.525 76.368C123.4 76.2713 123.234 76.2174 123.063 76.2174C122.891 76.2174 122.725 76.2713 122.6 76.368C122.537 76.4115 122.485 76.4652 122.448 76.5258C122.412 76.5865 122.39 76.6527 122.386 76.7203C122.381 76.788 122.394 76.8557 122.423 76.9192C122.451 76.9827 122.496 77.0407 122.553 77.0895C122.611 77.147 122.683 77.1942 122.764 77.2282C122.845 77.2623 122.934 77.2825 123.025 77.2877C123.115 77.2929 123.207 77.2829 123.293 77.2584C123.379 77.2339 123.458 77.1953 123.525 77.145ZM123.248 76.4846C123.299 76.5007 123.345 76.5266 123.381 76.56C123.417 76.5934 123.443 76.6334 123.457 76.6768C123.471 76.7201 123.472 76.7656 123.46 76.8093C123.449 76.8531 123.425 76.894 123.39 76.9286C122.708 77.5224 122.31 76.2293 123.235 76.4735L123.248 76.4846ZM117.308 66.1116C115.958 65.2569 113.407 65.8452 111.969 66.2004C111.954 66.2018 111.94 66.2077 111.93 66.2169C111.92 66.2261 111.915 66.238 111.915 66.2504C112.036 67.5546 112.408 68.9421 112.657 70.2353C112.657 70.2353 116.89 69.7968 118.989 69.8024C119.043 69.8024 119.144 69.8024 119.137 69.7413C118.942 68.4981 118.597 66.933 117.308 66.1116ZM112.846 69.9966C112.624 68.7978 112.529 67.5602 112.239 66.3669C113.663 66.1449 116.026 65.5178 117.247 66.4224C118.314 67.205 118.557 68.4704 118.759 69.5748C117.774 69.5748 113.832 69.8745 112.846 70.0077V69.9966ZM124.159 80.7303C122.202 79.7591 119.488 80.0865 117.409 80.7303C116.316 81.0584 115.29 81.5206 114.365 82.1012C113.643 82.5618 112.968 83.1002 113.116 83.9049C113.116 84.027 114.23 86.9408 114.25 86.9463C116.053 87.8954 118.726 87.8343 120.724 87.4403C121.834 87.2246 122.898 86.8689 123.876 86.3858C124.75 85.9386 125.467 85.311 125.955 84.5654C125.955 84.5654 125.779 82.7172 125.773 82.6728C125.715 82.2659 125.538 81.8765 125.257 81.5381C124.976 81.1998 124.6 80.9226 124.159 80.7303ZM113.866 82.7783C114.708 82.0507 115.733 81.4826 116.869 81.1133C119.043 80.3196 122.148 80.0532 123.95 80.9246C125.118 81.4796 125.901 82.6506 125.044 83.6996C124.324 84.404 123.394 84.9416 122.344 85.2591C120.217 86.0417 117.268 86.6688 115.114 85.631C113.96 85.076 112.846 83.805 113.866 82.7783ZM123.43 86.3025C122.561 86.6957 121.63 86.9888 120.663 87.1739C118.644 87.6111 116.504 87.4782 114.588 86.7965C114.588 86.7965 114.082 85.5533 113.832 84.9428C114.298 85.4006 114.883 85.7657 115.545 86.0108C116.206 86.2559 116.927 86.3746 117.652 86.358C120.023 86.3082 122.322 85.6825 124.261 84.5598C124.785 84.2844 125.201 83.889 125.455 83.4221C125.516 83.7773 125.57 84.5043 125.57 84.5321C125.066 85.271 124.326 85.883 123.43 86.3025Z" fill="black"/>
<path d="M118.253 85.0485L118.051 85.3426C117.976 85.4536 118.186 85.5535 118.26 85.4425L118.489 85.1151C118.717 85.1714 118.957 85.1837 119.191 85.151C119.426 85.1182 119.647 85.0414 119.839 84.9264C119.954 84.8542 119.839 84.7099 119.691 84.7654C119.369 84.9133 118.993 84.9625 118.631 84.9042C119.023 84.3492 119.441 83.8441 119.866 83.3335C120.022 83.3335 120.177 83.3335 120.339 83.3668C120.643 83.4063 120.954 83.3671 121.23 83.2548C121.506 83.1424 121.732 82.9624 121.878 82.7397C121.97 82.539 121.984 82.3195 121.916 82.1122C121.848 81.905 121.702 81.7206 121.5 81.5853L121.399 81.5298L121.628 81.2412C121.632 81.2372 121.635 81.2326 121.637 81.2276C121.639 81.2226 121.639 81.2174 121.639 81.2123C121.638 81.2071 121.636 81.2021 121.633 81.1976C121.63 81.193 121.626 81.189 121.621 81.1857C121.617 81.1824 121.611 81.1799 121.605 81.1784C121.599 81.1769 121.593 81.1764 121.586 81.177C121.58 81.1775 121.574 81.179 121.568 81.1814C121.563 81.1839 121.558 81.1872 121.554 81.1912C121.446 81.28 121.338 81.3688 121.237 81.4632C120.877 81.3788 120.499 81.3615 120.13 81.4123C119.761 81.4632 119.41 81.5811 119.104 81.7573C119.043 81.7906 119.104 81.8794 119.158 81.8572C119.501 81.7294 119.865 81.6416 120.238 81.5964C120.507 81.57 120.78 81.5869 121.041 81.6463C120.552 82.1157 120.101 82.6107 119.691 83.1282C118.982 83.0671 118.165 83.0227 117.666 83.5611C117.554 83.6836 117.479 83.8266 117.448 83.9779C117.417 84.1293 117.431 84.2845 117.489 84.4304C117.546 84.5764 117.646 84.7088 117.779 84.8163C117.912 84.9239 118.075 85.0036 118.253 85.0485ZM121.257 81.6796C121.428 81.7268 121.571 81.8244 121.66 81.9536C121.748 82.0827 121.776 82.2343 121.736 82.3789C121.561 83.1226 120.778 83.1837 120.049 83.1337C120.454 82.6509 120.859 82.168 121.257 81.6796ZM118.8 83.278C119.024 83.2575 119.251 83.2575 119.475 83.278C119.077 83.7831 118.705 84.3048 118.348 84.8154C117.119 84.3603 117.835 83.3724 118.8 83.278ZM43.9221 95.7988C43.692 95.2968 43.3177 94.8478 42.8312 94.4903C42.3446 94.1328 41.7602 93.8772 41.1276 93.7453C39.2474 93.3503 37.2657 93.4335 35.4441 93.984C33.8646 94.3947 31.3941 95.5435 31.8936 97.2196C31.9544 97.5748 32.7846 100.128 32.8319 100.128C34.4384 101.482 37.1654 101.443 39.2646 101.238C41.1276 101.032 43.7736 100.472 44.5026 98.8291C44.3808 97.826 44.1915 96.8292 43.9356 95.8432C43.9393 95.8399 43.9418 95.8358 43.9431 95.8314C43.9444 95.827 43.9444 95.8225 43.9431 95.8181C43.9418 95.8137 43.9392 95.8097 43.9355 95.8063C43.9319 95.803 43.9273 95.8004 43.9221 95.7988ZM32.3189 96.0153C32.9826 95.1413 34.0206 94.5037 35.2281 94.2282C37.0971 93.6438 39.1377 93.5393 41.0804 93.9285C42.3899 94.1782 44.0504 95.2383 43.7804 96.4926C43.5509 97.6525 42.4304 98.1576 41.2221 98.5405C39.0206 99.3342 36.5406 99.433 34.2561 98.818C32.8386 98.3629 31.4414 97.3417 32.3189 96.0153ZM38.9339 101.049C37.8809 101.163 36.8143 101.163 35.7614 101.049C34.7483 100.895 33.7866 100.566 32.9399 100.083C32.9399 100.083 32.5754 98.6737 32.3661 98.0022C33.4056 99.0622 35.6534 99.3453 37.1249 99.3453C38.3622 99.3439 39.5903 99.1694 40.7564 98.8291C41.7521 98.6152 42.6665 98.1992 43.4159 97.6192C43.6365 97.4132 43.8061 97.1738 43.9154 96.9144C44.0099 97.5415 44.3001 98.7792 44.3001 98.7792C43.0311 100.289 41.0736 100.816 38.9339 101.01V101.049Z" fill="black"/>
<path d="M36.6795 98.1796L36.5242 98.3794C36.477 98.4405 36.5917 98.5182 36.6457 98.4571L36.8415 98.2407C37.1158 98.3375 37.4133 98.3818 37.7114 98.3702C38.0096 98.3587 38.3007 98.2916 38.5627 98.1741C38.664 98.1241 38.6032 97.9798 38.4817 98.0131C38.0031 98.1662 37.4766 98.1857 36.9832 98.0686C37.3815 97.5747 38.2657 96.2704 38.367 96.1483C38.9745 96.2038 39.6225 96.2205 40.0005 95.7543C40.0924 95.6741 40.1588 95.5764 40.1935 95.47C40.2283 95.3635 40.2303 95.2517 40.1996 95.1444C40.1688 95.0372 40.1061 94.9379 40.0172 94.8554C39.9283 94.773 39.8158 94.7099 39.69 94.672L39.8182 94.5222C39.8655 94.4722 39.771 94.4223 39.717 94.4611L39.5212 94.6165C39.2418 94.528 38.9409 94.4949 38.643 94.52C38.3451 94.5451 38.0586 94.6276 37.8067 94.7608C37.7527 94.7997 37.8067 94.8552 37.881 94.833C38.2217 94.7139 38.5917 94.6626 38.961 94.6831C39.0995 94.6909 39.236 94.7152 39.366 94.7553C38.9478 95.1265 38.5769 95.5319 38.259 95.9652C37.9469 95.9073 37.6267 95.8849 37.3072 95.8986C37.0025 95.9254 36.7125 96.0203 36.4686 96.1729C36.2247 96.3255 36.0362 96.53 35.9235 96.7644C35.8011 97.0348 35.8115 97.3338 35.9526 97.598C36.0938 97.8622 36.3545 98.0708 36.6795 98.1796ZM39.5482 94.8496C40.1355 95.1549 39.9667 95.8486 39.0015 95.9985C38.8358 96.0179 38.6677 96.0179 38.502 95.9985C38.8327 95.5933 39.1905 95.2159 39.5482 94.833V94.8496ZM38.1375 96.1483C37.6785 96.7644 37.2735 97.4082 36.7875 98.0187C36.6364 97.9531 36.504 97.8617 36.3992 97.7507C36.2945 97.6396 36.2197 97.5115 36.18 97.3749C35.8627 96.2982 37.125 96.0484 38.1375 96.1317V96.1483ZM24.678 86.3692C22.9257 85.6113 20.9132 85.3629 18.9675 85.6644C17.3407 85.8142 14.6475 86.5579 14.769 88.2618C14.769 88.6059 14.931 91.2255 14.9715 91.2366C16.1932 92.7906 18.7717 93.2235 20.8507 93.3622C22.7542 93.4899 25.5757 93.4177 26.7232 91.8915L26.9055 88.8556C26.7996 88.3259 26.5425 87.8244 26.1553 87.3922C25.7681 86.96 25.2618 86.6094 24.678 86.3692ZM26.541 91.8471C24.9547 93.0681 22.9635 93.279 20.8507 93.1402C19.7858 93.0907 18.7331 92.9284 17.7187 92.6574C16.7266 92.3361 15.8308 91.8419 15.093 91.2088C15.093 91.2088 15.093 89.7714 15.0457 89.0832C15.822 90.3319 18.0427 90.9924 19.5412 91.231C20.7164 91.4158 21.9205 91.4402 23.1052 91.3032C24.1153 91.2534 25.0953 91.002 25.9605 90.5706C26.2319 90.4031 26.4611 90.1939 26.6355 89.9545C26.5612 90.5817 26.541 91.8471 26.541 91.8471ZM26.6895 89.3052C26.2912 90.4707 25.056 90.8259 23.7532 91.0368C21.4047 91.4692 18.945 91.1831 16.8345 90.232C15.579 89.6215 14.3302 88.4727 15.3495 87.2628C15.7382 86.8675 16.2191 86.5402 16.764 86.3C17.3088 86.0598 17.9065 85.9117 18.522 85.8642C20.5784 85.5165 22.7171 85.7451 24.597 86.5135C25.6972 86.9686 27.081 88.1785 26.6895 89.3052Z" fill="black"/>
<path d="M23.0851 86.9965L23.1999 86.9133C23.2539 86.8744 23.1999 86.8022 23.1189 86.83L22.9569 86.9188C22.6871 86.8017 22.3912 86.731 22.0872 86.711C21.7832 86.6909 21.4773 86.722 21.1884 86.8022C21.1756 86.8075 21.1655 86.8162 21.1598 86.827C21.1541 86.8377 21.1532 86.8498 21.1572 86.861C21.1612 86.8723 21.1699 86.882 21.1818 86.8885C21.1937 86.895 21.2079 86.8979 21.2221 86.8966C21.7359 86.8274 22.2629 86.8734 22.7476 87.0298C22.2807 87.302 21.8467 87.6106 21.4516 87.9511L21.0669 87.9067C20.7478 87.8265 20.4107 87.8067 20.081 87.849C19.7513 87.8913 19.4376 87.9945 19.1634 88.1509C18.9898 88.2573 18.8499 88.3965 18.7555 88.5567C18.6611 88.7168 18.6149 88.8933 18.6209 89.0713C18.6268 89.2492 18.6847 89.4234 18.7897 89.579C18.8947 89.7347 19.0437 89.8674 19.2241 89.9658L19.0216 90.1378C18.9474 90.1933 19.0554 90.2766 19.1364 90.2266L19.3659 90.0545C19.6046 90.2049 19.8852 90.3039 20.1822 90.3427C20.4792 90.3814 20.7832 90.3587 21.0669 90.2766C21.0887 90.2668 21.1057 90.2512 21.1152 90.2324C21.1246 90.2135 21.1259 90.1925 21.1187 90.173C21.1116 90.1535 21.0965 90.1366 21.076 90.1251C21.0555 90.1136 21.0308 90.1083 21.0061 90.11C20.5157 90.1581 20.0188 90.0887 19.5751 89.9102C20.1219 89.4718 21.3774 88.2785 21.5191 88.1675C21.9491 88.2396 22.3939 88.2243 22.8151 88.1231C23.009 88.0812 23.1755 87.9791 23.28 87.8384C23.3844 87.6978 23.4186 87.5293 23.3754 87.3683C23.3324 87.221 23.2301 87.09 23.0851 86.9965ZM19.3929 89.8214C19.2718 89.7657 19.1656 89.6905 19.0807 89.6003C18.9957 89.5101 18.9338 89.4067 18.8985 89.2964C18.8632 89.1861 18.8553 89.071 18.8753 88.9581C18.8953 88.8452 18.9428 88.7368 19.0149 88.6393C19.3861 88.0233 20.1286 87.9955 20.8509 88.0843L21.2424 88.1342C20.6079 88.6781 20.0274 89.272 19.3929 89.8214ZM22.3494 87.9844C22.1451 88.0011 21.9394 88.0011 21.7351 87.9844C22.1199 87.6902 22.5249 87.4294 22.9231 87.1241C22.9956 87.1703 23.0532 87.2303 23.0908 87.299C23.1285 87.3677 23.1451 87.443 23.1391 87.5182C23.1324 87.8956 22.7004 87.9622 22.3494 87.9844Z" fill="black"/>
</svg>
