<svg width="12" height="32" viewBox="0 0 12 32" fill="none" xmlns="http://www.w3.org/2000/svg">
<path d="M5.99449 6.2783C7.45206 6.2783 8.63364 5.09671 8.63364 3.63915C8.63364 2.18159 7.45206 1 5.99449 1C4.53693 1 3.35535 2.18159 3.35535 3.63915C3.35535 5.09671 4.53693 6.2783 5.99449 6.2783Z" stroke="#061428" stroke-width="1.5" stroke-miterlimit="10"/>
<path d="M8.88605 31L9.13756 20.6715C10.1065 20.3224 11.0836 19.5112 10.9813 18.4932L10.3704 10.6333C10.2681 9.61403 9.34558 8.77979 8.32121 8.77979H3.66786C2.64349 8.77979 1.721 9.61403 1.61869 10.6333L1.0074 18.4932C0.905087 19.5124 1.88171 20.3224 2.85194 20.6715L3.10217 31" stroke="#061428" stroke-width="1.5" stroke-miterlimit="10" stroke-linecap="round" stroke-linejoin="round"/>
</svg>
