<svg width="153" height="157" viewBox="0 0 153 157" fill="none" xmlns="http://www.w3.org/2000/svg">
<path d="M73.5702 74.2923C73.85 74.38 74.1518 74.3562 74.4152 74.2257C74.6787 74.0952 74.8846 73.8675 74.9917 73.5882C75.0989 73.3088 75.0995 72.9983 74.9934 72.7185C74.8873 72.4387 74.6823 72.2102 74.4193 72.0786C74.1826 71.9831 73.9269 71.9475 73.6739 71.9748C73.4209 72.0021 73.178 72.0916 72.9658 72.2356C72.805 72.3874 72.6891 72.5826 72.6314 72.7989C72.5737 73.0152 72.5765 73.2438 72.6396 73.4584C72.7027 73.6731 72.8235 73.8652 72.988 74.0127C73.1526 74.1602 73.3544 74.2571 73.5702 74.2923ZM73.1341 73.0834C73.1341 72.424 74.4117 72.3455 74.5341 73.0834C74.7712 74.1118 73.0959 74.049 73.1341 73.0834ZM72.6751 24.0523C71.497 25.4732 71.7801 27.3022 73.6314 28.1971C74.0503 28.0863 74.4777 28.0128 74.9089 27.9773C75.4005 28.0105 75.8889 28.0813 76.3701 28.1893C76.8805 27.8745 77.2773 27.3981 77.5009 26.8317C77.7244 26.2654 77.7625 25.6398 77.6094 25.0493C77.4669 24.5358 77.1889 24.0726 76.806 23.711C76.4231 23.3495 75.9503 23.1035 75.4398 23.0004C74.9292 22.8972 74.4009 22.9409 73.913 23.1265C73.4251 23.3122 72.9967 23.6326 72.6751 24.0523ZM72.2468 37.6799C72.2378 37.6336 72.2134 37.592 72.1779 37.562C72.1423 37.5321 72.0977 37.5157 72.0517 37.5157C72.0057 37.5157 71.9611 37.5321 71.9255 37.562C71.8899 37.592 71.8656 37.6336 71.8566 37.6799C71.7998 38.1173 71.7666 38.5576 71.7572 38.9988C71.7773 39.0616 71.8162 39.1163 71.8684 39.155C71.9206 39.1938 71.9834 39.2147 72.0478 39.2147C72.1123 39.2147 72.1751 39.1938 72.2273 39.155C72.2795 39.1163 72.3184 39.0616 72.3385 38.9988C72.3768 38.8653 72.2468 37.8134 72.2468 37.6799ZM78.2826 37.8212C78.2736 37.7749 78.2493 37.7333 78.2137 37.7033C78.1781 37.6734 78.1335 37.657 78.0875 37.657C78.0415 37.657 77.9969 37.6734 77.9613 37.7033C77.9258 37.7333 77.9014 37.7749 77.8924 37.8212C77.8924 37.9311 77.7624 38.9909 77.8006 39.1401C77.8208 39.2029 77.8597 39.2576 77.9119 39.2963C77.9641 39.3351 78.0269 39.356 78.0914 39.356C78.1558 39.356 78.2186 39.3351 78.2708 39.2963C78.323 39.2576 78.3619 39.2029 78.382 39.1401C78.4203 38.9909 78.2826 37.939 78.2826 37.8212ZM72.3003 35.0973C71.3823 35.0188 70.9615 36.4789 70.9462 36.5417C70.9331 36.5865 70.9377 36.6348 70.9593 36.676C70.9808 36.7172 71.0174 36.748 71.061 36.7615C71.1046 36.775 71.1517 36.7702 71.1919 36.7481C71.232 36.7261 71.262 36.6885 71.2752 36.6438C71.3211 36.526 71.8107 35.6703 72.3845 35.7017C72.6752 35.7253 72.8205 35.1365 72.3003 35.0973ZM78.5121 36.7536C78.4979 36.477 78.4017 36.2114 78.2362 35.9926C78.0708 35.7737 77.844 35.6119 77.5864 35.529C77.5093 35.5082 77.4273 35.5197 77.3585 35.5609C77.2896 35.6021 77.2395 35.6697 77.2193 35.7489C77.199 35.828 77.2101 35.9121 77.2503 35.9828C77.2905 36.0534 77.3564 36.1048 77.4335 36.1257C77.6215 36.1942 77.7899 36.3098 77.9234 36.462C78.057 36.6141 78.1515 36.798 78.1985 36.997C78.2106 37.0397 78.2388 37.0756 78.2768 37.097C78.3149 37.1183 78.3596 37.1233 78.4012 37.1108C78.4428 37.0983 78.4778 37.0694 78.4986 37.0304C78.5194 36.9914 78.5243 36.9455 78.5121 36.9028C78.5121 36.9028 78.5274 36.8164 78.5121 36.7536ZM74.9701 40.922C75.0008 40.9117 75.0274 40.8917 75.0463 40.8649C75.0652 40.8381 75.0754 40.8059 75.0754 40.7728C75.0754 40.7398 75.0652 40.7076 75.0463 40.6808C75.0274 40.654 75.0008 40.634 74.9701 40.6237C74.6182 40.553 74.2051 40.5295 74.2051 40.1763C74.2455 39.7355 74.312 39.2978 74.4041 38.8653C74.4083 38.8263 74.3989 38.787 74.3774 38.7545C74.3559 38.722 74.3239 38.6984 74.287 38.688C74.2501 38.6776 74.2108 38.681 74.1762 38.6977C74.1415 38.7144 74.1138 38.7432 74.098 38.779C73.9078 39.2851 73.7743 39.8118 73.7002 40.349C73.7155 40.82 74.2051 41.1732 74.9701 40.922ZM75.9264 41.9503C75.758 42.1374 75.5513 42.2837 75.3211 42.3787C75.0909 42.4737 74.843 42.5151 74.5953 42.4998C74.4255 42.4707 74.2636 42.4053 74.12 42.3079C73.9764 42.2106 73.8542 42.0834 73.7614 41.9346C73.7401 41.8941 73.704 41.8638 73.661 41.8505C73.6179 41.8373 73.5715 41.8421 73.532 41.864C73.4924 41.8859 73.4629 41.923 73.45 41.9671C73.4371 42.0113 73.4418 42.0589 73.4631 42.0995C73.5855 42.3717 73.7772 42.6049 74.018 42.7745C74.2588 42.9441 74.5398 43.0438 74.8313 43.0631C75.1228 43.0824 75.414 43.0206 75.6741 42.8841C75.9341 42.7477 76.1535 42.5417 76.3089 42.2879C76.4083 42.0288 76.1329 41.7619 75.9264 41.9503ZM75.8422 88.595C75.8614 88.6086 75.8841 88.6158 75.9073 88.6158C75.9305 88.6158 75.9532 88.6086 75.9723 88.595C76.7908 88.0691 82.9491 83.0451 83.454 82.5976C83.4708 82.5816 83.4826 82.5608 83.4878 82.5379C83.493 82.515 83.4913 82.491 83.4831 82.469C83.4749 82.447 83.4604 82.4281 83.4416 82.4147C83.4228 82.4012 83.4004 82.3939 83.3775 82.3935C83.3775 82.3935 70.755 82.1423 68.5289 82.0638C68.3988 82.0638 68.3758 82.2051 68.4447 82.2679C68.8501 82.6761 73.7385 86.9387 75.8422 88.595ZM102.434 149.064C103.007 147.863 101.936 145.845 101.454 145.029C101.445 145.009 101.43 144.992 101.412 144.98C101.394 144.969 101.373 144.962 101.351 144.962C101.33 144.962 101.308 144.969 101.29 144.98C101.272 144.992 101.257 145.009 101.248 145.029C100.858 145.814 100.039 147.87 100.819 149.056C101.347 149.935 102.021 149.998 102.434 149.064ZM55.8451 140.625C55.7686 140.672 50.1688 143.977 49.9546 144.314C49.7404 144.652 49.7481 144.903 50.0388 144.927C52.3338 145.076 53.2135 145.272 53.3053 145.382C53.4507 145.908 53.6114 148.043 53.9174 148.467C53.95 148.519 53.9966 148.561 54.0516 148.586C54.1067 148.612 54.1678 148.621 54.2276 148.612C54.2875 148.603 54.3434 148.576 54.3888 148.535C54.4342 148.494 54.4671 148.44 54.4834 148.381C54.8047 147.14 55.8145 143.278 56.0134 142.642C56.2123 142.006 56.5489 140.366 55.8451 140.625ZM55.738 141.363C55.6615 141.881 55.2943 143.38 54.208 147.211C54.1182 146.412 53.9543 145.623 53.7184 144.856C52.803 144.575 51.8577 144.409 50.9032 144.361C52.4791 143.357 54.1315 142.391 55.7151 141.363H55.738ZM59.8002 143.867C59.8631 143.861 59.9221 143.833 59.9672 143.787C60.0123 143.742 60.0409 143.682 60.048 143.618C60.0552 143.553 60.0406 143.488 60.0066 143.434C59.9726 143.379 59.9214 143.338 59.8614 143.317C59.5784 143.233 59.2839 143.195 58.9893 143.207V142.069C58.9893 142.015 58.9683 141.963 58.931 141.925C58.8937 141.887 58.8431 141.865 58.7904 141.865C58.7376 141.865 58.6871 141.887 58.6498 141.925C58.6125 141.963 58.5915 142.015 58.5915 142.069C58.5915 142.477 58.5226 142.854 58.492 143.239C58.1325 143.239 57.7729 143.31 57.3981 143.365C57.0232 143.419 57.1839 143.859 57.4593 143.835C57.7829 143.816 58.1073 143.816 58.4308 143.835C58.4308 144.181 58.362 144.55 58.3467 144.903C58.3588 144.985 58.399 145.059 58.4601 145.113C58.5211 145.167 58.599 145.197 58.6795 145.197C58.76 145.197 58.8378 145.167 58.8989 145.113C58.9599 145.059 59.0001 144.985 59.0122 144.903V143.859C59.2745 143.879 59.5377 143.882 59.8002 143.867ZM78.2291 139.573C78.1635 139.375 78.0418 139.202 77.8795 139.076C77.7172 138.95 77.5219 138.877 77.3187 138.866C76.6149 138.866 75.957 139.754 75.3985 140.578H75.345C74.8018 140.185 74.6336 140.185 74.1287 140.735C73.4555 141.48 73.7385 141.614 74.6106 142.305C74.0215 143.145 72.5374 145.311 72.3156 145.704C72.0937 146.096 71.4435 147.203 72.1626 147.815C72.3102 147.924 72.4888 147.979 72.6702 147.972C72.8516 147.965 73.0256 147.896 73.1647 147.776C74.2759 146.394 75.2981 144.938 76.2247 143.419C76.9897 143.89 77.0509 143.985 77.6476 143.482C77.7342 143.424 77.8068 143.347 77.8598 143.256C77.9128 143.164 77.9449 143.062 77.9537 142.956C77.9537 142.572 77.5023 142.305 77.1887 142.046C77.4564 141.645 77.6935 141.261 77.9077 140.86C78.0498 140.683 78.1522 140.476 78.2077 140.253C78.2632 140.031 78.2705 139.799 78.2291 139.573ZM75.8116 140.868C76.065 140.517 76.3356 140.179 76.6226 139.856C76.9974 139.439 77.2728 139.337 77.5252 139.518C77.9536 139.808 77.7165 140.068 76.8368 141.708L75.8116 140.868ZM72.5604 147.415C72.1243 147.313 72.4074 146.63 72.6139 146.222C72.8205 145.814 74.3734 143.506 74.9701 142.572C75.2073 142.744 75.6051 143.011 75.7964 143.129C75.2761 144.04 73.7997 146.269 73.5014 146.614C73.203 146.96 72.9276 147.501 72.5604 147.415ZM74.7406 140.758L74.8631 140.805C74.9854 140.852 77.4793 142.941 77.4793 142.988C77.3681 143.157 77.2218 143.299 77.051 143.404C76.7603 143.168 74.9548 141.912 74.2816 141.371C74.4219 141.157 74.5752 140.952 74.7406 140.758ZM91.6166 144.675C91.6166 144.675 95.0896 148.498 95.3956 148.6C95.9082 148.742 98.6775 145.46 99.0447 145.021C99.4042 145.335 99.5879 145.39 99.9933 144.974C100.244 144.705 100.453 144.397 100.613 144.063C100.64 144.011 100.65 143.952 100.641 143.895C100.633 143.837 100.607 143.783 100.567 143.741C96.6732 139.691 95.9771 138.937 95.8164 138.874C95.3115 138.655 95.0514 139.29 94.7531 139.518C94.34 139.926 94.1181 140.052 94.799 140.837C91.6931 144.291 91.4483 144.267 91.6166 144.675ZM94.8908 140.067C95.0945 139.826 95.3228 139.608 95.5716 139.416C95.5716 139.416 97.8666 141.771 100.039 143.969C99.9003 144.235 99.7308 144.483 99.5343 144.707C99.4501 144.62 95.0131 140.201 94.8601 140.067H94.8908ZM98.7157 144.66C95.3803 148.286 95.717 148.145 95.3651 147.8C95.1585 147.619 92.5957 144.911 92.2056 144.448C92.481 144.134 95.0208 141.308 95.1891 141.151C95.1509 141.182 98.165 144.173 98.6852 144.66H98.7157Z" fill="black"/>
<path d="M94.6766 143.004C93.9116 143.836 93.3149 144.079 93.399 144.527C93.7727 145.095 94.2034 145.621 94.6842 146.097C94.7136 146.121 94.7501 146.135 94.788 146.135C94.8258 146.136 94.8628 146.124 94.8928 146.1C94.9229 146.076 94.9443 146.043 94.9537 146.005C94.963 145.968 94.9597 145.928 94.9443 145.892C94.9443 145.892 94.34 144.833 94.0799 144.479C94.1411 144.401 94.7913 143.506 94.9673 143.302C95.0058 143.262 95.0275 143.209 95.0275 143.153C95.0275 143.097 95.0058 143.043 94.9673 143.004C94.9287 142.964 94.8765 142.942 94.8219 142.942C94.7674 142.942 94.7151 142.964 94.6766 143.004Z" fill="black"/>
<path d="M105.968 152.635L87.2101 152.51C87.2101 151.168 86.7894 140.021 86.7588 139.071C86.7588 138.78 86.3074 138.78 86.3227 139.071C86.3227 139.856 86.5981 151.772 86.6364 152.502H66.2185C66.2185 151.23 66.0196 141.253 66.0043 140.57C66.0043 140.514 65.9826 140.46 65.9438 140.42C65.9051 140.38 65.8526 140.358 65.7978 140.358C65.743 140.358 65.6905 140.38 65.6517 140.42C65.613 140.46 65.5912 140.514 65.5912 140.57V152.502C64 152.502 47.2312 152.502 44.9362 152.675C44.8873 152.684 44.8432 152.711 44.8114 152.751C44.7797 152.79 44.7623 152.839 44.7623 152.891C44.7623 152.942 44.7797 152.991 44.8114 153.031C44.8432 153.07 44.8873 153.097 44.9362 153.106C46.9788 153.201 104.132 153.311 106.006 152.863C106.031 152.853 106.052 152.835 106.065 152.811C106.078 152.788 106.083 152.76 106.078 152.733C106.074 152.706 106.06 152.682 106.04 152.664C106.02 152.646 105.995 152.636 105.968 152.635ZM50.9491 10.9901C51.1251 11.3041 52.9152 11.4061 53.0758 11.3433C53.1814 11.3053 53.2725 11.2338 53.3359 11.1392C53.9428 11.6586 54.5788 12.1409 55.2408 12.5836C55.3352 12.6619 55.4446 12.7191 55.5618 12.7516C55.6791 12.784 55.8016 12.791 55.9216 12.772C56.2429 12.6778 62.2788 8.98831 62.3706 8.92551C62.7684 8.67431 62.776 8.42311 62.7225 8.25826C62.6077 7.93641 56.4418 4.96911 55.455 3.86226C55.4264 3.84102 55.394 3.82579 55.3596 3.81744C55.3253 3.8091 55.2897 3.80781 55.2548 3.81365C55.22 3.81949 55.1866 3.83233 55.1566 3.85145C55.1267 3.87057 55.1007 3.89559 55.0801 3.92506C54.3151 4.82781 53.6343 5.75411 52.9381 6.67256C52.2372 6.6504 51.5367 6.72968 50.8573 6.90806C50.7824 8.26907 50.8131 9.63405 50.9491 10.9901ZM56.2047 8.63506C56.1267 8.85429 55.9783 9.03977 55.7839 9.16101C55.4014 9.29446 55.0189 8.92551 54.8889 8.76066C54.4681 8.25826 55.4244 7.19066 56.0593 8.03061C56.1387 8.11562 56.194 8.22108 56.2196 8.3358C56.2452 8.45052 56.2401 8.57021 56.2047 8.68216V8.63506ZM55.6539 7.18281C55.4249 7.14153 55.1893 7.16634 54.9733 7.25446C54.7573 7.34258 54.5694 7.49055 54.4305 7.68187C54.2917 7.87318 54.2074 8.10032 54.187 8.33793C54.1666 8.57555 54.211 8.8143 54.3151 9.02756C54.4713 9.29121 54.6997 9.50181 54.9718 9.63304C55.2439 9.76428 55.5477 9.81033 55.8451 9.76546C56.0505 9.68856 56.2331 9.55855 56.3752 9.38802C56.5172 9.21749 56.614 9.01221 56.656 8.79206C57.4975 8.79206 60.3892 8.79206 61.5444 8.73711L55.8451 12.144C55.5238 12.0027 53.6419 10.574 53.4124 10.3856C53.4124 9.95386 53.4124 7.37121 53.3589 6.95516C54.0015 6.17016 54.6594 5.33021 55.2867 4.49026C56.22 5.27526 60.5269 7.63026 61.7892 8.31321H56.679C56.6457 8.04301 56.5277 7.79123 56.3428 7.59584C56.1579 7.40044 55.9161 7.27201 55.6539 7.22991V7.18281ZM51.3699 7.32411L52.7851 7.26916C52.7851 7.51251 52.8769 10.4092 52.8387 10.8174C52.3557 10.85 51.8706 10.8263 51.3928 10.7467C51.4387 10.2051 51.4005 7.98351 51.3699 7.37121V7.32411ZM27.4177 48.5916C27.498 48.6391 27.589 48.6641 27.6817 48.6641C27.7743 48.6641 27.8653 48.6391 27.9456 48.5916C28.5499 48.2854 29.751 47.21 33.2547 44.8314C33.3575 44.7741 33.4462 44.6933 33.5138 44.5954C33.5814 44.4974 33.6263 44.3848 33.6448 44.2662C33.6448 44.2662 33.7749 40.9143 33.5913 40.8044C33.0022 40.4276 31.2963 39.2344 30.8067 39.3129C30.7455 39.3129 24.2889 43.442 24.2736 43.6382C24.2097 44.4949 24.1969 45.3547 24.2353 46.213C25.2445 47.0762 26.3076 47.8707 27.4177 48.5916ZM24.702 44.1799C25.291 44.5881 26.9358 45.7499 27.3871 45.9854V47.7752C24.526 45.8127 24.7096 46.1424 24.7326 45.5615C24.7402 45.2396 24.7173 44.486 24.702 44.1799ZM27.7008 45.3338C27.6521 45.3708 27.5931 45.3907 27.5325 45.3907C27.4719 45.3907 27.4129 45.3708 27.3642 45.3338C27.2418 45.2553 25.5282 43.9993 25.0692 43.6618C31.0821 39.7368 30.8679 39.6897 31.1892 39.8074C31.3422 39.8702 32.0613 40.3412 33.0328 41.0006C31.8853 42.0054 27.8155 45.2553 27.7008 45.3338ZM33.0558 44.2898C32.8951 44.4468 28.7565 47.2649 27.8385 47.8772V45.9147C28.3816 45.4908 31.9695 42.602 33.0864 41.6208C33.117 44.2113 33.1629 44.2113 33.094 44.2898H33.0558ZM112.21 49.0704C113.639 49.0362 115.029 48.5871 116.219 47.7752C116.813 47.3914 117.26 46.81 117.485 46.1283C117.711 45.4466 117.701 44.7061 117.458 44.0307C117.963 43.6382 119.577 42.2331 119.891 41.9269C120.541 41.9662 121.299 40.7808 121.704 40.1371C121.872 39.8702 122.094 39.5955 121.979 39.2893C120.947 38.1677 119.854 37.1063 118.705 36.1101C118.628 36.0267 118.529 35.9693 118.419 35.9455C118.31 35.9217 118.196 35.9325 118.093 35.9766C117.331 36.7346 116.645 37.5681 116.043 38.4651C116.017 38.5813 116.03 38.7033 116.081 38.8105C116.081 38.8654 115.018 42.029 114.888 42.4136C114.315 42.4729 113.784 42.7452 113.393 43.179C113.003 43.6128 112.781 44.1783 112.769 44.7686C112.677 47.0608 114.444 47.7987 112.141 48.6465C112.11 48.6747 112.085 48.7108 112.071 48.7514C112.057 48.792 112.053 48.8358 112.06 48.8784C112.066 48.921 112.084 48.9611 112.11 48.9947C112.137 49.0283 112.171 49.0544 112.21 49.0704ZM116.632 38.6064C117.129 37.8571 117.715 37.1742 118.376 36.5732C118.789 36.9108 121.176 39.1716 121.436 39.5405C121.245 39.8781 120.174 41.3068 119.906 41.3382C119.883 41.3146 116.732 38.7006 116.632 38.6064ZM117.183 43.5205C116.793 42.9339 116.194 42.5279 115.515 42.3901C115.668 41.8641 116.227 39.9409 116.418 39.1637C116.999 39.674 118.437 40.9143 119.317 41.6286C118.973 41.9819 117.672 43.1201 117.183 43.5205ZM113.434 48.4503C114.031 47.8929 113.886 47.1629 113.61 46.4642C113.121 44.8942 113.266 43.8816 114.085 43.3242C114.296 43.1867 114.532 43.0938 114.778 43.0509C115.025 43.0081 115.278 43.0161 115.521 43.0746C115.765 43.1331 115.995 43.2408 116.197 43.3915C116.4 43.5422 116.571 43.7328 116.701 43.9522C117.91 45.9069 115.645 48.0028 113.434 48.4503ZM64.3825 8.63506C64.6962 8.63506 66.5322 8.39171 68.2075 8.21116C68.2664 8.21116 68.3228 8.18717 68.3644 8.14448C68.406 8.10179 68.4294 8.04388 68.4294 7.98351C68.4294 7.92313 68.406 7.86523 68.3644 7.82254C68.3228 7.77984 68.2664 7.75586 68.2075 7.75586C67.5802 7.81866 64.635 7.99921 64.3137 8.06986C64.2516 8.0911 64.1987 8.13375 64.1638 8.19055C64.1289 8.24735 64.1143 8.3148 64.1224 8.38141C64.1305 8.44803 64.1609 8.50971 64.2083 8.55595C64.2557 8.60219 64.3173 8.63015 64.3825 8.63506ZM70.3801 8.13266C70.5867 8.13266 74.6488 7.78726 75.5439 7.83436C75.8422 7.83436 75.8652 7.38691 75.5439 7.36336C73.7955 7.27587 72.043 7.33362 70.3036 7.53606C70.2375 7.55829 70.1811 7.60353 70.1441 7.66394C70.107 7.72435 70.0917 7.79615 70.1008 7.86691C70.1099 7.93768 70.1427 8.00296 70.1938 8.05149C70.2448 8.10001 70.3107 8.12872 70.3801 8.13266ZM77.8465 7.68521L81.1437 7.59101C81.1983 7.58081 81.2478 7.55126 81.2833 7.50751C81.3189 7.46375 81.3384 7.40857 81.3384 7.35158C81.3384 7.29459 81.3189 7.23941 81.2833 7.19566C81.2478 7.1519 81.1983 7.12235 81.1437 7.11216L77.8618 7.01796C77.7838 7.02821 77.7119 7.06682 77.6593 7.12679C77.6066 7.18677 77.5766 7.26412 77.5748 7.34484C77.5729 7.42555 77.5993 7.50427 77.6492 7.56671C77.699 7.62916 77.7691 7.6712 77.8465 7.68521ZM83.7676 7.79511C85.1752 7.79511 90.2548 8.03846 91.4941 8.25826C91.8001 8.32106 91.9072 7.83436 91.6012 7.77941C89.0061 7.37445 86.385 7.16977 83.76 7.16711C83.6788 7.16815 83.6014 7.20223 83.5447 7.26185C83.4881 7.32147 83.4568 7.40175 83.4578 7.48503C83.4588 7.56831 83.492 7.64776 83.5501 7.70591C83.6083 7.76407 83.6865 7.79615 83.7676 7.79511ZM93.9651 9.15316C95.9903 9.76782 97.8617 10.8257 99.4501 12.2539C99.6949 12.4816 100.039 12.1126 99.8021 11.885C98.1974 10.3076 96.2447 9.15218 94.1104 8.51731C94.0332 8.50999 93.956 8.53156 93.8931 8.57806C93.8302 8.62456 93.7858 8.69285 93.7681 8.77032C93.7504 8.84778 93.7606 8.92921 93.7968 8.99957C93.833 9.06993 93.8928 9.12448 93.9651 9.15316ZM100.751 19.6251C100.687 19.6409 100.632 19.6801 100.594 19.735C100.557 19.79 100.541 19.8571 100.548 19.9236C100.556 19.9901 100.587 20.0516 100.635 20.0963C100.684 20.1411 100.747 20.1661 100.812 20.1667C101.822 20.1667 103.007 18.9578 103.107 17.2858C103.206 15.6137 102.089 14.2714 101.018 13.1488C100.973 13.1009 100.91 13.0736 100.845 13.0729C100.78 13.0721 100.717 13.098 100.67 13.1449C100.624 13.1917 100.597 13.2557 100.596 13.3227C100.596 13.3896 100.621 13.4542 100.666 13.5021C101.875 14.7895 102.464 15.967 102.472 17.1131C102.492 17.6673 102.335 18.2131 102.024 18.6668C101.713 19.1206 101.266 19.4572 100.751 19.6251ZM92.4045 22.1763C93.1695 22.1763 98.2108 20.991 99.0447 20.7869C99.1031 20.7671 99.1521 20.7255 99.182 20.6704C99.2118 20.6152 99.2204 20.5506 99.2059 20.4892C99.1915 20.4279 99.1551 20.3744 99.1039 20.3394C99.0528 20.3044 98.9907 20.2904 98.93 20.3002C97.7901 20.5671 93.7662 21.2893 92.3509 21.5405C92.2766 21.5573 92.2108 21.6012 92.1657 21.6641C92.1206 21.7271 92.0994 21.8047 92.1059 21.8825C92.1125 21.9603 92.1464 22.033 92.2013 22.0871C92.2562 22.1411 92.3285 22.1728 92.4045 22.1763ZM90.3313 21.6582C88.7019 21.8388 86.9959 21.9958 85.3512 22.247C85.2821 22.2682 85.2222 22.3133 85.1816 22.3745C85.1411 22.4358 85.1224 22.5096 85.1287 22.5833C85.135 22.6571 85.1659 22.7264 85.2162 22.7795C85.2665 22.8327 85.3331 22.8664 85.4047 22.875C85.8714 22.875 89.6046 22.3726 90.3543 22.2784C90.7444 22.2234 90.7215 21.6033 90.3313 21.6582ZM78.7951 23.6678C79.2388 23.6678 82.2988 23.1576 83.0103 23.0555C83.07 23.0401 83.1221 23.0028 83.1569 22.9507C83.1917 22.8987 83.2067 22.8353 83.1992 22.7727C83.1917 22.71 83.1621 22.6523 83.1161 22.6104C83.07 22.5686 83.0106 22.5454 82.9491 22.5453C82.0158 22.6552 79.6519 22.8671 78.7339 23.032C78.6592 23.0491 78.5932 23.0938 78.5483 23.1574C78.5034 23.2211 78.4828 23.2995 78.4903 23.3777C78.4978 23.4559 78.533 23.5286 78.5891 23.582C78.6453 23.6355 78.7186 23.666 78.7951 23.6678ZM66.0273 24.7982C67.6644 24.7982 69.3397 24.4999 70.9615 24.3429C71.2981 24.3429 71.2981 23.7699 70.9615 23.8013C69.3321 23.9347 67.6261 24.0054 65.9814 24.2409C65.6524 24.2801 65.6907 24.7982 66.0273 24.7982ZM57.9642 25.5204C57.897 25.5367 57.838 25.5777 57.7982 25.6356C57.7584 25.6935 57.7405 25.7643 57.7481 25.8347C57.7556 25.9051 57.7879 25.9703 57.839 26.0179C57.8901 26.0656 57.9564 26.0925 58.0254 26.0935C58.5456 26.0935 62.7454 25.4576 63.3804 25.3713C63.4473 25.3551 63.5058 25.3139 63.5446 25.2557C63.5834 25.1975 63.5996 25.1266 63.59 25.0568C63.5804 24.987 63.5458 24.9233 63.4928 24.8784C63.4399 24.8335 63.3725 24.8105 63.3039 24.8139C62.3017 24.9395 58.8133 25.3399 57.9642 25.5204ZM46.3132 27.7655C49.2821 27.1262 52.2828 26.6545 55.302 26.3525C55.6998 26.3525 55.6845 25.6853 55.302 25.7245C52.2451 25.9114 49.2124 26.395 46.2444 27.1689C46.1786 27.1907 46.1222 27.2353 46.0849 27.295C46.0476 27.3547 46.0316 27.4258 46.0398 27.4963C46.0479 27.5667 46.0796 27.6321 46.1295 27.6812C46.1794 27.7303 46.2443 27.7601 46.3132 27.7655ZM36.0775 31.8161C38.1176 30.5619 40.3457 29.6627 42.6718 29.155C43.0773 29.0686 42.9166 28.4406 42.5188 28.527C40.1234 29.015 37.8279 29.9232 35.7333 31.2117C35.6677 31.2643 35.6229 31.3396 35.6072 31.4235C35.5915 31.5075 35.6061 31.5944 35.6481 31.6682C35.6901 31.742 35.7568 31.7976 35.8358 31.8248C35.9147 31.852 36.0006 31.8489 36.0775 31.8161ZM29.6133 38.1275C30.4577 35.7939 32.0851 33.8457 34.2033 32.6325C34.4863 32.4755 34.2492 32.0438 33.9585 32.1929C31.6522 33.3693 29.8806 35.418 29.0166 37.9077C28.8712 38.3473 29.4679 38.52 29.6133 38.1275ZM31.281 47.5161C31.0515 47.2492 30.6843 47.6182 30.8985 47.8772C31.434 48.5131 34.2568 50.7425 34.8306 50.7425C34.8908 50.7419 34.9492 50.7212 34.9968 50.6834C35.0444 50.6456 35.0786 50.5929 35.0943 50.5332C35.1099 50.4735 35.106 50.4103 35.0833 50.3531C35.0605 50.2959 35.0201 50.2479 34.9683 50.2165C33.6707 49.4192 32.4376 48.5162 31.281 47.5161ZM41.9451 52.548C40.2183 52.3728 38.5282 51.9254 36.9343 51.2213C36.5824 51.0643 36.2917 51.5981 36.6513 51.7708C38.3076 52.5759 40.0945 53.0603 41.9221 53.1995C42.3429 53.2231 42.3429 52.5951 41.9451 52.548ZM43.6051 53.6234C44.4925 53.7569 48.111 54.3613 49.029 54.4084C49.105 54.4107 49.1792 54.3839 49.237 54.3332C49.2948 54.2824 49.3321 54.2114 49.3417 54.134C49.3512 54.0565 49.3323 53.9782 49.2887 53.9143C49.245 53.8504 49.1797 53.8055 49.1055 53.7883C48.2257 53.5999 44.6379 53.1603 43.7505 53.0033C43.3909 52.9954 43.2456 53.5606 43.6051 53.6234ZM55.3938 54.5811C53.9097 54.7163 52.4141 54.5889 50.9721 54.2043C50.9121 54.1973 50.8516 54.2126 50.8017 54.2475C50.7517 54.2823 50.7156 54.3344 50.6999 54.3942C50.6842 54.4541 50.6899 54.5177 50.7159 54.5736C50.742 54.6295 50.7868 54.6739 50.842 54.6989C52.3308 55.144 53.8864 55.3063 55.432 55.1777C55.7763 55.1385 55.7686 54.5576 55.3938 54.5811ZM106.236 50.7268C107.83 50.5475 109.402 50.1976 110.925 49.6827C111.246 49.5728 111.109 49.0547 110.78 49.1568C109.294 49.6 107.769 49.8944 106.228 50.036C105.784 50.0831 105.792 50.766 106.236 50.7268ZM99.1365 51.3234C99.0749 51.3436 99.0218 51.3848 98.9862 51.4403C98.9506 51.4958 98.9346 51.5621 98.9409 51.6282C98.9472 51.6942 98.9753 51.7561 99.0206 51.8035C99.066 51.8509 99.1258 51.8809 99.19 51.8886C99.7485 51.8886 103.566 51.1978 104.216 51.1036C104.591 51.0329 104.446 50.4756 104.086 50.5305C102.112 50.821 100.644 51.0251 99.1365 51.3234ZM97.1551 51.5667C95.2503 51.9121 93.3301 52.1162 91.5095 52.2968C91.1116 52.3439 91.1269 52.9719 91.5095 52.9405C93.4365 52.7812 95.3541 52.5192 97.2546 52.1555C97.2923 52.1488 97.3283 52.1345 97.3606 52.1135C97.3929 52.0925 97.4209 52.0652 97.4429 52.0332C97.4649 52.0011 97.4806 51.9649 97.4889 51.9266C97.4973 51.8883 97.4983 51.8487 97.4918 51.8101C97.4852 51.7714 97.4713 51.7344 97.4509 51.7013C97.4304 51.6681 97.4038 51.6395 97.3726 51.6169C97.3413 51.5943 97.306 51.5782 97.2687 51.5696C97.2314 51.561 97.1928 51.56 97.1551 51.5667ZM41.2642 79.5441C41.6008 79.5441 41.6161 79.0574 41.2642 79.0103C39.7122 78.7731 38.1345 78.7731 36.5824 79.0103C36.5089 79.0269 36.4443 79.0714 36.4014 79.1349C36.3585 79.1984 36.3406 79.2761 36.3512 79.3526C36.3619 79.4291 36.4003 79.4986 36.4588 79.5472C36.5173 79.5958 36.5915 79.6199 36.6666 79.6148C38.1941 79.4512 39.7327 79.4276 41.2642 79.5441ZM109.189 79.1281C109.125 79.1485 109.07 79.1908 109.034 79.2477C108.997 79.3046 108.98 79.3727 108.986 79.4408C108.993 79.5088 109.021 79.5725 109.068 79.6213C109.115 79.6701 109.176 79.7011 109.242 79.709C109.319 79.709 113.35 79.5912 114.322 79.709C114.582 79.7482 114.666 79.34 114.406 79.3008C112.675 79.0934 110.929 79.0356 109.189 79.1281ZM107.1 79.7482C107.161 79.7482 107.219 79.7234 107.262 79.6792C107.305 79.6351 107.33 79.5752 107.33 79.5127C107.33 79.4503 107.305 79.3904 107.262 79.3462C107.219 79.302 107.161 79.2772 107.1 79.2772C105.973 79.2021 104.84 79.284 103.734 79.5206C103.405 79.5912 103.497 80.0858 103.811 80.0858C104.89 79.8362 105.994 79.7228 107.1 79.7482ZM124.512 89.4901C124.45 89.8041 124.894 90.0003 125.024 89.6942C125.682 88.1713 126.011 85.8398 125.185 84.1992C125.024 83.8852 124.565 84.1521 124.718 84.4661C125.644 86.3501 124.756 88.2733 124.512 89.4901ZM32.1301 113.04C31.0538 113.958 30.1536 115.073 29.4756 116.329C29.4605 116.355 29.4505 116.384 29.4462 116.413C29.4419 116.443 29.4434 116.473 29.4505 116.502C29.4648 116.561 29.5014 116.612 29.5521 116.643C29.6028 116.674 29.6635 116.684 29.7209 116.669C29.7783 116.654 29.8277 116.617 29.8581 116.565C30.558 115.381 31.4537 114.332 32.505 113.464C32.811 113.236 32.4361 112.828 32.1301 113.04ZM37.2403 108.432C36.1921 109.237 35.1956 110.11 34.2568 111.046C34.2112 111.094 34.1859 111.159 34.1867 111.226C34.1874 111.293 34.214 111.356 34.2607 111.403C34.3073 111.45 34.3702 111.476 34.4355 111.475C34.5008 111.475 34.5631 111.447 34.6087 111.399C35.0371 110.936 37.3398 109.092 37.5693 108.895C37.7988 108.699 37.5234 108.33 37.2403 108.432ZM39.5353 107.003C39.696 107.003 39.2217 107.16 42.0751 105.229C42.1347 105.187 42.1767 105.124 42.193 105.051C42.2093 104.979 42.1987 104.903 42.1634 104.838C42.128 104.773 42.0703 104.724 42.0016 104.701C41.933 104.678 41.8583 104.681 41.7921 104.711C40.949 105.301 40.1441 105.946 39.3823 106.642C39.3567 106.674 39.34 106.712 39.3342 106.752C39.3285 106.793 39.3338 106.834 39.3497 106.872C39.3657 106.909 39.3915 106.941 39.4242 106.965C39.457 106.988 39.4955 107.001 39.5353 107.003Z" fill="black"/>
<path d="M43.4444 103.895C43.6433 103.981 43.5132 103.895 45.923 102.325C45.7678 104.296 45.796 106.278 46.0071 108.244C44.8135 107.578 43.6682 106.825 42.5799 105.991C42.3734 105.826 42.098 106.124 42.3122 106.305C43.501 107.35 44.7815 108.28 46.1372 109.084C47.1398 116.898 51.0251 124.021 56.9925 128.983C54.2538 129.643 52.5249 130.012 51.8517 130.082C51.561 130.082 51.561 130.569 51.8517 130.569C52.5173 130.569 56.7554 129.721 57.6504 129.533C68.6358 138.505 83.079 137.626 93.6054 129.36C95.7128 129.932 97.8542 130.362 100.016 130.648C100.083 130.642 100.146 130.614 100.195 130.566C100.244 130.518 100.275 130.455 100.283 130.386C100.291 130.318 100.276 130.248 100.24 130.19C100.204 130.132 100.149 130.088 100.085 130.067C99.1364 129.902 96.4742 129.384 94.1792 128.897C99.9346 124.22 103.77 117.497 104.927 110.057C105.218 109.869 105.501 109.665 105.777 109.453C106.052 109.241 105.777 108.746 105.478 108.942L105.042 109.217C105.975 100.88 103.114 92.5751 98.0577 86.3344C99.4959 84.7094 100.498 82.7862 99.909 80.651C100.634 80.4242 101.372 80.2459 102.12 80.1172C102.456 80.0701 102.334 79.5598 102.013 79.6069C101.238 79.7086 100.471 79.866 99.7178 80.0779C99.1589 78.6564 98.1993 77.4383 96.9619 76.5796C95.7244 75.721 94.2654 75.2608 92.7716 75.258C93.9936 73.9397 94.8903 72.3403 95.3867 70.5936C95.8831 68.8469 95.9649 67.0036 95.625 65.2179C94.2098 58.5454 89.1531 52.2026 82.7883 48.5523C82.9442 47.669 82.8971 46.7604 82.6506 45.899C82.4823 45.114 81.9774 44.8471 81.3884 44.4546C81.0824 44.2505 80.7917 44.0621 80.4704 43.8737C81.3145 42.5259 81.7559 40.9542 81.7403 39.3521C83.4615 39.1794 83.5227 36.6046 81.6332 36.2121C83.5533 26.9648 66.884 25.3948 67.8632 36.5104C67.5236 36.6099 67.2194 36.8081 66.9873 37.0811C66.7551 37.3542 66.605 37.6903 66.555 38.049C66.5097 38.2949 66.5242 38.5485 66.5971 38.7873C66.67 39.0261 66.7992 39.2428 66.9731 39.4182C67.1471 39.5936 67.3605 39.7223 67.5944 39.7929C67.8284 39.8636 68.0757 39.8739 68.3145 39.8231C68.2443 40.8396 68.4509 41.8561 68.9112 42.759C68.5285 42.8493 68.1722 43.0316 67.8716 43.291C67.571 43.5503 67.3348 43.8792 67.1823 44.2505C66.8432 45.2412 66.777 46.3088 66.9911 47.3356C60.9093 50.1827 56.0467 55.2059 53.3129 61.4656C51.1479 66.5288 52.2036 70.234 56.0286 74.0962C54.3156 73.5294 52.4643 73.5876 50.7884 74.2611C49.7373 74.725 48.7973 75.4182 48.0337 76.2926C47.2701 77.167 46.7012 78.2016 46.3667 79.3243C45.6308 79.2036 44.8836 79.172 44.1405 79.2301C44.0897 79.2399 44.0438 79.2677 44.0108 79.3085C43.9778 79.3494 43.9597 79.4008 43.9597 79.4539C43.9597 79.5069 43.9778 79.5583 44.0108 79.5992C44.0438 79.64 44.0897 79.6678 44.1405 79.6776C44.8453 79.6468 45.5503 79.7316 46.229 79.9288C45.7011 83.2336 48.4322 86.0282 51.0867 87.9907C48.2378 91.9626 46.4832 96.6481 46.0071 101.556C45.1094 102.117 44.2436 102.73 43.4138 103.392C43.3701 103.419 43.3344 103.457 43.3107 103.503C43.2869 103.549 43.276 103.601 43.2792 103.653C43.2824 103.705 43.2995 103.755 43.3286 103.798C43.3578 103.841 43.3978 103.874 43.4444 103.895ZM77.265 46.0011L77.5863 45.899C77.7623 46.0874 78.2366 46.5113 78.5273 46.7625C76.2552 47.9871 73.44 47.8851 70.5024 46.4171C70.8314 46.111 71.3669 45.5536 71.5658 45.3181C72.0918 45.5248 72.628 45.703 73.1723 45.8519C73.3956 46.1917 73.694 46.4724 74.0433 46.6711C74.3925 46.8699 74.7826 46.9811 75.1816 46.9957C75.5807 47.0102 75.9775 46.9277 76.3396 46.7548C76.7017 46.582 77.0188 46.3237 77.265 46.0011ZM71.145 45.0983C70.8849 45.3966 70.3035 46.0325 70.1123 46.1973C69.8981 46.077 69.6839 45.9514 69.4697 45.8205C69.4281 45.7945 69.3781 45.7865 69.3308 45.7983C69.2834 45.8101 69.2426 45.8407 69.2172 45.8833C69.1919 45.926 69.1841 45.9773 69.1955 46.0259C69.207 46.0744 69.2368 46.1164 69.2784 46.1424C71.1374 47.367 72.9504 48.2933 75.146 48.2933C76.0354 48.3366 76.9231 48.175 77.7438 47.8205C78.5645 47.466 79.2975 46.9275 79.889 46.2444C79.9204 46.2111 79.9377 46.1664 79.937 46.12C79.9362 46.0736 79.9176 46.0294 79.8852 45.9972C79.8527 45.9649 79.8091 45.9472 79.7639 45.9479C79.7187 45.9486 79.6756 45.9678 79.6442 46.0011C79.4371 46.1765 79.2199 46.339 78.9939 46.4878C78.7874 46.3072 78.3131 45.9147 78.0836 45.7028C78.8619 45.4013 79.5687 44.933 80.1567 44.329C80.9217 44.662 81.6079 45.16 82.1687 45.7891C82.4498 46.6443 82.4948 47.5626 82.2987 48.4424C81.5949 50.6718 75.9033 52.8777 70.0587 49.7455C68.0009 48.6858 67.1364 47.8144 67.5036 45.1768C67.531 44.7105 67.7055 44.266 68.0009 43.9106C68.2962 43.5551 68.6963 43.3079 69.1407 43.2065C69.6447 43.9987 70.3337 44.649 71.145 45.0983ZM77.3721 51.8101C78.6191 51.6531 81.5796 51.0722 82.6277 49.0861C88.7094 52.5401 95.0513 60.2645 95.1966 67.306C95.249 68.8536 94.9477 70.3924 94.3167 71.7991C93.6857 73.2058 92.7426 74.4415 91.5629 75.4072C90.4809 75.6114 89.444 76.0157 88.5029 76.6004C89.1761 65.9322 89.199 66.5759 89.1225 66.4974C89.046 66.4189 87.8832 66.4111 85.986 66.364C86.2232 66.0578 86.8581 65.1943 87.0035 65.0216C87.039 64.9831 87.0581 64.9317 87.0567 64.8787C87.0553 64.8257 87.0334 64.7755 86.9958 64.739C86.9583 64.7026 86.9082 64.683 86.8565 64.6844C86.8049 64.6859 86.7559 64.7084 86.7204 64.7469C86.2374 65.2971 85.7267 65.8212 85.1904 66.3169H85.0298C85.2249 63.936 85.276 61.545 85.1828 59.1577C85.1828 58.9693 84.8615 58.9693 84.8768 59.1577C84.9533 60.2802 84.4407 65.3121 84.3795 66.2776C78.6803 66.1599 69.179 66.0578 63.4415 66.0029C62.7383 63.562 62.4409 61.017 62.5617 58.4747C62.5617 58.2078 62.1945 58.2078 62.1716 58.4747C61.9242 61.0035 62.129 63.5574 62.7759 66.0107H62.6153C61.8487 65.2244 61.1211 64.3991 60.435 63.538C60.4072 63.4987 60.3661 63.4714 60.3198 63.4614C60.2735 63.4514 60.2252 63.4593 60.1842 63.4837C60.1433 63.5082 60.1126 63.5473 60.0982 63.5936C60.0838 63.6398 60.0866 63.69 60.1061 63.7342C60.1902 63.8991 61.1082 65.3042 61.7126 66.0421H58.7444C58.5225 66.0421 58.5914 66.0421 58.5761 66.2227C58.4996 67.1097 58.775 72.0081 58.9892 75.4935C58.5279 75.1983 58.0473 74.9361 57.551 74.7085C53.6112 70.7364 51.5151 67.6435 53.6571 62.3369C56.2143 55.9457 61.0322 50.7832 67.1441 47.8851C68.0009 49.7612 72.3537 52.4224 77.3721 51.8101ZM59.0657 66.5995C59.9378 66.5995 86.774 66.8428 88.6482 67.0155C88.2887 70.1084 87.6231 79.2458 87.3936 82.3152H85.7183C84.7697 83.1551 77.7317 89.1525 77.2268 89.5921C77.0508 89.7334 77.3721 89.8512 78.1295 90.5498C78.6059 90.9086 79.0052 91.3642 79.3026 91.8882C79.6001 92.4122 79.7892 92.9934 79.8584 93.5956C79.8603 93.6234 79.8724 93.6494 79.8923 93.6683C79.9122 93.6873 79.9383 93.6978 79.9655 93.6977C82.6889 93.8154 84.9915 96.3039 83.102 97.8425C81.3654 99.2555 78.6803 97.8425 77.3492 96.5394C78.5502 94.9301 79.254 93.525 77.9076 92.0727C77.747 91.9 76.0181 90.4556 73.8225 88.6187C65.507 81.6558 66.1725 82.0483 66.0654 82.0483C65.637 82.0483 61.0929 81.7264 60.2744 81.6793C59.67 76.6553 59.2263 69.3156 59.0657 66.5995ZM67.0676 97.5599C65.943 97.6462 64.0535 97.7954 63.2426 96.6257C62.7147 95.8407 63.5027 94.9223 64.3518 94.6711C66.2108 95.3619 69.1331 96.3274 70.0817 96.6336C69.1379 97.1218 68.1175 97.4354 67.0676 97.5599ZM63.0896 97.4029C63.8546 98.1879 65.1551 98.2821 66.1955 98.2664C67.893 98.2578 69.5582 97.7893 71.0226 96.9083C72.698 97.4107 74.358 97.8425 76.0869 98.2193C76.1076 98.2266 76.13 98.2267 76.1508 98.2196C76.1715 98.2125 76.1894 98.1986 76.2017 98.18C76.4924 97.8111 76.7754 97.395 77.0355 97.0418C78.795 98.7217 81.7326 99.8285 83.538 98.3998C84.8691 97.3401 84.6626 95.5267 83.3315 94.4042C89.6657 92.4966 94.707 89.757 97.5375 86.876C100.179 89.9843 102.134 93.6422 103.269 97.5988C104.403 101.555 104.69 105.717 104.109 109.798C102.493 110.883 100.82 111.876 99.0981 112.773C99.0565 112.795 99.0235 112.831 99.0043 112.875C98.9851 112.918 98.9809 112.968 98.9925 113.014C99.004 113.06 99.0306 113.102 99.0678 113.131C99.1051 113.16 99.1508 113.175 99.1976 113.174C99.297 113.174 102.357 111.658 103.971 110.677C102.65 117.771 98.9402 124.162 93.4907 128.732C92.259 128.465 91.1957 128.214 90.6908 128.057C90.4154 127.963 90.293 128.387 90.5607 128.489C91.0274 128.662 91.8995 128.905 92.9399 129.18C88.0054 133.038 81.9784 135.138 75.7747 135.161C69.5709 135.183 63.5295 133.127 58.5684 129.305C59.4853 129.109 60.3877 128.846 61.2689 128.52C61.6055 128.371 61.3989 127.861 61.0547 127.939L57.8723 128.724C52.0418 123.922 48.1349 117.089 46.8945 109.523L47.0475 109.594C47.3994 109.751 47.6748 109.256 47.3459 109.06L46.7798 108.723C45.7682 101.558 47.4711 94.2676 51.5381 88.3518C55.3477 90.8529 59.4301 92.8869 63.7016 94.412C62.4929 95.04 62.0874 96.3902 63.0896 97.4029ZM81.3425 39.148C81.1818 40.718 80.9523 42.288 80.0037 43.4969C79.4835 44.1642 78.3743 45.1533 77.4639 45.1768C76.8596 45.1768 76.6454 44.8157 76.2552 44.3918C75.7427 43.7795 75.4902 43.4577 75.2148 43.5048C74.6028 43.5833 74.7099 44.7686 73.7307 45.3574C73.4324 45.5301 72.392 45.2239 71.5964 44.8314C70.6638 44.3568 69.895 43.6008 69.3931 42.6649C68.8913 41.7289 68.6804 40.6579 68.7888 39.5955C68.7888 39.4071 68.5211 39.2893 68.414 39.3443C68.2477 39.4033 68.0695 39.4177 67.8963 39.3863C67.7231 39.3548 67.5605 39.2784 67.4241 39.1644C67.2877 39.0504 67.182 38.9025 67.1169 38.7348C67.0518 38.5671 67.0296 38.3851 67.0523 38.206C67.343 36.636 69.0566 37.0285 69.5079 37.9391C69.523 37.9621 69.5455 37.9789 69.5714 37.9866C69.5973 37.9942 69.6251 37.9922 69.6497 37.981C69.6744 37.9698 69.6944 37.9499 69.7062 37.9251C69.7181 37.9002 69.721 37.8718 69.7145 37.8449C69.4063 37.0196 69.3679 36.1139 69.6053 35.2643C69.8426 34.4147 70.3428 33.6673 71.0303 33.1349C72.123 33.9135 73.4216 34.3308 74.752 34.3308C76.0824 34.3308 77.381 33.9135 78.4737 33.1349C79.9502 34.3124 80.0037 36.7616 79.8966 37.6173C79.8954 37.638 79.8989 37.6587 79.9069 37.6778C79.9149 37.6969 79.9271 37.7138 79.9425 37.7272C80.0726 37.8292 80.2868 37.5623 80.3939 37.4367C80.5314 37.2176 80.7289 37.0448 80.9615 36.9401C81.1942 36.8354 81.4517 36.8034 81.702 36.848C81.952 36.8855 82.18 37.0157 82.3427 37.2141C82.5055 37.4124 82.5917 37.6651 82.5851 37.9243C82.5785 38.1835 82.4795 38.4312 82.3069 38.6205C82.1343 38.8099 81.9001 38.9277 81.6485 38.9518C81.5949 38.9047 81.3578 38.9832 81.3425 39.148Z" fill="black"/>
<path d="M70.3802 125.247C70.3802 125.349 70.4567 125.435 70.3802 125.247C68.2192 126.144 65.9841 126.84 63.7017 127.327C63.4263 127.382 63.5181 127.798 63.7935 127.767C66.1566 127.494 68.4595 126.823 70.6097 125.781C70.9233 125.6 70.7168 125.121 70.3802 125.247ZM81.0902 121.911C81.2738 121.911 87.4703 119.415 88.0746 119.014C88.373 118.81 88.1664 118.284 87.8145 118.418C87.1949 118.653 82.2683 121.039 81.0366 121.487C80.9917 121.505 80.9538 121.537 80.9291 121.58C80.9045 121.622 80.8944 121.672 80.9006 121.721C80.9068 121.77 80.9288 121.815 80.9632 121.849C80.9976 121.884 81.0423 121.906 81.0902 121.911ZM90.5609 117.75C90.7598 117.75 95.9159 115.34 96.3978 114.964C96.635 114.775 96.4743 114.328 96.1607 114.453C95.694 114.634 91.4636 116.808 90.492 117.224C90.4377 117.248 90.3923 117.289 90.363 117.341C90.3337 117.394 90.3221 117.455 90.33 117.514C90.3378 117.574 90.3647 117.63 90.4064 117.673C90.4482 117.715 90.5025 117.743 90.5609 117.75ZM105.57 101.972C105.999 102.254 107.59 103.542 108.018 103.824C108.084 103.863 108.161 103.877 108.235 103.862C108.309 103.847 108.376 103.805 108.422 103.744C108.469 103.683 108.493 103.606 108.489 103.529C108.485 103.451 108.453 103.378 108.401 103.322C107.995 102.969 106.243 101.846 105.807 101.579C105.757 101.547 105.695 101.537 105.637 101.551C105.579 101.565 105.529 101.602 105.497 101.654C105.466 101.706 105.456 101.769 105.47 101.828C105.483 101.888 105.519 101.94 105.57 101.972ZM115.171 108.487C114.934 108.291 114.612 108.644 114.857 108.848C115.4 109.312 117.558 111.274 118.154 111.69C118.218 111.722 118.29 111.731 118.359 111.715C118.428 111.698 118.489 111.658 118.532 111.601C118.575 111.544 118.598 111.473 118.596 111.4C118.594 111.328 118.568 111.258 118.522 111.203C118.032 110.685 115.806 109.005 115.171 108.487ZM120.105 112.993C120.06 112.947 119.998 112.922 119.934 112.923C119.87 112.924 119.809 112.95 119.765 112.997C119.72 113.044 119.695 113.107 119.696 113.173C119.697 113.238 119.723 113.301 119.769 113.346C120.729 114.344 121.593 115.435 122.347 116.604C122.591 116.957 123.15 116.604 122.913 116.243C122.114 115.043 121.171 113.951 120.105 112.993ZM109.395 131.095C108.37 131.095 103.956 130.797 102.87 130.569C102.82 130.557 102.768 130.565 102.724 130.592C102.68 130.62 102.649 130.664 102.636 130.715C102.624 130.766 102.632 130.82 102.659 130.864C102.685 130.909 102.728 130.942 102.778 130.954C104.963 131.376 107.174 131.638 109.395 131.739C109.478 131.739 109.558 131.705 109.617 131.645C109.676 131.584 109.709 131.503 109.709 131.417C109.709 131.332 109.676 131.25 109.617 131.19C109.558 131.129 109.478 131.095 109.395 131.095ZM82.0541 125.451C81.7863 125.318 81.5645 125.726 81.8399 125.867C83.7669 126.866 85.8304 127.559 87.9599 127.924C88.373 128.002 88.5336 127.351 88.1129 127.28C86.0201 126.963 83.9807 126.348 82.0541 125.451ZM73.0883 124.91C74.0445 124.698 75.9953 124.125 76.3013 124.077C76.592 124.195 78.4586 124.917 79.4531 125.161C79.5276 125.178 79.6056 125.165 79.6711 125.125C79.7365 125.084 79.7845 125.02 79.8051 124.944C79.8257 124.869 79.8173 124.788 79.7817 124.719C79.7461 124.65 79.686 124.597 79.6137 124.572C78.8487 124.289 78.0837 124.054 77.2346 123.787C77.8514 123.577 78.4502 123.314 79.0247 123.002C79.0665 122.956 79.0942 122.899 79.1046 122.837C79.115 122.775 79.1076 122.711 79.0832 122.654C79.0588 122.596 79.0186 122.547 78.9674 122.513C78.9162 122.479 78.8563 122.46 78.7952 122.46C77.9384 122.759 77.0969 123.135 76.263 123.465C75.3144 123.12 74.4423 122.766 73.6085 122.39C73.3331 122.264 73.1112 122.68 73.3943 122.814C74.0904 123.151 74.7866 123.473 75.4751 123.763C74.6619 124.053 73.8345 124.299 72.9965 124.501C72.9613 124.528 72.9344 124.564 72.9192 124.606C72.904 124.648 72.9011 124.693 72.9109 124.737C72.9207 124.78 72.9427 124.82 72.9742 124.85C73.0058 124.881 73.0454 124.902 73.0883 124.91ZM38.8469 103.024C38.0819 102.411 35.2131 99.8837 34.5782 99.1929C34.3716 98.9653 34.0274 99.3028 34.2339 99.5305C35.4825 101.038 36.9087 102.38 38.4797 103.526C38.7857 103.738 39.1376 103.259 38.8469 103.024ZM29.7587 140.17C29.2813 135.836 28.4209 131.556 27.1883 127.382C27.8861 128.465 28.9622 129.232 30.1947 129.525C30.2475 129.548 30.3069 129.549 30.36 129.527C30.4131 129.505 30.4555 129.462 30.4778 129.408C30.5001 129.353 30.5005 129.292 30.479 129.238C30.4575 129.184 30.4158 129.14 30.363 129.117C29.3838 128.513 27.8768 127.9 27.4101 126.432C27.6654 125.954 27.7283 125.393 27.5854 124.867C27.4424 124.342 27.105 123.895 26.6451 123.622C26.9204 121.955 27.5019 120.357 28.3587 118.912C28.4582 118.716 28.1981 118.512 28.0527 118.684C26.961 120.081 26.2933 121.776 26.1326 123.559C25.9334 123.574 25.7375 123.619 25.5512 123.693C23.5244 118.317 20.6448 113.322 17.0291 108.911C17.1683 108.668 17.2224 108.383 17.1824 108.104C17.1424 107.824 17.0108 107.567 16.8093 107.375C16.6077 107.183 16.3484 107.067 16.074 107.047C15.7996 107.026 15.5266 107.102 15.3002 107.263C15.0418 107.443 14.8539 107.712 14.7699 108.02C14.6859 108.329 14.7112 108.659 14.8412 108.95C14.9278 109.106 15.0443 109.242 15.1835 109.35C15.3227 109.458 15.4819 109.536 15.6513 109.579C15.8207 109.623 15.9969 109.63 16.1693 109.602C16.3417 109.573 16.5066 109.509 16.6542 109.414C20.1993 113.775 23.0403 118.691 25.0692 123.975C23.8223 125.106 24.9086 127.225 26.4768 127.053C27.7698 131.372 28.6713 135.806 29.1696 140.296C28.9401 140.42 28.7623 140.626 28.6687 140.875C28.5751 141.123 28.5721 141.398 28.6602 141.649C28.7484 141.9 28.9217 142.109 29.1484 142.24C29.3752 142.37 29.64 142.411 29.8943 142.357C30.1487 142.303 30.3754 142.156 30.5328 141.944C30.6903 141.732 30.7679 141.469 30.7514 141.203C30.7349 140.937 30.6254 140.686 30.443 140.496C30.2606 140.307 30.0176 140.191 29.7587 140.17ZM16.616 108.33C16.6428 108.434 16.6462 108.542 16.6257 108.647C16.6052 108.752 16.5615 108.851 16.4979 108.936C16.4344 109.021 16.3526 109.09 16.259 109.137C16.1654 109.184 16.0624 109.209 15.9581 109.209C15.8537 109.209 15.7508 109.184 15.6572 109.137C15.5636 109.09 15.4818 109.021 15.4182 108.936C15.3546 108.851 15.3109 108.752 15.2905 108.647C15.27 108.542 15.2733 108.434 15.3002 108.33C15.2733 108.227 15.27 108.118 15.2905 108.013C15.3109 107.908 15.3546 107.81 15.4182 107.725C15.4818 107.64 15.5636 107.571 15.6572 107.524C15.7508 107.476 15.8537 107.452 15.9581 107.452C16.0624 107.452 16.1654 107.476 16.259 107.524C16.3526 107.571 16.4344 107.64 16.4979 107.725C16.5615 107.81 16.6052 107.908 16.6257 108.013C16.6462 108.118 16.6428 108.227 16.616 108.33ZM30.386 141.23C30.386 142.015 29.1237 142.015 29.1237 141.23C29.1237 140.445 30.3554 140.515 30.3554 141.3L30.386 141.23ZM27.0353 125.844C26.6222 127.155 25.0845 126.236 25.1075 125.169C25.1075 124.227 26.385 123.599 26.867 124.501C26.9905 124.704 27.0671 124.934 27.0909 125.172C27.1148 125.41 27.0853 125.65 27.0047 125.875L27.0353 125.844ZM138.297 94.271C138.293 94.0442 138.228 93.823 138.109 93.632C137.99 93.441 137.821 93.2877 137.622 93.1892C137.423 93.0907 137.201 93.0509 136.981 93.0742C136.761 93.0975 136.552 93.183 136.377 93.3211C132.072 90.7347 128.37 87.2143 125.529 83.0062C125.737 82.7616 125.879 82.4664 125.944 82.1488C126.008 81.8313 125.992 81.5021 125.896 81.1929C125.823 80.953 125.691 80.7366 125.512 80.565C125.333 80.3934 125.113 80.2723 124.875 80.2138C124.637 80.1553 124.388 80.1612 124.152 80.231C123.917 80.3008 123.703 80.4321 123.532 80.612C119.851 75.5015 117.22 69.6768 115.798 63.4911C115.942 63.3243 116.03 63.1147 116.049 62.893C116.068 62.6712 116.018 62.449 115.905 62.2587C115.821 62.0622 115.676 61.8992 115.493 61.7945C115.311 61.6897 115.1 61.6489 114.892 61.6782C114.685 61.7074 114.492 61.8052 114.344 61.9567C114.195 62.1081 114.099 62.3051 114.069 62.5178C114.021 62.6964 114.02 62.8853 114.068 63.0643C114.115 63.2433 114.209 63.4057 114.339 63.5345C114.469 63.6632 114.631 63.7534 114.807 63.7955C114.983 63.8377 115.167 63.8301 115.339 63.7737C116.749 70.0307 119.423 75.9143 123.188 81.0437C123.108 81.1773 123.048 81.323 123.012 81.4755C122.041 80.9967 117.213 79.4267 116.709 79.568C116.494 79.6308 116.594 79.8976 116.709 79.9291C118.821 80.528 120.895 81.2594 122.92 82.1192C122.963 82.3595 123.059 82.5867 123.2 82.7835C123.341 82.9803 123.524 83.1416 123.735 83.2551C123.946 83.3686 124.179 83.4313 124.417 83.4385C124.655 83.4457 124.891 83.3972 125.108 83.2967C128.597 88.3835 132.169 91.8139 136.025 93.7843C135.942 93.9748 135.907 94.1834 135.923 94.3912C135.939 94.5991 136.004 94.7997 136.114 94.975C136.224 95.1502 136.375 95.2946 136.553 95.3951C136.731 95.4956 136.931 95.549 137.134 95.5505C137.296 95.5585 137.458 95.5302 137.608 95.4675C137.759 95.4048 137.894 95.3092 138.005 95.1874C138.115 95.0656 138.199 94.9205 138.249 94.7623C138.3 94.604 138.316 94.4364 138.297 94.271ZM136.599 94.6635C136.533 94.564 136.494 94.4485 136.485 94.3287C136.476 94.2088 136.498 94.0886 136.548 93.98C136.598 93.8714 136.675 93.7781 136.771 93.7093C136.867 93.6406 136.979 93.5988 137.096 93.588C137.279 93.5941 137.453 93.6726 137.581 93.8072C137.71 93.9418 137.782 94.122 137.784 94.3102C137.785 94.4532 137.739 94.5924 137.656 94.7067C137.572 94.8211 137.455 94.9045 137.321 94.9444C137.187 94.9842 137.044 94.9784 136.914 94.9277C136.784 94.8771 136.673 94.7843 136.599 94.6635ZM124.879 82.8414C124.642 82.9196 124.387 82.9142 124.154 82.826C123.921 82.7377 123.724 82.5718 123.594 82.3547C123.522 82.1801 123.493 81.9905 123.508 81.8017C123.523 81.613 123.582 81.4307 123.68 81.2705C123.779 81.1103 123.913 80.9767 124.073 80.8812C124.232 80.7857 124.411 80.7311 124.596 80.7219C125.575 80.7219 125.743 82.4724 124.879 82.8414ZM115.553 62.8004C115.562 62.8743 115.556 62.9493 115.534 63.0204C115.513 63.0916 115.477 63.1572 115.429 63.213C115.38 63.2688 115.321 63.3134 115.255 63.344C115.189 63.3746 115.117 63.3904 115.045 63.3904C114.972 63.3904 114.9 63.3746 114.834 63.344C114.768 63.3134 114.709 63.2688 114.661 63.213C114.613 63.1572 114.577 63.0916 114.555 63.0204C114.534 62.9493 114.527 62.8743 114.536 62.8004C114.527 62.7264 114.534 62.6514 114.555 62.5803C114.577 62.5091 114.613 62.4435 114.661 62.3877C114.709 62.3319 114.768 62.2873 114.834 62.2567C114.9 62.2261 114.972 62.2103 115.045 62.2103C115.117 62.2103 115.189 62.2261 115.255 62.2567C115.321 62.2873 115.38 62.3319 115.429 62.3877C115.477 62.4435 115.513 62.5091 115.534 62.5803C115.556 62.6514 115.562 62.7264 115.553 62.8004ZM127.755 126.676C127.776 126.621 127.778 126.56 127.76 126.504C127.742 126.448 127.705 126.401 127.656 126.37C127.273 126.126 126.646 126.534 126.539 126.998C126.799 127.021 127.595 126.99 127.755 126.676Z" fill="black"/>
<path d="M125.934 121.487C125.437 120.407 124.878 119.358 124.259 118.347C124.225 118.295 124.173 118.259 124.113 118.246C124.054 118.233 123.992 118.243 123.94 118.275C123.888 118.307 123.85 118.359 123.834 118.419C123.818 118.479 123.825 118.543 123.854 118.598C124.369 119.528 124.817 120.496 125.192 121.495C124.339 121.59 123.527 121.925 122.847 122.462C122.166 122.999 121.643 123.719 121.335 124.541C121.027 125.363 120.945 126.257 121.1 127.124C121.254 127.99 121.637 128.797 122.209 129.455C119.562 130.512 116.762 131.111 113.924 131.229C113.873 131.239 113.827 131.266 113.794 131.307C113.761 131.348 113.743 131.399 113.743 131.452C113.743 131.505 113.761 131.557 113.794 131.598C113.827 131.639 113.873 131.666 113.924 131.676C116.95 131.742 119.957 131.17 122.76 129.996C123.333 130.463 124.005 130.784 124.722 130.935C125.439 131.085 126.18 131.06 126.886 130.862C127.592 130.663 128.242 130.297 128.784 129.793C129.326 129.289 129.745 128.66 130.006 127.959C130.268 127.258 130.365 126.503 130.289 125.756C130.213 125.009 129.967 124.291 129.57 123.66C129.174 123.029 128.638 122.503 128.006 122.124C127.375 121.745 126.665 121.524 125.934 121.479V121.487ZM124.963 128.74C124.886 128.214 124.856 127.68 124.764 127.17H123.639C123.57 127.633 123.57 128.097 123.502 128.56C123.498 128.593 123.487 128.625 123.471 128.653C123.455 128.682 123.434 128.708 123.408 128.728C123.383 128.749 123.353 128.764 123.322 128.772C123.291 128.781 123.258 128.784 123.226 128.779C123.194 128.775 123.163 128.765 123.135 128.748C123.107 128.732 123.082 128.71 123.062 128.684C123.042 128.657 123.028 128.627 123.019 128.595C123.01 128.563 123.008 128.53 123.012 128.497C123.012 127.979 123.433 124.682 123.517 124.219C123.624 123.567 123.961 123.512 124.152 123.536C124.55 123.583 124.657 124.007 124.741 124.321C124.963 125.161 125.506 127.72 125.644 128.568C125.705 128.991 125.032 129.164 124.963 128.74ZM128.398 128.136C127.166 129.015 125.613 127.963 126.103 126.746C126.416 125.961 127.633 125.428 128.145 126.244C128.207 126.376 128.237 126.521 128.234 126.667C128.23 126.814 128.193 126.957 128.125 127.086C128.057 127.214 127.96 127.325 127.843 127.407C127.725 127.49 127.59 127.544 127.449 127.563C127.195 127.597 126.938 127.597 126.684 127.563C126.781 127.673 126.895 127.765 127.021 127.837C127.786 128.167 128.298 127.578 128.451 127.908C128.463 127.941 128.464 127.977 128.455 128.011C128.445 128.045 128.425 128.075 128.398 128.097V128.136Z" fill="black"/>
<path d="M124.037 124.368C123.923 124.964 123.792 126.032 123.731 126.527H124.642C124.557 126.126 124.336 125.004 124.183 124.391C124.16 124.289 124.053 124.266 124.037 124.368ZM57.7576 112.616C57.2986 112.334 56.2888 112.302 56.2276 112.922C56.1817 113.268 56.2276 114.649 56.2276 115.018C56.5767 115.008 56.9198 114.924 57.2357 114.771C57.5516 114.619 57.8335 114.401 58.0636 114.131C58.1497 114.015 58.2105 113.88 58.2418 113.737C58.2732 113.594 58.2744 113.446 58.2454 113.303C58.2165 113.159 58.158 113.024 58.0738 112.905C57.9897 112.787 57.8819 112.688 57.7576 112.616Z" fill="black"/>
<path d="M70.8314 121.149C68.7169 120.354 66.6481 119.437 64.6349 118.402C65.0368 117.559 65.2729 116.643 65.3299 115.707C65.3869 114.77 65.2635 113.832 64.967 112.944C64.6704 112.057 64.2064 111.238 63.6014 110.534C62.9964 109.831 62.2623 109.257 61.4411 108.844C60.6198 108.432 59.7274 108.19 58.8149 108.131C57.9023 108.073 56.9875 108.199 56.1226 108.504C55.2578 108.808 54.4598 109.284 53.7742 109.905C53.0887 110.526 52.529 111.279 52.1272 112.122C51.2016 111.616 50.3027 111.061 49.4344 110.457C49.1972 110.3 48.9754 110.669 49.1972 110.834C50.23 111.619 51.0944 112.169 51.8977 112.671C49.1513 120.898 59.8231 126.165 64.3672 118.88C66.3614 120.042 68.4963 120.929 70.7167 121.518C70.7615 121.525 70.8073 121.515 70.8457 121.49C70.8842 121.466 70.9129 121.428 70.9266 121.384C70.9404 121.339 70.9384 121.291 70.921 121.248C70.9035 121.205 70.8718 121.17 70.8314 121.149ZM58.5914 114.869C57.9718 115.478 57.1542 115.831 56.2964 115.858V118.056C56.2964 118.146 56.2618 118.232 56.2001 118.295C56.1384 118.358 56.0547 118.394 55.9675 118.394C55.8802 118.394 55.7966 118.358 55.7349 118.295C55.6732 118.232 55.6385 118.146 55.6385 118.056C55.6385 117.679 55.5085 114.563 55.5008 114.312C55.5008 113.527 55.2101 112.184 56.2658 111.753C58.2089 110.913 60.0449 113.119 58.5532 114.861L58.5914 114.869ZM62.1104 117.224C62.0033 118.48 60.3586 119.022 59.3794 118.276C59.3096 118.219 59.2627 118.138 59.2477 118.049C59.2327 117.959 59.2508 117.866 59.2983 117.789C59.3459 117.712 59.4196 117.656 59.5052 117.631C59.5908 117.607 59.6822 117.615 59.7619 117.656C59.9833 117.808 60.2495 117.876 60.5147 117.849C60.78 117.822 61.0277 117.701 61.2154 117.507C61.4449 117.263 61.3531 116.777 60.9782 116.832C60.6876 116.917 60.3846 116.949 60.0832 116.926C59.9304 116.889 59.7888 116.815 59.6711 116.708C59.5534 116.602 59.4632 116.467 59.4086 116.316C59.354 116.165 59.3368 116.003 59.3584 115.844C59.38 115.684 59.4398 115.533 59.5324 115.403C59.6615 115.216 59.8318 115.062 60.0295 114.955C60.2272 114.848 60.4467 114.79 60.6702 114.786C60.8937 114.783 61.115 114.833 61.316 114.933C61.5171 115.033 61.6922 115.181 61.8274 115.364C62.0569 115.67 61.5826 116.039 61.3531 115.74C61.2461 115.613 61.1046 115.521 60.9466 115.476C60.7886 115.432 60.6212 115.436 60.4657 115.489C59.8001 115.74 60.2209 116.416 60.6646 116.274C60.764 116.243 62.1716 116.015 62.0722 117.193L62.1104 117.224ZM124.052 91.115C123.805 91.6955 123.521 92.2593 123.203 92.8028C122.604 91.948 121.828 91.2398 120.931 90.7289C120.033 90.2179 119.037 89.9168 118.013 89.8472C116.989 89.7775 115.963 89.941 115.008 90.326C114.053 90.7109 113.192 91.3078 112.488 92.0739C111.784 92.84 111.254 93.7563 110.935 94.7573C110.617 95.7583 110.518 96.8192 110.645 97.864C110.773 98.9088 111.124 99.9118 111.674 100.801C112.223 101.69 112.958 102.444 113.824 103.008C113.059 103.706 111.476 104.947 111.155 105.206L110.588 104.939C110.336 104.821 110.129 105.206 110.39 105.331C110.508 105.388 110.622 105.451 110.734 105.52C109.771 106.237 108.772 106.902 107.743 107.514C107.689 107.545 107.649 107.597 107.633 107.658C107.616 107.719 107.624 107.784 107.655 107.839C107.685 107.895 107.736 107.935 107.795 107.952C107.855 107.969 107.918 107.961 107.972 107.93C109.234 107.208 110.321 106.525 111.277 105.857C111.975 106.356 112.626 106.921 113.22 107.545C113.28 107.593 113.355 107.618 113.431 107.613C113.507 107.609 113.579 107.576 113.634 107.521C113.688 107.467 113.721 107.393 113.726 107.315C113.732 107.237 113.71 107.16 113.664 107.098C113.067 106.521 112.425 105.995 111.744 105.528C112.21 105.182 113.702 104.044 114.452 103.369C115.789 104.044 117.303 104.262 118.77 103.989C120.237 103.717 121.581 102.969 122.603 101.855C123.625 100.741 124.272 99.3203 124.449 97.8012C124.626 96.282 124.323 94.7447 123.586 93.4151C123.98 92.7407 124.307 92.0281 124.565 91.2877C124.695 90.9502 124.183 90.7853 124.052 91.115ZM117.619 99.8599C117.465 99.3293 117.345 98.7892 117.259 98.2428L115.645 98.4077C115.553 98.9022 115.462 99.3968 115.385 99.8913C115.309 100.386 114.681 100.182 114.742 99.7579C114.88 98.7138 115.699 94.2629 115.859 93.839C116.311 92.9284 116.992 93.5564 117.389 94.5847C117.775 96.2871 118.076 98.0084 118.292 99.7422C118.307 99.8338 118.286 99.9278 118.234 100.004C118.182 100.079 118.102 100.131 118.013 100.146C117.924 100.162 117.832 100.141 117.758 100.087C117.684 100.033 117.634 99.9515 117.619 99.8599ZM118.927 94.7653C118.966 94.6726 119.023 94.5894 119.095 94.5212C119.168 94.4529 119.253 94.4011 119.347 94.3692C119.44 94.3374 119.539 94.3261 119.636 94.3362C119.734 94.3462 119.829 94.3774 119.914 94.4277C119.99 94.48 120.054 94.5484 120.102 94.6285C120.149 94.7085 120.18 94.7981 120.191 94.8913C120.202 94.9845 120.193 95.079 120.165 95.1683C120.137 95.2577 120.09 95.3398 120.029 95.409C119.933 95.53 119.798 95.6123 119.648 95.641C119.499 95.6697 119.344 95.6431 119.212 95.5659C119.08 95.4886 118.979 95.3658 118.927 95.2192C118.874 95.0726 118.874 94.9118 118.927 94.7653ZM120.258 99.7814C120.257 99.8715 120.224 99.9581 120.166 100.026C120.108 100.093 120.028 100.137 119.941 100.149C119.854 100.162 119.766 100.142 119.692 100.093C119.618 100.044 119.564 99.9698 119.539 99.8835C119.478 99.7108 119.363 97.293 119.363 97.0104C119.363 96.9292 119.394 96.8513 119.45 96.7939C119.506 96.7365 119.582 96.7042 119.661 96.7042C119.741 96.7042 119.816 96.7365 119.872 96.7939C119.928 96.8513 119.96 96.9292 119.96 97.0104C119.983 97.4578 120.266 99.648 120.258 99.7814Z" fill="black"/>
<path d="M115.798 97.6304L117.129 97.4812C116.996 96.5239 116.77 95.5825 116.456 94.6709C116.28 95.4559 115.959 96.8532 115.798 97.6304ZM42.0751 131.44C41.4325 131.833 41.9603 132.9 42.8401 132.5C42.8401 131.982 42.7942 131.597 42.7789 131.417C42.6683 131.363 42.5467 131.336 42.4242 131.34C42.3017 131.345 42.182 131.379 42.0751 131.44Z" fill="black"/>
<path d="M49.465 130.444C48.1987 130.647 46.9211 130.768 45.64 130.805C45.2957 124.627 36.6818 124.619 36.3299 130.805C35.0009 130.673 33.6929 130.372 32.4361 129.91C32.4125 129.898 32.3867 129.89 32.3603 129.888C32.3339 129.886 32.3073 129.889 32.2821 129.897C32.2568 129.906 32.2335 129.919 32.2133 129.937C32.1931 129.954 32.1766 129.976 32.1645 130C32.1524 130.024 32.1452 130.051 32.1431 130.078C32.141 130.105 32.1441 130.132 32.1522 130.158C32.1604 130.184 32.1735 130.208 32.1907 130.229C32.2079 130.249 32.2289 130.267 32.2525 130.279C33.5272 130.971 34.9239 131.396 36.3605 131.527C36.5053 132.68 37.0543 133.738 37.9047 134.506C38.7551 135.273 39.8487 135.696 40.9811 135.696C42.1135 135.696 43.2072 135.273 44.0576 134.506C44.908 133.738 45.4569 132.68 45.6017 131.527C46.9337 131.388 48.2567 131.17 49.5644 130.875C49.6094 130.853 49.6455 130.815 49.6669 130.768C49.6883 130.722 49.6936 130.669 49.6821 130.619C49.6705 130.569 49.6428 130.524 49.6033 130.492C49.5639 130.461 49.5151 130.443 49.465 130.444ZM40.285 132.948C40.2746 133.001 40.2534 133.051 40.2228 133.095C40.1921 133.139 40.1528 133.176 40.1073 133.204C40.0618 133.231 40.0112 133.248 39.9588 133.254C39.9063 133.26 39.8533 133.255 39.803 133.238C39.5735 133.168 39.6118 133.034 39.2446 132.5C39.1298 132.697 39.0151 132.901 38.908 133.105C38.866 133.175 38.7994 133.226 38.7219 133.248C38.6443 133.269 38.5617 133.259 38.4911 133.22C38.4205 133.181 38.3673 133.115 38.3424 133.037C38.3174 132.958 38.3227 132.873 38.3572 132.799C38.5025 132.516 38.6479 132.226 38.8085 131.943C38.6198 131.741 38.4094 131.562 38.1812 131.409C38.1064 131.355 38.0544 131.274 38.0359 131.182C38.0173 131.09 38.0336 130.995 38.0813 130.915C38.1291 130.835 38.2048 130.776 38.293 130.752C38.3812 130.727 38.4752 130.737 38.5561 130.781C39.5123 131.386 38.9233 131.456 39.65 130.53C39.9484 130.153 40.5145 130.616 40.2697 131.001C40.1014 131.268 39.8872 131.543 39.7036 131.786C40.0784 132.281 40.3232 132.665 40.2773 132.948H40.285ZM43.5439 133.042C43.381 133.193 43.1885 133.306 42.9794 133.374C42.7703 133.441 42.5494 133.462 42.3318 133.435C42.1141 133.407 41.9048 133.332 41.7179 133.214C41.5311 133.096 41.3711 132.938 41.2489 132.752C41.0931 132.516 41.0105 132.237 41.0119 131.952C41.0132 131.667 41.0985 131.389 41.2566 131.155C41.4146 130.921 41.6379 130.741 41.8973 130.639C42.1567 130.537 42.44 130.519 42.71 130.585C42.6439 129.736 42.6209 128.885 42.6412 128.034C42.6424 127.943 42.6762 127.856 42.7361 127.789C42.7961 127.722 42.8779 127.68 42.9661 127.671C43.0542 127.663 43.1424 127.688 43.2137 127.741C43.285 127.795 43.3345 127.874 43.3526 127.963C43.5133 128.991 43.6357 132.006 43.651 132.351C43.6663 132.532 43.7428 132.83 43.5362 133.042H43.5439ZM29.246 86.6329C29.3837 86.6329 29.422 86.6329 29.4296 86.5858C29.4296 86.4523 29.1695 84.6861 29.1389 84.4741C26.9663 84.7803 27.2417 86.837 29.246 86.6329Z" fill="black"/>
<path d="M34.6545 79.1909C33.7475 79.3185 32.8485 79.4993 31.9617 79.7326C31.2486 79.0219 30.3792 78.4979 29.4269 78.205C28.4747 77.912 27.4678 77.8588 26.4913 78.0498C25.5147 78.2407 24.5974 78.6702 23.8169 79.302C23.0364 79.9337 22.4157 80.7491 22.0073 81.6791C21.5989 82.6091 21.4149 83.6264 21.4707 84.6449C21.5265 85.6633 21.8206 86.653 22.3281 87.5301C22.8356 88.4073 23.5415 89.1461 24.3861 89.684C25.2308 90.2219 26.1892 90.5432 27.1804 90.6205C28.0436 93.1141 29.5476 95.322 31.5333 97.0104C31.5514 97.0285 31.5727 97.0427 31.5962 97.0522C31.6196 97.0618 31.6447 97.0665 31.6699 97.0662C31.6951 97.0658 31.72 97.0603 31.7432 97.0501C31.7663 97.0399 31.7873 97.025 31.8049 97.0065C31.8224 96.9879 31.8363 96.966 31.8456 96.942C31.8549 96.9179 31.8596 96.8922 31.8592 96.8663C31.8588 96.8405 31.8535 96.8149 31.8435 96.7911C31.8336 96.7674 31.8191 96.7459 31.801 96.7278C30.1449 94.9492 28.8039 92.8878 27.8383 90.6362C28.9913 90.5916 30.1095 90.2184 31.0673 89.5583C32.0252 88.8983 32.785 87.9775 33.2616 86.8992C33.7382 85.821 33.9126 84.6278 33.7654 83.4535C33.6183 82.2792 33.1553 81.1701 32.4283 80.2507C33.2392 80.0309 33.9583 79.8346 34.7233 79.6855C35.0905 79.6227 34.9605 79.1281 34.6545 79.1909ZM25.1073 87.1351V81.2947C25.1191 81.217 25.1576 81.1462 25.2158 81.095C25.274 81.0439 25.3481 81.0157 25.4248 81.0157C25.5014 81.0157 25.5755 81.0439 25.6338 81.095C25.692 81.1462 25.7305 81.217 25.7422 81.2947C25.7422 82.4565 25.8723 86.3501 25.8952 87.1351C25.8688 87.2211 25.8164 87.2962 25.7455 87.3495C25.6747 87.4028 25.5891 87.4315 25.5013 87.4315C25.4134 87.4315 25.3279 87.4028 25.257 87.3495C25.1862 87.2962 25.1337 87.2211 25.1073 87.1351ZM29.7891 87.2136C28.2591 88.0536 26.2165 86.5542 27.1804 84.8037C27.3918 84.492 27.6748 84.2387 28.0044 84.0662C28.334 83.8936 28.7 83.8072 29.07 83.8146C28.9422 82.9593 28.8655 82.0968 28.8405 81.2319C28.8445 81.1469 28.8777 81.066 28.9342 81.0036C28.9907 80.9412 29.0669 80.9014 29.1493 80.891C29.2317 80.8807 29.3149 80.9006 29.3844 80.9472C29.4539 80.9937 29.5051 81.064 29.529 81.1456C29.659 81.7108 30.0262 85.4709 30.0645 85.9655C30.0798 86.3501 30.2481 86.9232 29.7891 87.1744V87.2136Z" fill="black"/>
</svg>
