<svg width="68" height="68" viewBox="0 0 68 68" fill="none" xmlns="http://www.w3.org/2000/svg">
<g filter="url(#filter0_d_180_3366)">
<path d="M49.625 9.6875H41.8125C41.3981 9.6875 41.0007 9.85212 40.7077 10.1451C40.4146 10.4382 40.25 10.8356 40.25 11.25C40.25 11.6644 40.4146 12.0618 40.7077 12.3549C41.0007 12.6479 41.3981 12.8125 41.8125 12.8125H45.8535L40.9414 17.7246C39.4991 16.3805 37.7593 15.3965 35.864 14.8532C33.9688 14.3099 31.9719 14.2226 30.0365 14.5984C28.1011 14.9742 26.282 15.8026 24.7278 17.0157C23.1737 18.2288 21.9285 19.7924 21.0941 21.5787C20.2596 23.365 19.8596 25.3233 19.9265 27.2937C19.9935 29.2642 20.5256 31.1908 21.4794 32.9163C22.4332 34.6419 23.7816 36.1173 25.4145 37.2221C27.0474 38.327 28.9186 39.0299 30.875 39.2734V42.5H26.1875C25.7731 42.5 25.3757 42.6646 25.0827 42.9576C24.7896 43.2507 24.625 43.6481 24.625 44.0625C24.625 44.4769 24.7896 44.8743 25.0827 45.1674C25.3757 45.4604 25.7731 45.625 26.1875 45.625H30.875V50.3125C30.875 50.7269 31.0396 51.1243 31.3327 51.4174C31.6257 51.7104 32.0231 51.875 32.4375 51.875C32.8519 51.875 33.2494 51.7104 33.5424 51.4174C33.8354 51.1243 34 50.7269 34 50.3125V45.625H38.6875C39.1019 45.625 39.4994 45.4604 39.7924 45.1674C40.0854 44.8743 40.25 44.4769 40.25 44.0625C40.25 43.6481 40.0854 43.2507 39.7924 42.9576C39.4994 42.6646 39.1019 42.5 38.6875 42.5H34V39.2734C36.0944 39.0118 38.0883 38.2235 39.7953 36.9821C41.5023 35.7407 42.8667 34.0868 43.7609 32.1749C44.6552 30.2631 45.0502 28.1557 44.9089 26.0498C44.7676 23.9438 44.0948 21.9081 42.9531 20.1328L48.0625 15.0215V19.0625C48.0625 19.4769 48.2271 19.8743 48.5202 20.1674C48.8132 20.4604 49.2106 20.625 49.625 20.625C50.0394 20.625 50.4369 20.4604 50.7299 20.1674C51.0229 19.8743 51.1875 19.4769 51.1875 19.0625V11.25C51.1875 10.8356 51.0229 10.4382 50.7299 10.1451C50.4369 9.85212 50.0394 9.6875 49.625 9.6875ZM32.4375 36.25C30.5833 36.25 28.7708 35.7002 27.2291 34.67C25.6873 33.6399 24.4857 32.1757 23.7762 30.4627C23.0666 28.7496 22.8809 26.8646 23.2427 25.046C23.6044 23.2275 24.4973 21.557 25.8084 20.2459C27.1195 18.9348 28.79 18.0419 30.6086 17.6801C32.4271 17.3184 34.3121 17.5041 36.0252 18.2136C37.7382 18.9232 39.2024 20.1248 40.2325 21.6665C41.2627 23.2082 41.8125 25.0208 41.8125 26.875C41.8099 29.3606 40.8214 31.7437 39.0638 33.5013C37.3062 35.2589 34.9231 36.2474 32.4375 36.25Z" fill="#343330"/>
</g>
<g filter="url(#filter1_d_180_3366)">
<circle cx="34" cy="30" r="29.5" stroke="black" shape-rendering="crispEdges"/>
</g>
<defs>
<filter id="filter0_d_180_3366" x="5" y="5" width="58" height="58" filterUnits="userSpaceOnUse" color-interpolation-filters="sRGB">
<feFlood flood-opacity="0" result="BackgroundImageFix"/>
<feColorMatrix in="SourceAlpha" type="matrix" values="0 0 0 0 0 0 0 0 0 0 0 0 0 0 0 0 0 0 127 0" result="hardAlpha"/>
<feOffset dy="4"/>
<feGaussianBlur stdDeviation="2"/>
<feComposite in2="hardAlpha" operator="out"/>
<feColorMatrix type="matrix" values="0 0 0 0 0 0 0 0 0 0 0 0 0 0 0 0 0 0 0.25 0"/>
<feBlend mode="normal" in2="BackgroundImageFix" result="effect1_dropShadow_180_3366"/>
<feBlend mode="normal" in="SourceGraphic" in2="effect1_dropShadow_180_3366" result="shape"/>
</filter>
<filter id="filter1_d_180_3366" x="0" y="0" width="68" height="68" filterUnits="userSpaceOnUse" color-interpolation-filters="sRGB">
<feFlood flood-opacity="0" result="BackgroundImageFix"/>
<feColorMatrix in="SourceAlpha" type="matrix" values="0 0 0 0 0 0 0 0 0 0 0 0 0 0 0 0 0 0 127 0" result="hardAlpha"/>
<feOffset dy="4"/>
<feGaussianBlur stdDeviation="2"/>
<feComposite in2="hardAlpha" operator="out"/>
<feColorMatrix type="matrix" values="0 0 0 0 0 0 0 0 0 0 0 0 0 0 0 0 0 0 0.25 0"/>
<feBlend mode="normal" in2="BackgroundImageFix" result="effect1_dropShadow_180_3366"/>
<feBlend mode="normal" in="SourceGraphic" in2="effect1_dropShadow_180_3366" result="shape"/>
</filter>
</defs>
</svg>
