<svg width="16" height="16" viewBox="0 0 16 16" fill="none" xmlns="http://www.w3.org/2000/svg">
<path d="M7.66467 6.63683L9.16034 6.56783C9.53567 6.57116 9.73701 6.56649 9.79267 6.88249L10.117 9.22683C10.1273 9.32416 10.2723 9.45116 10.307 9.50683C10.4007 9.43383 10.4563 9.31583 10.439 9.19049L10.168 7.01849C10.102 6.49716 9.65701 6.10449 9.13234 6.10449H7.71701H7.66801L7.66467 6.63683Z" fill="#DFF0FC"/>
<path d="M7.66801 6.12533L7.66467 6.65533L7.80367 6.663L8.51834 6.633L9.14467 6.60667C9.17367 6.607 9.20934 6.607 9.23634 6.60733C9.45767 6.61 9.60934 6.63167 9.69101 6.749C9.72267 6.78967 9.74667 6.86167 9.76001 6.93667L9.88067 7.81633L10.0283 8.89267C10.03 8.90467 10.0857 9.261 10.0963 9.26467C10.105 9.307 10.14 9.35433 10.1793 9.397C10.2253 9.447 10.2767 9.491 10.2977 9.51467C10.391 9.442 10.4467 9.32433 10.4293 9.19967L10.2943 8.11767L10.1593 7.03567C10.0937 6.51633 9.65034 6.125 9.12767 6.125H8.38667H7.71634L7.66801 6.12533Z" fill="#DEEEFB"/>
<path d="M7.66804 6.14648L7.66504 6.67482L7.79004 6.69715L8.50371 6.67015L9.12937 6.64648C9.15537 6.64682 9.19637 6.64682 9.22037 6.64715C9.43671 6.64948 9.58737 6.68182 9.66304 6.80382C9.69137 6.84015 9.71571 6.92415 9.72737 6.99148L9.84671 7.86848L9.99271 8.94115C9.99571 8.96482 10.0547 9.29615 10.0757 9.30348C10.088 9.34315 10.125 9.38615 10.1657 9.42415C10.2134 9.46848 10.2654 9.50548 10.2884 9.52348C10.3814 9.45115 10.4367 9.33382 10.4194 9.20948L10.2847 8.13148L10.15 7.05348C10.0844 6.53615 9.64304 6.14648 9.12204 6.14648H8.38471H7.71504H7.66804Z" fill="#DCEDFA"/>
<path d="M7.66771 6.16733L7.66504 6.69366L7.77604 6.73066L8.48871 6.70666L9.11337 6.68566C9.13671 6.68599 9.18271 6.68599 9.20404 6.68633C9.41504 6.68833 9.56471 6.73133 9.63437 6.85833C9.65971 6.89066 9.68371 6.98633 9.69437 7.04599L9.81237 7.91999L9.95637 8.98899C9.96104 9.02466 10.023 9.33033 10.0544 9.34133C10.0707 9.37866 10.109 9.41733 10.151 9.45033C10.2007 9.48899 10.2527 9.51933 10.2784 9.53133C10.371 9.45899 10.426 9.34233 10.409 9.21866L10.275 8.14466L10.141 7.07066C10.0757 6.55533 9.63604 6.16699 9.11704 6.16699H8.38337H7.71437L7.66771 6.16733Z" fill="#DBEBF9"/>
<path d="M7.66762 6.18719L7.66528 6.71186L7.76262 6.76352L8.47428 6.74252L9.09828 6.72419C9.11862 6.72452 9.16995 6.72452 9.18862 6.72486C9.39462 6.72686 9.54295 6.77986 9.60695 6.91186C9.62895 6.94019 9.65295 7.04719 9.66228 7.09952L9.77862 7.97086L9.92095 9.03619C9.92695 9.08352 9.99228 9.36419 10.0339 9.37886C10.0539 9.41352 10.0939 9.44819 10.1376 9.47619C10.1889 9.50919 10.2416 9.53286 10.2693 9.53852C10.3616 9.46652 10.4166 9.35019 10.3993 9.22686L10.2656 8.15686L10.1319 7.08686C10.0669 6.57319 9.62862 6.18652 9.11162 6.18652H8.38162H7.71295H7.66762V6.18719Z" fill="#DAE9F8"/>
<path d="M7.66728 6.20898L7.66528 6.73165L7.74862 6.79832L8.45928 6.78032L9.08228 6.76465C9.09962 6.76465 9.15595 6.76498 9.17195 6.76498C9.37262 6.76665 9.51995 6.83032 9.57795 6.96732C9.59695 6.99165 9.62095 7.11032 9.62862 7.15532L9.74362 8.02365L9.88428 9.08532C9.89195 9.14465 9.96028 9.39965 10.0126 9.41832C10.0366 9.45032 10.0783 9.48098 10.1229 9.50398C10.1759 9.53132 10.2293 9.54832 10.2593 9.54798C10.3513 9.47632 10.4059 9.36032 10.3889 9.23765L10.2559 8.17198L10.1229 7.10632C10.0583 6.59465 9.62162 6.20932 9.10662 6.20932H8.38028H7.71228L7.66728 6.20898Z" fill="#D9E8F7"/>
<path d="M7.66732 6.22949L7.66565 6.75049L7.73498 6.83183L8.44465 6.81683L9.06665 6.80349C9.08132 6.80349 9.14265 6.80383 9.15598 6.80383C9.35165 6.80516 9.49765 6.87949 9.54998 7.02116C9.56565 7.04149 9.58965 7.17183 9.59632 7.20916L9.70998 8.07483L9.84898 9.13316C9.85798 9.20416 9.92965 9.43416 9.99232 9.45616C10.02 9.48549 10.0633 9.51216 10.1096 9.53016C10.1643 9.55149 10.2183 9.56216 10.2503 9.55583C10.342 9.48449 10.3963 9.36883 10.3793 9.24649L10.2466 8.18483L10.114 7.12316C10.0493 6.61349 9.61465 6.22949 9.10132 6.22949H8.37832H7.71098H7.66732Z" fill="#D7E6F6"/>
<path d="M7.66698 6.25L7.66565 6.76933L7.72132 6.86533L8.43032 6.85333L9.05165 6.84267C9.06332 6.84267 9.12998 6.843 9.14065 6.843C9.33132 6.844 9.47598 6.92867 9.52265 7.07567C9.53532 7.092 9.55898 7.23367 9.56432 7.26367L9.67632 8.12667L9.81332 9.18133C9.82398 9.26433 9.89865 9.46867 9.97165 9.49467C10.0033 9.52167 10.048 9.544 10.0956 9.557C10.1523 9.57267 10.2066 9.57667 10.241 9.564C10.3323 9.493 10.3866 9.378 10.3696 9.256L10.2376 8.19833L10.1056 7.14067C10.0413 6.633 9.60798 6.25033 9.09698 6.25033H8.37765H7.71098L7.66698 6.25Z" fill="#D6E5F5"/>
<path d="M7.66702 6.27148L7.66602 6.78882L7.70768 6.89948L8.41568 6.89048L9.03602 6.88248C9.04468 6.88248 9.11635 6.88248 9.12435 6.88282C9.30968 6.88348 9.45335 6.97882 9.49402 7.13048C9.50335 7.14248 9.52735 7.29615 9.53135 7.31848L9.64202 8.17848L9.77735 9.22948C9.78935 9.32415 9.86735 9.50348 9.95068 9.53315C9.98602 9.55748 10.0327 9.57548 10.0817 9.58382C10.14 9.59382 10.195 9.59082 10.2313 9.57248C10.3223 9.50182 10.3763 9.38715 10.3593 9.26548L10.2277 8.21182L10.096 7.15815C10.032 6.65248 9.60035 6.27148 9.09102 6.27148H8.37535H7.71002H7.66702Z" fill="#D5E3F4"/>
<path d="M7.66668 6.29199L7.66602 6.80766L7.69368 6.93299L8.40068 6.92699L9.02035 6.92166C9.02602 6.92166 9.10302 6.92166 9.10835 6.92166C9.28868 6.92233 9.43102 7.02799 9.46602 7.18466C9.47235 7.19266 9.49602 7.35799 9.49868 7.37299L9.60802 8.23033L9.74168 9.27766C9.75535 9.38433 9.83635 9.53833 9.93035 9.57133C9.96968 9.59299 10.0177 9.60699 10.068 9.61033C10.128 9.61466 10.1833 9.60499 10.2223 9.58066C10.313 9.50999 10.3667 9.39599 10.35 9.27499L10.219 8.22533L10.088 7.17566C10.0243 6.67166 9.59435 6.29233 9.08702 6.29233H8.37502H7.70935L7.66668 6.29199Z" fill="#D4E1F3"/>
<path d="M7.66671 6.3125L7.66638 6.82617L7.68038 6.96617L8.38638 6.96317L9.00505 6.9605C9.00805 6.9605 9.09005 6.9605 9.09271 6.9605C9.26771 6.96083 9.40905 7.07683 9.43805 7.2385C9.44105 7.2425 9.46472 7.41917 9.46605 7.42683L9.57405 8.28117L9.70571 9.32483C9.72072 9.44317 9.80505 9.57183 9.90938 9.60883C9.95238 9.62783 10.002 9.63783 10.0537 9.6365C10.1154 9.63483 10.1714 9.61883 10.2124 9.58817C10.3027 9.51783 10.3564 9.40417 10.3394 9.28383L10.209 8.23817L10.0787 7.1925C10.015 6.6905 9.58671 6.3125 9.08138 6.3125H8.37271H7.70771H7.66671Z" fill="#D2E0F2"/>
<path d="M7.66638 6.99967H8.37138H9.07638C9.24638 6.99967 9.38638 7.12634 9.40972 7.29301L9.53971 8.33301L9.66972 9.37301C9.69305 9.55634 9.85638 9.68634 10.0397 9.66301C10.103 9.65634 10.1597 9.63301 10.203 9.59634C10.293 9.52634 10.3464 9.41301 10.3297 9.29301L10.1997 8.25134L10.0697 7.20967C10.0064 6.70967 9.57972 6.33301 9.07638 6.33301H8.37138H7.66638V6.99967Z" fill="#D1DEF1"/>
<path d="M10.0256 7.21205C9.96263 6.71505 9.53729 6.37271 9.03763 6.37305C9.03463 6.37305 8.92763 6.37305 8.92463 6.37305H8.34496H7.85463L7.66663 6.38805V6.44571L7.70996 6.99971H7.99263H8.40129H8.83896C8.84563 6.99971 9.08896 7.00205 9.09396 7.00571C9.20729 7.01038 9.30563 7.07305 9.36163 7.16571C9.38596 7.20305 9.40396 7.25705 9.41063 7.30405L9.53863 8.32705L9.54829 8.40371L9.66663 9.34805C9.68029 9.45638 9.75096 9.56938 9.84229 9.61171C9.89263 9.64405 9.94929 9.65438 10.0106 9.64705C10.0706 9.63971 10.126 9.61705 10.1726 9.58271C10.2556 9.51905 10.3036 9.40705 10.287 9.28371C10.285 9.26438 10.163 8.28838 10.1586 8.25938C10.1516 8.20905 10.0256 7.21205 10.0256 7.21205Z" fill="#CAD6E8"/>
<path d="M9.98129 7.2154C9.91863 6.7214 9.49463 6.4134 8.99829 6.41406C8.99229 6.41406 8.89263 6.41406 8.88696 6.41406H8.31829H7.83596L7.66663 6.44406V6.50206L7.75363 7.0004H8.03063H8.43163H8.86296C8.87663 7.0004 9.10229 7.00473 9.11229 7.0124C9.22163 7.02206 9.31496 7.0864 9.36663 7.17906C9.38863 7.21273 9.40629 7.27306 9.41196 7.3154L9.53763 8.3214L9.54696 8.39706L9.66263 9.32373C9.67496 9.42106 9.74196 9.5504 9.82429 9.58873C9.87096 9.6284 9.92229 9.6394 9.98096 9.6314C10.0376 9.62406 10.092 9.6014 10.1416 9.56973C10.2176 9.51206 10.2603 9.40173 10.244 9.2754C10.24 9.23673 10.1256 8.3264 10.1173 8.2684C10.1036 8.16773 9.98129 7.2154 9.98129 7.2154Z" fill="#C3CFDF"/>
<path d="M9.93729 7.21777C9.87496 6.72677 9.45229 6.45344 8.95963 6.4541C8.95063 6.4541 8.85863 6.4541 8.84963 6.4541H8.29196H7.81729L7.66663 6.4991V6.5571L7.79763 7.00044H8.06863H8.46196H8.88696C8.90729 7.00044 9.11563 7.0071 9.13063 7.0181C9.23563 7.03244 9.32429 7.09877 9.37196 7.19177C9.39163 7.22177 9.40896 7.28844 9.41396 7.3261L9.53763 8.3151L9.54696 8.3901L9.66063 9.29844C9.67163 9.3851 9.73496 9.53077 9.80796 9.56477C9.85096 9.61144 9.89696 9.6231 9.95296 9.6151C10.006 9.60777 10.0593 9.5851 10.1126 9.55577C10.1816 9.50444 10.2193 9.3951 10.2026 9.26577C10.1966 9.20777 10.0903 8.3631 10.0776 8.27577C10.0556 8.12544 9.93729 7.21777 9.93729 7.21777Z" fill="#BDC7D7"/>
<path d="M9.89302 7.22048C9.83135 6.73248 9.40968 6.49348 8.92035 6.49414C8.90868 6.49414 8.82368 6.49414 8.81168 6.49414H8.26468H7.79768L7.66602 6.55448V6.61281L7.84135 7.00047H8.10635H8.49202H8.91035C8.93735 7.00047 9.12802 7.00914 9.14835 7.02414C9.24935 7.04347 9.33302 7.11147 9.37635 7.20447C9.39335 7.23081 9.41035 7.30381 9.41502 7.33681L9.53635 8.30881L9.54568 8.38314L9.65702 9.27347C9.66668 9.34914 9.72635 9.51114 9.79035 9.54081C9.82968 9.59481 9.87035 9.60681 9.92368 9.59881C9.97335 9.59147 10.0257 9.56914 10.082 9.54214C10.144 9.49714 10.1763 9.38914 10.1597 9.25647C10.1517 9.17914 10.053 8.39981 10.0363 8.28381C10.0077 8.08348 9.89302 7.22048 9.89302 7.22048Z" fill="#B6C0CE"/>
<path d="M9.84896 7.22187C9.78763 6.73687 9.36729 6.53221 8.88163 6.53321C8.86696 6.53321 8.78963 6.53321 8.77463 6.53321H8.23863H7.77963L7.66663 6.60854V6.66687L7.88496 6.99954H8.14429H8.52229H8.93429C8.96796 6.99954 9.14129 7.01054 9.16663 7.02921C9.26329 7.05321 9.34229 7.12321 9.38129 7.21621C9.39596 7.23854 9.41263 7.31821 9.41663 7.34654L9.53596 8.30121L9.54529 8.37487L9.65429 9.24721C9.66263 9.31221 9.71863 9.49054 9.77363 9.51587C9.80929 9.57687 9.84463 9.58954 9.89529 9.58154C9.94163 9.57421 9.99263 9.55187 10.0523 9.52721C10.1073 9.48854 10.1343 9.38187 10.118 9.24621C10.108 9.14954 10.0173 8.43587 9.99629 8.29087C9.95963 8.04021 9.84896 7.22187 9.84896 7.22187Z" fill="#AFB8C5"/>
<path d="M9.80471 7.22523C9.74371 6.74289 9.32472 6.57289 8.84238 6.57423C8.82472 6.57423 8.75471 6.57456 8.73671 6.57456H8.21172H7.76038L7.66638 6.66489V6.72356L7.92871 7.00023H8.18205H8.55238H8.95771C8.99838 7.00023 9.15405 7.01356 9.18438 7.03589C9.27705 7.06489 9.35105 7.13656 9.38571 7.22989C9.39805 7.24856 9.41438 7.33456 9.41772 7.35789L9.53505 8.29556L9.54405 8.36856L9.65071 9.22289C9.65771 9.27689 9.71005 9.47156 9.75572 9.49289C9.78772 9.56123 9.81772 9.57456 9.86572 9.56623C9.90872 9.55889 9.95838 9.53656 10.0214 9.51423C10.0697 9.48156 10.091 9.37656 10.0747 9.23756C10.0627 9.12123 9.97972 8.47356 9.95472 8.29956C9.91172 7.99889 9.80471 7.22523 9.80471 7.22523Z" fill="#A8B1BC"/>
<path d="M9.76071 7.2276C9.70005 6.74827 9.28238 6.61293 8.80371 6.61427C8.78305 6.61427 8.72072 6.6146 8.69972 6.6146H8.18538H7.74172L7.66638 6.71993V6.77893L7.97238 7.00027H8.21972H8.58238H8.98138C9.02872 7.00027 9.16705 7.0156 9.20238 7.04193C9.29071 7.0756 9.36005 7.14927 9.39038 7.2426C9.40005 7.2576 9.41605 7.34993 9.41872 7.3686L9.53371 8.28927L9.54271 8.3616L9.64738 9.1976C9.65305 9.24093 9.70171 9.45193 9.73838 9.46893C9.76638 9.54427 9.79138 9.55827 9.83671 9.5496C9.87638 9.54227 9.92505 9.51993 9.99105 9.50027C10.0324 9.47393 10.0484 9.36993 10.032 9.22793C10.018 9.09227 9.94305 8.51027 9.91371 8.30693C9.86371 7.9566 9.76071 7.2276 9.76071 7.2276Z" fill="#A1A9B3"/>
<path d="M9.71663 7.22998C9.65629 6.75365 9.23996 6.65265 8.76463 6.65432C8.74096 6.65432 8.68596 6.65465 8.66196 6.65465H8.15863H7.72296L7.66663 6.77498V6.83398L8.01629 6.99998H8.25796H8.61296H9.00563C9.05963 6.99998 9.18063 7.01765 9.22096 7.04732C9.30529 7.08598 9.36963 7.16132 9.39563 7.25498C9.40296 7.26632 9.41863 7.36498 9.42063 7.37898L9.53363 8.28265L9.54263 8.35398L9.64496 9.17198C9.64896 9.20432 9.69463 9.43165 9.72196 9.44432C9.74629 9.52698 9.76596 9.54132 9.80863 9.53265C9.84496 9.52532 9.89229 9.50298 9.96196 9.48565C9.99629 9.46565 10.0073 9.36298 9.99096 9.21765C9.97496 9.06265 9.90763 8.54632 9.87429 8.31398C9.81563 7.91398 9.71663 7.22998 9.71663 7.22998Z" fill="#9AA2AA"/>
<path d="M9.67229 7.23238C9.61229 6.75905 9.19729 6.69238 8.72563 6.69438C8.69896 6.69438 8.65129 6.69471 8.62463 6.69471H8.13229H7.70429L7.66663 6.83005V6.88938L8.05996 7.00005H8.29563H8.64296H9.02896C9.08963 7.00005 9.19329 7.01971 9.23863 7.05338C9.31863 7.09671 9.37829 7.17405 9.39996 7.26771C9.40496 7.27505 9.42029 7.38038 9.42163 7.38971L9.53263 8.27638L9.54163 8.34705L9.64163 9.14705C9.64429 9.16871 9.68629 9.41238 9.70429 9.42071C9.72496 9.51038 9.73929 9.52571 9.77929 9.51671C9.81229 9.50938 9.85863 9.48705 9.93129 9.47238C9.95863 9.45838 9.96429 9.35738 9.94796 9.20905C9.92963 9.03471 9.87063 8.58405 9.83296 8.32271C9.76763 7.87205 9.67229 7.23238 9.67229 7.23238Z" fill="#949AA2"/>
<path d="M9.62838 7.23481C9.56871 6.76448 9.15505 6.73215 8.68705 6.73448C8.65738 6.73448 8.61738 6.73481 8.58738 6.73481H8.10571H7.68538L7.66638 6.88515V6.94448L8.10372 6.99981H8.33371H8.67338H9.05305C9.12072 6.99981 9.20671 7.02181 9.25705 7.05915C9.33271 7.10748 9.38771 7.18648 9.40538 7.28048C9.40771 7.28415 9.42305 7.39581 9.42371 7.40048L9.53238 8.27015L9.54105 8.34015L9.63872 9.12181C9.64005 9.13248 9.67838 9.39248 9.68738 9.39681C9.70438 9.49381 9.71338 9.50948 9.75072 9.50048C9.78038 9.49315 9.82538 9.47115 9.90138 9.45848C9.92172 9.45081 9.92205 9.35115 9.90571 9.19948C9.88538 9.00581 9.83438 8.62081 9.79238 8.33048C9.71972 7.82948 9.62838 7.23481 9.62838 7.23481Z" fill="#8D9399"/>
<path d="M7.66638 7.00038H8.37138H9.07638C9.24638 7.00038 9.38638 7.12704 9.40972 7.29371L9.53971 8.33371L9.66972 9.37371C9.69305 9.55704 9.68738 9.46871 9.87071 9.44538C9.90238 9.44204 9.83072 8.89004 9.75105 8.33904C9.67138 7.78804 9.58405 7.23771 9.58405 7.23771C9.52072 6.73771 9.05305 6.77504 8.54972 6.77504H7.66638V7.00038Z" fill="#868B90"/>
<path d="M8.32106 6.63683L6.82539 6.56783C6.45006 6.57116 6.24873 6.56649 6.19306 6.88249L5.86873 9.22683C5.85839 9.32416 5.71339 9.45116 5.67873 9.50683C5.58506 9.43383 5.52939 9.31583 5.54673 9.19049L5.81773 7.01849C5.88373 6.49716 6.32873 6.10449 6.85339 6.10449H8.26873H8.31773L8.32106 6.63683Z" fill="#DFF0FC"/>
<path d="M8.3177 6.12533L8.32104 6.65533L8.18204 6.663L7.46737 6.633L6.84104 6.60667C6.81204 6.607 6.77637 6.607 6.74937 6.60733C6.52804 6.61 6.37637 6.63167 6.2947 6.749C6.26304 6.78967 6.23904 6.86167 6.2257 6.93667L6.10504 7.81633L5.95737 8.89267C5.9557 8.90467 5.90004 9.261 5.88937 9.26467C5.8807 9.307 5.8457 9.35433 5.80637 9.397C5.76037 9.447 5.70904 9.491 5.68804 9.51467C5.5947 9.442 5.53904 9.32433 5.55637 9.19967L5.69137 8.11767L5.82637 7.03567C5.89204 6.51633 6.33537 6.125 6.85804 6.125H7.5987H8.26904L8.3177 6.12533Z" fill="#DEEEFB"/>
<path d="M8.31761 6.14648L8.32061 6.67482L8.19561 6.69715L7.48194 6.67015L6.85627 6.64648C6.83027 6.64682 6.78927 6.64682 6.76527 6.64715C6.54894 6.64948 6.39827 6.68182 6.32261 6.80382C6.29427 6.84015 6.26994 6.92415 6.25827 6.99148L6.13894 7.86848L5.99294 8.94115C5.98994 8.96482 5.93094 9.29615 5.90994 9.30348C5.89761 9.34315 5.86061 9.38615 5.81994 9.42415C5.77227 9.46848 5.72027 9.50548 5.69727 9.52348C5.60427 9.45115 5.54894 9.33382 5.56627 9.20948L5.70094 8.13148L5.83561 7.05348C5.90127 6.53615 6.34261 6.14648 6.86361 6.14648H7.60094H8.27061H8.31761Z" fill="#DCEDFA"/>
<path d="M8.31801 6.16733L8.32068 6.69366L8.20968 6.73066L7.49701 6.70666L6.87234 6.68566C6.84901 6.68599 6.80301 6.68599 6.78168 6.68633C6.57068 6.68833 6.42101 6.73133 6.35134 6.85833C6.32601 6.89066 6.30201 6.98633 6.29134 7.04599L6.17334 7.91999L6.02934 8.98899C6.02468 9.02466 5.96268 9.33033 5.93134 9.34133C5.91501 9.37866 5.87668 9.41733 5.83468 9.45033C5.78501 9.48899 5.73301 9.51933 5.70734 9.53133C5.61468 9.45899 5.55968 9.34233 5.57668 9.21866L5.71068 8.14466L5.84468 7.07066C5.91001 6.55533 6.34968 6.16699 6.86868 6.16699H7.60234H8.27134L8.31801 6.16733Z" fill="#DBEBF9"/>
<path d="M8.31797 6.18719L8.32031 6.71186L8.22297 6.76352L7.51131 6.74252L6.88731 6.72419C6.86697 6.72452 6.81564 6.72452 6.79697 6.72486C6.59097 6.72686 6.44264 6.77986 6.37864 6.91186C6.35664 6.94019 6.33264 7.04719 6.32331 7.09952L6.20697 7.97086L6.06464 9.03619C6.05864 9.08352 5.99331 9.36419 5.95164 9.37886C5.93164 9.41352 5.89164 9.44819 5.84797 9.47619C5.79664 9.50919 5.74397 9.53286 5.71631 9.53852C5.62397 9.46652 5.56897 9.35019 5.58631 9.22686L5.71997 8.15686L5.85364 7.08686C5.91864 6.57319 6.35697 6.18652 6.87397 6.18652H7.60397H8.27264H8.31797V6.18719Z" fill="#DAE9F8"/>
<path d="M8.31838 6.20898L8.32038 6.73165L8.23705 6.79832L7.52638 6.78032L6.90338 6.76465C6.88604 6.76465 6.82971 6.76498 6.81371 6.76498C6.61305 6.76665 6.46571 6.83032 6.40771 6.96732C6.38871 6.99165 6.36471 7.11032 6.35704 7.15532L6.24205 8.02365L6.10138 9.08532C6.09371 9.14465 6.02538 9.39965 5.97305 9.41832C5.94905 9.45032 5.90738 9.48098 5.86271 9.50398C5.80971 9.53132 5.75638 9.54832 5.72638 9.54798C5.63438 9.47632 5.57971 9.36032 5.59671 9.23765L5.72971 8.17198L5.86271 7.10632C5.92738 6.59465 6.36404 6.20932 6.87904 6.20932H7.60538H8.27338L8.31838 6.20898Z" fill="#D9E8F7"/>
<path d="M8.31837 6.22949L8.32004 6.75049L8.2507 6.83183L7.54104 6.81683L6.91904 6.80349C6.90437 6.80349 6.84304 6.80383 6.8297 6.80383C6.63404 6.80516 6.48804 6.87949 6.4357 7.02116C6.42004 7.04149 6.39604 7.17183 6.38937 7.20916L6.2757 8.07483L6.1367 9.13316C6.1277 9.20416 6.05604 9.43416 5.99337 9.45616C5.9657 9.48549 5.92237 9.51216 5.87604 9.53016C5.82137 9.55149 5.76737 9.56216 5.73537 9.55583C5.6437 9.48449 5.58937 9.36883 5.60637 9.24649L5.73904 8.18483L5.8717 7.12316C5.93637 6.61349 6.37104 6.22949 6.88437 6.22949H7.60737H8.2747H8.31837Z" fill="#D7E6F6"/>
<path d="M8.31868 6.25L8.32001 6.76933L8.26435 6.86533L7.55535 6.85333L6.93401 6.84267C6.92235 6.84267 6.85568 6.843 6.84501 6.843C6.65435 6.844 6.50968 6.92867 6.46301 7.07567C6.45035 7.092 6.42668 7.23367 6.42135 7.26367L6.30935 8.12667L6.17235 9.18133C6.16168 9.26433 6.08701 9.46867 6.01401 9.49467C5.98235 9.52167 5.93768 9.544 5.89001 9.557C5.83335 9.57267 5.77901 9.57667 5.74468 9.564C5.65335 9.493 5.59901 9.378 5.61601 9.256L5.74801 8.19833L5.88001 7.14067C5.94435 6.633 6.37768 6.25033 6.88868 6.25033H7.60801H8.27468L8.31868 6.25Z" fill="#D6E5F5"/>
<path d="M8.31862 6.27148L8.31962 6.78882L8.27795 6.89948L7.56995 6.89048L6.94962 6.88248C6.94095 6.88248 6.86928 6.88248 6.86128 6.88282C6.67595 6.88348 6.53228 6.97882 6.49162 7.13048C6.48228 7.14248 6.45828 7.29615 6.45428 7.31848L6.34362 8.17848L6.20828 9.22948C6.19628 9.32415 6.11828 9.50348 6.03495 9.53315C5.99962 9.55748 5.95295 9.57548 5.90395 9.58382C5.84562 9.59382 5.79062 9.59082 5.75428 9.57248C5.66328 9.50182 5.60928 9.38715 5.62628 9.26548L5.75795 8.21182L5.88962 7.15815C5.95362 6.65248 6.38528 6.27148 6.89462 6.27148H7.61028H8.27628H8.31862Z" fill="#D5E3F4"/>
<path d="M8.31904 6.29199L8.31971 6.80766L8.29204 6.93299L7.58504 6.92699L6.96538 6.92166C6.95971 6.92166 6.88271 6.92166 6.87738 6.92166C6.69704 6.92233 6.55471 7.02799 6.51971 7.18466C6.51338 7.19266 6.48971 7.35799 6.48704 7.37299L6.37771 8.23033L6.24404 9.27766C6.23038 9.38433 6.14938 9.53833 6.05538 9.57133C6.01604 9.59299 5.96804 9.60699 5.91771 9.61033C5.85771 9.61466 5.80238 9.60499 5.76338 9.58066C5.67271 9.50999 5.61904 9.39599 5.63571 9.27499L5.76671 8.22533L5.89771 7.17566C5.96138 6.67166 6.39138 6.29233 6.89871 6.29233H7.61071H8.27638L8.31904 6.29199Z" fill="#D4E1F3"/>
<path d="M8.31898 6.3125L8.31932 6.82617L8.30532 6.96617L7.59932 6.96317L6.98065 6.9605C6.97765 6.9605 6.89565 6.9605 6.89298 6.9605C6.71798 6.96083 6.57665 7.07683 6.54765 7.2385C6.54465 7.2425 6.52098 7.41917 6.51965 7.42683L6.41165 8.28117L6.27998 9.32483C6.26498 9.44317 6.18065 9.57183 6.07632 9.60883C6.03332 9.62783 5.98365 9.63783 5.93198 9.6365C5.87032 9.63483 5.81432 9.61883 5.77332 9.58817C5.68298 9.51783 5.62932 9.40417 5.64632 9.28383L5.77665 8.23817L5.90698 7.1925C5.97065 6.6905 6.39898 6.3125 6.90432 6.3125H7.61298H8.27798H8.31898Z" fill="#D2E0F2"/>
<path d="M8.31932 6.99967H7.61432H6.90932C6.73932 6.99967 6.59932 7.12634 6.57599 7.29301L6.44599 8.33301L6.31599 9.37301C6.29266 9.55634 6.12932 9.68634 5.94599 9.66301C5.88266 9.65634 5.82599 9.63301 5.78266 9.59634C5.69266 9.52634 5.63932 9.41301 5.65599 9.29301L5.78599 8.25134L5.91599 7.20967C5.97932 6.70967 6.40599 6.33301 6.90932 6.33301H7.61432H8.31932V6.99967Z" fill="#D1DEF1"/>
<path d="M5.95997 7.21205C6.02297 6.71505 6.4483 6.37271 6.94797 6.37305C6.95097 6.37305 7.05797 6.37305 7.06097 6.37305H7.64063H8.13097L8.31897 6.38805V6.44571L8.27563 6.99971H7.99297H7.5843H7.14663C7.13997 6.99971 6.89663 7.00205 6.89163 7.00571C6.7783 7.01038 6.67997 7.07305 6.62397 7.16571C6.59963 7.20305 6.58163 7.25705 6.57497 7.30405L6.44697 8.32705L6.4373 8.40371L6.3193 9.34838C6.30563 9.45671 6.23497 9.56971 6.14363 9.61205C6.0933 9.64438 6.03663 9.65471 5.9753 9.64738C5.9153 9.64005 5.85997 9.61738 5.8133 9.58305C5.7303 9.51938 5.6823 9.40738 5.69897 9.28405C5.70097 9.26471 5.82297 8.28871 5.8273 8.25971C5.83397 8.20905 5.95997 7.21205 5.95997 7.21205Z" fill="#CAD6E8"/>
<path d="M6.00438 7.2154C6.06704 6.7214 6.49104 6.4134 6.98738 6.41406C6.99338 6.41406 7.09304 6.41406 7.09871 6.41406H7.66738H8.14971L8.31904 6.44406V6.50206L8.23171 7.0004H7.95471H7.55371H7.12238C7.10871 7.0004 6.88304 7.00473 6.87304 7.0124C6.76371 7.02206 6.67038 7.0864 6.61871 7.17906C6.59671 7.21273 6.57904 7.27306 6.57338 7.3154L6.44771 8.3214L6.43838 8.39706L6.32271 9.32373C6.31038 9.42106 6.24338 9.5504 6.16104 9.58873C6.11438 9.6284 6.06304 9.6394 6.00438 9.6314C5.94771 9.62406 5.89338 9.6014 5.84371 9.56973C5.76771 9.51206 5.72504 9.40173 5.74138 9.2754C5.74538 9.23673 5.85971 8.3264 5.86804 8.2684C5.88204 8.16773 6.00438 7.2154 6.00438 7.2154Z" fill="#C3CFDF"/>
<path d="M6.04831 7.21777C6.11064 6.72677 6.53331 6.45344 7.02597 6.4541C7.03497 6.4541 7.12697 6.4541 7.13597 6.4541H7.69364H8.16831L8.31897 6.4991V6.5571L8.18797 7.00044H7.91697H7.52364H7.09864C7.07831 7.00044 6.86997 7.0071 6.85497 7.0181C6.74997 7.03244 6.66131 7.09877 6.61364 7.19177C6.59397 7.22177 6.57664 7.28844 6.57164 7.3261L6.44797 8.3151L6.43864 8.3901L6.32497 9.29844C6.31397 9.3851 6.25064 9.53077 6.17764 9.56477C6.13464 9.61144 6.08864 9.6231 6.03264 9.6151C5.97964 9.60777 5.92631 9.5851 5.87297 9.55577C5.80397 9.50444 5.76631 9.3951 5.78297 9.26577C5.78897 9.20777 5.89531 8.3631 5.90797 8.27577C5.92997 8.12544 6.04831 7.21777 6.04831 7.21777Z" fill="#BDC7D7"/>
<path d="M6.09267 7.22048C6.15434 6.73248 6.57601 6.49348 7.06534 6.49414C7.07701 6.49414 7.16201 6.49414 7.17401 6.49414H7.72101H8.18801L8.31967 6.55448V6.61281L8.14434 7.00047H7.87934H7.49367H7.07534C7.04834 7.00047 6.85767 7.00914 6.83734 7.02414C6.73634 7.04347 6.65267 7.11147 6.60934 7.20447C6.59234 7.23081 6.57534 7.30381 6.57067 7.33681L6.44934 8.30881L6.44001 8.38314L6.32867 9.27347C6.31901 9.34914 6.25934 9.51114 6.19534 9.54081C6.15601 9.59481 6.11534 9.60681 6.06201 9.59881C6.01234 9.59147 5.96001 9.56914 5.90367 9.54214C5.84167 9.49714 5.80934 9.38914 5.82601 9.25647C5.83401 9.17914 5.93267 8.39981 5.94934 8.28381C5.97801 8.08348 6.09267 7.22048 6.09267 7.22048Z" fill="#B6C0CE"/>
<path d="M6.13664 7.22187C6.19797 6.73687 6.61831 6.53221 7.10397 6.53321C7.11864 6.53321 7.19597 6.53321 7.21097 6.53321H7.74697H8.20597L8.31897 6.60854V6.66687L8.10064 6.99954H7.84131H7.46331H7.05131C7.01764 6.99954 6.84431 7.01054 6.81897 7.02921C6.72231 7.05321 6.64331 7.12321 6.60431 7.21621C6.58964 7.23854 6.57297 7.31821 6.56897 7.34654L6.44964 8.30121L6.44031 8.37487L6.33131 9.24721C6.32297 9.31221 6.26697 9.49054 6.21197 9.51587C6.17631 9.57687 6.14097 9.58954 6.09031 9.58154C6.04397 9.57421 5.99297 9.55187 5.93331 9.52721C5.87831 9.48854 5.85131 9.38187 5.86764 9.24621C5.87764 9.14954 5.96831 8.43587 5.98931 8.29087C6.02597 8.04021 6.13664 7.22187 6.13664 7.22187Z" fill="#AFB8C5"/>
<path d="M6.18061 7.22523C6.24161 6.74289 6.66061 6.57289 7.14294 6.57423C7.16061 6.57423 7.23061 6.57456 7.24861 6.57456H7.77361H8.22494L8.31894 6.66489V6.72356L8.05694 7.00023H7.80361H7.43328H7.02794C6.98728 7.00023 6.83161 7.01356 6.80128 7.03589C6.70861 7.06489 6.63461 7.13656 6.59994 7.22989C6.58761 7.24856 6.57128 7.33456 6.56794 7.35789L6.45061 8.29556L6.44161 8.36856L6.33494 9.22289C6.32794 9.27689 6.27561 9.47156 6.22994 9.49289C6.19794 9.56123 6.16794 9.57456 6.11994 9.56623C6.07694 9.55889 6.02728 9.53656 5.96428 9.51423C5.91594 9.48156 5.89461 9.37656 5.91094 9.23756C5.92294 9.12123 6.00594 8.47356 6.03094 8.29956C6.07394 7.99889 6.18061 7.22523 6.18061 7.22523Z" fill="#A8B1BC"/>
<path d="M6.22503 7.2276C6.28569 6.74827 6.70336 6.61293 7.18203 6.61427C7.20269 6.61427 7.26503 6.6146 7.28603 6.6146H7.80036H8.24403L8.31936 6.71993V6.77893L8.01336 7.00027H7.76603H7.40336H7.00436C6.95703 7.00027 6.81869 7.0156 6.78336 7.04193C6.69503 7.0756 6.62569 7.14927 6.59536 7.2426C6.58569 7.2576 6.56969 7.34993 6.56703 7.3686L6.45203 8.28927L6.44303 8.3616L6.33836 9.1976C6.33269 9.24093 6.28403 9.45193 6.24736 9.46893C6.21936 9.54427 6.19436 9.55827 6.14903 9.5496C6.10936 9.54227 6.06069 9.51993 5.99469 9.50027C5.95336 9.47393 5.93736 9.36993 5.95369 9.22793C5.96769 9.09227 6.04269 8.51027 6.07203 8.30693C6.12203 7.9566 6.22503 7.2276 6.22503 7.2276Z" fill="#A1A9B3"/>
<path d="M6.26895 7.22998C6.32928 6.75365 6.74561 6.65265 7.22095 6.65432C7.24461 6.65432 7.29961 6.65465 7.32361 6.65465H7.82695H8.26261L8.31895 6.77498V6.83398L7.96928 6.99998H7.72761H7.37261H6.97995C6.92595 6.99998 6.80495 7.01765 6.76461 7.04732C6.68028 7.08598 6.61595 7.16132 6.58995 7.25498C6.58261 7.26632 6.56695 7.36498 6.56495 7.37898L6.45195 8.28265L6.44295 8.35398L6.34061 9.17198C6.33661 9.20432 6.29095 9.43165 6.26361 9.44432C6.23928 9.52698 6.21961 9.54132 6.17695 9.53265C6.14061 9.52532 6.09328 9.50298 6.02361 9.48565C5.98928 9.46565 5.97828 9.36298 5.99461 9.21765C6.01061 9.06265 6.07795 8.54632 6.11128 8.31398C6.16995 7.91398 6.26895 7.22998 6.26895 7.22998Z" fill="#9AA2AA"/>
<path d="M6.31334 7.23238C6.37334 6.75905 6.78834 6.69238 7.26001 6.69438C7.28668 6.69438 7.33434 6.69471 7.36101 6.69471H7.85334H8.28134L8.31901 6.83005V6.88938L7.92568 7.00005H7.69001H7.34268H6.95668C6.89601 7.00005 6.79234 7.01971 6.74701 7.05338C6.66701 7.09671 6.60734 7.17405 6.58568 7.26771C6.58068 7.27505 6.56534 7.38038 6.56401 7.38971L6.45301 8.27638L6.44401 8.34705L6.34401 9.14705C6.34134 9.16871 6.29934 9.41238 6.28134 9.42071C6.26068 9.51038 6.24634 9.52571 6.20634 9.51671C6.17334 9.50938 6.12701 9.48705 6.05434 9.47238C6.02701 9.45838 6.02134 9.35738 6.03768 9.20905C6.05601 9.03471 6.11501 8.58405 6.15268 8.32271C6.21801 7.87205 6.31334 7.23238 6.31334 7.23238Z" fill="#949AA2"/>
<path d="M6.35733 7.23481C6.417 6.76448 6.83067 6.73215 7.29867 6.73448C7.32833 6.73448 7.36833 6.73481 7.39833 6.73481H7.88H8.30033L8.31933 6.88515V6.94448L7.882 6.99981H7.652H7.31233H6.93267C6.865 6.99981 6.779 7.02181 6.72867 7.05915C6.653 7.10748 6.598 7.18648 6.58033 7.28048C6.578 7.28415 6.56267 7.39581 6.562 7.40048L6.45333 8.27015L6.44467 8.34015L6.347 9.12181C6.34567 9.13248 6.30733 9.39248 6.29833 9.39681C6.28133 9.49381 6.27233 9.50948 6.235 9.50048C6.20533 9.49315 6.16033 9.47115 6.08433 9.45848C6.064 9.45081 6.06367 9.35115 6.08 9.19948C6.10033 9.00581 6.15133 8.62081 6.19333 8.33048C6.266 7.82948 6.35733 7.23481 6.35733 7.23481Z" fill="#8D9399"/>
<path d="M8.3193 7.00038H7.6143H6.9093C6.7393 7.00038 6.5993 7.12704 6.57596 7.29371L6.44596 8.33371L6.31596 9.37371C6.29263 9.55704 6.2983 9.46871 6.11496 9.44538C6.0833 9.44204 6.15496 8.89004 6.23463 8.33904C6.3143 7.78804 6.40163 7.23771 6.40163 7.23771C6.46496 6.73771 6.93263 6.77504 7.43596 6.77504H8.3193V7.00038Z" fill="#868B90"/>
<path d="M8.00004 15.0003C10.0251 15.0003 11.6667 13.3587 11.6667 11.3337C11.6667 9.30861 10.0251 7.66699 8.00004 7.66699C5.975 7.66699 4.33337 9.30861 4.33337 11.3337C4.33337 13.3587 5.975 15.0003 8.00004 15.0003Z" fill="url(#paint0_linear_172_3053)"/>
<path d="M7.99995 14.3627C9.67282 14.3627 11.0289 13.0066 11.0289 11.3337C11.0289 9.66082 9.67282 8.30469 7.99995 8.30469C6.32708 8.30469 4.97095 9.66082 4.97095 11.3337C4.97095 13.0066 6.32708 14.3627 7.99995 14.3627Z" fill="url(#paint1_linear_172_3053)"/>
<path d="M8.00004 14.043C9.49673 14.043 10.71 12.8297 10.71 11.333C10.71 9.83635 9.49673 8.62305 8.00004 8.62305C6.50335 8.62305 5.29004 9.83635 5.29004 11.333C5.29004 12.8297 6.50335 14.043 8.00004 14.043Z" fill="url(#paint2_linear_172_3053)"/>
<path d="M8.00004 15.0003C10.0251 15.0003 11.6667 13.3587 11.6667 11.3337C11.6667 9.30861 10.0251 7.66699 8.00004 7.66699C5.975 7.66699 4.33337 9.30861 4.33337 11.3337C4.33337 13.3587 5.975 15.0003 8.00004 15.0003Z" fill="url(#paint3_radial_172_3053)"/>
<path d="M7.99995 14.3627C9.67282 14.3627 11.0289 13.0066 11.0289 11.3337C11.0289 9.66082 9.67282 8.30469 7.99995 8.30469C6.32708 8.30469 4.97095 9.66082 4.97095 11.3337C4.97095 13.0066 6.32708 14.3627 7.99995 14.3627Z" fill="url(#paint4_radial_172_3053)"/>
<path d="M7.99995 14.3627C9.67282 14.3627 11.0289 13.0066 11.0289 11.3337C11.0289 9.66082 9.67282 8.30469 7.99995 8.30469C6.32708 8.30469 4.97095 9.66082 4.97095 11.3337C4.97095 13.0066 6.32708 14.3627 7.99995 14.3627Z" fill="url(#paint5_radial_172_3053)"/>
<path d="M4.20337 1L7.35004 5.40333C7.47004 5.57333 7.5367 5.77667 7.5367 5.98333V6.66667H8.5497V5.98333C8.5497 5.77667 8.48304 5.57333 8.36304 5.40333L5.21637 1H4.20337Z" fill="url(#paint6_linear_172_3053)"/>
<path d="M3.33337 1L6.48004 5.40333C6.60004 5.57333 6.66671 5.77667 6.66671 5.98333V6.66667H7.56671V5.98333C7.56671 5.77667 7.50004 5.57333 7.38004 5.40333L4.23337 1H3.33337Z" fill="url(#paint7_linear_172_3053)"/>
<path d="M5.16333 1L8.31 5.40333C8.43 5.57333 8.49666 5.77667 8.49666 5.98333V6.66667H9.33333V5.97333C9.33333 5.76333 9.26666 5.56 9.14666 5.39L6 1H5.16333Z" fill="url(#paint8_linear_172_3053)"/>
<path d="M11.7967 1L8.64998 5.40333C8.52998 5.57333 8.46332 5.77667 8.46332 5.98333V6.66667H7.45032V5.98333C7.45032 5.77667 7.51698 5.57333 7.63698 5.40333L10.7837 1H11.7967Z" fill="url(#paint9_linear_172_3053)"/>
<path d="M12.6667 1L11.7133 2.33333L10.5233 4L10.0467 4.66667L9.52002 5.40333C9.40002 5.57333 9.33335 5.77667 9.33335 5.98333V6.66667H8.43335V5.98333C8.43335 5.77667 8.50002 5.57333 8.62002 5.40333L9.14668 4.66667L9.62335 4L10.8133 2.33333L11.7667 1H12.6667Z" fill="url(#paint10_linear_172_3053)"/>
<path d="M10.8366 1L9.88329 2.33333L8.69329 4L8.21663 4.66667L7.68996 5.40333C7.56996 5.57333 7.50329 5.77667 7.50329 5.98333V6.66667H6.66663V5.97333C6.66663 5.76333 6.73329 5.56 6.85329 5.39L7.37329 4.66667L7.84996 4L9.04329 2.33333L9.52329 1.66667L9.99996 1H10.8366Z" fill="url(#paint11_linear_172_3053)"/>
<path d="M7.56663 6V7.33333H6.99996C6.81663 7.33333 6.66663 7.18333 6.66663 7V6.33333C6.66663 6.15 6.81663 6 6.99996 6H7.56663Z" fill="url(#paint12_linear_172_3053)"/>
<path d="M8.4633 6H7.5033V7.33333H8.4633V6Z" fill="url(#paint13_linear_172_3053)"/>
<path d="M9.33335 6.33333V7C9.33335 7.18333 9.18335 7.33333 9.00002 7.33333H8.43335V6H9.00002C9.18335 6 9.33335 6.15 9.33335 6.33333Z" fill="url(#paint14_linear_172_3053)"/>
<path opacity="0.6" d="M12.19 1.66699L11.7133 2.33366L10.5233 4.00033L10.0466 4.66699H7.37329L7.84996 4.00033L9.04329 2.33366L9.52329 1.66699H12.19Z" fill="url(#paint15_linear_172_3053)"/>
<path d="M8.0877 12.3233L8.43337 11.924C8.69837 11.6593 8.8937 11.444 9.0137 11.2846C9.13703 11.121 9.22937 10.962 9.28837 10.812C9.3487 10.6583 9.37903 10.498 9.37903 10.3353C9.37903 9.94929 9.2547 9.64729 9.00937 9.43729C8.76803 9.23129 8.42503 9.12695 7.98937 9.12695C7.7167 9.12695 7.4657 9.18762 7.24337 9.30695C7.01937 9.42762 6.84203 9.59695 6.71603 9.81062C6.59003 10.0243 6.52637 10.2603 6.52637 10.5116V10.6116H7.61437V10.5116C7.61437 10.3603 7.64903 10.2393 7.72103 10.1413C7.78637 10.0516 7.86537 10.01 7.9687 10.01C8.0747 10.01 8.15203 10.0403 8.20437 10.103C8.26037 10.17 8.28903 10.275 8.28903 10.4146C8.28903 10.5363 8.21437 10.766 7.86203 11.168L6.60537 12.489V13.207H9.47337V12.3243H8.0877V12.3233Z" fill="url(#paint16_linear_172_3053)"/>
<defs>
<linearGradient id="paint0_linear_172_3053" x1="4.02771" y1="6.06899" x2="10.772" y2="15.0073" gradientUnits="userSpaceOnUse">
<stop stop-color="#F6FCFE"/>
<stop offset="0.352" stop-color="#D1DFF5"/>
<stop offset="0.434" stop-color="#CDDBF0"/>
<stop offset="0.535" stop-color="#C3CFE0"/>
<stop offset="0.648" stop-color="#B2BBC7"/>
<stop offset="0.663" stop-color="#AFB8C3"/>
<stop offset="1" stop-color="#717476"/>
</linearGradient>
<linearGradient id="paint1_linear_172_3053" x1="4.71861" y1="6.98469" x2="10.6166" y2="14.8017" gradientUnits="userSpaceOnUse">
<stop offset="0.104" stop-color="#717476"/>
<stop offset="0.385" stop-color="#AFB8C3"/>
<stop offset="0.401" stop-color="#B2BBC7"/>
<stop offset="0.516" stop-color="#C3CFE0"/>
<stop offset="0.622" stop-color="#CDDBF0"/>
<stop offset="0.706" stop-color="#D1DFF5"/>
<stop offset="1" stop-color="#F6FCFE"/>
</linearGradient>
<linearGradient id="paint2_linear_172_3053" x1="6.22471" y1="9.33438" x2="10.243" y2="13.8584" gradientUnits="userSpaceOnUse">
<stop stop-color="#F6FCFE"/>
<stop offset="0.5" stop-color="#D1DFF5"/>
<stop offset="0.593" stop-color="#CDDBF0"/>
<stop offset="0.709" stop-color="#C2CEE0"/>
<stop offset="0.837" stop-color="#AFB9C7"/>
<stop offset="0.974" stop-color="#959CA4"/>
<stop offset="0.989" stop-color="#92989F"/>
</linearGradient>
<radialGradient id="paint3_radial_172_3053" cx="0" cy="0" r="1" gradientUnits="userSpaceOnUse" gradientTransform="translate(8.40371 11.7847) scale(5.08667)">
<stop stop-color="#FFFBE9" stop-opacity="0"/>
<stop offset="0.756" stop-color="#FFFBE9" stop-opacity="0"/>
<stop offset="0.843" stop-color="white"/>
<stop offset="0.94" stop-color="white" stop-opacity="0"/>
</radialGradient>
<radialGradient id="paint4_radial_172_3053" cx="0" cy="0" r="1" gradientUnits="userSpaceOnUse" gradientTransform="translate(8.13461 10.7204) scale(4.561)">
<stop stop-color="#FFFBE9" stop-opacity="0"/>
<stop offset="0.756" stop-color="#FFFBE9" stop-opacity="0"/>
<stop offset="0.843" stop-color="white"/>
<stop offset="0.94" stop-color="white" stop-opacity="0"/>
</radialGradient>
<radialGradient id="paint5_radial_172_3053" cx="0" cy="0" r="1" gradientUnits="userSpaceOnUse" gradientTransform="translate(8.13461 10.7204) scale(4.561)">
<stop stop-color="#FFFBE9" stop-opacity="0"/>
<stop offset="0.756" stop-color="#FFFBE9" stop-opacity="0"/>
<stop offset="0.843" stop-color="white"/>
<stop offset="0.94" stop-color="white" stop-opacity="0"/>
</radialGradient>
<linearGradient id="paint6_linear_172_3053" x1="4.67537" y1="1.359" x2="7.40937" y2="5.263" gradientUnits="userSpaceOnUse">
<stop stop-color="#F9EAE7"/>
<stop offset="0.616" stop-color="#F0D7D5"/>
<stop offset="0.69" stop-color="#E0C5C3"/>
<stop offset="0.896" stop-color="#B89896"/>
<stop offset="1" stop-color="#A88685"/>
</linearGradient>
<linearGradient id="paint7_linear_172_3053" x1="3.60904" y1="1.29267" x2="6.74404" y2="5.619" gradientUnits="userSpaceOnUse">
<stop offset="0.614" stop-color="#FE4532"/>
<stop offset="0.751" stop-color="#E23A2A"/>
<stop offset="0.907" stop-color="#C83122"/>
<stop offset="1" stop-color="#BF2D1F"/>
</linearGradient>
<linearGradient id="paint8_linear_172_3053" x1="5.34433" y1="1.229" x2="7.78933" y2="4.57367" gradientUnits="userSpaceOnUse">
<stop stop-color="#1D67BB"/>
<stop offset="0.638" stop-color="#0353AE"/>
<stop offset="0.746" stop-color="#024898"/>
<stop offset="0.906" stop-color="#013B7D"/>
<stop offset="1" stop-color="#013673"/>
</linearGradient>
<linearGradient id="paint9_linear_172_3053" x1="9.62332" y1="1.452" x2="9.62332" y2="7.085" gradientUnits="userSpaceOnUse">
<stop stop-color="#FFF8F5"/>
<stop offset="0.278" stop-color="#FFF2EF"/>
<stop offset="0.427" stop-color="#FFF8F5"/>
<stop offset="0.508" stop-color="#FBEEEC"/>
<stop offset="0.63" stop-color="#F0D7D5"/>
<stop offset="1" stop-color="#B59997"/>
</linearGradient>
<linearGradient id="paint10_linear_172_3053" x1="10.55" y1="0.851" x2="10.55" y2="6.44067" gradientUnits="userSpaceOnUse">
<stop stop-color="#FF6C47"/>
<stop offset="0.2" stop-color="#FF6744"/>
<stop offset="0.445" stop-color="#FE583C"/>
<stop offset="0.657" stop-color="#FE4532"/>
<stop offset="1" stop-color="#D43829"/>
</linearGradient>
<linearGradient id="paint11_linear_172_3053" x1="8.75163" y1="1" x2="8.75163" y2="6.66667" gradientUnits="userSpaceOnUse">
<stop stop-color="#4686CF"/>
<stop offset="0.77" stop-color="#0353AE"/>
<stop offset="1" stop-color="#013673"/>
</linearGradient>
<linearGradient id="paint12_linear_172_3053" x1="7.11663" y1="6" x2="7.11663" y2="7.33333" gradientUnits="userSpaceOnUse">
<stop stop-color="#4686CF"/>
<stop offset="0.77" stop-color="#0353AE"/>
<stop offset="1" stop-color="#013673"/>
</linearGradient>
<linearGradient id="paint13_linear_172_3053" x1="7.9833" y1="6.10633" x2="7.9833" y2="7.43167" gradientUnits="userSpaceOnUse">
<stop stop-color="#FFF8F5"/>
<stop offset="0.274" stop-color="#FBEEEC"/>
<stop offset="0.689" stop-color="#F0D7D5"/>
<stop offset="1" stop-color="#B59997"/>
</linearGradient>
<linearGradient id="paint14_linear_172_3053" x1="8.88335" y1="5.965" x2="8.88335" y2="7.28" gradientUnits="userSpaceOnUse">
<stop stop-color="#FF6C47"/>
<stop offset="0.2" stop-color="#FF6744"/>
<stop offset="0.445" stop-color="#FE583C"/>
<stop offset="0.657" stop-color="#FE4532"/>
<stop offset="1" stop-color="#D43829"/>
</linearGradient>
<linearGradient id="paint15_linear_172_3053" x1="9.78162" y1="1.93499" x2="9.78162" y2="4.47333" gradientUnits="userSpaceOnUse">
<stop stop-color="#FFF8F5" stop-opacity="0"/>
<stop offset="0.54" stop-color="#FFF8F5" stop-opacity="0.6"/>
<stop offset="1" stop-color="#FFF8F5" stop-opacity="0"/>
</linearGradient>
<linearGradient id="paint16_linear_172_3053" x1="3.3877" y1="5.53295" x2="10.707" y2="15.09" gradientUnits="userSpaceOnUse">
<stop stop-color="#F6FCFE"/>
<stop offset="0.524" stop-color="#AFB8C3"/>
<stop offset="0.631" stop-color="#A6AEB8"/>
<stop offset="0.842" stop-color="#999FA7"/>
<stop offset="1" stop-color="#949AA1"/>
</linearGradient>
</defs>
</svg>
