<svg width="7" height="17" viewBox="0 0 7 17" fill="none" xmlns="http://www.w3.org/2000/svg">
<path d="M3.50003 3.64215C4.22964 3.64215 4.8211 3.05068 4.8211 2.32107C4.8211 1.59146 4.22964 1 3.50003 1C2.77042 1 2.17896 1.59146 2.17896 2.32107C2.17896 3.05068 2.77042 3.64215 3.50003 3.64215Z" stroke="#061428" stroke-miterlimit="10"/>
<path d="M4.94751 16.0173L5.0734 10.8472C5.55843 10.6724 6.04751 10.2663 5.9963 9.75675L5.69052 5.82233C5.6393 5.31213 5.17754 4.89453 4.66477 4.89453H2.33545C1.82268 4.89453 1.36091 5.31213 1.3097 5.82233L1.0037 9.75675C0.95249 10.267 1.44136 10.6724 1.92702 10.8472L2.05228 16.0173" stroke="#061428" stroke-miterlimit="10" stroke-linecap="round" stroke-linejoin="round"/>
</svg>
